<?xml version="1.0" standalone="no"?>
<!DOCTYPE svg PUBLIC "-//W3C//DTD SVG 20010904//EN"
 "http://www.w3.org/TR/2001/REC-SVG-20010904/DTD/svg10.dtd">
<svg version="1.0" xmlns="http://www.w3.org/2000/svg"
 width="736.000000pt" height="920.000000pt" viewBox="0 0 736.000000 920.000000"
 preserveAspectRatio="xMidYMid meet">

<g transform="translate(0.000000,920.000000) scale(0.100000,-0.100000)"
fill="#000000" stroke="none">
<path d="M1800 8696 c-105 -22 -205 -99 -257 -198 -27 -51 -28 -59 -28 -194 0
-130 -1 -140 -17 -136 -10 2 -25 -2 -34 -9 -21 -18 -13 -125 16 -202 20 -53
81 -127 106 -127 14 0 26 -264 13 -291 -4 -8 -32 -28 -61 -44 -29 -15 -118
-70 -198 -120 -185 -118 -179 -115 -243 -115 -117 0 -213 -56 -282 -165 -74
-115 -97 -241 -76 -408 l12 -95 -30 -71 c-42 -99 -53 -172 -50 -335 2 -141 2
-141 -30 -211 -49 -104 -98 -234 -128 -338 -26 -90 -26 -99 -28 -417 -2 -204
-7 -349 -14 -390 -7 -37 -10 -83 -5 -110 10 -64 5 -344 -7 -413 -7 -43 -7 -62
1 -72 20 -24 238 -135 265 -135 18 0 34 13 60 48 19 26 35 52 35 57 0 6 9 27
20 48 26 48 25 61 -5 141 -20 53 -25 85 -25 155 0 87 -1 91 -35 135 -42 56
-43 73 -11 209 46 190 76 262 180 428 26 43 52 94 57 115 5 22 13 128 19 238
9 191 11 203 49 320 22 66 43 145 47 174 3 28 10 52 15 52 5 0 23 -28 40 -62
18 -35 51 -91 74 -125 40 -58 43 -68 50 -151 4 -55 3 -103 -4 -129 -6 -22 -17
-104 -25 -182 -10 -94 -20 -148 -29 -159 -8 -10 -20 -59 -27 -112 -19 -150
-58 -361 -96 -519 -97 -405 -125 -607 -125 -896 0 -182 2 -216 33 -385 37
-208 38 -237 16 -475 l-15 -170 -58 -140 c-86 -208 -105 -296 -105 -474 0 -80
7 -222 15 -316 49 -586 50 -622 30 -694 -10 -36 -21 -95 -24 -131 -6 -60 -10
-70 -62 -135 -31 -38 -66 -89 -79 -111 -13 -24 -39 -51 -61 -63 -37 -21 -51
-41 -28 -41 5 0 7 -5 3 -11 -5 -8 -8 -8 -13 0 -5 8 -21 1 -50 -19 -52 -38 -54
-74 -5 -102 35 -20 197 -52 225 -45 10 3 27 -2 39 -10 82 -58 224 -11 248 82
7 26 14 31 48 36 54 7 79 23 94 59 11 27 10 41 -9 105 -23 80 -29 144 -16 166
5 7 9 106 10 219 1 172 4 221 23 308 31 144 65 245 134 406 33 77 67 167 76
200 19 71 21 226 8 478 l-9 167 51 103 c44 87 53 117 62 192 6 49 17 116 25
150 21 92 45 238 59 361 10 84 24 141 60 240 81 222 112 381 119 605 l2 85 46
3 46 3 6 -153 c9 -228 42 -389 126 -612 17 -44 33 -110 36 -150 4 -39 20 -152
36 -251 17 -99 36 -228 43 -287 13 -106 21 -128 81 -231 38 -67 42 -139 16
-320 -12 -81 -21 -194 -21 -251 0 -116 11 -157 85 -326 61 -137 99 -244 132
-371 24 -96 27 -123 30 -334 1 -126 5 -248 9 -270 4 -26 -2 -70 -15 -122 -27
-105 -17 -141 48 -166 23 -10 48 -17 55 -17 8 0 16 -11 20 -23 8 -34 43 -75
79 -94 43 -22 124 -21 167 1 19 10 52 20 75 21 64 3 154 23 193 42 29 14 38
25 40 49 3 26 -2 35 -30 53 -62 39 -138 107 -170 152 -17 24 -51 70 -74 102
-34 46 -44 68 -49 115 -4 31 -13 77 -21 101 -18 58 -18 191 1 428 33 403 45
571 45 648 0 146 -34 291 -119 503 -38 94 -41 110 -41 195 0 50 -7 135 -15
187 -16 104 -17 96 27 320 41 216 51 367 38 575 -15 238 -37 376 -103 655 -49
204 -62 276 -108 595 -6 44 -19 98 -29 120 -10 22 -21 76 -25 120 -4 44 -15
127 -24 185 -24 139 -11 247 38 315 18 25 49 81 70 126 21 45 41 77 44 73 2
-5 10 -36 17 -68 7 -33 30 -114 52 -180 36 -110 40 -134 48 -276 16 -285 19
-300 103 -434 49 -79 77 -137 102 -211 26 -77 56 -207 62 -269 5 -58 4 -64
-28 -110 -30 -42 -35 -57 -39 -127 -3 -43 -2 -79 2 -79 7 0 12 23 23 111 4 33
16 58 42 88 36 42 36 43 30 114 -6 76 -53 268 -88 363 -12 30 -41 85 -66 122
-56 83 -78 127 -88 171 -10 47 -32 391 -24 391 22 0 170 -238 194 -310 5 -18
10 3 16 77 7 91 40 256 59 292 5 10 11 3 20 -23 7 -21 16 -33 22 -30 7 5 9 -1
5 -16 -3 -12 1 -66 9 -119 8 -53 19 -134 25 -181 5 -47 11 -96 13 -110 1 -14
4 -54 6 -90 3 -63 3 -64 9 -20 7 44 7 44 12 -25 3 -38 2 -75 -2 -80 -9 -13
-10 -28 -6 -362 3 -233 10 -306 24 -265 9 24 18 11 21 -31 1 -23 11 -97 22
-165 11 -67 20 -127 20 -132 0 -17 -17 -11 -23 8 -2 11 -14 22 -26 25 -18 4
-20 3 -10 -9 6 -8 10 -16 8 -18 -58 -46 -141 -106 -149 -106 -28 0 4 76 46
109 19 15 24 26 19 41 -4 13 -2 20 6 20 7 0 -1 15 -19 33 -31 32 -43 55 -22
42 6 -3 10 1 10 9 0 9 5 16 10 16 6 0 10 7 10 15 0 8 -7 15 -16 15 -12 0 -14
5 -9 18 14 33 18 68 7 57 -23 -22 -91 -157 -95 -191 -7 -48 -28 -68 -61 -60
-32 8 -33 24 -6 101 28 83 24 101 -7 30 -32 -72 -33 -116 -6 -153 11 -15 23
-38 26 -52 10 -41 65 -100 93 -100 32 0 251 116 263 138 5 10 5 56 1 107 -8
80 -10 192 -9 420 0 39 -4 232 -9 430 -9 358 -9 361 -40 475 -29 109 -72 223
-121 318 -20 39 -22 60 -24 225 -2 180 -3 183 -36 272 -37 98 -38 109 -26 265
9 123 -5 193 -60 305 -69 141 -139 191 -287 204 -83 8 -83 8 -213 93 -71 47
-155 98 -185 113 -30 15 -68 37 -84 48 l-29 20 5 146 c5 126 8 147 23 156 87
50 128 131 129 250 l1 80 -33 3 c-27 3 -31 7 -28 25 53 259 -61 453 -293 503
-78 16 -98 16 -171 0z m252 -59 c79 -36 126 -83 162 -162 23 -48 31 -160 18
-235 -9 -51 -10 -46 -11 62 -1 119 -20 198 -56 234 -23 24 -35 16 -19 -13 27
-52 13 -332 -26 -528 -5 -27 -17 -88 -26 -135 -28 -147 -40 -175 -107 -235
-70 -63 -112 -77 -155 -49 -54 35 -165 150 -183 189 -9 22 -29 92 -44 155 -92
401 -87 535 23 645 118 119 268 144 424 72z m165 -504 c-3 -10 -5 -2 -5 17 0
19 2 27 5 18 2 -10 2 -26 0 -35z m-705 5 c21 -18 52 -68 41 -68 -5 0 -17 10
-28 23 -18 20 -20 20 -23 4 -2 -10 8 -29 24 -44 25 -23 26 -27 12 -37 -18 -13
-12 -29 15 -39 9 -3 17 -13 17 -21 0 -10 -6 -13 -15 -10 -8 4 -15 1 -15 -5 0
-6 11 -16 25 -21 18 -7 25 -17 25 -35 0 -32 -10 -32 -43 3 -35 36 -54 86 -68
171 -13 87 -4 108 33 79z m695 -60 c-3 -8 -6 -5 -6 6 -1 11 2 17 5 13 3 -3 4
-12 1 -19z m-30 -130 c-3 -8 -6 -5 -6 6 -1 11 2 17 5 13 3 -3 4 -12 1 -19z
m-503 -266 c14 -21 26 -44 26 -51 0 -7 6 -11 13 -8 15 5 114 -84 146 -132 13
-20 35 -48 48 -62 l24 -26 -21 -52 c-11 -28 -20 -55 -20 -60 0 -13 29 -9 34 6
3 7 10 13 16 13 13 0 4 -59 -16 -108 -20 -48 -41 -38 -71 33 -14 33 -42 103
-64 155 -48 118 -49 101 -3 -60 19 -69 38 -135 41 -147 3 -12 18 -27 34 -33
24 -10 32 -9 55 7 17 12 28 31 29 49 3 34 51 160 73 189 13 18 14 12 8 -58 -6
-77 -24 -130 -48 -141 -7 -3 0 -4 16 0 37 7 218 22 346 29 l95 5 -52 -18 c-65
-22 -70 -27 -41 -43 12 -6 36 -23 51 -35 38 -32 48 -30 34 6 -6 17 -17 30 -24
30 -28 0 -11 27 30 45 59 27 231 28 300 2 26 -10 45 -22 42 -26 -2 -5 7 -18
20 -31 13 -13 22 -28 18 -33 -4 -6 0 -8 10 -4 11 4 17 1 17 -9 0 -8 -4 -13 -8
-10 -10 6 -7 -67 3 -83 12 -21 18 -248 6 -256 -29 -17 -76 11 -176 106 -92 87
-125 112 -125 94 0 -3 9 -15 20 -27 17 -19 20 -34 19 -107 -2 -68 -3 -78 -9
-46 -4 23 -8 30 -9 17 0 -13 -8 -55 -17 -93 -14 -62 -20 -73 -55 -98 -21 -16
-59 -32 -83 -35 -33 -5 -51 -15 -65 -34 -19 -26 -22 -27 -113 -25 -169 3 -321
52 -333 106 -2 12 -6 31 -8 42 -4 22 -11 11 -21 -36 -13 -59 -204 -119 -378
-119 -65 0 -68 1 -68 23 0 30 -42 52 -71 37 -22 -12 -24 -30 -6 -50 6 -8 -3
-2 -20 14 -18 16 -36 26 -40 23 -3 -4 2 -14 13 -23 18 -14 18 -15 -3 -4 -13 6
-23 15 -23 20 0 6 -3 9 -7 8 -14 -5 -75 56 -101 101 -46 78 -46 193 -1 254 11
16 18 31 15 35 -13 12 -90 -77 -153 -178 -36 -58 -78 -119 -92 -135 -14 -17
-34 -42 -43 -55 -13 -19 -19 -22 -26 -12 -6 9 -11 -6 -16 -45 -4 -32 -12 -93
-20 -136 -7 -43 -10 -74 -6 -70 4 5 12 40 19 78 23 136 27 143 114 228 91 88
117 106 117 83 0 -8 -4 -17 -10 -21 -6 -4 -6 -15 0 -31 23 -59 9 -191 -43
-409 -27 -112 -49 -210 -55 -240 -3 -16 -16 -50 -30 -75 -13 -25 -33 -62 -44
-82 -10 -21 -22 -38 -27 -38 -5 0 -11 -13 -14 -30 -11 -51 -24 -34 -37 48 -15
90 -29 125 -30 73 0 -19 5 -62 11 -97 6 -34 9 -72 7 -85 -4 -26 -7 -19 -55
151 l-23 85 6 -60 c3 -33 12 -89 20 -124 8 -35 18 -104 22 -155 l8 -91 28 55
c32 62 80 134 112 168 l21 23 -4 -103 c-6 -157 -20 -211 -77 -303 -109 -173
-131 -235 -157 -422 -10 -75 -10 -104 1 -163 8 -42 20 -76 30 -83 21 -16 39
-44 20 -32 -10 6 -11 4 -6 -11 5 -10 13 -53 19 -94 8 -62 40 -173 71 -250 8
-19 -8 -45 -23 -36 -8 5 -8 13 0 27 9 18 8 20 -7 17 -10 -2 -21 -14 -24 -27
-5 -22 -6 -22 -21 -4 -9 10 -26 45 -39 78 -34 86 -90 171 -90 136 0 -5 5 -13
10 -16 18 -11 11 -35 -10 -35 -11 0 -20 -7 -20 -15 0 -8 7 -15 15 -15 13 0 14
-4 5 -21 -8 -15 -8 -24 0 -34 6 -7 7 -15 2 -17 -5 -1 -12 -19 -15 -38 -6 -32
-4 -36 26 -50 17 -8 42 -30 54 -49 l23 -34 0 35 c0 20 -7 41 -15 48 -19 16
-20 50 -1 50 15 0 76 -71 76 -88 0 -5 -9 -21 -21 -36 -27 -35 -59 -33 -133 7
-34 19 -80 39 -102 46 l-42 13 5 107 c3 58 8 156 12 218 3 62 2 127 -2 145 -6
21 -4 59 3 103 8 40 16 215 20 405 6 294 9 344 27 410 30 109 90 265 128 337
l34 62 -2 163 c-2 171 7 236 46 313 25 51 24 50 43 34 16 -13 17 -12 10 11
-28 91 -36 148 -37 240 -2 118 13 181 60 263 63 110 145 162 272 173 77 7 120
24 198 78 77 53 298 186 310 186 6 0 11 -15 12 -32 l1 -33 9 30 c5 16 6 81 4
142 -3 62 -1 113 4 113 4 0 20 -17 35 -38z m1203 -548 c36 -36 81 -126 97
-194 27 -111 14 -328 -21 -375 -15 -19 -15 -19 -9 5 18 73 36 228 30 269 -18
133 -60 238 -123 306 -36 39 -16 31 26 -11z m-310 -416 c-3 -8 -6 -5 -6 6 -1
11 2 17 5 13 3 -3 4 -12 1 -19z m192 -66 c34 -36 45 -54 69 -112 8 -22 35
-160 72 -371 6 -30 10 -89 10 -131 0 -62 -4 -80 -22 -104 -12 -16 -26 -32 -31
-35 -5 -3 -8 -10 -7 -15 0 -5 -8 -10 -20 -12 -11 -2 -20 2 -20 10 0 11 -2 11
-9 0 -10 -17 -52 43 -79 113 -40 103 -82 352 -82 486 0 57 5 77 37 138 20 39
38 71 41 71 2 0 21 -17 41 -38z m-1375 -88 c23 -9 20 -24 -4 -24 -11 0 -20 7
-20 15 0 17 2 18 24 9z m567 -14 c24 -11 38 -20 31 -20 -16 0 -82 27 -82 34 0
9 4 8 51 -14z m907 -25 c-3 -3 -9 2 -12 12 -6 14 -5 15 5 6 7 -7 10 -15 7 -18z
m182 -126 c13 -65 13 -327 1 -313 -5 5 -11 81 -14 169 -3 100 -11 181 -21 215
-9 30 -15 57 -15 60 2 16 41 -87 49 -131z m-1815 101 c10 -12 24 -19 31 -16 7
3 34 -2 61 -10 70 -21 217 -29 298 -15 39 6 113 24 165 38 l95 27 125 -32
c154 -39 162 -40 283 -48 53 -4 97 -11 97 -16 0 -5 -11 -20 -25 -33 -18 -16
-22 -26 -14 -30 7 -5 7 -10 1 -14 -17 -11 -42 -70 -33 -76 5 -3 12 3 14 12 4
14 5 13 6 -4 1 -14 -15 -37 -45 -65 -25 -24 -49 -44 -54 -46 -4 -2 -16 12 -27
30 -35 59 -85 109 -136 134 -56 29 -177 57 -202 48 -26 -10 3 -24 36 -17 16 3
59 -4 96 -15 86 -27 124 -64 148 -147 15 -53 16 -68 4 -129 -12 -66 -12 -69
10 -85 21 -16 23 -24 19 -84 -1 -37 0 -67 4 -67 11 0 -7 -41 -36 -85 -14 -21
-24 -40 -21 -43 9 -9 74 60 112 118 20 30 46 65 58 77 13 12 25 28 28 35 2 7
7 10 11 7 10 -9 -5 -69 -16 -63 -6 4 -8 -2 -3 -15 3 -11 2 -21 -3 -21 -5 0 -9
-6 -9 -12 0 -7 -3 -24 -7 -36 -7 -22 -6 -23 16 -17 12 4 25 12 29 16 3 5 13
-14 23 -41 14 -39 17 -66 12 -118 -3 -37 -6 -75 -7 -86 0 -26 -73 -179 -104
-220 -49 -65 -83 -57 -59 13 8 24 14 65 12 90 -3 45 -3 44 -25 -43 -13 -49
-27 -94 -32 -99 -38 -38 -515 -47 -574 -10 -7 4 -22 6 -35 4 -13 -1 -41 7 -63
18 -22 12 -47 21 -57 21 -29 0 -139 57 -146 75 -7 19 5 136 30 310 24 157 10
254 -47 341 -22 35 -38 68 -34 74 3 5 -3 23 -15 39 -38 54 -49 98 -55 209 -4
92 -2 113 11 126 20 21 27 20 49 -4z m438 3 c-7 -2 -21 -2 -30 0 -10 3 -4 5
12 5 17 0 24 -2 18 -5z m760 -60 c-7 -2 -19 -2 -25 0 -7 3 -2 5 12 5 14 0 19
-2 13 -5z m-69 -277 c-3 -8 -1 -17 5 -20 6 -4 4 -18 -6 -37 -8 -17 -13 -41
-10 -55 3 -19 -6 -33 -46 -69 -32 -28 -53 -41 -57 -34 -4 6 -9 10 -11 9 -2 -1
-11 2 -21 5 -14 5 -9 16 28 73 72 111 105 153 114 147 5 -3 7 -12 4 -19z
m-1297 -73 c-3 -10 -5 -4 -5 12 0 17 2 24 5 18 2 -7 2 -21 0 -30z m-10 -45
c-3 -8 -6 -5 -6 6 -1 11 2 17 5 13 3 -3 4 -12 1 -19z m2076 -165 c25 -59 60
-162 78 -228 l31 -120 2 -310 c2 -196 7 -340 15 -392 8 -49 10 -94 5 -110 -13
-45 -22 74 -33 452 -12 409 -22 471 -124 720 -33 80 -41 109 -30 102 6 -4 30
-55 56 -114z m-689 -173 c3 -14 13 -88 21 -164 12 -112 13 -141 3 -148 -15 -9
-26 50 -27 143 -1 31 -4 59 -7 62 -4 3 -8 21 -9 39 -1 18 -6 70 -10 115 -4 45
-4 103 1 130 8 45 9 42 15 -52 3 -55 9 -111 13 -125z m532 25 c-9 -49 -14 -60
-15 -37 -1 36 20 133 26 117 2 -6 -3 -42 -11 -80z m-2048 48 c-12 -28 -113
-162 -116 -154 -5 15 33 82 70 123 29 34 55 50 46 31z m2013 -95 c10 -21 19
-47 19 -59 0 -15 -17 5 -50 60 -27 45 -50 85 -50 89 0 14 63 -56 81 -90z m192
27 c-3 -9 -8 -14 -10 -11 -3 3 -2 9 2 15 9 16 15 13 8 -4z m-1758 -380 c162
-72 261 -90 505 -89 181 1 219 4 325 27 66 14 128 29 138 32 9 4 17 5 17 2 0
-3 -38 -18 -84 -33 -59 -19 -82 -31 -79 -41 3 -7 -2 -13 -10 -13 -9 0 -28 -27
-46 -65 -36 -77 -38 -90 -11 -73 11 7 20 18 20 25 0 7 6 12 13 10 7 -1 11 7
10 21 -2 13 1 21 6 18 5 -3 15 2 22 11 18 21 150 106 156 100 2 -3 -17 -25
-44 -49 -26 -23 -75 -69 -109 -100 -33 -32 -64 -55 -67 -51 -4 3 -7 -2 -7 -12
0 -15 -3 -16 -12 -7 -15 15 -32 16 -23 2 3 -5 2 -10 -3 -10 -5 0 -15 -15 -22
-32 -6 -18 -18 -48 -26 -67 -12 -28 -13 -36 -2 -43 10 -6 7 -13 -12 -28 -20
-16 -22 -20 -7 -20 9 0 17 5 17 10 0 6 7 10 16 10 14 0 14 -2 0 -22 -21 -30
-22 -55 -1 -38 8 7 15 8 15 4 0 -10 -60 -87 -72 -92 -5 -2 -8 -10 -8 -17 0
-33 -166 -59 -201 -32 -8 7 -38 43 -67 81 -29 38 -52 66 -52 63 0 -4 16 -39
35 -79 20 -39 34 -77 32 -82 -5 -14 -58 69 -125 194 -93 174 -192 287 -303
345 l-71 37 7 47 c4 25 11 52 17 58 6 7 8 20 4 28 -8 21 -2 20 109 -30z m1145
8 c22 -79 24 -113 7 -113 -16 0 -21 16 -31 108 -5 52 9 55 24 5z m-50 13 c0
-2 -7 -7 -16 -10 -8 -3 -12 -2 -9 4 6 10 25 14 25 6z m-64 -31 c-11 -8 -25
-15 -30 -15 -6 1 0 7 14 15 32 19 40 18 16 0z m-1080 -161 c76 -46 94 -62 166
-159 57 -76 113 -181 144 -268 17 -47 17 -47 4 -47 -5 0 -10 7 -10 16 0 8 -4
13 -9 9 -6 -3 -14 3 -20 12 -10 18 -8 -108 3 -202 4 -31 3 -34 -3 -15 -5 14
-9 43 -10 65 -1 45 -28 196 -37 204 -3 3 -2 -51 2 -121 4 -69 7 -314 8 -544 1
-446 0 -461 -58 -707 -7 -31 -10 -60 -5 -63 15 -9 11 -19 -27 -68 -33 -44 -38
-47 -76 -44 -49 4 -72 30 -93 104 -12 45 -13 46 -14 16 -1 -19 11 -64 26 -100
24 -58 28 -80 27 -167 -1 -121 -30 -207 -81 -240 -34 -22 -44 -54 -33 -113 3
-20 3 -48 -1 -62 -11 -36 -16 -180 -6 -180 4 0 12 10 17 23 8 21 9 21 9 -6 1
-15 -6 -73 -15 -130 -8 -56 -15 -158 -15 -227 0 -69 -4 -154 -8 -190 l-8 -65
-2 75 c-1 41 -6 84 -10 95 -13 32 -21 -61 -21 -231 0 -85 -7 -220 -15 -301 -8
-82 -17 -209 -18 -283 -2 -74 -7 -142 -10 -150 -25 -62 -70 -255 -73 -309 -2
-36 -4 -70 -5 -76 -1 -5 1 -20 5 -32 6 -19 4 -23 -13 -23 -12 0 -21 -6 -21
-14 0 -8 -15 -24 -32 -36 l-33 -22 30 7 c24 5 28 4 18 -6 -20 -20 -91 -22
-119 -4 -21 14 -23 20 -17 58 5 37 4 40 -9 30 -8 -7 -19 -9 -23 -5 -5 4 -5 -1
-2 -11 10 -27 -10 -67 -33 -67 -27 0 -36 25 -21 57 6 14 9 28 6 32 -11 10 -45
-39 -38 -54 3 -10 -2 -15 -16 -15 -21 0 -25 8 -22 43 3 26 -18 20 -25 -8 -8
-34 -34 -32 -35 3 -2 45 1 56 22 74 10 9 17 23 14 31 -4 9 5 19 25 27 21 9 48
38 81 87 27 40 55 73 62 73 7 0 25 24 41 54 23 43 28 61 23 92 -4 26 0 57 14
94 33 93 33 163 -1 590 -22 277 -30 440 -27 515 7 162 52 329 123 465 l29 55
5 -60 c3 -38 8 15 13 145 4 113 13 234 19 269 15 89 0 249 -38 401 -21 86 -30
415 -15 575 14 161 50 360 105 590 24 105 57 254 72 333 16 87 31 142 38 142
7 0 39 -16 72 -36z m1214 24 c1 -53 46 -310 75 -428 91 -367 120 -581 119
-890 -1 -113 -5 -222 -10 -243 -6 -25 -9 52 -9 235 0 236 -3 293 -23 418 -23
141 -74 367 -111 493 -42 138 -76 427 -51 427 6 0 10 -6 10 -12z m-87 -245 c9
-71 35 -200 57 -288 22 -88 50 -207 61 -265 11 -58 27 -139 35 -180 35 -181
42 -334 24 -510 -19 -182 -61 -298 -97 -269 -38 32 -43 74 -37 283 9 316 -14
595 -66 786 -5 19 -15 55 -21 79 -21 88 -19 30 6 -114 34 -195 58 -477 51
-590 -3 -49 -7 -124 -10 -165 -2 -41 -5 -136 -6 -211 -1 -122 -16 -219 -32
-204 -2 3 -13 -11 -24 -30 -22 -42 -39 -48 -98 -40 -37 6 -49 14 -69 44 -58
85 -82 216 -82 439 l1 183 -16 -68 -16 -68 -31 75 c-57 135 -103 353 -103 485
0 50 5 68 33 112 17 29 66 108 108 175 42 68 84 138 93 156 9 18 46 64 81 103
38 41 77 98 97 139 18 38 35 69 38 69 3 1 13 -56 23 -126z m-328 57 c3 -5 -1
-10 -10 -10 -9 0 -13 5 -10 10 3 6 8 10 10 10 2 0 7 -4 10 -10z m5 -60 c0 -5
-4 -10 -10 -10 -5 0 -10 5 -10 10 0 6 5 10 10 10 6 0 10 -4 10 -10z m-50 -44
c0 -26 -6 -18 -14 19 -5 22 -4 26 4 15 5 -8 10 -24 10 -34z m-1343 -38 c-3 -8
-6 -5 -6 6 -1 11 2 17 5 13 3 -3 4 -12 1 -19z m1359 -14 c-4 -9 -9 -15 -11
-12 -3 3 -3 13 1 22 4 9 9 15 11 12 3 -3 3 -13 -1 -22z m1151 -206 c-3 -8 -6
-5 -6 6 -1 11 2 17 5 13 3 -3 4 -12 1 -19z m-2459 -24 c-3 -14 -5 -12 -10 9
-3 19 -2 25 4 19 6 -6 8 -18 6 -28z m2469 -91 c-2 -21 -4 -6 -4 32 0 39 2 55
4 38 2 -18 2 -50 0 -70z m-2590 -149 c-9 -9 -28 6 -21 18 4 6 10 6 17 -1 6 -6
8 -13 4 -17z m2403 -74 c18 -11 6 -25 -23 -25 -18 0 -20 -6 -20 -50 1 -75 -9
-84 -42 -41 l-28 37 44 45 c47 48 47 48 69 34z m-363 -752 c-3 -8 -6 -5 -6 6
-1 11 2 17 5 13 3 -3 4 -12 1 -19z m-1167 -113 c-7 -9 -15 -13 -19 -10 -3 3 1
10 9 15 21 14 24 12 10 -5z m1137 -37 c-3 -7 -5 -2 -5 12 0 14 2 19 5 13 2 -7
2 -19 0 -25z m-14 -95 c-7 -96 -21 -140 -22 -71 -1 42 18 148 26 148 1 0 0
-35 -4 -77z m-127 -20 c3 -18 10 -33 14 -33 4 0 15 -17 24 -37 9 -21 25 -54
36 -73 11 -19 20 -44 20 -55 0 -11 -11 2 -25 33 -13 28 -27 52 -31 52 -3 0 -3
-8 2 -17 4 -10 8 -73 9 -140 2 -107 0 -123 -14 -124 -10 0 -12 -2 -3 -6 6 -2
12 -10 12 -16 0 -5 -3 -7 -6 -4 -4 3 -18 -3 -32 -13 -31 -25 -52 -25 -106 0
-57 25 -71 60 -71 171 l0 86 62 91 c34 50 64 106 68 124 7 30 8 31 21 13 8
-10 17 -33 20 -52z m-208 -248 c4 -73 4 -75 -23 -85 -37 -14 -43 -13 -60 14
-16 23 -27 84 -40 203 l-6 63 63 -60 63 -60 3 -75z m350 -10 c0 -49 -2 -62 -8
-45 -4 14 -8 59 -8 100 0 54 2 67 8 45 4 -16 8 -61 8 -100z m-1218 22 c0 -23
-4 -36 -10 -32 -6 3 -9 26 -8 51 2 54 18 37 18 -19z m77 11 c-3 -7 -5 -2 -5
12 0 14 2 19 5 13 2 -7 2 -19 0 -25z m-101 -245 c-37 -59 -43 -64 -26 -18 11
29 52 85 59 79 2 -1 -13 -29 -33 -61z m980 -86 c38 -52 79 -107 92 -123 l22
-29 -15 40 c-9 22 -23 50 -31 62 -19 30 -18 36 5 28 11 -3 22 -1 26 5 11 18
44 11 56 -12 7 -13 15 -74 17 -135 3 -62 8 -113 11 -113 4 0 14 29 21 65 7 36
15 64 16 62 5 -5 18 -171 17 -212 0 -22 4 -157 9 -300 5 -143 13 -395 18 -560
4 -165 13 -311 18 -325 6 -14 11 -18 11 -10 1 8 10 -3 21 -25 23 -45 24 -49
10 -40 -13 8 -13 4 5 -38 8 -20 23 -41 33 -46 9 -5 54 -68 100 -139 45 -71 94
-142 108 -157 24 -26 26 -27 45 -9 15 13 22 15 31 6 7 -7 19 -12 27 -12 16 0
51 -28 51 -42 0 -15 -22 -8 -40 12 -22 25 -35 11 -26 -26 9 -34 -7 -30 -21 6
-15 41 -33 39 -26 -4 8 -48 -13 -56 -44 -18 -15 19 -29 29 -39 25 -13 -5 -13
-8 2 -24 9 -10 14 -26 10 -34 -8 -23 -40 -14 -44 11 -4 30 -82 122 -82 97 0
-11 11 -30 25 -43 14 -13 25 -34 25 -47 0 -50 -132 -73 -184 -32 -30 24 -56
69 -56 97 0 23 -17 32 -51 25 -34 -6 -79 31 -79 65 0 15 11 62 25 105 30 92
30 106 8 145 -15 26 -15 37 -3 115 13 88 10 216 -11 347 -15 95 -84 315 -136
433 -86 195 -98 238 -97 367 0 63 8 171 17 240 9 69 18 143 19 165 l3 40 28
-53 c38 -72 84 -215 93 -287 4 -32 13 -66 21 -73 12 -12 13 -8 7 30 -15 103
-48 210 -99 320 -84 180 -74 196 31 55z m344 -58 c54 -129 80 -259 78 -384 -1
-60 -3 -85 -5 -55 -7 136 -36 285 -74 392 -36 102 -46 138 -34 127 2 -3 18
-39 35 -80z m-1314 -369 c-4 -118 -19 -196 -46 -238 -10 -14 -10 -13 -5 8 28
106 34 173 36 380 l2 225 9 -125 c5 -69 7 -181 4 -250z m-102 24 c3 -8 3 -14
0 -14 -2 0 -9 10 -14 23 -7 17 -9 8 -9 -38 0 -45 3 -55 10 -40 8 17 9 17 4 -5
-2 -14 -5 -38 -5 -54 0 -24 -2 -27 -15 -16 -12 10 -15 10 -15 0 0 -8 -3 -10
-6 -7 -4 4 -1 13 5 21 8 9 10 28 5 51 -3 20 -1 71 7 113 l13 77 7 -49 c4 -26
10 -54 13 -62z m3 54 c-3 -8 -6 -5 -6 6 -1 11 2 17 5 13 3 -3 4 -12 1 -19z
m1370 -120 c-3 -8 -6 -5 -6 6 -1 11 2 17 5 13 3 -3 4 -12 1 -19z m-14 -429 c4
-216 3 -249 -3 -139 -11 197 -17 463 -8 441 3 -10 9 -146 11 -302z m-1323 173
c0 -5 -7 -17 -15 -28 -14 -18 -14 -17 -4 9 12 27 19 34 19 19z m1335 -802 c3
-5 1 -10 -4 -10 -6 0 -11 5 -11 10 0 6 2 10 4 10 3 0 8 -4 11 -10z m92 -62
c-3 -8 -6 -5 -6 6 -1 11 2 17 5 13 3 -3 4 -12 1 -19z m130 -283 c33 -65 62
-105 74 -105 6 0 -1 15 -15 33 -37 49 -32 56 8 11 25 -28 32 -42 24 -51 -13
-16 -40 -2 -66 34 -19 27 -83 147 -90 168 -8 24 41 -44 65 -90z m-1718 -55
l-1 -25 -8 25 c-4 14 -8 32 -9 40 -1 13 0 13 9 0 5 -8 9 -26 9 -40z m-588
-120 c-7 -3 -9 -15 -5 -24 5 -14 3 -17 -12 -14 -28 5 -29 43 -2 62 21 15 23
15 26 0 2 -9 -1 -20 -7 -24z"/>
<path d="M1721 7564 c0 -11 3 -14 6 -6 3 7 2 16 -1 19 -3 4 -6 -2 -5 -13z"/>
<path d="M1741 7504 c0 -11 3 -14 6 -6 3 7 2 16 -1 19 -3 4 -6 -2 -5 -13z"/>
<path d="M1533 7327 c-66 -46 -99 -74 -48 -42 17 10 49 30 72 43 41 23 63 42
46 42 -4 0 -36 -20 -70 -43z"/>
<path d="M1470 7240 c-24 -7 -23 -7 10 -13 35 -6 254 -27 281 -27 12 0 12 2 0
9 -13 8 -97 17 -206 23 -22 1 -44 5 -50 8 -5 4 -21 4 -35 0z"/>
<path d="M1400 7175 c0 -8 -5 -15 -12 -15 -6 0 -9 -3 -6 -6 7 -7 48 18 48 28
0 5 -7 8 -15 8 -8 0 -15 -7 -15 -15z"/>
<path d="M2440 7090 c0 -5 5 -10 11 -10 5 0 7 5 4 10 -3 6 -8 10 -11 10 -2 0
-4 -4 -4 -10z"/>
<path d="M723 5430 c0 -25 2 -35 4 -22 2 12 2 32 0 45 -2 12 -4 2 -4 -23z"/>
<path d="M1280 6424 c1 -14 33 -50 57 -63 33 -17 51 -13 23 6 -14 9 -37 27
-52 41 -16 14 -28 22 -28 16z"/>
<path d="M1180 6383 c0 -6 20 -29 45 -52 25 -23 45 -47 45 -54 0 -6 14 -20 31
-29 31 -18 29 -3 -3 20 -10 7 -18 22 -18 33 0 10 -5 19 -12 19 -7 0 -29 17
-50 37 -21 20 -38 32 -38 26z"/>
<path d="M1818 6373 c7 -3 16 -2 19 1 4 3 -2 6 -13 5 -11 0 -14 -3 -6 -6z"/>
<path d="M1729 6356 c-46 -16 -96 -51 -109 -77 -15 -28 -4 -23 28 11 15 16 54
41 87 55 62 25 57 34 -6 11z"/>
<path d="M1270 6166 c0 -17 75 -76 94 -75 6 0 2 6 -9 12 -11 7 -35 27 -52 45
-22 23 -33 28 -33 18z"/>
<path d="M1883 6098 c3 -22 0 -28 -14 -28 -10 0 -21 -4 -24 -10 -3 -5 1 -10 9
-10 14 0 16 -21 16 -149 0 -143 -1 -149 -22 -165 l-23 -17 23 6 c20 6 22 3 22
-39 0 -61 18 -69 22 -9 3 45 5 48 28 45 l25 -3 -28 23 -28 23 3 145 3 145 25
-2 c14 -1 19 0 12 3 -8 4 -23 20 -34 38 l-20 31 5 -27z"/>
<path d="M2210 5675 c0 -14 2 -25 4 -25 2 0 6 11 8 25 3 14 1 25 -3 25 -5 0
-9 -11 -9 -25z"/>
<path d="M2337 6143 c-4 -3 -7 -11 -7 -17 0 -6 5 -5 12 2 6 6 9 14 7 17 -3 3
-9 2 -12 -2z"/>
<path d="M2310 6090 c0 -5 5 -10 11 -10 5 0 7 5 4 10 -3 6 -8 10 -11 10 -2 0
-4 -4 -4 -10z"/>
<path d="M1303 5324 c34 -18 114 -47 104 -38 -7 7 -119 54 -127 54 -3 -1 8 -8
23 -16z"/>
<path d="M2128 5233 c7 -3 16 -2 19 1 4 3 -2 6 -13 5 -11 0 -14 -3 -6 -6z"/>
<path d="M1270 3517 c0 -47 -3 -92 -6 -101 -4 -10 -1 -16 10 -16 13 0 15 13 9
98 -3 53 -7 99 -9 101 -2 2 -4 -34 -4 -82z"/>
<path d="M1120 3335 c1 -17 29 -49 37 -41 4 3 -3 16 -15 29 -12 12 -22 17 -22
12z"/>
<path d="M1136 3178 c-22 -34 -48 -99 -42 -105 3 -3 10 6 15 20 6 15 20 44 31
67 22 43 20 54 -4 18z"/>
<path d="M1081 2975 c-1 -102 13 -237 34 -310 18 -66 18 -41 0 75 -8 52 -15
124 -16 160 0 36 -4 88 -9 115 -7 45 -7 42 -9 -40z"/>
<path d="M1120 2850 c4 -22 10 -43 13 -47 9 -8 -4 71 -13 80 -4 5 -4 -10 0
-33z"/>
<path d="M1053 2600 c0 -41 2 -58 4 -37 2 20 2 54 0 75 -2 20 -4 3 -4 -38z"/>
<path d="M1111 1604 c0 -11 3 -14 6 -6 3 7 2 16 -1 19 -3 4 -6 -2 -5 -13z"/>
<path d="M690 718 c0 -4 14 -8 30 -8 17 0 30 4 30 8 0 5 -13 9 -30 9 -16 0
-30 -4 -30 -9z"/>
<path d="M770 720 c-13 -9 -13 -10 0 -9 8 0 24 4 35 9 l20 9 -20 0 c-11 0 -27
-4 -35 -9z"/>
<path d="M2421 4174 c0 -11 3 -14 6 -6 3 7 2 16 -1 19 -3 4 -6 -2 -5 -13z"/>
<path d="M2482 2280 c0 -14 2 -19 5 -12 2 6 2 18 0 25 -3 6 -5 1 -5 -13z"/>
<path d="M2885 775 c4 -11 10 -30 12 -42 4 -16 13 -23 29 -23 13 0 24 5 24 10
0 6 -7 10 -15 10 -8 0 -25 15 -36 33 -12 17 -18 23 -14 12z"/>
<path d="M5442 8699 c-119 -20 -232 -106 -286 -219 -30 -62 -31 -70 -30 -187
0 -107 -2 -123 -16 -123 -43 0 -51 -57 -24 -170 17 -76 52 -133 93 -154 l29
-15 4 -138 c4 -92 1 -144 -6 -155 -6 -10 -81 -61 -166 -114 -305 -191 -271
-174 -349 -174 -136 0 -209 -46 -285 -182 -58 -104 -77 -198 -75 -363 2 -130
0 -144 -23 -202 -37 -88 -42 -126 -42 -328 l-1 -180 -57 -150 c-99 -259 -102
-277 -97 -585 4 -284 4 -370 2 -495 -1 -44 -1 -182 0 -307 2 -186 5 -230 17
-242 8 -8 44 -30 80 -49 36 -19 84 -45 107 -58 l42 -24 28 23 c15 12 44 31 64
41 57 31 65 45 51 96 -6 25 -9 64 -6 88 4 28 0 60 -10 90 -9 26 -16 68 -16 93
0 47 -17 91 -45 114 -29 24 -55 88 -55 135 0 109 76 348 163 513 l62 117 1
190 1 190 42 121 c45 132 70 237 71 299 1 77 15 72 64 -24 25 -49 62 -110 80
-134 48 -63 54 -77 71 -157 15 -71 15 -72 -25 -272 -21 -110 -43 -205 -48
-212 -5 -6 -14 -45 -21 -86 -19 -112 -69 -395 -85 -475 -22 -111 -64 -337 -92
-500 -38 -219 -45 -573 -15 -833 23 -201 26 -331 11 -413 -6 -30 -15 -99 -20
-154 -8 -88 -14 -112 -54 -195 -58 -123 -101 -256 -117 -359 -9 -68 -9 -118 5
-284 51 -622 58 -882 27 -1010 -17 -72 -23 -83 -75 -135 -31 -31 -56 -59 -56
-63 0 -13 -167 -99 -193 -99 -31 0 -81 -61 -72 -89 13 -42 69 -61 209 -71 107
-9 136 -14 156 -30 47 -38 93 -53 165 -54 84 -1 130 16 152 57 19 38 20 72 3
174 -11 70 -11 87 0 110 9 19 14 72 16 163 3 264 38 434 170 828 101 302 106
338 79 562 -17 139 -18 154 -3 223 9 41 33 108 53 150 34 71 64 191 65 261 0
51 38 187 129 464 90 272 140 454 161 587 12 77 37 198 53 260 l10 40 19 -75
c10 -41 27 -129 38 -195 37 -214 84 -385 186 -667 65 -179 99 -311 118 -455
16 -116 33 -173 70 -238 48 -82 58 -220 30 -393 -30 -185 -23 -223 135 -662
86 -239 140 -550 127 -726 -4 -59 -2 -93 9 -123 12 -36 12 -51 -1 -123 -16
-93 -11 -146 17 -182 44 -55 225 -49 291 10 22 21 145 44 232 44 74 0 140 27
152 62 10 31 -27 66 -95 89 -35 12 -87 38 -115 58 -73 51 -172 162 -187 207
-29 90 -21 595 16 1054 13 161 13 194 0 282 -17 117 -59 246 -115 357 -34 69
-40 90 -40 143 0 35 -10 123 -22 196 l-23 132 30 228 c53 411 38 679 -65 1167
-11 50 -29 149 -41 220 -34 214 -97 537 -113 585 -8 25 -29 122 -47 215 -27
145 -30 177 -21 215 6 25 14 63 18 85 4 23 23 62 47 94 22 30 62 95 88 145 53
100 49 102 69 -34 6 -41 32 -136 57 -210 l47 -135 0 -195 1 -195 37 -75 c21
-41 53 -103 71 -137 51 -94 127 -351 127 -428 0 -41 -28 -101 -60 -130 -30
-26 -50 -75 -50 -121 0 -20 -6 -62 -14 -93 -7 -31 -13 -96 -12 -146 l1 -90 72
-48 72 -49 100 53 c159 84 143 49 146 315 2 126 4 247 4 269 0 22 -1 218 -2
435 l-2 395 -33 110 c-18 61 -55 169 -83 242 l-51 132 7 148 c8 166 0 230 -41
326 -20 48 -26 74 -23 117 10 145 2 254 -25 329 -45 130 -113 229 -178 262
-28 14 -70 23 -132 27 l-92 7 -119 76 c-66 42 -156 97 -200 124 -123 73 -135
87 -135 160 0 34 3 96 6 138 7 74 8 77 43 100 58 39 100 142 101 248 0 48 -10
64 -44 70 -18 4 -19 12 -17 115 2 90 -1 121 -18 168 -42 121 -133 203 -263
237 -77 20 -95 21 -176 8z m178 -41 c116 -36 203 -117 232 -218 19 -64 14
-250 -7 -325 -37 -126 -64 -316 -64 -453 l-1 -133 121 -77 c304 -194 400 -260
390 -266 -6 -4 -11 -3 -11 2 0 5 -19 17 -42 27 -24 10 -52 26 -63 35 -23 20
-143 90 -153 90 -8 0 29 -26 61 -43 73 -40 98 -62 94 -85 -4 -20 -1 -22 23
-17 18 4 34 0 50 -13 l24 -20 -33 -7 c-18 -4 -35 -4 -38 -1 -4 3 4 6 17 6 22
0 23 1 8 16 -15 15 -18 15 -38 -4 -12 -11 -41 -27 -66 -37 -26 -10 -41 -21
-38 -27 4 -6 2 -8 -4 -4 -6 3 -22 -5 -36 -19 l-25 -25 26 6 c17 5 24 3 20 -3
-9 -14 -67 -22 -67 -10 0 6 -3 7 -7 3 -5 -4 0 -13 9 -20 15 -11 13 -16 -20
-52 -88 -95 -123 -163 -126 -240 -1 -23 -7 -49 -15 -57 -7 -9 -14 -35 -14 -57
-1 -22 -5 -40 -9 -40 -3 0 -19 -25 -34 -55 -16 -30 -32 -55 -37 -55 -5 0 -7
-12 -3 -27 3 -16 3 -22 0 -16 -4 9 -11 10 -24 3 -16 -9 -26 -1 -64 46 -25 31
-46 53 -46 50 0 -11 63 -122 95 -167 18 -25 36 -57 40 -70 4 -13 12 -30 18
-37 15 -19 59 -143 64 -182 3 -19 0 -66 -6 -105 -10 -61 -25 -216 -46 -462 -4
-39 -14 -93 -24 -119 -15 -45 -20 -49 -56 -56 -22 -4 -71 -7 -109 -7 l-68 -1
6 133 c7 149 7 190 2 1012 -4 696 -3 645 -18 645 -10 0 -13 -39 -13 -162 0
-90 -3 -188 -8 -218 -9 -66 -61 -171 -151 -305 -47 -69 -64 -100 -77 -135 l-9
-25 18 25 c49 70 103 138 127 160 27 24 27 24 16 2 -10 -18 -9 -25 4 -38 8 -8
15 -25 16 -37 0 -12 3 -16 6 -9 3 7 0 26 -7 42 -13 31 -4 63 11 39 13 -21 11
-127 -3 -131 -8 -3 -8 -13 1 -39 8 -20 14 -111 17 -229 5 -197 21 -538 30
-662 l6 -68 -96 0 c-86 0 -97 2 -116 23 -18 18 -20 19 -14 3 7 -18 2 -18 -73
-14 -43 2 -85 8 -91 12 -7 4 -40 9 -75 10 -70 4 -142 29 -134 48 2 7 19 88 38
180 18 92 36 164 40 160 3 -4 16 -41 28 -82 12 -41 31 -96 42 -123 11 -26 26
-75 34 -110 l14 -62 -5 60 c-3 33 -19 94 -34 135 -16 41 -34 95 -41 120 -7 25
-16 50 -20 55 -8 11 -39 166 -39 197 0 12 4 16 11 12 18 -11 -1 18 -51 76 -95
111 -152 230 -185 385 -26 123 -24 126 47 60 77 -72 116 -89 177 -80 60 9 86
23 162 89 52 44 67 52 78 43 12 -10 14 -9 8 5 -3 10 -18 76 -32 148 -29 152
-40 180 -93 252 -93 126 -224 214 -333 223 l-54 5 55 -14 c133 -35 191 -76
271 -190 27 -39 62 -88 78 -109 20 -26 36 -67 50 -126 31 -132 30 -145 -22
-170 -24 -11 -64 -24 -91 -27 -26 -4 -54 -13 -61 -20 -11 -12 -19 -8 -46 24
-17 20 -28 28 -24 17 4 -11 9 -29 12 -40 4 -17 3 -18 -7 -5 -9 12 -11 10 -6
-10 9 -44 -6 -51 -43 -19 -39 33 -37 33 -47 17 -5 -7 -3 -8 6 -3 9 6 11 4 5
-4 -13 -22 -75 48 -116 133 -30 62 -39 92 -39 133 0 49 2 53 28 59 15 4 32 10
37 13 6 3 44 14 85 23 l75 17 -80 -5 c-72 -6 -78 -5 -66 10 31 38 -59 -1 -140
-60 -25 -18 -48 -32 -50 -31 -2 2 -19 -13 -37 -34 l-33 -38 55 30 c31 17 56
27 56 22 0 -5 -38 -48 -85 -96 -105 -106 -93 -116 14 -12 43 41 83 75 89 75
11 0 33 -67 50 -152 5 -27 6 -48 1 -48 -4 0 -9 8 -11 18 -2 9 -10 -30 -17 -88
-7 -58 -17 -125 -22 -148 -8 -39 -52 -144 -79 -194 -6 -10 -10 -20 -10 -23 0
-11 25 -4 43 13 19 16 20 16 10 -3 -6 -11 -13 -38 -17 -60 -13 -73 -38 -138
-72 -182 -35 -46 -35 -63 0 -93 23 -18 20 -26 -24 -69 -31 -30 -41 -48 -45
-82 -3 -24 -10 -48 -14 -52 -10 -10 -12 -5 -36 103 -10 41 -22 80 -28 85 -6 7
-7 0 -3 -20 3 -16 11 -67 18 -111 11 -78 10 -87 -20 -205 -17 -68 -33 -140
-36 -159 -6 -34 -6 -34 8 5 7 22 25 79 40 126 25 82 97 208 124 217 8 2 12 -7
12 -25 0 -22 2 -25 10 -13 7 11 10 0 11 -40 1 -30 0 -59 -2 -65 -1 -5 -2 -23
-1 -38 1 -15 -3 -25 -8 -22 -6 4 -10 -6 -10 -22 0 -22 -2 -25 -10 -13 -8 12
-10 9 -10 -13 0 -16 -5 -38 -11 -49 -9 -17 -13 -18 -21 -7 -7 10 -7 8 -3 -8 4
-15 2 -23 -5 -23 -7 0 -10 -6 -7 -14 3 -8 -2 -16 -13 -19 -12 -3 -23 -21 -31
-48 -17 -64 -49 -206 -59 -266 -4 -28 -11 -57 -15 -63 -6 -9 -13 -84 -15 -152
0 -10 -7 -18 -16 -18 -12 0 -14 -5 -8 -17 16 -35 15 -153 -1 -250 -21 -131
-20 -127 -66 -157 -35 -23 -40 -25 -46 -10 -3 9 -3 110 0 224 4 145 3 210 -5
218 -8 8 -8 35 1 99 9 63 10 171 5 392 -9 383 -4 409 124 746 16 44 33 93 37
109 5 23 8 27 16 15 12 -18 11 -4 -1 62 -36 184 -28 287 30 406 30 61 30 64
19 129 -40 231 69 516 214 559 61 18 134 20 139 3 4 -12 79 30 333 190 216
137 199 113 191 262 -8 147 -28 283 -63 435 -36 151 -38 300 -5 366 48 99 140
176 242 203 74 19 123 18 200 -6z m-480 -528 c25 -25 27 -55 4 -46 -13 5 -14
2 -9 -11 13 -30 19 -157 7 -149 -16 9 -31 64 -41 142 -11 90 -2 105 39 64z
m1331 -936 c64 -33 147 -170 175 -292 16 -68 16 -276 -1 -314 -12 -29 -28 -21
-21 10 35 164 4 360 -79 492 -40 64 -61 78 -128 85 -62 8 -103 25 -89 39 10
11 112 -3 143 -20z m-136 -24 c3 -5 2 -10 -4 -10 -5 0 -13 5 -16 10 -3 6 -2
10 4 10 5 0 13 -4 16 -10z m66 -30 c19 -6 45 -20 56 -32 24 -26 42 -98 24 -98
-6 0 -11 -5 -11 -11 0 -22 -41 -99 -53 -99 -7 0 -19 -9 -26 -19 -11 -15 -19
-17 -38 -10 -31 12 -46 11 -38 -1 4 -6 -10 -8 -34 -6 -23 2 -44 0 -47 -5 -3
-5 -22 -9 -42 -10 -36 -1 -36 -1 12 -12 27 -7 51 -18 54 -25 2 -7 -14 -37 -37
-67 -22 -30 -39 -60 -38 -67 2 -7 2 -9 -1 -5 -6 11 -72 -53 -72 -70 0 -7 -6
-10 -17 -6 -11 4 -14 3 -9 -5 5 -8 -12 -11 -59 -10 -36 0 -68 -2 -72 -6 -3 -3
4 -6 17 -6 31 0 18 -12 -17 -16 -34 -4 -83 25 -83 48 0 35 32 203 42 223 22
40 157 202 192 229 65 49 158 84 251 95 6 0 26 -4 46 -9z m69 -481 c22 -22 38
-44 35 -49 -3 -4 2 -11 11 -14 10 -4 14 -14 11 -26 -3 -11 -2 -20 2 -20 11 0
31 -150 31 -235 0 -71 -9 -156 -26 -238 -5 -23 -3 -27 16 -25 20 3 22 -3 27
-57 3 -33 6 -90 7 -126 1 -56 3 -65 18 -61 20 5 48 -44 48 -86 0 -23 -6 -32
-27 -40 -62 -23 -64 -23 -81 8 -9 16 -21 30 -26 30 -18 0 7 -58 54 -127 90
-131 98 -163 104 -393 4 -157 4 -171 -9 -135 -7 22 -14 54 -14 70 -1 17 -6 37
-11 45 -16 25 -12 -20 10 -132 12 -55 19 -105 17 -111 -2 -6 -20 41 -41 104
-41 120 -63 173 -120 279 -49 90 -60 151 -52 290 4 64 3 137 -3 165 -5 27 -7
52 -5 54 6 6 65 -51 73 -70 5 -13 10 -11 29 12 l22 28 -39 22 c-21 12 -44 31
-50 43 -10 20 -11 19 -5 -4 7 -24 6 -24 -17 -8 -49 32 -107 221 -123 398 l-7
75 40 -81 c23 -44 50 -89 62 -100 16 -14 13 -4 -14 46 -54 98 -77 178 -77 262
0 105 44 248 76 248 7 0 31 -18 54 -41z m221 -177 c11 -32 23 -91 26 -133 7
-88 -5 -289 -17 -289 -15 0 -17 39 -7 130 13 111 -1 250 -32 314 -25 50 -26
63 -6 46 8 -6 24 -37 36 -68z m-1239 27 c-31 -28 -37 -23 -10 9 13 16 25 25
27 20 2 -5 -6 -18 -17 -29z m35 -1 c-3 -8 -6 -5 -6 6 -1 11 2 17 5 13 3 -3 4
-12 1 -19z m-22 -18 c3 -5 1 -10 -4 -10 -6 0 -11 5 -11 10 0 6 2 10 4 10 3 0
8 -4 11 -10z m-624 -37 c13 -16 12 -17 -3 -4 -10 7 -18 15 -18 17 0 8 8 3 21
-13z m989 7 c0 -5 -5 -10 -11 -10 -5 0 -7 5 -4 10 3 6 8 10 11 10 2 0 4 -4 4
-10z m-343 -37 c-3 -10 -5 -4 -5 12 0 17 2 24 5 18 2 -7 2 -21 0 -30z m326 3
c4 -10 1 -13 -9 -9 -7 3 -14 0 -14 -6 0 -6 -5 -11 -10 -11 -6 0 -5 8 2 20 15
24 24 25 31 6z m-20 -107 c-5 -5 -9 3 -11 19 -1 24 0 25 9 9 7 -11 7 -23 2
-28z m21 -33 c-3 -15 -8 -25 -11 -23 -2 3 -1 17 3 31 3 15 8 25 11 23 2 -3 1
-17 -3 -31z m25 -81 c0 -15 -3 -12 -13 10 -7 17 -11 34 -8 39 7 12 20 -21 21
-49z m-1164 -12 c-14 -118 -66 -305 -80 -291 -3 3 -1 17 5 32 5 14 17 70 26
124 15 95 41 192 51 192 2 0 1 -26 -2 -57z m1512 -71 c-10 -10 -17 -23 -17
-28 -1 -14 -40 -58 -46 -51 -3 3 11 28 32 56 21 28 40 48 43 46 2 -3 -3 -13
-12 -23z m584 -244 c29 -73 66 -180 82 -238 l30 -105 -2 -365 c-2 -251 1 -380
9 -412 9 -36 9 -51 -1 -69 -13 -25 -18 -386 -5 -426 5 -15 0 -25 -18 -37 -33
-21 -58 -21 -27 0 23 16 23 18 23 228 0 116 0 243 1 281 1 39 1 176 0 305 -1
129 -2 273 -1 320 1 131 -56 386 -117 525 -27 62 -43 125 -31 125 3 0 28 -60
57 -132z m-701 11 c-16 -88 -33 -112 -25 -35 6 56 24 111 32 102 2 -2 -1 -33
-7 -67z m-1505 -106 c-5 -21 -7 -106 -6 -189 3 -148 -7 -226 -31 -240 -8 -5
-9 -2 -3 12 5 10 10 91 11 179 2 153 10 250 20 267 12 19 16 5 9 -29z m1530
-207 c15 -82 29 -155 32 -163 5 -12 -23 -31 -32 -21 -13 13 -45 225 -44 293 0
102 9 81 44 -109z m-193 -10 c-7 -22 -7 -50 -1 -77 11 -46 6 -116 -9 -131 -11
-11 -122 -24 -122 -13 0 4 18 46 41 94 71 153 114 213 91 127z m801 -74 c3
-24 1 -40 -4 -36 -5 3 -9 24 -9 46 0 51 5 47 13 -10z m-1516 -167 c162 -17
401 -17 728 -1 50 3 79 2 65 -1 -14 -2 -29 -9 -35 -14 -5 -5 -23 -9 -40 -10
-27 -1 -28 -2 -6 -8 21 -6 24 -13 27 -71 1 -39 11 -81 23 -106 56 -114 53
-257 -8 -343 -32 -45 -132 -91 -197 -91 -55 0 -190 25 -208 38 -30 22 -130
-14 -242 -88 -56 -37 -122 -75 -147 -86 -26 -10 -47 -22 -47 -26 0 -12 -91 46
-146 93 -28 24 -17 10 26 -32 41 -41 102 -89 135 -107 42 -22 51 -30 30 -26
-94 21 -215 114 -323 248 l-60 74 14 54 c8 29 21 94 29 143 44 271 60 345 71
345 7 0 72 -7 146 -15 198 -21 488 -34 613 -26 93 5 64 7 -185 13 -257 6 -498
24 -562 44 -17 5 -25 34 -13 46 3 2 36 -3 74 -13 38 -10 145 -25 238 -34z
m964 33 c2 -30 6 -56 17 -103 7 -27 27 -135 46 -240 20 -104 38 -204 41 -221
5 -21 2 -34 -9 -43 -21 -18 -29 -10 -18 20 5 12 5 37 1 53 -10 37 -52 229 -84
378 -12 59 -20 110 -16 113 3 3 -1 10 -8 15 -8 4 -11 15 -8 24 7 19 37 22 38
4z m696 -80 c-3 -8 -6 -5 -6 6 -1 11 2 17 5 13 3 -3 4 -12 1 -19z m-565 -636
c12 -69 6 -102 -12 -72 -14 22 -33 148 -24 161 11 18 22 -10 36 -89z m-1437 7
c38 -45 80 -88 93 -97 18 -11 20 -17 10 -24 -18 -11 3 -27 87 -64 37 -17 63
-34 60 -41 -2 -7 22 -21 61 -35 65 -23 82 -38 42 -38 -31 0 -209 44 -283 70
-94 32 -195 82 -195 95 0 17 29 187 35 203 8 22 19 13 90 -69z m1225 -83 c0
-2 -8 -10 -17 -17 -16 -13 -17 -12 -4 4 13 16 21 21 21 13z m235 -42 c0 -10
-7 -20 -16 -22 -13 -2 -15 3 -11 23 5 29 27 29 27 -1z m-1355 -137 c47 -14
123 -37 170 -50 101 -28 100 -26 75 -183 -8 -54 -22 -173 -30 -264 -15 -159
-49 -369 -80 -495 -29 -114 -45 -231 -57 -404 -11 -172 -26 -207 -27 -67 -1
72 -46 330 -62 356 -6 10 -7 -3 -2 -35 5 -27 8 -102 8 -165 0 -65 4 -118 10
-122 6 -5 5 -8 -2 -8 -7 0 -13 -7 -13 -16 0 -8 4 -13 9 -10 14 9 19 -13 31
-155 9 -97 9 -141 1 -159 l-11 -25 1 30 c2 63 -1 178 -5 174 -2 -2 -7 -67 -11
-143 -3 -77 -11 -148 -16 -157 -5 -10 -10 -35 -10 -56 -1 -21 -3 -30 -6 -20
-2 9 -9 15 -14 12 -5 -4 -9 -57 -9 -120 0 -117 -15 -259 -31 -285 -6 -11 -9
-5 -10 20 -1 28 -3 24 -13 -25 -10 -55 -13 -60 -39 -63 -24 -3 -26 -6 -16 -18
10 -12 10 -15 -1 -12 -8 2 -15 -6 -17 -17 -1 -11 0 -14 3 -6 12 26 22 -10 13
-43 -5 -17 -5 -32 -1 -34 4 -1 2 -39 -5 -85 -68 -442 -65 -413 -68 -762 -2
-303 -3 -333 -21 -362 -22 -37 -49 -44 -124 -32 -44 7 -61 15 -82 40 l-27 32
-141 10 c-119 9 -143 13 -151 28 -5 10 -16 16 -23 13 -19 -7 -29 12 -17 34 14
26 73 51 79 34 2 -8 23 3 54 28 56 44 74 51 58 19 -23 -42 0 -30 32 17 42 60
98 124 109 124 5 0 9 -6 9 -13 0 -18 27 -54 34 -46 3 3 1 19 -5 36 -8 24 -6
47 12 109 33 123 36 362 8 764 -13 179 -23 393 -23 475 0 134 3 160 28 240 26
88 42 123 182 395 67 131 155 316 168 353 13 38 -15 3 -41 -51 -14 -31 -30
-58 -35 -60 -4 -2 -8 -8 -8 -13 0 -13 -71 -175 -100 -229 l-25 -45 -3 44 c-2
24 6 101 18 170 24 137 24 135 -11 451 -33 289 -21 613 31 867 7 32 14 61 16
65 2 4 37 -8 77 -27 39 -18 110 -44 157 -58z m1368 51 c62 -249 76 -673 33
-963 -28 -189 -30 -312 -8 -417 17 -75 23 -167 11 -155 -11 11 -54 262 -54
317 0 30 9 123 20 205 43 313 37 661 -16 893 -25 111 -29 144 -17 155 14 14
21 6 31 -35z m-222 -125 c-11 -11 -19 6 -11 24 8 17 8 17 12 0 3 -10 2 -21 -1
-24z m-41 -533 c-4 -271 -11 -473 -19 -536 -10 -72 -11 -127 -5 -195 10 -98
-7 -317 -22 -302 -13 13 -29 190 -26 283 2 47 1 77 -1 68 -2 -10 -7 -18 -11
-18 -4 0 -6 -57 -4 -127 l3 -128 -26 54 c-17 37 -31 96 -44 190 -11 75 -22
151 -26 169 -10 50 1 38 26 -28 12 -33 26 -63 31 -66 5 -3 4 7 -1 22 -10 25
-92 341 -103 394 -3 14 -3 -4 0 -39 3 -35 9 -78 14 -95 5 -17 9 -42 8 -56 -1
-37 -33 40 -71 170 -17 58 -43 132 -58 165 -53 115 -88 316 -80 455 5 88 6 93
17 60 l11 -35 1 51 c1 38 5 54 17 58 9 3 59 6 112 6 53 1 126 7 162 15 35 7
68 11 72 9 4 -3 9 1 9 8 1 7 6 -16 11 -52 5 -38 7 -247 3 -500z m91 544 c-4
-9 -1 -23 5 -30 7 -9 8 -14 1 -14 -5 0 -12 7 -16 15 -5 15 2 45 11 45 3 0 2
-7 -1 -16z m-26 -60 c0 -8 5 -13 12 -11 14 3 38 -40 38 -70 0 -13 -5 -23 -11
-23 -6 0 -10 -16 -9 -37 1 -21 1 -63 -1 -93 -2 -49 -3 -46 -9 30 l-6 85 -2
-121 c-2 -100 -5 -121 -17 -121 -8 0 -15 4 -15 9 0 4 5 8 10 8 6 0 9 19 9 43
l-2 42 -6 -40 c-6 -36 -7 -38 -14 -15 -10 36 -9 208 2 214 5 4 7 -2 4 -13 -3
-10 0 -22 6 -25 8 -5 11 13 10 56 -1 35 -4 53 -6 41 -2 -13 -9 -23 -15 -23 -6
0 -8 12 -4 31 3 17 6 38 6 46 0 8 5 11 10 8 6 -3 10 -13 10 -21z m-715 -135
c-5 -37 -15 -52 -15 -21 0 21 9 52 16 52 1 0 1 -14 -1 -31z m775 -73 c0 -78
-6 -69 -13 18 -3 41 -1 63 4 55 5 -8 9 -41 9 -73z m-794 -33 c-4 -32 -18 -101
-32 -153 -33 -127 -147 -475 -152 -462 -2 6 16 64 38 129 62 175 96 299 125
451 20 103 31 122 21 35z m801 -95 c-3 -7 -5 -2 -5 12 0 14 2 19 5 13 2 -7 2
-19 0 -25z m0 -75 c-3 -10 -5 -2 -5 17 0 19 2 27 5 18 2 -10 2 -26 0 -35z
m-20 5 c-3 -7 -5 -2 -5 12 0 14 2 19 5 13 2 -7 2 -19 0 -25z m20 -85 c-3 -10
-5 -4 -5 12 0 17 2 24 5 18 2 -7 2 -21 0 -30z m-34 -530 c15 -38 38 -124 51
-192 16 -81 32 -135 46 -153 12 -16 30 -48 41 -71 10 -23 19 -36 19 -28 0 8
14 -5 30 -27 17 -23 30 -50 30 -60 0 -10 5 -23 10 -28 15 -15 58 -256 60 -339
3 -104 3 -105 -24 -105 -19 0 -26 -6 -29 -27 -2 -18 -5 -11 -6 18 -2 64 -12
110 -22 103 -5 -3 -9 -68 -9 -144 0 -76 -3 -146 -6 -155 -6 -14 -8 -14 -25 1
-17 16 -19 16 -19 1 0 -28 -53 -79 -83 -80 -22 -2 -27 -6 -23 -20 3 -13 0 -17
-9 -13 -11 4 -12 0 -5 -20 6 -14 10 -36 10 -49 0 -29 16 -41 34 -25 11 8 22 6
47 -9 38 -23 49 -20 50 17 1 16 5 6 10 -22 4 -27 12 -52 17 -55 6 -4 4 -34 -5
-81 -15 -77 -17 -96 -12 -165 2 -22 0 -53 -4 -70 -4 -16 -4 -25 0 -18 9 12 12
-52 15 -322 1 -99 5 -160 8 -136 l5 45 12 -35 c7 -19 11 -66 9 -109 -5 -100
-5 -97 -17 -80 -8 11 -9 -9 -5 -73 5 -81 3 -94 -21 -136 -6 -11 -52 32 -63 59
-11 27 -10 46 5 129 16 90 16 99 1 128 -13 26 -15 51 -10 140 11 182 -29 423
-110 668 -25 76 -46 141 -46 144 0 2 11 -6 25 -19 19 -18 7 15 -52 141 l-77
164 -4 106 c-3 67 2 144 11 205 9 55 18 155 21 224 6 127 23 277 50 450 8 52
18 116 21 143 3 26 10 47 14 47 4 0 20 -30 34 -67z m-1011 -69 c-6 -22 -13
-66 -17 -99 -10 -89 -35 -206 -50 -235 -8 -14 -14 -20 -15 -14 -1 29 50 295
65 342 20 60 31 64 17 6z m1146 -249 c-10 -11 -26 15 -30 50 l-6 40 20 -43
c11 -24 18 -45 16 -47z m92 -145 c52 -86 94 -187 121 -294 28 -107 29 -228 5
-536 -12 -153 -19 -352 -20 -530 -1 -251 1 -293 18 -350 22 -75 31 -128 22
-119 -3 3 -18 51 -32 105 -20 77 -27 133 -31 254 -7 194 12 625 33 745 18 101
13 273 -11 399 -17 89 -66 223 -108 296 -70 121 -68 147 3 30z m-1374 -321
c17 -113 18 -259 3 -330 -12 -56 -38 -124 -44 -117 -2 2 5 49 16 103 18 85 20
119 14 224 -4 69 -10 149 -14 178 -5 33 -4 50 1 45 6 -6 16 -52 24 -103z m-59
-41 c-2 -13 -4 -3 -4 22 0 25 2 35 4 23 2 -13 2 -33 0 -45z m1390 -440 c-3 -7
-5 -2 -5 12 0 14 2 19 5 13 2 -7 2 -19 0 -25z m-39 -73 c-3 -3 -9 2 -12 12 -6
14 -5 15 5 6 7 -7 10 -15 7 -18z m-21 -38 c-8 -21 -59 -29 -55 -9 2 8 11 16
21 18 11 1 21 5 25 8 9 9 15 -2 9 -17z m-1379 -74 c-86 -245 -127 -460 -135
-707 -4 -124 -9 -173 -16 -161 -21 38 2 357 38 535 34 166 108 390 129 390 2
0 -5 -26 -16 -57z m1449 25 c-3 -8 -6 -5 -6 6 -1 11 2 17 5 13 3 -3 4 -12 1
-19z m0 -265 c-3 -10 -5 -2 -5 17 0 19 2 27 5 18 2 -10 2 -26 0 -35z m281
-671 c54 -81 59 -91 24 -57 -30 30 -91 132 -72 120 5 -3 27 -32 48 -63z
m-1894 4 c-3 -14 1 -59 10 -101 18 -86 20 -141 7 -149 -8 -5 -14 29 -27 176
-6 62 -2 98 11 98 3 0 3 -11 -1 -24z m2016 -91 c16 -19 3 -40 -16 -24 -15 13
-19 39 -5 39 5 0 14 -7 21 -15z m-363 -67 c-3 -7 -5 -2 -5 12 0 14 2 19 5 13
2 -7 2 -19 0 -25z m513 7 c7 -9 8 -15 2 -15 -5 0 -12 7 -16 15 -3 8 -4 15 -2
15 2 0 9 -7 16 -15z"/>
<path d="M5698 8583 c58 -82 72 -278 32 -463 -19 -92 -22 -131 -20 -314 1
-239 6 -257 83 -320 39 -32 172 -122 207 -140 33 -17 -48 47 -95 74 -27 17
-72 50 -100 75 l-50 44 3 133 c1 89 8 159 21 213 61 252 81 459 53 556 -18 60
-78 139 -120 156 l-34 14 20 -28z m52 -43 c0 -5 -4 -10 -10 -10 -5 0 -10 5
-10 10 0 6 5 10 10 10 6 0 10 -4 10 -10z m13 -65 c-7 -21 -12 -19 -10 4 0 11
5 18 9 15 4 -3 5 -11 1 -19z m-26 -447 c-3 -7 -5 -2 -5 12 0 14 2 19 5 13 2
-7 2 -19 0 -25z"/>
<path d="M5505 7990 c-3 -5 -1 -10 4 -10 6 0 11 5 11 10 0 6 -2 10 -4 10 -3 0
-8 -4 -11 -10z"/>
<path d="M5955 7010 c-3 -5 -2 -10 4 -10 5 0 13 5 16 10 3 6 2 10 -4 10 -5 0
-13 -4 -16 -10z"/>
<path d="M5908 6953 c7 -3 16 -2 19 1 4 3 -2 6 -13 5 -11 0 -14 -3 -6 -6z"/>
<path d="M5841 6724 c0 -11 3 -14 6 -6 3 7 2 16 -1 19 -3 4 -6 -2 -5 -13z"/>
<path d="M4774 6521 c20 -22 26 -25 26 -13 0 4 -10 13 -22 21 -23 14 -23 14
-4 -8z"/>
<path d="M4875 6470 c3 -5 8 -10 11 -10 2 0 4 5 4 10 0 6 -5 10 -11 10 -5 0
-7 -4 -4 -10z"/>
<path d="M4467 6120 c3 -11 9 -22 13 -25 5 -3 6 4 3 15 -3 11 -9 22 -13 25 -5
3 -6 -4 -3 -15z"/>
<path d="M4316 5906 c-8 -113 -11 -125 -52 -205 -23 -48 -45 -102 -49 -121
l-6 -35 19 35 c10 19 37 71 61 116 l42 80 -3 125 -3 124 -9 -119z"/>
<path d="M4401 5844 c0 -11 3 -14 6 -6 3 7 2 16 -1 19 -3 4 -6 -2 -5 -13z"/>
<path d="M5157 5628 c6 -36 62 -177 75 -192 4 -6 -5 30 -21 80 -16 49 -32 101
-35 117 -9 39 -27 34 -19 -5z"/>
<path d="M4481 5454 c0 -11 3 -14 6 -6 3 7 2 16 -1 19 -3 4 -6 -2 -5 -13z"/>
<path d="M4281 5194 c0 -11 3 -14 6 -6 3 7 2 16 -1 19 -3 4 -6 -2 -5 -13z"/>
<path d="M4262 5020 c0 -19 2 -27 5 -17 2 9 2 25 0 35 -3 9 -5 1 -5 -18z"/>
<path d="M6621 5240 c0 -8 4 -22 9 -30 12 -18 12 -2 0 25 -6 13 -9 15 -9 5z"/>
<path d="M5798 5283 c12 -2 32 -2 45 0 12 2 2 4 -23 4 -25 0 -35 -2 -22 -4z"/>
<path d="M4797 4817 c-8 -21 4 -47 30 -68 16 -13 17 -12 4 4 -7 9 -17 32 -20
50 -6 26 -8 28 -14 14z"/>
<path d="M4866 4698 c10 -14 21 -24 23 -22 3 3 -6 15 -18 27 l-24 22 19 -27z"/>
<path d="M4960 4461 c8 -4 29 -11 45 -15 19 -4 25 -3 15 3 -8 4 -28 11 -45 15
-19 4 -25 3 -15 -3z"/>
<path d="M4889 3313 c-13 -17 -13 -17 6 -3 11 8 22 16 24 17 2 2 0 3 -6 3 -6
0 -17 -8 -24 -17z"/>
<path d="M4896 2953 c-3 -21 -8 -99 -11 -173 -4 -154 -2 -144 16 58 11 136 9
195 -5 115z"/>
<path d="M4952 2825 c0 -16 2 -22 5 -12 2 9 2 23 0 30 -3 6 -5 -1 -5 -18z"/>
<path d="M4874 2465 c0 -49 1 -71 3 -48 2 23 2 64 0 90 -2 26 -3 8 -3 -42z"/>
<path d="M4862 2180 c0 -14 2 -19 5 -12 2 6 2 18 0 25 -3 6 -5 1 -5 -13z"/>
<path d="M4761 1804 c0 -11 3 -14 6 -6 3 7 2 16 -1 19 -3 4 -6 -2 -5 -13z"/>
<path d="M4651 1504 c0 -11 3 -14 6 -6 3 7 2 16 -1 19 -3 4 -6 -2 -5 -13z"/>
<path d="M4622 1295 c-6 -44 -12 -107 -11 -140 1 -55 3 -52 15 45 18 133 15
211 -4 95z"/>
<path d="M4167 753 c-4 -3 -7 -11 -7 -17 0 -6 5 -5 12 2 6 6 9 14 7 17 -3 3
-9 2 -12 -2z"/>
<path d="M5701 3894 c0 -11 3 -14 6 -6 3 7 2 16 -1 19 -3 4 -6 -2 -5 -13z"/>
<path d="M5712 3820 c0 -14 2 -19 5 -12 2 6 2 18 0 25 -3 6 -5 1 -5 -13z"/>
<path d="M5721 3775 c1 -19 18 -51 18 -35 0 8 -4 22 -9 30 -5 8 -9 11 -9 5z"/>
<path d="M6141 4184 c0 -11 3 -14 6 -6 3 7 2 16 -1 19 -3 4 -6 -2 -5 -13z"/>
<path d="M6142 2810 c0 -19 2 -27 5 -17 2 9 2 25 0 35 -3 9 -5 1 -5 -18z"/>
<path d="M6090 1994 c0 -5 7 -18 15 -28 12 -16 15 -17 15 -4 0 8 -7 21 -15 28
-8 7 -15 9 -15 4z"/>
<path d="M6130 1918 c0 -6 3 -8 7 -5 3 4 13 1 22 -6 14 -11 14 -10 2 6 -15 20
-31 22 -31 5z"/>
<path d="M6290 1756 c0 -2 7 -17 15 -32 16 -30 19 -25 9 14 -5 18 -24 33 -24
18z"/>
<path d="M6332 1705 c0 -16 2 -22 5 -12 2 9 2 23 0 30 -3 6 -5 -1 -5 -18z"/>
<path d="M6311 1622 c-1 -13 -5 -21 -10 -18 -4 3 -6 -7 -3 -22 l6 -27 8 33 c5
19 7 39 4 45 -2 7 -5 2 -5 -11z"/>
<path d="M6291 1384 c0 -11 3 -14 6 -6 3 7 2 16 -1 19 -3 4 -6 -2 -5 -13z"/>
<path d="M3173 4495 c0 -22 2 -30 4 -17 2 12 2 30 0 40 -3 9 -5 -1 -4 -23z"/>
<path d="M3201 4340 c0 -8 4 -24 9 -35 5 -13 9 -14 9 -5 0 8 -4 24 -9 35 -5
13 -9 14 -9 5z"/>
</g>
</svg>
