<?xml version="1.0" encoding="UTF-8" standalone="no"?>
<!-- Created with Inkscape (http://www.inkscape.org/) -->

<svg
   width="180mm"
   height="155mm"
   viewBox="0 0 180 155"
   version="1.1"
   id="svg1"
   inkscape:version="1.4 (86a8ad7, 2024-10-11)"
   sodipodi:docname="siluetas.svg"
   xmlns:inkscape="http://www.inkscape.org/namespaces/inkscape"
   xmlns:sodipodi="http://sodipodi.sourceforge.net/DTD/sodipodi-0.dtd"
   xmlns="http://www.w3.org/2000/svg"
   xmlns:svg="http://www.w3.org/2000/svg">
  <sodipodi:namedview
     id="namedview1"
     pagecolor="#ffffff"
     bordercolor="#000000"
     borderopacity="0.25"
     inkscape:showpageshadow="2"
     inkscape:pageopacity="0.0"
     inkscape:pagecheckerboard="0"
     inkscape:deskcolor="#d1d1d1"
     inkscape:document-units="mm"
     inkscape:zoom="0.5"
     inkscape:cx="256"
     inkscape:cy="282"
     inkscape:window-width="1920"
     inkscape:window-height="1017"
     inkscape:window-x="1432"
     inkscape:window-y="-8"
     inkscape:window-maximized="1"
     inkscape:current-layer="layer1" />
  <defs
     id="defs1" />
  <g
     inkscape:label="Layer 1"
     inkscape:groupmode="layer"
     id="layer1">
    <path
       id="path55"
       style="display:inline;fill:#000000;stroke-width:1.08614"
       d="m 139.04105,2.5001423 c -0.20229,8.536e-4 -0.40332,0.00517 -0.60266,0.013466 -1.91364,0.07965 -3.66717,0.5040523 -4.80756,1.3071819 -0.25388,0.1787903 -0.98602,0.5373645 -1.627,0.7970496 -1.21958,0.4940922 -4.30013,3.2780069 -4.12741,3.7299225 0.17343,0.4537922 0.8311,0.4926762 0.8311,0.049201 0,-0.8970653 2.96079,-3.1494292 5.0003,-3.8039824 0.29617,-0.095056 0.53842,-0.286616 0.53842,-0.4257146 0,-0.1391694 0.14456,-0.1750045 0.32121,-0.079757 0.17666,0.095228 0.51467,0.032812 0.75105,-0.1382796 0.91904,-0.665234 4.91075,-1.0393398 6.87152,-0.6442687 5.48548,1.1052719 7.77966,4.2559595 7.86372,10.799788 l 0.0398,3.126049 -1.14975,2.397364 c -0.63245,1.31858 -1.25833,2.465942 -1.39092,2.549626 -0.38869,0.245394 -0.97334,1.559839 -0.77196,1.735486 v 5.18e-4 c 0.36231,0.316003 0.697,0.152687 0.697,-0.339743 0,-0.275314 0.31162,-0.845686 0.69241,-1.267302 0.58403,-0.646629 1.18031,-1.748316 1.58467,-2.928731 0.0506,-0.147608 0.16865,-0.449787 0.26258,-0.671199 0.0939,-0.221414 0.27208,-0.644254 0.39566,-0.939473 C 151.9319,14.139595 150.25763,7.3151286 147.2398,4.8327683 145.38539,3.307396 142.07555,2.4873387 139.04108,2.5001424 Z M 41.579344,3.7902335 C 38.612466,3.6804879 35.783421,4.0147509 35.007625,4.8638421 34.83837,5.0491145 34.5419,5.1542201 34.348873,5.0974155 c -0.410873,-0.12084 -1.64892,1.1644181 -1.64892,1.7116626 0,0.2064111 -0.340103,0.9602485 -0.755628,1.6754095 -0.415514,0.7151712 -0.697463,1.3505393 -0.626631,1.4123159 0.07082,0.061765 -0.07408,0.6997785 -0.321729,1.4174945 -0.493494,1.430151 -0.59181,3.8303 -0.179983,4.396979 0.168236,0.231558 0.261053,-0.01867 0.261053,-0.704345 0,-0.585008 0.105897,-1.212967 0.23505,-1.395226 0.129155,-0.18226 0.261636,-0.810816 0.294195,-1.396778 0.03259,-0.585963 0.201668,-1.146549 0.376284,-1.245552 0.318809,-0.180768 0.619072,-1.0424482 0.926435,-2.6604568 0.0909,-0.4785523 0.286993,-0.8042615 0.43594,-0.7240255 0.148867,0.080286 0.198918,-0.018026 0.110642,-0.2185542 -0.09048,-0.20563 0.374092,-0.7834602 1.066138,-1.3253085 0.69136,-0.5413005 1.278626,-0.8274739 1.345038,-0.6556626 0.08073,0.2089766 0.293291,0.1780616 0.675578,-0.097883 0.549447,-0.3965824 4.53834,-1.1244181 4.297187,-0.784102 -0.06818,0.096262 0.822203,0.1157256 1.978807,0.043503 4.489008,-0.2801343 8.472031,2.2636711 9.144014,5.8398506 0.273183,1.453796 1.264007,5.110067 1.422028,5.24789 0.105184,0.09174 0.0087,0.729701 -0.214145,1.418012 -0.222848,0.68831 -0.491733,1.915935 -0.597568,2.727785 -0.296944,2.276619 -2.207327,6.441134 -2.954699,6.441134 -0.1658,0 -0.3013,0.150571 -0.300823,0.335082 7.44e-4,0.292874 -0.828579,1.949275 -1.579068,3.153499 -0.137982,0.221413 -0.473597,0.786159 -0.745431,1.254873 -0.647013,1.11562 -4.75352,1.668195 -4.75352,0.639608 0,-0.252158 -3.370969,-1.701765 -5.019674,-2.158611 -1.316531,-0.364792 -1.750385,-1.035429 -1.750385,-2.705514 0,-0.711986 -0.136187,-1.056001 -0.418604,-1.056001 -0.445531,0 -0.420939,0.425023 0.16112,2.751608 l 0.319178,1.275072 1.656059,0.4195 c 0.9108,0.230929 1.735804,0.532761 1.833493,0.670682 0.09774,0.137933 0.415209,0.250664 0.705151,0.250664 0.289943,0 1.028243,0.360991 1.641273,0.801711 l 1.115086,0.801192 2.041521,0.03832 2.041521,0.03885 -0.207007,1.37451 c -0.318042,2.111818 -0.302864,2.654321 0.07802,2.769216 0.195805,0.05907 0.472633,-0.343101 0.62663,-0.910988 0.343546,-1.266971 0.923634,-1.386054 2.507032,-0.514276 2.157573,1.18791 5.368985,2.566313 5.639166,2.42067 0.144169,-0.07766 0.418983,-0.05627 0.610824,0.04712 0.191853,0.103414 0.840171,0.213746 1.440385,0.245486 0.760781,0.04029 1.287574,0.273011 1.739676,0.767529 0.356699,0.390151 0.808384,0.709007 1.003935,0.709007 0.195551,0 1.175247,0.662347 2.177147,1.471356 l 1.821766,1.470839 0.569526,1.68266 c 0.62316,1.840678 0.702158,7.725584 0.167747,12.48452 -0.06153,0.547874 -0.460163,0.384879 -1.10234,-0.451092 -0.331787,-0.431921 -0.712753,-0.726655 -0.846384,-0.654627 -0.13365,0.07204 -0.242699,0.0072 -0.242699,-0.144494 0,-0.151642 -0.207568,-0.206714 -0.461433,-0.121707 -0.253865,0.08497 -0.461942,0.275516 -0.461942,0.423126 0,0.147624 0.190046,0.204586 0.422173,0.126885 0.238514,-0.07983 0.711203,0.199422 1.086534,0.642198 0.365295,0.430928 0.837511,0.783583 1.049822,0.783583 0.485992,0 1.441914,1.384702 1.441914,2.088695 0,0.291325 0.206182,0.960452 0.458373,1.486893 1.417354,2.958579 1.204568,10.498641 -0.465512,16.475983 -0.90045,3.222808 -1.1273,4.490012 -0.613883,3.432129 0.143284,-0.295218 0.430362,-1.11491 0.637847,-1.821457 0.536561,-1.827178 0.953194,-1.465328 1.813099,1.574937 0.56601,2.001681 0.79821,2.495799 0.936122,1.993401 0.222242,-0.809669 0.372173,-0.606985 1.088573,1.473428 0.304992,0.885651 0.646344,1.731334 0.758687,1.878944 1.329022,1.746425 1.939629,6.504392 1.80851,14.090013 -0.100253,5.79952 0.09745,10.61621 0.476219,11.60721 0.09873,0.25831 0.264819,0.68115 0.369146,0.93947 0.125491,0.31073 0.237992,0.35662 0.332435,0.1362 0.07853,-0.18322 -0.03509,-0.78705 -0.252385,-1.34187 -0.289045,-0.73803 -0.404447,-3.52969 -0.430841,-10.40205 -0.04152,-10.807815 -0.382682,-14.051039 -1.590285,-15.115463 -0.221289,-0.195059 -0.402798,-0.524875 -0.402798,-0.732829 0,-0.545874 -1.567286,-3.88607 -2.216916,-4.724292 -0.303666,-0.391815 -0.552189,-0.958393 -0.552189,-1.259017 0,-0.300624 -0.138719,-0.620914 -0.307962,-0.712114 -0.169244,-0.09123 -0.307452,-0.497069 -0.307452,-0.901666 0,-0.404594 -0.134438,-0.853103 -0.298784,-0.996442 -0.193258,-0.168556 -0.15038,-0.690603 0.121349,-1.478089 0.23107,-0.669646 0.429356,-1.874718 0.441038,-2.678065 0.03743,-2.603079 0.367638,-5.215748 0.670989,-5.307449 0.453545,-0.13707 0.351737,-1.75565 -0.147352,-2.341948 -0.24389,-0.286525 -0.370261,-0.782124 -0.280939,-1.101576 0.172095,-0.615135 -1.633675,-5.469236 -2.145534,-5.767345 -0.302631,-0.176243 -0.21296,-1.615713 0.381893,-6.131428 0.872012,-6.619683 -0.168806,-9.240838 -4.827452,-12.158761 -0.797601,-0.499571 -1.256743,-0.973414 -1.158935,-1.195833 0.114592,-0.260388 -0.0075,-0.321065 -0.417074,-0.207679 -0.328334,0.09089 -1.037339,-0.07561 -1.637194,-0.384282 -0.581988,-0.299488 -1.462746,-0.570893 -1.957392,-0.603355 -0.494634,-0.03245 -1.245687,-0.213382 -1.668806,-0.401891 -0.423108,-0.188507 -1.003277,-0.343491 -1.289462,-0.344404 -0.286185,-9.12e-4 -0.600596,-0.114987 -0.698522,-0.253253 -0.09797,-0.138267 -0.556151,-0.426779 -1.018211,-0.641162 -0.462057,-0.214396 -1.377033,-0.639056 -2.032852,-0.944133 -2.309871,-1.074548 -2.674788,-2.347777 -1.190038,-4.150976 0.548809,-0.666513 1.002703,-1.31317 1.008524,-1.436657 0.0057,-0.123478 0.277709,-0.707424 0.604706,-1.297861 0.327008,-0.590436 0.599394,-1.186696 0.605215,-1.32479 0.0057,-0.138094 0.286054,-0.506969 0.623062,-0.819838 C 55.452152,21.282563 54.320884,9.1148835 48.977052,5.3807073 47.65067,4.4538556 44.546222,3.8999792 41.579344,3.7902335 Z M 33.553985,22.195915 c -0.04652,1.92e-4 -0.09573,0.996941 -0.109112,2.214544 -0.02312,2.09515 -0.533047,4.22659 -1.011073,4.22659 -0.120105,0 -0.240469,0.257383 -0.267681,0.57228 -0.07406,0.857535 -1.567864,3.378309 -2.109334,3.559534 -0.260251,0.08707 -0.386816,0.280168 -0.281448,0.428821 0.105347,0.148654 -0.07614,0.270344 -0.403308,0.270344 -0.543145,0 -3.385885,1.219484 -3.749587,1.608601 -0.59277,0.634205 -7.317507,3.069013 -9.609525,3.479259 -2.136768,0.382452 -2.892696,1.012774 -4.730576,3.943815 -4.0217508,6.413859 -4.8484837,8.626625 -4.5618108,12.214694 0.1350243,1.690159 0.1977257,14.637234 0.076481,15.790281 -0.023601,0.221414 -0.020511,1.398652 0.00612,2.616437 0.03167,1.446389 0.1698053,2.214026 0.3976989,2.214026 0.2464346,0 0.3054921,-0.783046 0.2013986,-2.668225 -0.080985,-1.467499 -0.032333,-2.826249 0.1080924,-3.019363 0.1659403,-0.228271 0.2564821,-0.04748 0.2600341,0.516347 0.0076,1.402531 0.7212252,4.634695 1.0233097,4.634695 0.1529421,0 0.1938026,-0.191916 0.090757,-0.426232 C 8.7813167,74.138046 8.6297787,73.504303 8.5479057,72.963672 8.1528967,70.355226 8.0441056,69.655599 7.6653202,67.283853 7.2729249,64.826983 7.3247787,58.69003 7.7377212,58.700162 c 0.1051966,0.0025 0.5147737,0.697109 0.9101182,1.543346 0.9762214,2.089611 1.1086212,2.293439 1.5800886,2.430509 0.291372,0.08469 0.262877,-0.06276 -0.09891,-0.513241 -0.2792652,-0.347751 -0.5078308,-0.864145 -0.5078308,-1.14715 0,-0.283006 -0.2422475,-0.688316 -0.5384239,-0.901147 l -0.5384229,-0.38739 0.5384229,0.148119 c 0.2961764,0.08126 0.5384239,0.109643 0.5384239,0.06319 0,-0.273288 -1.0053357,-1.777436 -1.1879979,-1.777436 -0.1208273,0 -0.2384164,-0.211421 -0.2615634,-0.469737 C 8.1484646,57.430904 7.9590428,56.857492 7.7509781,56.414666 6.415175,53.571763 7.032017,50.528564 9.963815,45.495242 c 3.053486,-5.242249 4.272327,-6.421786 6.756292,-6.538499 0.814047,-0.03825 1.597217,-0.132661 1.740188,-0.20975 0.442029,-0.238263 3.001829,0.07367 3.119386,0.380139 0.261181,0.680877 6.196964,2.508405 6.196964,1.907948 0,-0.118547 -1.004179,-0.496331 -2.231193,-0.840036 -1.227019,-0.343707 -2.622111,-0.910984 -3.100521,-1.260571 -0.478399,-0.349598 -1.164141,-0.635982 -1.523493,-0.635982 -0.842366,0 -0.489776,-0.268557 1.623938,-1.237266 0.930839,-0.426608 1.738836,-0.866054 1.795253,-0.97676 0.05642,-0.11071 0.307757,-0.201465 0.558817,-0.201465 0.251052,0 0.901409,-0.295607 1.444973,-0.657215 0.543574,-0.361596 1.590957,-0.892666 2.327558,-1.180296 2.038607,-0.796035 4.208873,-3.585805 4.83408,-6.213776 0.661898,-2.782276 0.686134,-5.637802 0.04793,-5.635798 z m 112.898035,2.201597 c -0.27803,0.111429 -0.093,1.033671 0.57513,2.897655 0.23812,0.66424 0.72559,2.083325 1.08297,3.153499 0.35741,1.070176 0.78996,1.945754 0.96111,1.945754 0.17114,0 1.09405,0.654661 2.0512,1.454784 0.95717,0.800134 2.2252,1.796376 2.81754,2.214026 0.59239,0.417652 1.45886,1.076417 1.92579,1.463588 1.17437,0.97376 5.1529,3.275974 5.35567,3.09912 0.2939,-0.256327 4.27345,1.689451 5.35976,2.620579 1.22086,1.04647 2.43667,2.283857 2.43667,2.480227 0,0.07489 0.26274,0.427597 0.5838,0.783584 0.98677,1.094053 1.43884,4.753679 1.02892,8.330955 -0.19148,1.669801 -0.3005,3.647499 -0.24219,4.39439 l 0.10606,1.357936 -0.66131,-0.17298 c -0.36368,-0.09507 -1.15191,-0.582346 -1.7514,-1.08293 -0.59948,-0.500595 -1.32803,-0.910471 -1.61935,-0.910471 h -0.52975 l 0.46551,-0.972099 c 0.58921,-1.228242 0.59071,-1.711663 0.005,-1.711663 -0.30233,0 -0.46143,0.264287 -0.46143,0.765457 0,1.196899 -0.62329,2.510174 -1.11356,2.346092 -0.307,-0.102753 -0.42523,0.09643 -0.42523,0.718847 0,1.001077 -1.82575,4.370787 -2.93278,5.412583 -0.41784,0.393224 -0.7597,0.950172 -0.7597,1.237782 0,0.287611 -0.12838,0.52308 -0.28553,0.52308 -0.47171,0 -1.25303,0.811464 -1.24612,1.293717 0.005,0.348817 0.14234,0.299405 0.60828,-0.220108 0.76409,-0.851987 0.76785,-0.491592 0.0153,1.498806 -0.72176,1.909006 -2.19279,4.327922 -3.21932,5.293983 -0.79881,0.751739 -0.97334,1.120132 -1.23236,2.60038 -0.0904,0.516642 -0.29337,1.322797 -0.45124,1.79142 -0.15784,0.468612 -0.21261,0.917334 -0.12135,0.996959 0.0913,0.07962 -0.12585,0.782774 -0.48284,1.563025 -1.61358,3.526488 -2.39885,10.303259 -1.36339,11.766192 0.36005,0.5087 0.81926,1.528288 1.02075,2.266334 0.66558,2.438054 1.22574,3.675641 2.30564,5.094595 0.58699,0.77129 1.06716,1.48695 1.06716,1.59047 0,0.10352 0.29964,0.75552 0.66537,1.44858 1.41038,2.67253 2.03514,7.05573 1.27009,8.90893 -0.0914,0.22141 -0.19589,0.95981 -0.2325,1.64122 -0.0419,0.78351 -0.50714,2.05842 -1.26549,3.46787 -0.81571,1.51712 -1.07984,2.26342 -0.826,2.33728 0.27349,0.0795 0.23973,0.28529 -0.12644,0.77271 -0.34592,0.46047 -0.40133,0.75065 -0.17948,0.94414 0.42268,0.36864 1.09945,-1.37198 0.80764,-2.07731 -0.11701,-0.28283 -0.0925,-0.41622 0.0551,-0.29882 0.14652,0.11656 0.36244,1.08877 0.47978,2.16017 0.11734,1.07142 0.64336,3.02901 1.16863,4.35037 0.52529,1.32137 1.02357,2.58354 1.10743,2.80494 0.32413,0.85535 1.92836,6.35463 2.11393,7.24647 0.10753,0.51663 0.26513,1.24113 0.35028,1.61016 0.0851,0.36902 0.23913,1.45603 0.34161,2.41549 0.10249,0.95948 0.25362,1.84298 0.336,1.96336 0.14071,0.20556 0.15237,5.48706 0.0958,10.52116 h 0.66794 c 0.0162,-1.47587 0.0298,-2.96051 0.0765,-4.43323 0.10761,-3.39597 -0.29714,-8.44672 -0.86015,-10.73506 -0.63345,-2.57461 -1.59847,-6.03485 -2.08537,-7.4759 -0.69796,-2.06552 -0.69594,-2.01493 -0.0713,-1.80592 0.87,0.29119 1.57455,-0.0952 2.05631,-1.12799 0.25559,-0.54798 0.75282,-1.20671 1.10539,-1.46358 0.35257,-0.25688 0.64142,-0.69455 0.64142,-0.97313 0,-0.2786 0.20044,-0.6522 0.44563,-0.82968 0.24521,-0.1775 0.60679,-0.76597 0.80355,-1.3077 0.19676,-0.54172 0.56608,-1.27395 0.82089,-1.62725 0.4078,-0.56542 1.13242,-2.97771 1.90233,-6.33548 0.28544,-1.24486 1.14466,-4.14139 1.63209,-5.50166 0.42085,-1.17444 0.82087,-2.00804 2.22355,-4.63366 0.61232,-1.14622 1.24629,-2.69528 1.40877,-3.4425 0.16246,-0.74722 0.40001,-1.500245 0.52771,-1.673335 0.68344,-0.92634 -0.39393,-15.210233 -1.1472,-15.210233 -0.12047,0 -0.30948,-0.93592 -0.42013,-2.079889 -0.1106,-1.14398 -0.40037,-2.985894 -0.64448,-4.092972 -0.72313,-3.27944 -1.22076,-8.620427 -0.82293,-8.834872 0.24499,-0.132059 0.2121,-0.816987 -0.11829,-2.450707 -0.47175,-2.332764 -0.73378,-10.919228 -0.34977,-11.461149 0.11605,-0.163817 0.19335,-1.362594 0.17234,-2.664081 -0.0209,-1.30148 -0.0325,-2.761442 -0.0266,-3.244132 0.006,-0.482679 -0.18571,-1.20718 -0.42676,-1.610154 -0.24101,-0.402971 -0.43903,-0.875305 -0.44002,-1.049268 -9.8e-4,-0.173971 -0.18158,-0.475632 -0.40127,-0.670682 -0.2197,-0.195061 -0.9952,-1.018922 -1.72285,-1.83078 -1.2787,-1.426681 -3.01963,-2.541312 -5.26339,-3.369462 -3.04851,-1.125174 -4.64101,-1.972892 -6.4519,-3.434201 -0.66762,-0.538745 -1.36316,-0.979352 -1.54542,-0.979352 -0.18226,0 -1.52692,-1.026679 -2.98834,-2.281353 -1.46142,-1.254687 -2.75616,-2.281354 -2.8772,-2.281354 -0.12102,0 -0.29193,-0.21142 -0.37935,-0.469736 -0.0874,-0.258315 -0.50725,-1.495886 -0.93306,-2.750572 -0.42581,-1.254687 -0.82044,-2.634527 -0.87697,-3.065974 -0.0565,-0.431444 -0.29016,-0.837993 -0.51956,-0.903737 -0.0586,-0.01679 -0.10763,-0.01747 -0.14736,-0.0016 z m -10.26981,1.152847 -0.50629,1.457891 c -0.27855,0.801747 -0.51109,1.586567 -0.51701,1.744291 -0.006,0.157721 -0.27771,0.77009 -0.60471,1.360525 -0.32701,0.590436 -0.59929,1.217357 -0.60521,1.393154 -0.0403,1.232158 -1.59848,0.301623 -2.55751,-1.52729 -0.78419,-1.495486 -1.14032,-1.913137 -1.47659,-1.731861 -0.14376,0.07749 -0.0169,0.528761 0.28196,1.003175 0.29884,0.474425 0.79163,1.440657 1.0952,2.147217 0.45151,1.05092 0.65844,1.255424 1.13752,1.122809 1.31583,-0.364246 0.11656,1.54134 -1.38328,2.197972 -0.5249,0.229803 -1.16204,0.634777 -1.41591,0.900112 -0.25386,0.265335 -2.67683,1.476953 -5.38474,2.692567 -4.5519,2.043399 -9.57211,4.736125 -11.01269,5.90666 -0.6075,0.493625 -1.7451,3.064038 -3.56756,8.061128 -0.3113,0.853559 0.30685,4.566616 0.98302,5.905106 0.26793,0.530286 0.40826,1.225113 0.31256,1.544381 -0.0957,0.319257 -0.005,0.758044 0.20191,0.975208 0.3779,0.397139 0.32125,2.242882 -0.26718,8.727666 -0.41461,4.569052 0.24832,10.974929 1.23389,11.925705 0.14565,0.140508 0.0801,0.43656 -0.14888,0.6712 -0.2252,0.230818 -0.79548,1.324996 -1.26703,2.432063 -0.87939,2.064477 -2.27604,5.371459 -3.17394,7.514742 -0.41637,0.993886 -0.51826,2.514616 -0.57361,8.58835 -0.0371,4.05929 -0.0715,7.82184 -0.0765,8.361 -0.01,1.01872 -0.31762,2.95684 -1.12427,7.0709 -0.81652,4.16437 -1.11836,5.35675 -1.44702,5.7109 -0.22237,0.23955 -0.20192,0.56431 0.0683,1.0736 0.36617,0.69019 0.68999,2.33778 1.11917,5.69536 0.10378,0.81185 0.31238,1.67953 0.46347,1.92814 0.15109,0.24862 0.27482,1.19044 0.27482,2.09285 v 1.64071 l 0.83109,0.67223 c 0.45732,0.36964 1.64329,0.86887 2.63501,1.10934 2.00866,0.48707 2.21193,0.69936 2.50958,2.6211 0.11431,0.73806 0.40101,2.12672 0.63734,3.08617 0.23637,0.95948 0.65904,3.43563 0.93918,5.50218 0.28015,2.06652 0.63432,4.1073 0.78672,4.53526 0.08,0.22469 0.0946,0.53344 0.14532,0.83693 h 0.82446 c -0.27219,-1.50616 -0.45096,-2.3961 -0.9662,-5.37219 -0.51112,-2.95221 -1.06678,-5.85071 -1.23491,-6.44114 -0.1681,-0.59044 -0.36432,-1.64347 -0.43645,-2.33987 l -0.13103,-1.26627 0.65314,-0.35113 c 0.55801,-0.29984 2.68301,-0.81073 5.73349,-1.37866 l 0.77194,-0.14397 0.0199,-1.28596 c 0.0109,-0.70727 0.28531,-1.85997 0.61032,-2.56153 0.48057,-1.03737 0.52009,-1.36292 0.2116,-1.74429 -0.20861,-0.2579 -0.66144,-0.89155 -1.00648,-1.40818 -0.34502,-0.51662 -0.89009,-1.30195 -1.21146,-1.74481 -0.32133,-0.44282 -0.59441,-1.11378 -0.60675,-1.49103 -0.0123,-0.37726 -0.38337,-1.10174 -0.82445,-1.61015 -0.44106,-0.50841 -0.99672,-1.31688 -1.23491,-1.7966 -0.2382,-0.47974 -0.56979,-0.87215 -0.73676,-0.87215 -0.54209,0 -0.32503,0.53395 0.85046,2.09284 l 1.15384,1.5304 v 2.21402 c 0,1.21783 0.0875,2.21408 0.19477,2.21403 0.32386,-1.4e-4 0.56413,-1.15058 0.37629,-1.80333 -0.10059,-0.34956 -0.036,-0.61216 0.15092,-0.61216 0.17994,0 0.41555,0.4109 0.52363,0.91306 0.108,0.50216 0.5986,1.24928 1.09061,1.66039 1.08541,0.90695 1.09128,1.07059 0.12339,3.55799 -0.42191,1.08427 -0.69865,2.06884 -0.61439,2.18761 0.0842,0.11876 -0.91948,0.41602 -2.23068,0.66084 -1.31119,0.24484 -2.78085,0.55733 -3.26572,0.6945 -0.48487,0.1372 -1.03872,0.16383 -1.23083,0.059 -0.19211,-0.1048 -0.51387,-0.2126 -0.71535,-0.23926 -1.82577,-0.24199 -4.58717,-1.62128 -4.62911,-2.31244 -0.0112,-0.18577 -0.17924,-1.24367 -0.37322,-2.35075 -1.58228,-9.0298 -1.56567,-8.62395 -0.55424,-13.41881 1.49539,-7.08943 1.56352,-7.74837 1.61069,-15.56655 0.0254,-4.206887 0.15241,-8.071206 0.28195,-8.587838 0.52294,-2.085433 1.53201,-4.778826 2.37192,-6.329267 0.48871,-0.902137 0.88871,-1.781305 0.88871,-1.953523 0,-0.172227 0.12667,-0.522603 0.28144,-0.778923 0.54913,-0.909581 1.50135,-3.16365 1.7254,-4.084167 l 0.22741,-0.933775 -0.47571,0.344405 c -0.5478,0.39653 -0.59774,0.301631 -1.10438,-2.099571 -0.55564,-2.633359 -0.62597,-6.169802 -0.16775,-8.44075 0.23973,-1.187973 0.4362,-3.180751 0.43645,-4.428053 4.5e-4,-2.527113 0.22884,-2.55775 1.16251,-0.156406 0.34246,0.880755 0.77498,1.645693 0.9611,1.699751 0.50057,0.14552 0.43061,-0.137248 -0.61899,-2.496282 -0.52539,-1.180883 -1.05231,-2.710828 -1.17116,-3.40002 -0.11885,-0.689184 -0.35977,-1.413683 -0.53486,-1.610154 -0.17508,-0.196459 -0.48672,-0.961188 -0.69291,-1.699233 -0.20619,-0.738056 -0.52236,-1.783037 -0.7026,-2.322268 -0.37379,-1.118357 -0.11808,-3.118797 0.57819,-4.521275 0.8881,-1.788847 0.99012,-2.019188 1.46944,-3.308869 0.7553,-2.03227 1.3286,-2.819689 2.40149,-3.301619 0.54717,-0.245789 1.42298,-0.731117 1.94669,-1.07827 0.5237,-0.347143 1.09771,-0.631321 1.27519,-0.631321 0.17747,0 0.40229,-0.180984 0.49967,-0.402408 0.0974,-0.221413 0.45037,-0.40241 0.78418,-0.40241 0.33381,0 0.69837,-0.129246 0.81019,-0.286917 0.11172,-0.157621 0.3965,-0.221647 0.63325,-0.142423 0.24823,0.08308 0.43034,-0.02259 0.43034,-0.249628 0,-0.235745 1.51271,-1.048676 3.76997,-2.026028 2.07325,-0.897673 3.97705,-1.778551 4.2309,-1.957666 0.25387,-0.179116 0.87186,-0.501721 1.37309,-0.716775 1.24684,-0.534942 2.85984,-1.929638 2.70384,-2.337804 -0.0704,-0.183974 0.0221,-0.334565 0.20548,-0.334565 0.18328,0 0.31528,-0.09024 0.29318,-0.200946 -0.0717,-0.359882 0.78303,-1.945753 1.0488,-1.945753 0.14208,0 0.18302,-0.106488 0.0913,-0.236163 -0.0919,-0.129686 0.0356,-0.589256 0.28299,-1.021819 0.24742,-0.432561 0.48724,-1.081516 0.53332,-1.441836 0.0461,-0.360318 0.25552,-0.775808 0.46551,-0.923418 0.26406,-0.185636 0.3017,-0.516716 0.12185,-1.073608 z M 60.525105,52.81888 c -0.487385,0.08422 -0.751556,1.362187 -0.397189,3.03956 l 0.35487,1.677999 -0.541993,1.237784 c -0.847542,1.935572 -3.241574,3.772313 -4.225295,3.242059 -0.186876,-0.100706 -0.260905,-0.01625 -0.174375,0.198357 0.0978,0.242478 0.543588,0.351974 1.274676,0.313329 l 1.123753,-0.05956 -0.15449,0.596105 c -0.142912,0.550784 -0.436972,2.014803 -1.090103,5.427084 -0.14126,0.738045 -0.460298,1.945718 -0.70872,2.683762 -0.725797,2.156377 -0.853518,2.8179 -0.545561,2.8179 0.159021,0 0.379979,-0.361983 0.491515,-0.804819 0.372296,-1.478392 0.678218,-0.829935 0.854543,1.811618 0.168173,2.519457 0.652846,5.230907 1.594874,8.923433 0.244769,0.95946 0.667579,2.891622 0.939691,4.293917 0.700165,3.608153 1.057871,5.322195 1.400614,6.709925 0.759665,3.075819 0.346632,4.806581 -1.57244,6.588217 -0.330904,0.3072 -0.601647,0.78243 -0.601647,1.05652 0,0.27409 -0.225911,0.71618 -0.502223,0.98246 -0.276312,0.26628 -0.545673,1.06124 -0.598587,1.76605 l -0.09637,1.28128 0.402797,-0.94154 c 0.458789,-1.07223 3.243113,-5.902526 3.402365,-5.902526 0.05762,0 0.110774,1.101346 0.117779,2.447086 0.01072,1.96677 0.223603,3.08567 1.083985,5.70313 1.019786,3.10234 1.522163,6.16281 1.92272,11.71026 0.240165,3.32609 -1.298224,17.00485 -2.384662,21.20235 -0.171932,0.66422 -0.453345,2.11323 -0.625101,3.2203 -0.171756,1.10708 -0.438671,2.7979 -0.59298,3.75737 -0.243244,1.51238 -0.413122,3.1178 -0.561877,4.70151 h 0.538933 c 0.211252,-3.22117 0.552788,-6.19382 0.871878,-6.84872 0.107839,-0.22141 0.17597,-0.4883 0.151431,-0.593 -0.02458,-0.10473 0.234725,-1.4055 0.576154,-2.89093 0.762059,-3.31544 1.081827,-5.50177 1.688181,-11.54505 0.259181,-2.58317 0.651153,-5.5425 0.870858,-6.57578 0.221143,-1.04001 0.313861,-2.47742 0.208027,-3.2203 -0.200785,-1.40977 0.08539,-2.33678 0.988639,-3.20582 0.339923,-0.32697 0.468925,-0.72356 0.345692,-1.06221 -0.108186,-0.29728 -0.306477,-1.21015 -0.440528,-2.0281 -0.25191,-1.53714 -0.796636,-3.50203 -1.230317,-4.43893 l -0.248307,-0.53706 -0.02091,0.73801 c -0.01145,0.40593 -0.175081,0.73801 -0.363537,0.73801 -0.211291,0 -0.28655,-0.33315 -0.1963,-0.86956 0.09501,-0.56464 -0.0065,-0.96713 -0.289606,-1.14767 -0.239827,-0.15295 -0.574854,-0.75798 -0.744411,-1.34447 -0.169556,-0.58649 -0.429953,-1.4892 -0.578703,-2.00583 -0.314459,-1.09216 -0.401702,-3.97329 -0.19324,-6.37485 0.09394,-1.082287 0.01673,-1.796618 -0.216695,-2.012563 C 61.633861,97.09082 61.452397,96.33607 61.429605,95.598014 61.406835,94.859969 61.23962,93.652297 61.057909,92.914252 60.876211,92.176197 60.521273,90.364708 60.26914,88.888608 60.017009,87.412507 59.618152,85.721683 59.382475,85.131236 59.1468,84.5408 58.772964,83.091811 58.551897,81.910928 c -0.221068,-1.180871 -0.50231,-2.267881 -0.625101,-2.41549 -0.198435,-0.238535 -0.655595,-4.85857 -0.690365,-6.978197 -0.0073,-0.442838 0.138857,-1.287981 0.324277,-1.878427 0.355806,-1.133005 0.981737,-5.438258 1.149758,-7.906276 0.08243,-1.210734 0.237496,-1.552412 0.893293,-1.969059 0.436437,-0.277274 0.711864,-0.619588 0.611844,-0.760796 -0.100067,-0.141208 0.0026,-0.450912 0.227913,-0.687772 0.261702,-0.275023 0.410108,-1.168097 0.410955,-2.470906 8.97e-4,-1.372119 0.134919,-2.131322 0.408916,-2.319161 0.329174,-0.225642 0.334426,-0.418817 0.02753,-1.006281 -0.276719,-0.5297 -0.544287,-0.737962 -0.765825,-0.699684 z M 22.84314,56.011739 c -0.174559,0 -0.402994,0.211421 -0.507322,0.469736 -0.230942,0.571791 -2.503957,3.293341 -3.136212,3.754782 -0.250714,0.182979 -0.363783,0.413189 -0.250856,0.511686 0.205785,0.179472 1.201118,-0.668934 2.048659,-1.745844 0.985362,-1.25204 1.26543,-0.341931 1.252751,4.072773 -0.01108,3.868316 -0.117879,4.738951 -0.613373,5.00603 -0.203438,0.109642 -0.337419,0.367617 -0.297765,0.573317 0.03964,0.205701 -0.0064,0.555437 -0.102483,0.776851 -0.09602,0.221413 -0.398106,1.224551 -0.6715,2.229046 -0.27339,1.004507 -0.757323,2.42307 -1.075316,3.152981 -0.605611,1.390072 -0.443857,1.865877 0.200378,0.589371 0.552611,-1.094965 1.97224,-4.960483 2.020616,-5.501662 0.02308,-0.258316 0.155657,-0.469736 0.294195,-0.469736 0.13854,0 0.329316,0.21142 0.424213,0.469736 0.274391,0.747184 2.223495,4.124612 3.058711,5.300198 1.368123,1.925682 1.803576,4.777677 1.802392,11.80866 l -9.87e-4,5.368043 -0.814263,1.864443 c -0.447787,1.025533 -0.745266,1.961445 -0.661301,2.079891 0.08398,0.118496 0.04055,0.215447 -0.09637,0.215447 -0.136924,0 -0.265245,0.332082 -0.285018,0.738008 -0.05056,1.037969 -0.383917,2.740614 -0.722486,3.690044 -0.157915,0.44283 -0.363847,1.34885 -0.457353,2.01309 -0.09357,0.66426 -0.239093,1.63059 -0.323768,2.14721 -0.202065,1.23248 -1.030774,4.38223 -1.553065,5.90408 -0.227964,0.66424 -0.555259,1.90286 -0.727585,2.75212 -0.172313,0.84929 -0.440647,1.75476 -0.596038,2.01256 -0.155404,0.2578 -0.381394,1.13339 -0.502733,1.94524 h -5.1e-4 c -0.341683,2.28613 0.257488,1.29663 1.056452,-1.74481 0.387764,-1.47609 0.982262,-3.6501 1.321075,-4.83098 0.672088,-2.34248 2.081351,-8.18571 2.233231,-9.25904 0.266344,-1.88225 1.979017,-7.758575 2.526407,-8.669141 0.720609,-1.198735 0.428636,-14.624597 -0.341613,-15.711561 -0.126874,-0.179053 -0.282582,-0.683997 -0.346202,-1.122291 -0.06359,-0.438293 -0.606915,-1.358291 -1.207373,-2.044155 -0.600447,-0.685867 -1.091632,-1.40513 -1.091632,-1.59876 0,-0.19363 -0.346274,-0.797059 -0.769394,-1.340846 -0.736195,-0.94617 -0.820586,-1.172663 -0.891763,-2.390113 -0.01778,-0.304195 -0.213638,-0.502887 -0.452255,-0.45886 -0.325216,0.06 -0.360361,-0.09295 -0.153981,-0.671199 0.146957,-0.411748 0.267172,-2.710874 0.267172,-5.109611 0,-4.165297 0.314217,-5.497297 0.910629,-3.858362 0.10066,0.276593 1.034222,1.152175 2.074152,1.945753 1.039941,0.793582 2.165116,1.654293 2.500403,1.912609 1.704307,1.313063 1.034236,0.210718 -0.938161,-1.543345 -1.244866,-1.107077 -2.392111,-2.012563 -2.549351,-2.012563 -0.157248,0 -0.206065,-0.181514 -0.108603,-0.402927 0.106649,-0.242401 0.0019,-0.40241 -0.263603,-0.40241 -0.636745,0 -1.905638,-1.242205 -1.49494,-1.463588 0.422267,-0.227611 0.432807,-0.951901 0.01376,-0.951901 z m 105.46209,3.220826 c -0.24146,0 -0.2425,0.08181 -0.003,0.290543 0.47186,0.411554 -0.56509,2.776707 -1.61731,3.689008 -1.13821,0.986866 -1.79658,1.903595 -1.53267,2.133752 0.12139,0.105868 0.39752,-0.01847 0.61389,-0.276559 0.21638,-0.258084 0.63969,-0.469219 0.94071,-0.469219 h 0.54759 l -0.22689,1.677481 c -0.12476,0.922566 -0.32912,2.522645 -0.4543,3.555908 -0.12516,1.033273 -0.47386,2.421933 -0.77449,3.086172 -0.30062,0.664242 -0.57945,1.630576 -0.62,2.147217 -0.14554,1.852893 -0.76675,4.727176 -1.38787,6.42249 -0.41255,1.126218 -0.52223,1.785694 -0.31561,1.89707 0.30215,0.162846 0.46634,1.841149 0.35896,3.671401 -0.0275,0.46919 -0.28105,1.054692 -0.56341,1.300967 -0.3823,0.33342 -0.61294,1.383164 -0.90247,4.111616 -0.48094,4.532373 -1.01503,6.51738 -2.54375,9.456348 -0.33935,0.65244 -0.91743,1.91051 -1.28487,2.79615 -0.36743,0.88567 -0.85161,1.97265 -1.07583,2.4155 -0.22421,0.44283 -0.49474,1.10701 -0.60164,1.47602 -0.10689,0.36903 -0.3144,0.91252 -0.46092,1.20774 -1.53577,3.09431 -2.64365,9.13012 -1.91202,10.41758 0.32212,0.56684 0.51351,-0.32254 0.53689,-2.49525 0.0151,-1.39927 0.1749,-2.53485 0.38853,-2.75937 0.19965,-0.20981 0.28774,-0.44685 0.19578,-0.52723 -0.19458,-0.16971 3.486,-9.92439 3.82301,-10.13222 0.12437,-0.0767 0.40688,-0.68279 0.62765,-1.34705 0.22081,-0.66424 0.52898,-1.34428 0.68475,-1.51124 0.1558,-0.16695 0.47708,-0.95179 0.71434,-1.744294 0.23724,-0.792505 0.64878,-1.803301 0.91419,-2.246137 0.30673,-0.511722 0.4834,-1.505588 0.48439,-2.727266 0.002,-2.218223 0.73211,-5.871957 1.29048,-6.458742 0.26375,-0.277303 0.36545,-1.387387 0.32835,-3.598376 -0.041,-2.4476 0.0807,-3.589117 0.51956,-4.868269 0.31531,-0.919027 0.65468,-2.547619 0.7541,-3.619092 0.0994,-1.071463 0.40516,-2.399799 0.67966,-2.952035 0.27453,-0.552245 0.62082,-1.970555 0.76938,-3.151427 0.811,-6.447221 1.07381,-7.231013 2.49939,-7.447934 l 0.70005,-0.10617 -0.58635,-0.226322 c -0.42375,-0.163424 -0.7239,-0.08325 -1.08144,0.288471 -0.27213,0.282935 -0.76063,0.695271 -1.08601,0.916685 l -0.59197,0.402409 0.58534,-0.872145 c 0.32188,-0.47973 0.67569,-0.872145 0.78622,-0.872145 0.27159,0 0.58203,-2.11975 0.37832,-2.582773 -0.0894,-0.203236 -0.31368,-0.369263 -0.49866,-0.369263 z m 38.05366,0.162621 c 0.50368,0.05477 1.32057,0.318372 1.77435,0.671717 0.54806,0.426759 1.32481,0.776334 1.72591,0.776334 h 0.72911 l -0.11829,1.032176 c -0.0651,0.567906 0.0572,2.151849 0.27177,3.519656 0.36215,2.309564 0.3585,3.020009 -0.0311,6.12625 -0.10727,0.855201 -0.0273,1.18929 0.31255,1.303038 0.30626,0.102501 0.45736,0.533785 0.45736,1.305629 0,0.633769 0.26845,2.764652 0.59654,4.735168 0.95564,5.739484 1.07965,7.205556 0.60879,7.205556 -0.33425,0 -0.33365,0.05934 0.002,0.335599 0.32622,0.268086 0.4358,0.26772 0.54913,-0.0021 0.0779,-0.185425 0.26839,-0.26879 0.4232,-0.185407 0.39542,0.213125 0.35292,2.26737 -0.047,2.26737 -0.34095,0 -0.2245,1.451177 0.34315,4.276308 0.76814,3.822963 -0.17734,9.07735 -2.16135,12.01013 -0.36734,0.54304 -0.8728,1.53922 -1.12272,2.21351 -0.24993,0.67427 -0.57782,1.46769 -0.72861,1.76294 -0.37059,0.72552 -2.04898,6.82554 -2.47389,8.99075 -0.1883,0.95947 -0.51479,1.98563 -0.72555,2.28084 -0.21078,0.29522 -0.70217,1.29196 -1.09214,2.21454 -0.38998,0.92255 -0.83085,1.67696 -0.97946,1.67696 -0.14861,0 -0.27023,0.12893 -0.27023,0.2864 0,0.15746 -0.31171,0.67105 -0.69292,1.14094 -0.38124,0.46988 -0.84557,1.09587 -1.03146,1.39108 -0.3991,0.63301 -2.20528,0.89665 -2.41832,0.35269 -1.48599,-3.79424 -1.94736,-6.33454 -1.38481,-7.62506 0.19751,-0.45302 0.20974,-0.82751 0.0322,-0.98245 -0.39405,-0.3437 0.7384,-3.73926 1.81055,-5.42916 1.16907,-1.84266 1.52712,-4.74531 1.51024,-12.24577 l -0.009,-4.191372 1.26856,-4.665252 c 0.69752,-2.566035 1.52666,-5.236902 1.84216,-5.935145 0.46435,-1.027662 0.37575,-2.060009 -0.1295,-1.508128 -0.45085,0.492469 -1.1707,2.19575 -1.31547,3.113104 -0.24426,1.547925 -0.71229,1.445249 -0.71229,-0.156407 0,-0.713446 -0.10107,-1.38574 -0.22536,-1.494144 -0.1243,-0.108403 -0.3851,-0.823457 -0.57972,-1.588402 -0.19462,-0.764957 -0.58786,-2.236238 -0.8729,-3.269509 -2.03121,-7.36292 -1.73297,-12.77479 0.89329,-16.236712 0.39193,-0.516633 1.15127,-1.663975 1.68767,-2.549627 0.53639,-0.885666 1.23909,-1.806757 1.56174,-2.046744 0.32263,-0.239996 0.51755,-0.49635 0.43339,-0.569691 -0.17457,-0.152255 -0.18281,-0.245008 -0.0851,-0.288471 0.0733,-0.03248 0.20607,-0.03739 0.37373,-0.01916 z m -7.18765,12.878642 0.002,0.926525 c 9.2e-4,0.509847 0.13668,1.351622 0.30184,1.870141 0.30252,0.949709 0.78942,3.39913 1.11968,5.632691 0.0982,0.664239 0.5657,2.233895 1.03911,3.48858 0.47343,1.254688 0.95053,2.820995 1.06002,3.480812 0.10946,0.659828 0.33992,1.275798 0.51242,1.368812 0.20702,0.111589 0.15133,0.716028 -0.16418,1.777954 -1.27437,4.289243 -1.84315,9.840827 -1.26855,12.382507 0.0778,0.34428 -0.002,1.25031 -0.17693,2.01307 -0.17517,0.76279 -0.3761,2.04437 -0.44664,2.84794 h -5.2e-4 c -0.19841,2.25703 -0.54356,2.08942 -1.13446,-0.55053 -0.29738,-1.32861 -0.81655,-2.88709 -1.15384,-3.46372 -0.33728,-0.57663 -0.61337,-1.21567 -0.61337,-1.42008 0,-0.20442 -0.57445,-1.14534 -1.27671,-2.09077 -0.81231,-1.093602 -1.48731,-2.451132 -1.85542,-3.730964 -0.31824,-1.10645 -0.87514,-2.545788 -1.23746,-3.198556 -1.19893,-2.160072 -0.92904,-5.967079 0.81936,-11.563174 0.392,-1.254677 0.92312,-3.067172 1.18035,-4.027716 0.28648,-1.069809 1.015,-2.520715 1.88041,-3.744942 z M 7.1860417,75.568714 c -0.028249,-0.0069 -0.054697,-9.18e-4 -0.07954,0.0202 -0.1490561,0.12672 -0.2463803,0.79292 -0.3936199,2.429991 -0.1128472,1.254686 -0.2674627,2.643862 -0.3436526,3.086689 -0.076276,0.442827 -0.1339629,1.800725 -0.1269577,3.017809 0.00693,1.305749 -0.1992266,2.846033 -0.503242,3.757371 -0.5617643,1.684002 -0.6579508,2.647428 -0.7331935,7.349533 -0.035786,2.236622 0.088019,3.475996 0.4364489,4.371084 0.2674498,0.687049 0.4859065,1.562639 0.4859065,1.946269 0,0.38364 0.13363,1.13439 0.2967445,1.66818 0.8140699,2.66403 1.1929713,4.39324 1.0391157,4.74294 -0.093788,0.21317 -0.017563,0.38739 0.1697872,0.38739 0.1873528,0 0.3405928,0.29415 0.3405928,0.65358 0,0.35942 0.1374032,0.96799 0.3049024,1.35224 0.1674973,0.38424 0.371793,1.44883 0.4537843,2.36577 0.082061,0.91693 0.3058615,2.81447 0.4976335,4.21675 0.1917582,1.40229 0.3809432,3.75729 0.4201333,5.23338 0.051948,1.9585 0.25301,3.12613 0.7439009,4.32033 0.369967,0.90008 0.866298,2.53057 1.103359,3.62323 0.560636,2.58423 1.105345,4.31606 1.49341,4.74864 0.20745,0.23133 0.413836,0.25767 0.618983,0.0787 0.202776,-0.17665 0.204116,-0.387 0.0046,-0.61526 -0.49383,-0.56487 -1.288689,-2.70923 -1.272636,-3.43317 0.0082,-0.36903 -0.305679,-1.57669 -0.697502,-2.68376 -0.878549,-2.48241 -0.916079,-2.69742 -1.065629,-6.13405 -0.06651,-1.52837 -0.245552,-2.91704 -0.3976992,-3.08617 C 9.829525,118.81726 9.6060703,117.8336 9.4850576,116.80032 9.3640438,115.76705 9.1568809,114.01588 9.0246449,112.90881 8.8924096,111.80179 8.5528055,110.05062 8.2695159,109.01735 7.2473219,105.28932 6.8811657,103.89397 6.5614506,102.50889 6.3825781,101.73395 6.0797745,100.47797 5.8884218,99.717918 5.084179,96.52345 5.745329,87.433645 6.8719616,86.195524 7.010831,86.042913 7.021614,85.257026 6.8959256,84.449162 6.5098824,81.968049 7.13068,79.206082 7.572014,81.441193 7.652141,81.847116 7.644556,80.729693 7.555698,78.958376 7.46681,77.187057 7.3414548,75.687676 7.276799,75.626201 7.244341,75.595321 7.214291,75.575601 7.186042,75.568711 Z M 16.70889,111.56698 c -0.479724,0 -0.933574,1.7051 -1.027898,3.8625 l -0.09178,2.10372 0.631219,0.70227 c 1.1538,1.28278 2.46651,2.17052 3.463549,2.34195 1.45342,0.24992 1.982408,1.14789 1.974218,3.35392 -0.0065,1.78948 0.437397,2.52519 0.797947,1.32272 0.24022,-0.80119 0.792335,-0.63876 1.389397,0.40811 0.569417,0.99841 0.522408,1.61352 -0.318669,4.1546 -0.268706,0.81185 -0.500827,1.53629 -0.515479,1.61015 -0.1,0.50435 -0.871006,1.34189 -1.235416,1.34189 -0.241956,0 -0.588242,0.24186 -0.769394,0.53706 -0.189248,0.30843 -0.644344,0.53654 -1.069708,0.53654 -0.407174,0 -0.816412,0.10735 -0.909098,0.23824 -0.09274,0.13087 -0.644841,0.31539 -1.226748,0.4107 -0.58191,0.0952 -1.110267,0.31048 -1.174232,0.47802 -0.0648,0.16956 -0.756645,0.30452 -1.560713,0.30452 -1.906916,0 -2.1122,0.74956 -0.214145,0.78203 0.08463,0.001 0.550657,-0.0794 1.035546,-0.17919 l 0.881566,-0.18126 -0.153981,0.88509 c -0.08469,0.48679 -0.377052,1.91177 -0.650085,3.16644 -0.273032,1.25468 -0.496892,2.78823 -0.497123,3.40831 -4.08e-4,1.10322 -0.475135,3.57525 -0.840267,4.37471 -0.262586,0.57491 -0.251312,0.52831 -0.507831,2.14721 -0.105941,0.66868 -0.345614,1.83306 -0.558308,2.82257 h 1.18494 c 0.05113,-0.44724 0.05821,-0.49785 0.123897,-1.07828 0.297478,-2.62839 0.382059,-3.19977 0.715858,-4.83097 0.09063,-0.44282 0.30606,-2.21042 0.478769,-3.92776 0.172721,-1.71733 0.436518,-3.40766 0.586351,-3.75685 0.149833,-0.3492 0.3712,-1.33446 0.491515,-2.18918 l 0.218734,-1.55421 0.905529,-0.15797 c 0.498227,-0.0869 0.980689,-0.26297 1.071748,-0.39153 0.09109,-0.12853 0.412569,-0.23357 0.714838,-0.23357 0.30227,0 0.80061,-0.24184 1.106929,-0.53707 0.306329,-0.29521 0.780634,-0.53654 1.054411,-0.53654 0.814163,0 1.876689,-2.18222 2.346933,-4.82062 0.117373,-0.65857 0.359378,-1.40122 0.537914,-1.65056 0.327694,-0.45763 0.163152,-0.67425 -2.139416,-2.81478 -0.424945,-0.39506 -0.661302,-0.96209 -0.661302,-1.58529 0,-1.18764 -0.730304,-1.94513 -2.088939,-2.16742 -0.630952,-0.10326 -1.611588,-0.66197 -2.573316,-1.46618 l -1.553573,-1.29942 v -1.86029 c 0,-1.02304 0.201303,-2.35806 0.447666,-2.96706 0.246344,-0.609 0.326555,-1.10727 0.177944,-1.10727 z m 128.04017,0.80533 c -0.18485,0 -0.42779,0.33209 -0.53995,0.73801 -0.77207,2.79683 -5.77232,8.62178 -7.42423,8.64894 -0.21155,0.003 -0.38444,0.12687 -0.38444,0.2745 0,0.14761 -0.49265,0.26827 -1.09469,0.26827 -1.66503,0 -3.82862,0.54924 -3.82862,0.97158 0,0.4267 0.79355,0.50182 1.07685,0.10203 0.10459,-0.14761 0.63212,-0.26901 1.17219,-0.26983 1.64962,-0.003 3.312,-0.53662 4.236,-1.36104 1.15068,-1.02662 1.32348,-0.98978 1.04574,0.22218 -0.12695,0.55355 -0.20439,4.14612 -0.17233,7.98396 0.061,7.29556 -0.22788,10.14226 -1.49851,14.76121 -0.64494,2.34446 -1.47677,5.74952 -1.86868,7.64887 -0.008,0.0362 -0.0249,0.0999 -0.0331,0.13881 h 0.70821 c 0.18524,-1.02375 0.48324,-2.40675 0.71178,-3.22549 0.40187,-1.4397 0.71059,-2.71483 2.00022,-8.25638 0.19799,-0.85076 0.35515,-2.44643 0.34825,-3.54606 -0.0122,-2.04788 0.40467,-2.89936 0.76429,-1.56044 0.26775,0.99686 1.43139,4.53129 2.36733,7.19053 0.41564,1.18089 1.07125,3.11305 1.45721,4.29393 0.38595,1.18088 1.14714,2.99237 1.69124,4.02563 0.23012,0.43702 0.31437,0.66797 0.51293,1.07828 h 0.64447 c -0.2444,-0.5117 -0.5564,-1.24327 -0.94631,-2.01775 -0.33442,-0.66425 -0.75487,-1.6904 -0.93409,-2.28083 -0.17924,-0.59045 -0.62129,-1.91929 -0.98252,-2.95255 -0.36122,-1.03327 -0.86674,-2.54258 -1.12324,-3.35445 -0.2565,-0.81184 -0.59173,-1.59113 -0.74493,-1.73135 -0.15321,-0.14022 -0.27838,-0.51758 -0.27838,-0.83899 0,-0.3214 -0.43144,-1.71667 -0.95856,-3.10015 l -0.95855,-2.51545 -0.22486,-4.96512 c -0.27679,-6.11001 -0.0205,-7.34369 2.08996,-10.06333 0.80212,-1.03367 1.65515,-2.24196 1.8957,-2.6848 0.24055,-0.44283 0.60514,-0.98632 0.80967,-1.20775 0.53214,-0.5761 0.88549,-2.41497 0.46399,-2.41497 z m -93.018198,5.96208 c -0.214809,-0.034 -1.10679,0.49673 -1.628526,0.99955 -1.066087,1.02742 -2.441903,1.56892 -4.773406,1.87946 -1.262231,0.1681 -2.305191,0.33053 -2.31787,0.3615 -0.21138,0.51518 -1.162759,3.42363 -1.554595,4.75277 -0.575418,1.95188 -1.88627,5.46491 -2.289827,6.13661 -0.145007,0.24135 -0.538177,1.10335 -0.873918,1.9152 -0.335755,0.81186 -0.984956,2.32119 -1.442933,3.35444 -0.457974,1.03328 -1.172455,2.78444 -1.587736,3.89151 -0.415283,1.10708 -1.006942,2.49625 -1.314446,3.08669 -0.635686,1.22055 -1.934092,4.05118 -2.968975,6.47324 -0.137487,0.32178 -0.441245,0.9021 -0.638867,1.31444 h 0.669969 c 6.41e-4,-0.001 0.0019,-0.004 0.0026,-0.005 1.203744,-2.29679 3.109398,-6.44379 4.932485,-10.73505 0.564394,-1.3285 1.807322,-4.22699 2.762477,-6.44114 1.810586,-4.19714 3.530852,-8.97888 3.530852,-9.81474 0,-0.85425 0.620246,-0.85517 0.961616,-0.001 0.181433,0.45389 0.457585,0.82501 0.613884,0.82501 0.158695,0 0.280411,1.45182 0.276859,3.28764 -0.0032,1.80821 0.0012,3.55938 0.01172,3.89151 0.05456,1.82282 -0.08733,2.44221 -0.526186,2.29533 -0.337557,-0.11296 -0.297665,0.0833 0.162648,0.79809 0.335798,0.52139 0.537216,1.01191 0.447667,1.09018 -0.257937,0.22493 -0.340019,3.23515 -0.09637,3.5326 0.306486,0.37421 0.598395,2.54963 0.342123,2.54963 -0.20935,0 0.328145,6.88008 0.676088,8.72715 h 0.823441 c -0.133938,-1.55042 -0.277108,-3.09026 -0.460923,-4.56737 -0.456731,-3.67024 -0.920555,-14.64065 -0.796928,-18.84745 0.07163,-2.43786 -0.120996,-3.67986 -0.536383,-3.45595 -0.116267,0.0626 -0.470653,-0.35057 -0.78724,-0.91825 l -0.575643,-1.03217 0.599097,-0.88976 0.598588,-0.88923 h 2.216406 c 1.686219,0 2.106003,-0.0708 1.753954,-0.29521 -0.543353,-0.34627 -0.302781,-0.67368 0.337534,-0.45937 0.375971,0.12582 3.49822,-2.33744 3.49822,-2.7599 0,-0.0297 -0.01673,-0.0459 -0.04742,-0.0507 z" />
  </g>
</svg>
