<?xml version="1.0" encoding="UTF-8" standalone="no"?>
<!-- Created with Inkscape (http://www.inkscape.org/) -->

<svg
   width="500mm"
   height="340.00003mm"
   viewBox="0 0 500 340.00003"
   version="1.1"
   id="svg5"
   xml:space="preserve"
   inkscape:export-filename="banpro.svg"
   inkscape:export-xdpi="96"
   inkscape:export-ydpi="96"
   xmlns:inkscape="http://www.inkscape.org/namespaces/inkscape"
   xmlns:sodipodi="http://sodipodi.sourceforge.net/DTD/sodipodi-0.dtd"
   xmlns="http://www.w3.org/2000/svg"
   xmlns:svg="http://www.w3.org/2000/svg"><sodipodi:namedview
     id="namedview7"
     pagecolor="#505050"
     bordercolor="#ffffff"
     borderopacity="1"
     inkscape:showpageshadow="0"
     inkscape:pageopacity="0"
     inkscape:pagecheckerboard="1"
     inkscape:deskcolor="#505050"
     inkscape:document-units="mm"
     showgrid="false"
     inkscape:zoom="0.42224727"
     inkscape:cx="539.96797"
     inkscape:cy="699.8269"
     inkscape:window-width="1920"
     inkscape:window-height="985"
     inkscape:window-x="0"
     inkscape:window-y="0"
     inkscape:window-maximized="1"
     inkscape:current-layer="svg5" /><defs
     id="defs2" /><path
     id="path482"
     style="fill:#000000;fill-opacity:1;stroke-width:5.29167;stroke-linecap:round;stroke-linejoin:round;paint-order:stroke fill markers"
     d="m 257.47861,14.075928 c 0,0 -27.34545,35.176706 -41.01558,55.844653 -5.87228,8.878315 -17.61184,32.794379 -17.61184,32.794379 0,0 -23.05041,4.37736 -39.4374,9.85625 -18.43635,6.16407 -64.459105,24.0192 -64.459105,24.0192 0,0 23.778765,17.3567 32.864135,24.4259 11.65724,9.07033 29.3641,23.99285 29.3641,23.99285 L 110.4235,325.92407 c 0,0 49.46646,-81.36514 67.82222,-108.95872 48.84559,-73.4279 104.04327,-134.809857 104.04327,-134.809857 z m 147.56671,72.233317 -110.48577,1.18184 -5.09013,4.101041 c 0,0 -54.56858,64.252454 -87.52282,108.631614 -14.8982,20.06326 -56.03482,84.69612 -56.03482,84.69612 0,0 100.97845,-88.33457 120.62519,-103.39266 66.73106,-51.14544 138.50835,-95.217955 138.50835,-95.217955 z m -98.48908,80.213185 -83.70911,64.80225 120.83863,83.31636 z"
     inkscape:label="star" /></svg>
