<?xml version="1.0" encoding="UTF-8" standalone="no"?>
<svg
   version="1.0"
   width="500pt"
   height="340pt"
   viewBox="0 0 500 340"
   preserveAspectRatio="xMidYMid"
   id="svg36"
   sodipodi:docname="claro.svg"
   inkscape:version="1.2.1 (0f2f062aeb, 2022-09-21, custom)"
   xmlns:inkscape="http://www.inkscape.org/namespaces/inkscape"
   xmlns:sodipodi="http://sodipodi.sourceforge.net/DTD/sodipodi-0.dtd"
   xmlns="http://www.w3.org/2000/svg"
   xmlns:svg="http://www.w3.org/2000/svg">
  <defs
     id="defs40" />
  <sodipodi:namedview
     id="namedview38"
     pagecolor="#505050"
     bordercolor="#ffffff"
     borderopacity="1"
     inkscape:showpageshadow="0"
     inkscape:pageopacity="0"
     inkscape:pagecheckerboard="1"
     inkscape:deskcolor="#505050"
     inkscape:document-units="pt"
     showgrid="false"
     inkscape:zoom="0.55986703"
     inkscape:cx="410.81183"
     inkscape:cy="176.8277"
     inkscape:window-width="1920"
     inkscape:window-height="958"
     inkscape:window-x="0"
     inkscape:window-y="27"
     inkscape:window-maximized="1"
     inkscape:current-layer="svg36" />
  <g
     transform="matrix(0.06205452,0,0,-0.06205452,1.6100873,233.08262)"
     fill="#000000"
     stroke="none"
     id="g34">
    <path
       d="m 5850,2410 v -490 h 175 175 v 490 490 h -175 -175 z"
       id="path18" />
    <path
       d="m 7047,2252 -457,-457 120,-120 120,-120 458,458 457,457 -120,120 -120,120 z"
       id="path20" />
    <path
       d="M 777,1985 C 602,1952 446,1867 302,1726 161,1590 74,1438 28,1253 0,1139 -2,904 23,793 103,445 360,166 695,64 779,38 797,36 975,36 c 179,0 195,1 278,27 312,96 556,341 651,655 l 7,22 h -198 -198 l -30,-52 C 1411,560 1269,452 1125,415 1049,396 901,396 825,415 640,464 470,619 400,805 c -31,82 -39,251 -16,349 49,207 235,397 442,451 75,19 213,19 289,0 146,-38 282,-139 365,-271 l 40,-64 h 195 c 107,0 195,2 195,3 0,16 -48,144 -72,192 -120,237 -356,433 -608,505 -99,29 -338,36 -453,15 z"
       id="path22" />
    <path
       d="M 2110,1010 V 20 h 185 185 v 990 990 h -185 -185 z"
       id="path24" />
    <path
       d="m 3250,1610 c -205,-20 -357,-107 -433,-247 -30,-57 -67,-187 -67,-240 v -33 l 186,2 187,3 13,45 c 17,59 83,126 137,141 23,6 84,9 136,7 158,-5 221,-50 221,-158 0,-45 -4,-56 -32,-84 -30,-30 -45,-35 -158,-56 -428,-77 -504,-103 -604,-209 -91,-98 -130,-241 -109,-400 31,-234 189,-362 448,-362 159,0 320,44 430,117 l 50,33 3,-79 3,-80 h 184 185 v 603 c 0,406 -4,622 -11,660 -15,75 -67,165 -116,203 -127,98 -420,158 -653,134 z m 367,-942 c -8,-161 -25,-217 -86,-278 -64,-64 -140,-93 -246,-94 -64,-1 -87,3 -115,20 -98,57 -118,209 -40,298 42,47 75,61 248,100 83,19 168,44 189,55 21,11 42,20 47,21 5,0 6,-52 3,-122 z"
       id="path26" />
    <path
       d="m 4969,1576 c -128,-38 -235,-105 -294,-185 -17,-22 -33,-41 -37,-41 -5,0 -8,41 -8,90 v 90 H 4450 4270 V 775 20 h 189 190 l 4,443 c 2,299 7,453 15,477 22,67 94,163 151,201 83,56 140,72 243,71 l 88,-2 v 189 189 l -31,6 c -46,9 -65,6 -150,-18 z"
       id="path28" />
    <path
       d="m 5790,1585 c -146,-33 -325,-148 -429,-277 -206,-254 -234,-630 -69,-913 62,-105 211,-249 315,-303 143,-74 308,-103 463,-82 178,24 318,91 446,213 178,169 255,370 241,630 -8,135 -25,205 -78,314 -93,189 -267,338 -474,403 -91,29 -316,37 -415,15 z m 367,-395 c 72,-36 158,-123 192,-196 35,-73 53,-173 42,-231 -31,-156 -118,-280 -239,-340 -52,-26 -66,-28 -172,-28 -106,0 -120,2 -178,29 -162,75 -265,275 -234,456 16,92 49,156 116,225 89,91 190,127 331,120 63,-4 93,-11 142,-35 z"
       id="path30" />
    <path
       d="M 7000,1000 V 830 h 500 500 v 170 170 h -500 -500 z"
       id="path32" />
  </g>
</svg>
