<?xml version="1.0" encoding="UTF-8" standalone="no"?>
<svg
   version="1.0"
   width="500pt"
   height="340pt"
   viewBox="0 0 500 340"
   preserveAspectRatio="xMidYMid"
   id="svg1852"
   sodipodi:docname="close.svg"
   inkscape:version="1.2.1 (0f2f062aeb, 2022-09-21, custom)"
   xmlns:inkscape="http://www.inkscape.org/namespaces/inkscape"
   xmlns:sodipodi="http://sodipodi.sourceforge.net/DTD/sodipodi-0.dtd"
   xmlns="http://www.w3.org/2000/svg"
   xmlns:svg="http://www.w3.org/2000/svg">
  <defs
     id="defs1856" />
  <sodipodi:namedview
     id="namedview1854"
     pagecolor="#505050"
     bordercolor="#ffffff"
     borderopacity="1"
     inkscape:showpageshadow="0"
     inkscape:pageopacity="0"
     inkscape:pagecheckerboard="1"
     inkscape:deskcolor="#505050"
     inkscape:document-units="pt"
     showgrid="false"
     inkscape:zoom="0.37109565"
     inkscape:cx="-32.336677"
     inkscape:cy="215.57785"
     inkscape:window-width="1920"
     inkscape:window-height="958"
     inkscape:window-x="0"
     inkscape:window-y="27"
     inkscape:window-maximized="1"
     inkscape:current-layer="svg1852" />
  <g
     transform="matrix(0.06723648,0,0,-0.06862346,78.020133,345.76754)"
     fill="#000000"
     stroke="none"
     id="g1850">
    <path
       d="M 910,4674 C 733,4627 575,4499 495,4335 425,4194 429,4315 432,2534 l 3,-1609 26,-67 C 535,668 668,535 858,461 l 67,-26 h 1625 1625 l 70,22 c 195,62 356,223 418,418 l 22,70 v 1625 1625 l -26,67 c -74,191 -206,323 -397,397 l -67,26 -1615,2 c -1384,2 -1623,0 -1670,-13 z m 654,-846 c 35,-10 110,-81 519,-487 l 477,-476 478,476 c 511,509 499,499 598,499 109,-1 204,-100 204,-212 -1,-90 -14,-106 -508,-600 l -467,-468 476,-477 c 508,-510 499,-500 499,-597 0,-106 -98,-205 -204,-206 -99,0 -87,-10 -598,499 l -478,476 -477,-476 c -510,-508 -500,-499 -597,-499 -106,0 -205,98 -206,204 0,99 -10,87 499,599 l 476,477 -476,478 c -406,408 -477,483 -487,518 -51,179 93,323 272,272 z"
       id="path1848" />
  </g>
</svg>
