<?xml version="1.0" encoding="UTF-8" standalone="no"?>
<svg
   id="svg"
   version="1.1"
   width="500"
   height="340"
   viewBox="0 0 500 340"
   sodipodi:docname="channels4_profile.svg"
   inkscape:version="1.2.1 (0f2f062aeb, 2022-09-21, custom)"
   xml:space="preserve"
   xmlns:inkscape="http://www.inkscape.org/namespaces/inkscape"
   xmlns:sodipodi="http://sodipodi.sourceforge.net/DTD/sodipodi-0.dtd"
   xmlns="http://www.w3.org/2000/svg"
   xmlns:svg="http://www.w3.org/2000/svg"><defs
     id="defs510"><rect
       x="24.86235"
       y="410.06543"
       width="609.14688"
       height="239.88722"
       id="rect5915" /></defs><sodipodi:namedview
     id="namedview508"
     pagecolor="#505050"
     bordercolor="#ffffff"
     borderopacity="1"
     inkscape:showpageshadow="0"
     inkscape:pageopacity="0"
     inkscape:pagecheckerboard="1"
     inkscape:deskcolor="#505050"
     showgrid="false"
     inkscape:zoom="0.99104167"
     inkscape:cx="84.254782"
     inkscape:cy="217.44797"
     inkscape:window-width="1920"
     inkscape:window-height="1043"
     inkscape:window-x="1920"
     inkscape:window-y="0"
     inkscape:window-maximized="1"
     inkscape:current-layer="svg"
     showguides="true" /><path
     id="path6801"
     style="font-weight:bold;font-size:200px;line-height:0px;font-family:Ubuntu;-inkscape-font-specification:'Ubuntu Bold';letter-spacing:20px;white-space:pre;shape-inside:url(#rect5915);fill:#000000;stroke:none;stroke-width:80;stroke-linecap:round;stroke-linejoin:bevel"
     d="M 305.04362 7.4884512 A 264.16384 264.16384 0 0 0 41.001676 269.68208 L 40.806973 269.68208 L 40.806973 299.16725 L 118.57574 299.16725 L 118.57574 269.68208 L 80.902078 269.68208 A 222.20958 222.20958 0 0 1 303.07739 48.068943 A 222.20958 222.20958 0 0 1 525.27464 269.68208 L 492.55905 269.68208 A 187.59776 187.59776 0 0 0 308.07934 84.031408 L 306.67528 69.892132 L 285.7927 251.92024 A 26.554702 26.554702 0 0 0 278.50916 270.13456 A 26.554702 26.554702 0 0 0 305.06281 296.69095 A 26.554702 26.554702 0 0 0 331.61646 270.13456 A 26.554702 26.554702 0 0 0 324.81283 252.39191 L 316.12523 164.98398 A 106.90058 106.90058 0 0 1 411.00866 270.54591 A 106.90058 106.90058 0 0 1 410.99221 270.78997 L 432.12708 270.78997 A 127.08392 127.08392 0 0 0 314.14804 145.08314 L 310.9752 113.16282 A 157.80365 157.80365 0 0 1 461.45594 270.42799 A 157.80365 157.80365 0 0 1 461.434 270.78997 L 491.54715 270.78997 L 491.54715 299.16725 L 569.31865 299.16725 L 569.31865 269.68208 L 569.12395 269.68208 A 264.16384 264.16384 0 0 0 305.04362 7.4884512 z M 378.86347 329.76578 C 370.99682 329.76578 363.92945 330.76586 357.66279 332.76585 C 351.39613 334.63251 346.06422 337.36532 341.66423 340.96532 C 337.26424 344.5653 333.86289 348.96674 331.46289 354.16673 C 329.0629 359.23338 327.86226 364.96368 327.86226 371.36367 C 327.86226 377.76366 328.99604 383.23201 331.26271 387.76534 C 333.52936 392.16532 336.46275 395.96506 340.06273 399.16506 C 343.66273 402.23172 347.72988 404.83082 352.26321 406.96415 C 356.79653 408.96414 361.32892 410.76647 365.86225 412.36647 C 376.26223 415.83313 383.59428 419.09804 387.86095 422.16469 C 392.1276 425.09802 394.26146 428.8309 394.26146 433.36423 C 394.26146 435.49756 393.92993 437.43086 393.26327 439.16418 C 392.5966 440.89751 391.39596 442.43243 389.66263 443.76576 C 387.92931 444.96576 385.59762 445.96583 382.6643 446.76583 C 379.86431 447.4325 376.26238 447.76402 371.86239 447.76402 C 363.06241 447.76402 355.59664 446.89766 349.46332 445.16433 C 343.46333 443.29767 338.3961 441.2334 334.26278 438.96674 L 325.46275 463.76532 C 327.32941 464.83198 329.59423 465.96577 332.2609 467.16577 C 335.0609 468.36576 338.32854 469.4968 342.06187 470.56347 C 345.92853 471.63013 350.32995 472.4965 355.26328 473.16317 C 360.1966 473.96317 365.72907 474.36429 371.86239 474.36429 C 390.12902 474.36429 403.79581 470.83197 412.86246 463.76532 C 421.92911 456.56533 426.46424 446.49772 426.46424 433.56442 C 426.46424 426.89776 425.59513 421.23158 423.8618 416.56493 C 422.12848 411.89827 419.46252 407.83112 415.86253 404.36445 C 412.39587 400.8978 407.99444 397.89758 402.66112 395.36424 C 397.32779 392.69758 391.06266 390.03162 383.86268 387.36496 C 380.39601 386.16496 377.19523 385.03118 374.2619 383.96451 C 371.4619 382.76452 368.92966 381.49702 366.663 380.16369 C 364.52967 378.69703 362.86379 377.098 361.6638 375.36468 C 360.4638 373.63135 359.86211 371.49749 359.86211 368.96416 C 359.86211 364.6975 361.46387 361.56356 364.66387 359.56357 C 367.99719 357.43024 373.39595 356.36605 380.86261 356.36605 C 387.52926 356.36605 393.19543 357.16556 397.8621 358.76556 C 402.66208 360.23223 406.99667 361.96495 410.86332 363.96495 L 419.86354 339.36382 C 415.46354 336.96382 409.86147 334.76585 403.06149 332.76585 C 396.26151 330.76586 388.19679 329.76578 378.86347 329.76578 z M 40.864561 332.96604 L 40.864561 471.56441 L 72.063659 471.56441 L 72.063659 414.3656 L 126.86295 414.3656 L 126.86295 388.16297 L 72.063659 388.16297 L 72.063659 359.16319 L 133.66385 359.16319 L 133.66385 332.96604 L 40.864561 332.96604 z M 207.26432 332.96604 C 202.59767 342.56602 198.06253 352.43307 193.66253 362.56638 C 189.39588 372.56636 184.99719 383.16332 180.46387 394.3633 C 176.06387 405.56327 171.52873 417.49733 166.86208 430.16397 C 162.19542 442.83062 157.2619 456.6311 152.06191 471.56441 L 184.46213 471.56441 C 185.9288 466.76441 187.52782 461.83089 189.26115 456.76424 C 191.12781 451.69758 192.93014 446.63035 194.66347 441.56369 L 248.66202 441.56369 L 253.86415 456.76424 C 255.73081 461.83089 257.39669 466.76441 258.86336 471.56441 L 292.26178 471.56441 C 287.06178 456.6311 282.131 442.83062 277.46435 430.16397 C 272.79769 417.49733 268.1957 405.56327 263.66237 394.3633 C 259.26238 383.16332 254.8637 372.56636 250.46371 362.56638 C 246.06372 352.43307 241.59543 342.56602 237.06211 332.96604 L 207.26432 332.96604 z M 454.46308 332.96604 L 454.46308 359.56357 L 496.26115 359.56357 L 496.26115 471.56441 L 527.46299 471.56441 L 527.46299 359.56357 L 569.26381 359.56357 L 569.26381 332.96604 L 454.46308 332.96604 z M 221.46393 364.36533 C 222.26393 366.36533 223.32812 369.09813 224.66144 372.56479 C 225.99477 376.03145 227.52969 380.03175 229.26302 384.56508 C 231.12968 389.09839 233.06297 394.09878 235.06297 399.56544 C 237.06297 405.0321 239.12998 410.76512 241.2633 416.76511 L 201.862 416.76511 C 203.99533 410.76512 206.06233 405.0321 208.06233 399.56544 C 210.19566 394.09878 212.12896 389.09839 213.86228 384.56508 C 215.59561 380.03175 217.13053 376.03145 218.46386 372.56479 C 219.79719 369.09813 220.79726 366.36533 221.46393 364.36533 z "
     transform="matrix(0.71222261,0,0,0.71222261,32.727367,-1.5932099)" /></svg>
