<?xml version="1.0" encoding="UTF-8" standalone="no"?>
<svg
   version="1.0"
   width="499pt"
   height="340pt"
   viewBox="0 0 499 340"
   preserveAspectRatio="xMidYMid"
   id="svg162"
   xmlns="http://www.w3.org/2000/svg"
   xmlns:svg="http://www.w3.org/2000/svg">
  <defs
     id="defs166" />
  <path
     id="path148"
     d="M 2429.999 5112.9892 C 1849.9995 5081.9892 1291.0082 4848.9884 866.00859 4463.9888 C 835.00862 4435.9889 810.00485 4410.0066 810.00485 4406.0066 C 810.00485 4403.0066 891.01101 4400.0038 991.01091 4400.0038 L 1171.0053 4400.0038 L 1163.9907 4377.9935 C 1159.9907 4365.9935 1154.9959 4332.993 1150.9959 4304.9931 L 1144.9931 4254.9921 L 898.00109 4252.002 L 651.99832 4250.001 L 597.00629 4181.9917 C 277.00661 3787.9921 91.001175 3339.9975 34.001232 2826.998 C 13.001253 2642.9982 20.008754 2350.0026 50.008724 2165.0028 C 70.008704 2036.0029 133.99889 1771.9916 148.99887 1756.9916 C 152.99887 1752.9916 1239.9965 1751.0005 2565.9952 1752.0005 L 4975.0103 1754.9907 L 4998.0098 1835.0057 C 5027.0098 1937.0056 5064.0042 2110.0085 5082.0042 2225.0084 C 5102.0041 2361.0083 5098.9905 2773.9972 5076.9906 2920.997 C 5007.9906 3380.9966 4825.9993 3801.9916 4543.9996 4156.9912 L 4470.0099 4250.001 L 3237.0059 4252.002 L 2004.9911 4254.9921 L 1997.999 4304.9931 C 1993.999 4331.993 1988.0042 4365.0043 1985.0042 4377.0043 L 1979.9906 4400.0038 L 3151.9998 4400.0038 L 4324.9982 4400.9931 L 4274.9973 4446.0029 C 4039.9975 4662.0027 3726.9938 4852.9982 3427.9941 4963.9981 C 3131.9944 5073.998 2750.9986 5130.9892 2429.999 5112.9892 z M 1549.5644 4617.7237 C 1591.6269 4620.2393 1635.0066 4615.2585 1678.0066 4602.0085 C 1803.0065 4563.0085 1884.9949 4475.0009 1916.9948 4346.001 C 1955.9948 4185.0012 1875.9928 4017.9917 1720.993 3941.9917 C 1672.993 3918.9918 1652.992 3914.9903 1574.9921 3914.9903 C 1496.9922 3914.9903 1478.0019 3919.0035 1428.0019 3943.0034 C 1354.002 3979.0034 1288.9987 4044.0068 1252.9987 4118.0067 C 1228.9987 4168.0066 1225.0081 4186.9969 1225.0081 4264.9968 C 1225.0081 4341.9968 1229.0095 4363.0095 1252.0095 4412.0094 C 1309.0094 4535.0093 1423.3771 4610.1768 1549.5644 4617.7237 z M 1140.002 3720.0002 L 1434.994 3720.0002 C 1664.9937 3720.0002 1729.9967 3716.9946 1728.9967 3707.9946 C 1728.9967 3700.9946 1597.0055 3301.0055 1436.0057 2820.006 L 1142.9922 1944.9897 L 850.99033 1941.9996 L 559.01098 1939.9986 L 564.99131 1962.0089 C 568.99131 1975.0089 603.00445 2079.9945 641.00441 2194.9944 C 678.00437 2310.9942 801.99792 2690.9969 914.99781 3039.9966 C 1027.9977 3388.9962 1124.9973 3684.9899 1129.9973 3697.9899 L 1140.002 3720.0002 z M 4130.0081 3233.0082 C 4194.008 3244.0082 4399.9954 3239.0045 4462.9954 3225.0045 C 4644.9952 3187.0045 4744.0033 3101.9974 4792.0033 2945.9975 C 4809.0032 2887.9976 4811.999 2860.9942 4806.999 2770.9943 C 4801.999 2671.9944 4768.9897 2524.0102 4738.9897 2469.0102 C 4729.9897 2451.0103 4707.9958 2449.9901 4224.9963 2449.9901 L 3719.9959 2449.9901 L 3719.9959 2403.0018 C 3719.9959 2250.002 3810.004 2171.9963 3953.0039 2198.9962 C 4023.0038 2211.9962 4079.9983 2239.9935 4132.9982 2288.9934 L 4174.9954 2327.0112 L 4387.994 2300.0098 C 4504.9938 2285.0098 4603.9953 2268.9939 4606.9953 2265.9939 C 4616.9953 2255.9939 4513.9976 2154.9971 4443.9977 2104.9972 C 4222.9979 1944.9973 3836.0093 1870.0085 3581.0095 1937.0085 C 3255.0099 2021.0084 3158.0084 2369.9965 3362.0082 2726.9961 C 3517.008 2998.9959 3789.0084 3178.0083 4130.0081 3233.0082 z M 1912.0037 3219.9909 L 2150.992 3219.9909 C 2281.9919 3219.9909 2390.0027 3216.9989 2390.0027 3212.9989 C 2390.0027 3207.9989 2373.9976 3156.011 2354.9976 3095.0111 C 2335.9976 3035.0111 2319.9924 2982.9909 2319.9924 2979.9909 C 2319.9924 2975.991 2346.0088 3000.0036 2379.0088 3031.0036 C 2507.0087 3155.0035 2636.9925 3211.9989 2799.9923 3212.9989 C 2924.9922 3213.9989 3008.9994 3186.9909 3078.9993 3123.9909 C 3138.9993 3069.991 3162.0045 3016.989 3162.0045 2927.9891 C 3162.0045 2831.9892 3151.9987 2797.0103 3005.9989 2350.0107 L 2874.0045 1944.9897 L 2632.0036 1941.9996 C 2499.0037 1940.9996 2390.0027 1943.0014 2390.0027 1946.0014 C 2390.0027 1950.0014 2435.0046 2091.002 2490.0046 2259.0018 C 2601.0045 2602.0015 2624.0069 2690.0009 2615.0069 2737.0008 C 2598.0069 2832.0007 2463.0003 2835.9928 2361.0004 2743.9929 C 2242.0005 2636.993 2151.005 2458.9968 2035.0051 2104.9972 L 1983.0033 1944.9897 L 1741.0024 1941.9996 C 1575.0025 1939.9996 1499.9907 1943.0033 1499.9907 1950.0033 C 1499.9907 1960.0033 1698.0002 2572.9919 1856 3052.9914 L 1912.0037 3219.9909 z M 4200.3781 2919.3783 C 4165.2531 2919.5033 4128.5029 2912.9984 4095.0029 2899.9985 C 4030.003 2874.9985 3959.0085 2809.989 3915.0086 2735.9891 C 3896.0086 2702.9891 3880.0034 2673.0022 3880.0034 2668.0022 C 3880.0034 2664.0022 3993.0082 2659.9985 4130.0081 2659.9985 L 4379.9902 2659.9985 L 4379.9902 2726.9961 C 4379.9902 2817.9961 4353.9958 2872.0093 4295.9958 2899.0092 C 4268.9959 2912.5092 4235.503 2919.2533 4200.3781 2919.3783 z M 2559.9924 1610.0015 C 316.99463 1610.0015 201.00355 1609.0047 207.00355 1593.0048 C 210.00354 1583.0048 239.01106 1520.0066 271.01103 1453.0067 L 328.99322 1330.0053 L 2559.9924 1330.0053 L 4790.9916 1330.0053 L 4856.0107 1464.9898 C 4891.0107 1538.9897 4919.9957 1602.0104 4919.9957 1605.0104 C 4919.9957 1608.0104 3857.9911 1610.0015 2559.9924 1610.0015 z M 2565.9952 1180.0025 C 1327.9964 1180.0025 430.00679 1176.0095 430.00679 1171.0095 C 430.00679 1166.0095 450.00493 1133.9982 474.00491 1098.9983 L 516.99132 1034.9908 L 2557.9915 1032.0006 L 4598.9916 1029.9997 L 4642.9897 1092.0062 C 4666.9897 1127.0062 4690.0023 1160.9969 4694.0023 1167.9969 C 4700.0023 1176.9969 4270.9935 1180.0025 2565.9952 1180.0025 z M 647.00722 879.99692 L 666.00488 858.0091 C 676.00487 845.00911 709.00536 808.99409 739.00533 777.99412 L 793.99736 719.98945 L 2559.9924 719.98945 L 4326.0099 719.98945 L 4397.9986 792.9899 C 4436.9986 832.98986 4470.0099 869.00488 4470.0099 873.00488 C 4470.0099 877.00488 3609.9904 879.99692 2557.9915 879.99692 L 647.00722 879.99692 z M 2563.005 570.00914 C 1687.0059 570.00914 969.98984 568.00727 969.98984 566.00727 C 969.98984 558.00728 1118.0035 451.99225 1215.0034 389.99231 C 1552.003 175.99253 1935.998 47.99421 2354.9976 9.994248 C 2848.9971 -35.005707 3394.9903 88.003346 3826.9898 341.00309 C 3917.9897 394.00304 4071.9945 498.99702 4124.9945 543.99697 L 4155.0085 568.99743 L 2563.005 570.00914 z "
     transform="matrix(0.06515504,0,0,-0.06515504,82.790993,336.70391)" />
</svg>
