<?xml version="1.0" standalone="no"?>
<!DOCTYPE svg PUBLIC "-//W3C//DTD SVG 20010904//EN"
 "http://www.w3.org/TR/2001/REC-SVG-20010904/DTD/svg10.dtd">
<svg version="1.0" xmlns="http://www.w3.org/2000/svg"
 width="800.000000pt" height="290.000000pt" viewBox="0 0 800.000000 290.000000"
 preserveAspectRatio="xMidYMid meet">

<g transform="translate(0.000000,290.000000) scale(0.100000,-0.100000)"
fill="#000000" stroke="none">
<path d="M5850 2410 l0 -490 175 0 175 0 0 490 0 490 -175 0 -175 0 0 -490z"/>
<path d="M7047 2252 l-457 -457 120 -120 120 -120 458 458 457 457 -120 120
-120 120 -458 -458z"/>
<path d="M777 1985 c-175 -33 -331 -118 -475 -259 -141 -136 -228 -288 -274
-473 -28 -114 -30 -349 -5 -460 80 -348 337 -627 672 -729 84 -26 102 -28 280
-28 179 0 195 1 278 27 312 96 556 341 651 655 l7 22 -198 0 -198 0 -30 -52
c-74 -128 -216 -236 -360 -273 -76 -19 -224 -19 -300 0 -185 49 -355 204 -425
390 -31 82 -39 251 -16 349 49 207 235 397 442 451 75 19 213 19 289 0 146
-38 282 -139 365 -271 l40 -64 195 0 c107 0 195 2 195 3 0 16 -48 144 -72 192
-120 237 -356 433 -608 505 -99 29 -338 36 -453 15z"/>
<path d="M2110 1010 l0 -990 185 0 185 0 0 990 0 990 -185 0 -185 0 0 -990z"/>
<path d="M3250 1610 c-205 -20 -357 -107 -433 -247 -30 -57 -67 -187 -67 -240
l0 -33 186 2 187 3 13 45 c17 59 83 126 137 141 23 6 84 9 136 7 158 -5 221
-50 221 -158 0 -45 -4 -56 -32 -84 -30 -30 -45 -35 -158 -56 -428 -77 -504
-103 -604 -209 -91 -98 -130 -241 -109 -400 31 -234 189 -362 448 -362 159 0
320 44 430 117 l50 33 3 -79 3 -80 184 0 185 0 0 603 c0 406 -4 622 -11 660
-15 75 -67 165 -116 203 -127 98 -420 158 -653 134z m367 -942 c-8 -161 -25
-217 -86 -278 -64 -64 -140 -93 -246 -94 -64 -1 -87 3 -115 20 -98 57 -118
209 -40 298 42 47 75 61 248 100 83 19 168 44 189 55 21 11 42 20 47 21 5 0 6
-52 3 -122z"/>
<path d="M4969 1576 c-128 -38 -235 -105 -294 -185 -17 -22 -33 -41 -37 -41
-5 0 -8 41 -8 90 l0 90 -180 0 -180 0 0 -755 0 -755 189 0 190 0 4 443 c2 299
7 453 15 477 22 67 94 163 151 201 83 56 140 72 243 71 l88 -2 0 189 0 189
-31 6 c-46 9 -65 6 -150 -18z"/>
<path d="M5790 1585 c-146 -33 -325 -148 -429 -277 -206 -254 -234 -630 -69
-913 62 -105 211 -249 315 -303 143 -74 308 -103 463 -82 178 24 318 91 446
213 178 169 255 370 241 630 -8 135 -25 205 -78 314 -93 189 -267 338 -474
403 -91 29 -316 37 -415 15z m367 -395 c72 -36 158 -123 192 -196 35 -73 53
-173 42 -231 -31 -156 -118 -280 -239 -340 -52 -26 -66 -28 -172 -28 -106 0
-120 2 -178 29 -162 75 -265 275 -234 456 16 92 49 156 116 225 89 91 190 127
331 120 63 -4 93 -11 142 -35z"/>
<path d="M7000 1000 l0 -170 500 0 500 0 0 170 0 170 -500 0 -500 0 0 -170z"/>
</g>
</svg>
