<?xml version="1.0" standalone="no"?>
<!DOCTYPE svg PUBLIC "-//W3C//DTD SVG 20010904//EN"
 "http://www.w3.org/TR/2001/REC-SVG-20010904/DTD/svg10.dtd">
<svg version="1.0" xmlns="http://www.w3.org/2000/svg"
 width="405.000000pt" height="291.000000pt" viewBox="0 0 405.000000 291.000000"
 preserveAspectRatio="xMidYMid meet">

<g transform="translate(0.000000,291.000000) scale(0.100000,-0.100000)"
fill="#000000" stroke="none">
<path d="M3305 2870 c-95 -25 -138 -44 -217 -96 -71 -47 -119 -100 -142 -156
-18 -42 -30 -140 -22 -173 7 -26 7 -26 73 35 75 68 190 130 293 157 92 24 294
24 375 -1 102 -30 195 -86 279 -166 l79 -75 -6 92 c-7 117 -27 162 -105 236
-148 140 -402 202 -607 147z"/>
<path d="M1045 2666 c-115 -51 -140 -202 -49 -288 100 -93 264 -37 290 99 24
128 -121 242 -241 189z"/>
<path d="M163 2481 c-43 -31 -90 -86 -119 -141 -18 -33 -19 -64 -19 -530 l0
-495 23 -58 c68 -166 203 -250 407 -251 113 -1 177 17 225 63 44 42 60 90 60
179 0 47 -3 62 -12 58 -68 -28 -127 -38 -213 -34 -108 4 -134 17 -175 89 -25
44 -25 47 -28 325 l-4 282 158 3 c137 4 164 7 193 24 59 35 74 65 79 160 l5
85 -217 0 -216 0 0 135 0 135 -53 0 c-44 0 -62 -6 -94 -29z"/>
<path d="M3306 2244 c-210 -51 -358 -208 -417 -444 -18 -72 -21 -104 -16 -220
5 -140 17 -190 67 -290 115 -230 370 -343 645 -285 223 47 392 227 440 467 73
369 -99 694 -410 773 -74 19 -229 18 -309 -1z m254 -270 c22 -9 59 -38 83 -64
62 -69 79 -123 85 -267 4 -105 1 -131 -17 -193 -40 -129 -120 -191 -252 -191
-164 -1 -256 99 -279 304 -19 160 27 323 106 384 70 53 182 64 274 27z"/>
<path d="M2145 2236 c-224 -52 -390 -174 -475 -351 -149 -309 -50 -670 230
-835 151 -89 340 -120 531 -86 161 29 253 100 284 221 4 17 7 95 6 174 -1 162
-9 185 -71 220 -31 17 -55 21 -135 21 l-98 0 7 -37 c14 -79 18 -268 7 -296
-17 -44 -69 -61 -166 -54 -113 8 -187 38 -251 101 -77 77 -98 140 -99 291 0
111 2 124 28 176 34 70 109 142 185 177 53 25 66 27 192 27 149 -1 204 -13
299 -65 79 -44 81 -43 81 48 -1 125 -46 194 -165 249 -55 25 -72 28 -195 30
-88 2 -156 -2 -195 -11z"/>
<path d="M970 1752 c0 -432 1 -464 20 -525 26 -83 88 -155 162 -188 77 -33
239 -39 285 -10 44 27 61 66 69 150 l7 71 -69 0 c-78 0 -126 19 -158 63 -20
27 -21 44 -26 395 -4 242 -9 376 -17 392 -31 68 -91 102 -195 108 l-78 5 0
-461z"/>
<path d="M1930 657 c0 -165 30 -245 138 -359 150 -159 325 -248 557 -284 382
-59 825 165 925 469 21 63 34 201 23 240 l-8 28 -52 -64 c-250 -312 -730 -438
-1117 -293 -140 53 -277 152 -395 286 l-71 80 0 -103z"/>
</g>
</svg>
