<?xml version="1.0" encoding="UTF-8" standalone="no"?>
<svg
   version="1.0"
   width="500pt"
   height="340pt"
   viewBox="0 0 500 340"
   preserveAspectRatio="xMidYMid"
   id="svg521"
   sodipodi:docname="messenger.svg"
   inkscape:version="1.2.1 (0f2f062aeb, 2022-09-21, custom)"
   xmlns:inkscape="http://www.inkscape.org/namespaces/inkscape"
   xmlns:sodipodi="http://sodipodi.sourceforge.net/DTD/sodipodi-0.dtd"
   xmlns="http://www.w3.org/2000/svg"
   xmlns:svg="http://www.w3.org/2000/svg">
  <defs
     id="defs525" />
  <sodipodi:namedview
     id="namedview523"
     pagecolor="#505050"
     bordercolor="#ffffff"
     borderopacity="1"
     inkscape:showpageshadow="0"
     inkscape:pageopacity="0"
     inkscape:pagecheckerboard="1"
     inkscape:deskcolor="#505050"
     inkscape:document-units="pt"
     showgrid="false"
     inkscape:zoom="1.1557617"
     inkscape:cx="340.90072"
     inkscape:cy="286.39121"
     inkscape:window-width="1920"
     inkscape:window-height="958"
     inkscape:window-x="0"
     inkscape:window-y="27"
     inkscape:window-maximized="1"
     inkscape:current-layer="svg521" />
  <g
     transform="matrix(0.07475277,0,0,-0.07475277,58.714049,361.65204)"
     fill="#000000"
     stroke="none"
     id="g519">
    <path
       d="M 2361,4600 C 1621,4528 991,4105 690,3478 415,2902 462,2244 818,1710 c 109,-164 220,-283 435,-467 l 27,-23 V 897 c 0,-343 4,-369 48,-375 15,-2 134,59 345,177 l 322,180 115,-23 c 407,-83 841,-50 1217,90 295,110 543,273 763,500 264,274 426,586 497,957 13,70 18,144 18,307 0,184 -4,231 -23,329 -130,643 -586,1168 -1241,1425 -118,47 -322,99 -464,121 -134,19 -390,27 -516,15 z m 225,-1672 c 224,-239 254,-267 284,-268 9,0 193,96 409,214 217,118 400,212 407,209 8,-3 14,-14 14,-25 0,-22 -892,-974 -922,-984 -11,-3 -29,-3 -41,0 -12,3 -107,96 -212,207 -236,250 -278,289 -307,289 -13,0 -203,-97 -422,-215 -220,-119 -405,-214 -413,-211 -7,3 -13,14 -13,25 0,13 171,202 462,511 426,452 464,490 494,490 30,0 53,-22 260,-242 z"
       id="path517" />
  </g>
</svg>
