<?xml version="1.0" encoding="UTF-8" standalone="no"?>
<!-- Svg Vector Icons : http://www.onlinewebfonts.com/icon -->

<svg
   version="1.1"
   x="0px"
   y="0px"
   viewBox="0 0 500 500"
   enable-background="new 0 0 1000 1000"
   xml:space="preserve"
   id="svg4436"
   sodipodi:docname="outlook.svg"
   width="500"
   height="500"
   inkscape:version="1.2 (56b05e47e7, 2022-06-09, custom)"
   xmlns:inkscape="http://www.inkscape.org/namespaces/inkscape"
   xmlns:sodipodi="http://sodipodi.sourceforge.net/DTD/sodipodi-0.dtd"
   xmlns="http://www.w3.org/2000/svg"
   xmlns:svg="http://www.w3.org/2000/svg"><defs
   id="defs4440" /><sodipodi:namedview
   id="namedview4438"
   pagecolor="#505050"
   bordercolor="#ffffff"
   borderopacity="1"
   inkscape:showpageshadow="0"
   inkscape:pageopacity="0"
   inkscape:pagecheckerboard="1"
   inkscape:deskcolor="#505050"
   showgrid="false"
   inkscape:zoom="0.756"
   inkscape:cx="487.43386"
   inkscape:cy="457.67196"
   inkscape:window-width="1920"
   inkscape:window-height="962"
   inkscape:window-x="0"
   inkscape:window-y="27"
   inkscape:window-maximized="1"
   inkscape:current-layer="svg4436" />
<metadata
   id="metadata4422"> Svg Vector Icons : http://www.onlinewebfonts.com/icon </metadata>
<g
   id="g4434"
   transform="matrix(0.50918666,0,0,0.50355719,-4.5918653,-1.7760772)"><g
     transform="matrix(0.1,0,0,-0.1,0,641)"
     id="g4432"><path
       d="M 3459.4,5900.3 C 2152.8,5646.4 861.7,5395.6 590.8,5343 L 100,5248.6 V 1457.2 c 0,-3594.7 1.6,-3789.8 27.9,-3797.6 13.9,-4.6 1294.2,-274 2843.9,-597.6 1549.7,-325 2833.1,-594.4 2853.2,-599 l 34.1,-7.7 v 4955.5 c 0,2726.3 -4.6,4954 -10.8,4954 -7.9,-1.6 -1082.2,-210.6 -2388.9,-464.5 z M 3217.9,3130.7 c 243.1,-35.6 431.9,-130 614.6,-309.6 288,-281.8 435,-642.5 478.4,-1171.9 41.8,-521.7 -65,-1024.8 -292.6,-1376.3 -181.1,-280.2 -387,-442.8 -682.7,-534.1 -99.1,-31 -148.6,-37.2 -332.8,-37.2 -246.1,0 -359.2,26.3 -557.3,128.5 -150.2,77.4 -391.7,320.5 -486.1,489.2 -88.2,154.8 -164.1,357.6 -207.5,548 -44.9,205.9 -49.5,786.5 -6.2,1001.6 106.8,537.2 357.6,930.4 723,1134.8 208.9,116.2 489.1,164.2 749.2,127 z"
       id="path4424" /><path
       d="m 2866.5,2474.3 c -216.7,-60.4 -387,-275.6 -478.4,-605.3 -31,-109.9 -34.1,-159.5 -34.1,-456.7 0,-295.7 3.1,-346.8 34.1,-456.7 74.3,-269.4 213.6,-470.6 385.5,-557.3 80.5,-41.8 105.3,-46.4 236.9,-46.4 136.2,0 156.4,4.6 250.8,51.1 204.4,100.6 337.5,318.9 401,653.3 32.5,167.2 24.8,599.1 -13.9,780.3 -61.9,294.1 -207.5,521.7 -387,606.9 -103.8,49.4 -281.9,63.3 -394.9,30.8 z"
       id="path4426" /><path
       d="m 6230.6,3290.2 1.5,-972.2 335.9,-209 c 198.2,-123.9 351.4,-209 374.7,-209 26.3,0 532.6,332.8 1497,983.1 l 1459.9,983.1 -10.8,54.2 c -21.7,123.8 -119.2,257 -227.6,308.1 -65,32.5 -78.9,32.5 -1747.8,32.5 H 6230.6 Z"
       id="path4428" /><path
       d="M 8432,2109 C 7267.8,1336.5 6976.7,1149.2 6936.5,1149.2 c -34,0 -83.6,23.2 -157.9,74.3 -58.8,40.3 -205.9,140.9 -326.7,224.5 l -221.4,151.7 v -1316 -1317.5 h 1607 c 1836.1,0 1737,-6.2 1894.9,136.3 78.9,71.2 130,174.9 151.7,298.8 18.6,116.1 21.7,3667.5 4.6,3667.5 -7.6,0 -662.5,-431.9 -1456.7,-959.8 z"
       id="path4430" /></g></g>
</svg>
