<?xml version="1.0" encoding="UTF-8" standalone="no"?>
<svg
   id="svg"
   version="1.1"
   width="500"
   height="340"
   viewBox="0 0 500 340"
   sodipodi:docname="channels4_profile.svg"
   inkscape:version="1.2.1 (0f2f062aeb, 2022-09-21, custom)"
   xml:space="preserve"
   xmlns:inkscape="http://www.inkscape.org/namespaces/inkscape"
   xmlns:sodipodi="http://sodipodi.sourceforge.net/DTD/sodipodi-0.dtd"
   xmlns="http://www.w3.org/2000/svg"
   xmlns:svg="http://www.w3.org/2000/svg"><defs
     id="defs510"><rect
       x="24.86235"
       y="410.06543"
       width="609.14688"
       height="239.88722"
       id="rect5915" /><style
       id="style18">.cls-1,.cls-2,.cls-4{fill:#e61e25;}.cls-1{clip-rule:evenodd;}.cls-3{fill:none;}.cls-4{fill-rule:evenodd;}.cls-5{clip-path:url(#clip-path);}.cls-6{clip-path:url(#clip-path-2);}.cls-7{clip-path:url(#clip-path-3);}</style><clipPath
       id="clip-path"
       transform="translate(-12.5 -100.8)"><polygon
         class="cls-1"
         points="423.52,416.39 427.8,419.24 432.08,422.09 434.94,424.95 437.8,430.67 442.08,434.94 444.93,439.22 449.21,444.94 450.64,452.07 452.07,459.21 453.49,467.76 454.92,476.32 454.92,484.89 453.49,494.89 450.64,504.87 449.21,514.86 443.5,524.85 437.8,536.27 434.94,546.26 426.38,553.39 420.67,564.81 410.68,573.38 402.12,581.94 392.13,589.07 383.56,596.21 372.15,603.35 363.58,607.62 346.45,610.48 335.04,616.2 320.77,617.62 309.35,619.04 297.93,619.04 286.52,619.04 259.4,616.2 225.15,600.49 220.87,596.21 213.73,593.35 209.45,589.07 206.59,581.94 199.46,577.66 195.18,570.52 192.32,563.39 188.04,553.39 185.19,546.26 182.33,536.27 179.48,524.85 179.48,514.86 178.05,503.44 178.05,496.31 178.05,493.45 179.48,487.75 179.48,482.04 180.91,477.76 183.76,472.04 189.47,456.35 189.47,450.64 192.32,449.21 192.32,447.78 192.32,449.21 192.32,450.64 193.75,452.07 193.75,450.64 195.18,450.64 195.18,449.21 195.18,447.78 196.6,444.94 196.6,443.5 196.6,442.08 198.03,439.22 199.46,436.37 216.59,419.24 226.57,410.68 228,409.26 229.43,407.82 229.43,406.4 230.86,404.97 230.86,403.54 230.86,402.12 232.28,400.69 228,399.26 226.57,399.26 226.57,396.41 225.15,396.41 223.72,396.41 222.29,396.41 220.87,394.99 218.01,394.99 230.86,379.28 235.14,376.43 235.14,375 235.14,372.14 238,373.57 242.27,373.57 242.27,375 243.7,375 245.13,376.43 246.55,376.43 249.41,377.86 249.41,379.28 250.84,379.28 255.12,380.71 250.84,372.14 249.41,367.86 249.41,366.44 249.41,365.01 249.41,363.59 249.41,362.16 249.41,360.73 249.41,359.3 249.41,357.87 250.84,356.45 252.27,353.59 257.97,349.31 269.39,337.89 275.1,332.19 279.38,329.33 283.66,325.05 289.37,320.77 293.65,317.91 299.36,315.06 306.5,310.78 310.77,309.35 320.77,305.07 330.76,302.21 342.18,299.36 353.59,296.51 365.01,296.51 377.85,296.51 387.85,296.51 400.69,296.51 406.4,296.51 409.25,299.36 416.39,300.79 420.67,302.21 423.52,302.21 427.8,303.64 432.08,303.64 434.94,306.5 437.8,306.5 437.8,307.92 440.65,307.92 457.78,316.49 477.75,325.05 487.75,327.91 497.73,330.76 506.3,333.61 510.58,333.61 514.86,335.04 531.98,335.04 543.4,336.46 550.54,336.46 556.25,335.04 569.09,335.04 579.08,333.61 594.78,335.04 599.06,335.04 603.34,335.04 606.2,335.04 607.63,336.46 610.48,336.46 613.33,336.46 616.19,337.89 620.47,337.89 617.61,335.04 616.19,332.19 614.76,330.76 611.91,329.33 609.06,327.91 607.63,327.91 603.34,325.05 594.78,322.19 591.93,319.34 587.65,319.34 586.22,317.91 601.92,316.49 606.2,315.06 609.06,315.06 610.48,315.06 611.91,315.06 611.91,313.63 613.33,313.63 614.76,310.78 616.19,309.35 616.19,307.92 617.61,307.92 620.47,306.5 620.47,305.07 621.9,303.64 623.33,303.64 624.75,303.64 626.18,302.21 627.61,302.21 630.46,302.21 631.88,302.21 639.02,303.64 641.88,303.64 643.31,303.64 644.74,303.64 649.01,302.21 650.44,300.79 653.29,299.36 654.72,296.51 660.43,295.08 664.71,292.23 670.42,289.37 674.7,286.51 677.56,285.09 680.41,282.24 683.26,282.24 687.55,280.81 698.96,279.38 706.1,277.96 707.53,276.53 711.81,275.1 714.66,273.67 717.51,272.24 720.37,267.96 723.23,266.54 727.51,263.69 730.36,260.83 734.64,256.55 737.5,252.26 731.79,252.26 727.51,253.69 714.66,259.4 698.96,265.11 688.97,267.96 678.99,270.82 667.56,273.67 654.72,275.1 640.45,275.1 624.75,275.1 609.06,273.67 591.93,267.96 570.52,265.11 549.11,257.97 541.98,253.69 536.27,253.69 529.13,250.83 526.28,249.41 523.43,249.41 524.85,246.56 524.85,243.7 526.28,242.28 526.28,239.42 526.28,237.99 526.28,235.14 524.85,232.28 524.85,229.43 523.43,228.01 522,225.15 520.57,225.15 520.57,223.72 517.71,222.29 516.29,220.87 514.86,219.44 512,218.01 507.73,215.16 503.44,213.73 497.73,210.88 493.45,210.88 489.17,209.45 486.32,208.02 483.46,206.6 477.75,203.74 467.76,200.88 460.63,199.46 457.78,199.46 453.49,196.6 444.93,196.6 436.37,196.6 434.94,195.18 429.23,195.18 430.66,193.75 434.94,192.33 439.22,192.33 443.5,190.9 452.07,189.47 457.78,189.47 463.48,189.47 466.34,189.47 474.9,188.04 492.03,189.47 492.03,188.04 489.17,186.61 487.75,185.19 486.32,182.33 484.89,182.33 483.46,182.33 482.03,182.33 480.61,182.33 479.18,182.33 477.75,182.33 473.48,182.33 463.48,182.33 437.8,182.33 424.95,186.61 420.67,188.04 414.96,189.47 409.25,190.9 403.54,190.9 394.98,192.33 386.42,192.33 386.42,190.9 386.42,189.47 387.85,188.04 389.27,186.61 389.27,185.19 389.27,182.33 387.85,182.33 386.42,182.33 383.56,182.33 372.15,182.33 360.73,182.33 349.31,182.33 337.9,185.19 316.49,189.47 297.93,196.6 280.81,203.74 266.54,209.45 255.12,213.73 249.41,216.58 246.55,216.58 249.41,215.16 250.84,210.88 263.68,206.6 292.22,188.04 322.2,170.92 343.6,160.93 429.23,110.98 430.66,109.55 432.08,109.55 434.94,108.12 434.94,106.7 436.37,106.7 436.37,105.27 436.37,103.84 437.8,100.98 406.4,110.98 379.28,119.54 346.45,129.53 315.06,138.09 300.79,139.52 289.37,143.8 280.81,143.8 277.95,145.23 273.67,143.8 272.25,143.8 267.96,145.23 249.41,152.36 235.14,156.65 228,158.07 226.57,159.5 225.15,159.5 223.72,160.93 222.29,162.35 220.87,163.78 220.87,165.21 218.01,165.21 216.59,166.63 215.16,166.63 213.73,168.06 212.3,168.06 210.87,168.06 209.45,168.06 209.45,166.63 209.45,165.21 208.02,165.21 206.59,165.21 206.59,166.63 203.74,166.63 200.89,168.06 199.46,168.06 198.03,168.06 198.03,170.92 196.6,170.92 196.6,172.34 195.18,172.34 193.75,173.77 192.32,173.77 189.47,175.2 192.32,170.92 193.75,168.06 196.6,166.63 199.46,163.78 210.87,153.79 226.57,142.38 229.43,139.52 230.86,139.52 230.86,138.09 232.28,136.66 235.14,135.24 235.14,133.81 235.14,132.38 232.28,132.38 229.43,132.38 228,132.38 225.15,132.38 223.72,133.81 222.29,135.24 220.87,135.24 218.01,136.66 215.16,138.09 212.3,139.52 206.59,145.23 178.05,163.78 175.19,166.63 170.92,168.06 165.21,173.77 163.78,175.2 159.5,176.63 156.64,178.06 152.37,180.91 149.51,182.33 143.8,185.19 140.94,186.61 136.67,188.04 123.82,196.6 123.82,195.18 125.24,193.75 125.24,192.33 126.67,189.47 128.1,186.61 130.96,182.33 135.24,176.63 138.09,172.34 140.94,168.06 138.09,168.06 136.67,170.92 135.24,170.92 135.24,172.34 132.38,173.77 130.96,175.2 129.53,176.63 129.53,178.06 128.1,179.48 125.24,182.33 123.82,182.33 116.69,188.04 113.83,190.9 110.97,192.33 110.97,193.75 109.55,193.75 109.55,195.18 106.69,202.31 103.84,205.17 103.84,206.6 100.99,209.45 99.56,210.88 98.13,210.88 96.7,213.73 92.42,216.58 88.14,220.87 83.86,225.15 78.15,229.43 71.02,236.56 69.59,239.42 68.16,242.28 65.31,243.7 63.88,246.56 58.17,249.41 52.47,253.69 49.61,256.55 43.9,259.4 42.47,260.83 41.04,262.26 39.62,265.11 38.19,266.54 35.34,273.67 35.34,275.1 35.34,277.96 32.48,279.38 31.06,280.81 29.63,282.24 22.49,289.37 21.06,290.8 18.21,292.23 16.79,293.65 15.36,295.08 13.93,296.51 13.93,300.79 12.5,303.64 12.5,306.5 16.79,306.5 21.06,306.5 29.63,307.92 38.19,307.92 43.9,309.35 49.61,309.35 66.74,307.92 82.43,306.5 95.28,305.07 108.12,300.79 130.96,293.65 150.94,285.09 170.92,277.96 182.33,273.67 195.18,270.82 208.02,267.96 222.29,267.96 239.42,267.96 257.97,267.96 277.95,270.82 287.95,272.24 292.22,272.24 297.93,272.24 297.93,277.96 289.37,277.96 282.23,279.38 273.67,280.81 265.11,282.24 246.55,290.8 228,299.36 208.02,307.92 192.32,316.49 178.05,325.05 166.64,332.19 153.79,343.6 140.94,353.59 129.53,366.44 120.97,379.28 109.55,393.55 100.99,407.82 92.42,423.53 86.72,439.22 82.43,456.35 79.58,470.62 78.15,486.31 78.15,499.17 81.01,513.44 83.86,524.85 88.14,537.7 92.42,550.54 99.56,561.95 106.69,571.95 115.26,581.94 125.24,591.93 135.24,600.49 146.65,607.62 158.07,616.2 169.49,621.89 183.76,629.03 193.75,633.31 203.74,636.17 212.3,639.02 222.29,643.3 230.86,644.74 235.14,646.16 239.42,646.16 240.84,646.16 242.27,646.16 249.41,647.58 263.68,649.02 306.5,649.02 349.31,649.02 360.73,649.02 365.01,649.02 366.44,647.58 367.86,647.58 370.72,647.58 370.72,646.16 372.15,646.16 370.72,647.58 369.29,647.58 367.86,646.16 366.44,646.16 365.01,644.74 363.58,644.74 363.58,643.3 363.58,644.74 363.58,646.16 363.58,644.74 363.58,643.3 379.28,639.02 382.13,639.02 386.42,639.02 387.85,639.02 389.27,637.6 392.13,637.6 392.13,636.17 393.55,634.75 394.98,631.89 403.54,631.89 410.68,630.47 420.67,630.47 426.38,629.03 434.94,624.75 440.65,624.75 449.21,621.89 450.64,620.47 453.49,619.04 457.78,616.2 463.48,614.76 463.48,613.34 464.91,613.34 469.19,610.48 477.75,610.48 482.03,610.48 487.75,607.62 507.73,600.49 531.98,591.93 544.83,587.65 554.82,581.94 559.11,579.08 563.38,576.23 566.24,574.8 567.66,573.38 569.09,571.95 563.38,573.38 553.39,576.23 534.84,581.94 522,586.22 510.58,589.07 497.73,590.5 492.03,591.93 486.32,591.93 487.75,590.5 489.17,590.5 489.17,589.07 494.88,586.22 499.16,584.79 500.59,581.94 502.02,581.94 503.44,580.52 503.44,579.08 506.3,579.08 507.73,576.23 510.58,574.8 512,573.38 514.86,573.38 517.71,571.95 516.29,566.25 516.29,564.81 516.29,563.39 514.86,553.39 520.57,550.54 522,549.12 523.43,549.12 523.43,547.68 524.85,546.26 526.28,539.12 526.28,536.27 527.71,530.57 529.13,527.71 529.13,524.85 530.56,523.43 530.56,521.99 534.84,517.72 536.27,513.44 540.55,509.16 549.11,496.31 591.93,449.21 591.93,447.78 593.36,446.36 594.78,443.5 599.06,439.22 606.2,436.37 637.6,417.81 654.72,406.4 663.28,400.69 668.99,394.99 677.56,387.85 680.41,382.14 681.84,379.28 684.69,375 684.69,372.14 686.12,367.86 684.69,370.72 683.26,370.72 681.84,372.14 681.84,373.57 677.56,377.86 677.56,380.71 671.85,382.14 668.99,387.85 663.28,392.13 653.29,399.26 646.16,403.54 641.88,406.4 637.6,407.82 634.74,409.26 630.46,409.26 626.18,410.68 621.9,410.68 613.33,410.68 591.93,410.68 584.79,410.68 579.08,410.68 567.66,413.54 557.68,413.54 551.97,414.96 546.25,414.96 549.11,410.68 550.54,409.26 551.97,409.26 553.39,409.26 553.39,407.82 554.82,407.82 554.82,406.4 556.25,404.97 557.68,400.69 540.55,404.97 536.27,404.97 531.98,406.4 526.28,406.4 520.57,406.4 512,406.4 506.3,404.97 499.16,403.54 493.45,402.12 489.17,400.69 483.46,396.41 473.48,392.13 463.48,386.41 457.78,382.14 452.07,382.14 444.93,379.28 437.8,377.86 429.23,376.43 420.67,375 380.71,373.57 360.73,373.57 340.75,373.57 320.77,376.43 309.35,377.86 299.36,380.71 289.37,382.14 279.38,387.85 269.39,393.55 259.4,399.26 245.13,409.26 235.14,420.67 225.15,430.67 218.01,442.08 213.73,452.07 210.87,457.77 210.87,463.49 209.45,467.76 209.45,473.48 209.45,479.18 210.87,482.04 210.87,487.75 213.73,492.03 215.16,496.31 216.59,500.59 220.87,504.87 222.29,509.16 225.15,510.58 229.43,514.86 232.28,519.14 236.57,520.57 240.84,523.43 246.55,524.85 250.84,524.85 255.12,527.71 266.54,529.13 272.25,529.13 277.95,529.13 280.81,527.71 282.23,527.71 285.09,527.71 286.52,524.85 289.37,524.85 292.22,524.85 293.65,523.43 295.08,521.99 297.93,520.57 299.36,519.14 300.79,517.72 302.22,516.29 306.5,510.58 309.35,507.72 310.77,504.87 312.2,502.02 312.2,499.17 313.63,496.31 313.63,494.89 313.63,492.03 313.63,489.17 313.63,484.89 312.2,479.18 309.35,474.9 307.92,470.62 306.5,467.76 302.22,463.49 299.36,460.63 295.08,456.35 293.65,453.49 292.22,453.49 287.95,444.94 286.52,439.22 285.09,437.8 283.66,433.51 283.66,430.67 283.66,427.81 283.66,424.95 285.09,422.09 286.52,419.24 287.95,416.39 292.22,413.54 292.22,410.68 295.08,409.26 302.22,404.97 309.35,402.12 317.91,399.26 327.9,396.41 337.9,396.41 349.31,396.41 359.3,396.41 370.72,396.41 382.13,399.26 387.85,400.69 392.13,400.69 394.98,402.12 397.83,402.12 400.69,402.12 403.54,403.54 406.4,404.97 409.25,407.82 416.39,410.68 "
         id="polygon20" /></clipPath><clipPath
       id="clip-path-2"
       transform="translate(-12.5 -100.8)"><rect
         class="cls-2"
         x="13.93"
         y="100.98"
         width="724.98999"
         height="549.46002"
         id="rect23" /></clipPath><clipPath
       id="clip-path-3"
       transform="translate(-12.5 -100.8)"><rect
         class="cls-3"
         x="13.93"
         y="100.99"
         width="725"
         height="549.46002"
         id="rect26" /></clipPath><inkscape:path-effect
       effect="bspline"
       id="path-effect863"
       is_visible="true"
       lpeversion="1"
       weight="33.333333"
       steps="2"
       helper_size="0"
       apply_no_weight="true"
       apply_with_weight="true"
       only_selected="false" /></defs><sodipodi:namedview
     id="namedview508"
     pagecolor="#505050"
     bordercolor="#ffffff"
     borderopacity="1"
     inkscape:showpageshadow="0"
     inkscape:pageopacity="0"
     inkscape:pagecheckerboard="1"
     inkscape:deskcolor="#505050"
     showgrid="false"
     inkscape:zoom="1.3582679"
     inkscape:cx="172.64635"
     inkscape:cy="228.59996"
     inkscape:window-width="1920"
     inkscape:window-height="1043"
     inkscape:window-x="1920"
     inkscape:window-y="0"
     inkscape:window-maximized="1"
     inkscape:current-layer="g12055"
     showguides="true" /><g
     id="g12055"
     transform="translate(1.2499996e-7,-79.999999)"><g
       id="g10552">
</g><g
       id="g10554">
</g><g
       id="g10556">
</g><g
       id="g10558">
</g><g
       id="g10560">
</g><g
       id="g10562">
</g><g
       id="g10564">
</g><g
       id="g10566">
</g><g
       id="g10568">
</g><g
       id="g10570">
</g><g
       id="g10572">
</g><g
       id="g10574">
</g><g
       id="g10576">
</g><g
       id="g10578">
</g><g
       id="g10580">
</g><path
       id="path0"
       d="m 207.23297,105.60588 c -8.29808,8.60864 -15.19625,22.7413 -20.80072,42.60716 -5.77504,20.47409 -0.20276,32.40389 13.88164,29.71993 3.81354,-0.72731 9.82832,-1.41439 23.65203,-2.70488 3.363,-0.31378 8.28361,-0.87374 10.9354,-1.24384 2.65178,-0.37008 6.19339,-0.49077 7.87327,-0.26709 5.59804,0.74178 8.86772,-3.34048 8.86772,-11.06895 0,-7.41953 -18.50779,-42.29179 -27.13412,-51.12247 -10.22578,-10.47036 -12.2275,-11.15584 -17.27522,-5.91986 m 138.70212,9.28446 c -5.98099,2.13204 -26.50816,19.12086 -36.08871,29.86636 -16.89386,18.95189 -16.65089,18.58985 -16.87294,25.27402 -0.25263,7.59008 0.0869,8.07763 7.90708,11.37789 3.54,1.49486 15.4151,6.68096 26.38912,11.52752 27.36098,12.08108 31.12948,12.42542 37.80399,3.45634 3.84089,-5.16358 5.70101,-26.88149 3.71218,-43.35216 -0.42802,-3.54 -1.01051,-8.46383 -1.29532,-10.94183 -0.51652,-4.50224 -2.00332,-12.16311 -3.18279,-16.41273 -0.34434,-1.239 -1.02499,-3.67517 -1.51093,-5.41461 -1.6107,-5.75571 -9.10424,-8.14682 -16.86168,-5.3808 m -129.30019,10.9531 c 4.3542,3.78136 4.5296,4.01791 7.29562,9.82512 5.50309,11.55006 7.52895,22.09605 4.76775,24.8138 -1.56887,1.54473 -23.0937,3.72987 -25.26919,2.56651 -5.77664,-3.09106 -4.28985,-17.56324 3.34853,-32.60503 3.94709,-7.77192 5.41459,-8.45579 9.85729,-4.6004 m 134.38654,7.72686 c 4.956,7.69307 5.22633,42.38992 0.36203,46.32898 -5.41297,4.38156 -31.86967,-2.60513 -35.49335,-9.37458 -3.28253,-6.13224 -2.14652,-8.61346 9.03345,-19.72264 16.11988,-16.0185 23.66975,-21.00187 26.09787,-17.23176 m -258.249627,9.66421 c -2.386281,1.26313 -4.642228,6.5474 -6.524862,15.27671 -0.767537,3.56736 -0.561574,26.83323 0.321816,36.12412 0.823854,8.66336 5.536892,14.90825 13.500293,17.88667 7.3825,2.76281 5.59481,3.4853 33.88424,-13.67728 13.68213,-8.30131 16.44654,-13.88163 11.59192,-23.3962 -6.88853,-13.50351 -44.61692,-36.53443 -52.773407,-32.21402 m 14.663667,18.68639 c 8.71645,5.12333 21.89007,20.61246 20.89727,24.57083 -0.68869,2.74511 -13.94117,10.6377 -17.86092,10.6377 -7.13954,0 -12.99985,-17.1143 -11.091474,-32.39423 0.764314,-6.11939 1.808624,-6.48304 8.055124,-2.8143 m 108.16317,29.4834 c -2.30101,0.3025 -7.08002,0.84154 -10.62001,1.20036 -7.59975,0.76916 -13.06423,1.56082 -17.05637,2.47158 -1.59301,0.36204 -4.63419,1.01211 -6.75819,1.44175 -45.67409,9.25548 -90.636941,39.52574 -125.65561,84.59639 -2.204462,2.83683 -4.256056,5.45806 -4.56017,5.82331 -2.922113,3.51103 -23.291597,34.98969 -23.291597,35.99218 0,0.0917 -1.395091,2.59867 -3.099114,5.57067 -3.655856,6.37361 -15.2252352,29.38845 -17.7000168,35.21175 -3.2165762,7.56596 -1.8729832,18.92133 3.0073923,25.42204 8.0840815,10.77127 32.3524055,7.81054 46.4931015,-5.67204 1.572078,-1.49968 2.19319,-3.66873 2.19319,-7.66572 0,-4.34293 0.209184,-4.87394 6.104894,-15.5052 21.444374,-38.67293 56.0656,-67.66554 94.06753,-78.77633 11.17353,-3.26806 17.79655,-4.48291 28.87677,-5.30195 9.28446,-0.68708 25.59581,-0.26228 31.86001,0.83028 1.947,0.33793 5.27783,0.87535 7.40183,1.19397 47.42637,7.09609 81.72578,36.44109 108.31763,92.67404 4.97853,10.52668 12.71987,18.77809 21.697,23.12586 7.12667,3.45152 87.05026,4.99141 95.36123,1.83598 7.51768,-2.85292 14.32575,-12.36587 14.89375,-20.80717 0.30573,-4.54891 -0.28803,-6.64555 -7.86202,-27.71822 -9.27963,-25.81465 -25.93856,-54.69948 -44.13418,-76.52199 -31.3274,-37.57069 -78.16806,-65.00408 -126.8061,-74.26763 -1.94699,-0.37009 -5.67527,-1.11832 -8.28521,-1.6606 -2.60995,-0.54225 -5.71872,-0.98636 -6.90944,-0.98636 -1.19073,0 -3.40001,-0.27515 -4.90935,-0.60984 -9.45502,-2.10148 -42.09063,-3.27773 -52.62695,-1.89711 m 255.20199,2.44581 c -23.90307,1.67022 -69.36475,19.4523 -73.6224,28.79792 -1.36291,2.9913 -0.65812,8.00201 1.72495,12.27093 0.43766,0.78364 3.21496,3.46116 6.17087,5.95203 8.8339,7.43722 23.40102,24.32946 31.58485,36.62133 7.31816,10.99332 17.57613,11.90568 23.19347,2.06446 0.922,-1.61553 3.55931,-5.11049 5.86353,-7.76547 8.30451,-9.57571 13.806,-19.01465 20.51754,-35.20533 2.02584,-4.88681 3.93743,-9.46307 4.24798,-10.17106 4.31238,-9.82512 5.91664,-28.0996 2.74673,-31.27755 -1.60265,-1.60585 -10.52507,-2.11755 -22.42752,-1.28726 m -208.21651,10.67631 c 84.08149,10.1566 146.3244,61.57836 182.08002,150.41793 4.74361,11.78982 3.99215,17.94781 -2.62927,21.56345 -2.27845,1.24381 -28.09794,1.35646 -59.09067,0.26066 l -12.55091,-0.4441 -4.09674,-2.19158 c -6.16445,-3.29864 -8.96587,-6.42672 -13.24285,-14.78756 C 321.83573,298.31397 264.4555,255.27237 211.73682,253.34307 144.10668,250.86668 81.603112,293.09408 42.981687,367.35689 c -7.508026,14.43355 -11.097904,16.36447 -19.724246,10.60392 -5.248858,-3.50622 -5.253689,-3.57218 -1.026609,-14.25012 38.39937,-97.01055 106.489718,-152.56607 196.586008,-160.40073 6.66484,-0.57928 35.54966,0.22366 43.76729,1.21646 m 212.45968,6.59729 c 2.17548,5.72354 -7.61905,30.25897 -17.82391,44.64265 -7.51447,10.59105 -8.76151,10.5653 -15.10615,-0.31056 -3.0782,-5.27459 -10.11154,-12.6378 -15.40224,-16.1247 -5.35022,-3.52393 -6.02604,-4.62293 -5.64791,-9.18792 0.46824,-5.63666 0.40871,-5.60607 26.56611,-13.61452 25.68916,-7.86526 26.42289,-8.01007 27.4141,-5.40495 M 13.818505,223.31259 c -7.7172097,1.72977 -8.6891003,2.72902 -8.6891003,8.93849 0,4.18526 0.1995346,5.28588 2.4426099,13.47294 2.7483214,10.03429 7.2730864,15.72726 18.8135034,23.67134 4.378338,3.01383 6.447622,4.88521 7.236083,6.53935 2.989691,6.26742 7.089658,4.4427 17.265552,-7.68341 1.187517,-1.41601 4.637397,-5.32609 7.664103,-8.68909 9.752711,-10.83402 9.654549,-10.69403 9.654549,-13.78188 0,-11.44869 -36.420185,-26.49369 -54.3873,-22.46774 m 20.689707,12.50907 c 9.189528,2.83362 16.319404,7.60296 16.319404,10.91608 0,2.86741 -12.003823,16.04265 -14.61699,16.04265 -5.589988,0 -15.822203,-19.5907 -14.034499,-26.87184 0.481126,-1.95665 6.1403,-1.99687 12.332085,-0.0868"
       stroke="none"
       fill="#ee1b2d"
       fill-rule="evenodd"
       style="fill:#000000;fill-opacity:1;stroke-width:1.60908" /></g></svg>
