<?xml version="1.0" encoding="UTF-8" standalone="no"?>
<svg
   id="svg"
   version="1.1"
   width="400"
   height="400"
   viewBox="0, 0, 400,400"
   sodipodi:docname="unicomer.svg"
   inkscape:version="1.2.1 (0b8a7e5fb6, 2022-09-14, custom)"
   xmlns:inkscape="http://www.inkscape.org/namespaces/inkscape"
   xmlns:sodipodi="http://sodipodi.sourceforge.net/DTD/sodipodi-0.dtd"
   xmlns="http://www.w3.org/2000/svg"
   xmlns:svg="http://www.w3.org/2000/svg">
  <defs
     id="defs1555" />
  <sodipodi:namedview
     id="namedview1553"
     pagecolor="#505050"
     bordercolor="#ffffff"
     borderopacity="1"
     inkscape:showpageshadow="0"
     inkscape:pageopacity="0"
     inkscape:pagecheckerboard="1"
     inkscape:deskcolor="#505050"
     showgrid="false"
     inkscape:zoom="1.5294591"
     inkscape:cx="196.8016"
     inkscape:cy="207.58973"
     inkscape:window-width="1920"
     inkscape:window-height="985"
     inkscape:window-x="0"
     inkscape:window-y="93"
     inkscape:window-maximized="1"
     inkscape:current-layer="svg" />
  <g
     id="svgg">
    <path
       id="path0"
       d="m 166.89893,88.241009 c -6.4226,6.66296 -11.76169,17.601441 -16.09947,32.977331 -4.4698,15.84665 -0.15693,25.08015 10.74419,23.0028 2.95163,-0.56293 7.60699,-1.09472 18.30634,-2.09354 2.60292,-0.24286 6.4114,-0.67626 8.46384,-0.96271 2.05244,-0.28644 4.7936,-0.37985 6.09381,-0.20673 4.3328,0.57413 6.86348,-2.58548 6.86348,-8.56721 0,-5.74261 -14.32476,-32.733231 -21.00142,-39.568061 -7.91461,-8.10391 -9.46391,-8.63446 -13.37077,-4.58188 m 107.35347,7.18604 c -4.6292,1.65017 -20.51695,14.799261 -27.93215,23.116141 -13.07561,14.66849 -12.88755,14.38827 -13.05942,19.56172 -0.19553,5.87462 0.0673,6.25198 6.11997,8.80633 2.73991,1.15699 11.93107,5.17096 20.4248,8.92214 21.17702,9.35058 24.09378,9.61709 29.25976,2.67515 2.9728,-3.99653 4.4125,-20.80589 2.87317,-33.55395 -0.33128,-2.73991 -0.78212,-6.55088 -1.00256,-8.46882 -0.39978,-3.48467 -1.55054,-9.41408 -2.46343,-12.70322 -0.26652,-0.95897 -0.79333,-2.84453 -1.16944,-4.190831 -1.24666,-4.45484 -7.04656,-6.30553 -13.0507,-4.16466 m -100.07652,8.477541 c 3.3701,2.92672 3.50585,3.1098 5.64671,7.6045 4.25932,8.93958 5.8273,17.10203 3.69017,19.20553 -1.21428,1.1956 -17.87419,2.88687 -19.55799,1.98644 -4.47104,-2.39244 -3.32028,-13.5937 2.59171,-25.23583 3.055,-6.01535 4.19082,-6.54466 7.6294,-3.56064 m 104.01328,5.98048 c 3.83587,5.95432 4.0451,32.80919 0.28021,35.85797 -4.18957,3.39126 -24.66667,-2.01633 -27.47135,-7.25579 -2.54064,-4.74627 -1.66138,-6.6667 6.99176,-15.26504 12.47656,-12.3981 18.32005,-16.25515 20.19938,-13.33714 m -199.881538,7.47996 c -1.84695,0.97765 -3.593021,5.06759 -5.050155,11.82396 -0.594063,2.76108 -0.43465,20.76853 0.249083,27.95955 0.637652,6.70531 4.28547,11.53877 10.449026,13.84403 5.713965,2.13837 4.330306,2.69757 26.225934,-10.58602 10.58976,-6.4251 12.72938,-10.74419 8.97197,-18.10833 -5.33162,-10.45152 -34.532853,-28.27713 -40.845858,-24.93319 m 11.349459,14.46299 c 6.74641,3.9654 16.942619,15.95376 16.174199,19.01748 -0.53304,2.12468 -10.790269,8.23343 -13.824099,8.23343 -5.525905,0 -10.061704,-13.24622 -8.584642,-25.07268 0.591572,-4.73631 1.399845,-5.01777 6.234542,-2.17823 m 83.716759,22.81973 c -1.78094,0.23414 -5.47983,0.65135 -8.21974,0.92908 -5.88209,0.59531 -10.11152,1.20805 -13.20139,1.91296 -1.23296,0.28021 -3.58679,0.78336 -5.23074,1.11589 -35.35109,7.16362 -70.151701,30.59236 -97.255654,65.47641 -1.706218,2.19567 -3.294121,4.22445 -3.529504,4.50716 -2.261673,2.71749 -18.027373,27.08153 -18.027373,27.85743 0,0.071 -1.079775,2.01134 -2.398668,4.31162 -2.829582,4.93309 -11.784111,22.74625 -13.699558,27.2534 -2.4895838,5.85594 -1.449663,14.64483 2.327679,19.6763 6.256962,8.33681 25.040301,6.04525 35.985003,-4.39008 1.21677,-1.16073 1.6975,-2.83955 1.6975,-5.93316 0,-3.36137 0.161903,-3.77236 4.725102,-12.00081 16.597637,-29.93229 43.393974,-52.37216 72.806923,-60.97175 8.64816,-2.52944 13.77428,-3.46972 22.35021,-4.10364 7.18604,-0.53179 19.8108,-0.203 24.6592,0.64263 1.50695,0.26154 4.08496,0.67751 5.72891,0.9241 36.70734,5.49228 63.25459,28.2049 83.83631,71.7284 3.85331,8.1475 9.845,14.53398 16.79317,17.89909 5.51594,2.67142 67.37567,3.86328 73.80824,1.42102 5.81857,-2.20812 11.08792,-9.57101 11.52755,-16.10445 0.23663,-3.52079 -0.22293,-5.14357 -6.08509,-21.45351 -7.18231,-19.98018 -20.07608,-42.33662 -34.15923,-59.22693 -24.24697,-29.07918 -60.50098,-50.31225 -98.14612,-57.4821 -1.50695,-0.28644 -4.39258,-0.86556 -6.41264,-1.28527 -2.02006,-0.4197 -4.4262,-0.76343 -5.34781,-0.76343 -0.92161,0 -2.63156,-0.21297 -3.79976,-0.47202 -7.31805,-1.62651 -32.57755,-2.53691 -40.73252,-1.46834 m 197.52272,1.89303 c -18.50063,1.29274 -53.68733,15.05581 -56.98269,22.28918 -1.05487,2.31523 -0.50938,6.19345 1.33508,9.49753 0.33875,0.60652 2.48834,2.67889 4.77617,4.60679 6.83732,5.7563 18.11206,18.83066 24.44623,28.34438 5.66415,8.50868 13.60367,9.21483 17.95141,1.59787 0.71362,-1.2504 2.75485,-3.95544 4.53829,-6.01037 6.42758,-7.41146 10.68565,-14.71706 15.88028,-27.24842 1.56797,-3.78232 3.04752,-7.32428 3.28789,-7.87226 3.33771,-7.6045 4.57939,-21.74868 2.12592,-24.20837 -1.24043,-1.24292 -8.14625,-1.63896 -17.35858,-0.99633 m -161.15662,8.26332 c 65.07788,7.86106 113.253,47.66077 140.92735,116.42134 3.67148,9.12515 3.08987,13.89135 -2.03501,16.6898 -1.7635,0.9627 -21.74742,1.04988 -45.73535,0.20175 l -9.71423,-0.34373 -3.17082,-1.69625 c -4.77119,-2.5531 -6.93945,-4.97419 -10.24977,-11.44536 -24.16228,-47.23732 -68.57376,-80.55091 -109.37727,-82.04416 -52.34476,-1.9167 -100.721639,30.76671 -130.614075,88.24508 -5.811103,11.17136 -8.589623,12.66586 -15.266289,8.20728 -4.062542,-2.71376 -4.066278,-2.76482 -0.794575,-11.02939 29.720569,-75.08479 82.421529,-118.08397 152.154769,-124.14789 5.1585,-0.44835 27.51494,0.17311 33.87527,0.94153 m 164.44077,5.1062 c 1.6838,4.42994 -5.89703,23.42002 -13.79545,34.55278 -5.81609,8.19732 -6.78128,8.17739 -11.69195,-0.24037 -2.38248,-4.08246 -7.82618,-9.78148 -11.92111,-12.48029 -4.141,-2.72746 -4.66407,-3.57808 -4.3714,-7.11132 0.36241,-4.36269 0.31633,-4.33902 20.56179,-10.53745 19.88304,-6.08759 20.45095,-6.19967 21.21812,-4.18335 m -356.981835,9.43402 c -5.973007,1.33882 -6.725238,2.11222 -6.725238,6.91827 0,3.23933 0.154432,4.09119 1.89054,10.42786 2.127167,7.7664 5.629272,12.17268 14.561384,18.32129 3.388773,2.33266 4.990376,3.78108 5.600629,5.06136 2.31398,4.85089 5.487295,3.43859 13.363296,-5.94685 0.919116,-1.09597 3.589284,-4.12232 5.931909,-6.72524 7.548456,-8.38537 7.472486,-8.27702 7.472486,-10.66697 0,-8.86113 -28.188709,-20.50575 -42.095006,-17.38972 m 16.013538,9.68185 c 7.112561,2.19317 12.630993,5.88458 12.630993,8.44889 0,2.21933 -9.290792,12.41678 -11.313345,12.41678 -4.326569,0 -12.246159,-15.16292 -10.862504,-20.79842 0.372379,-1.51442 4.752502,-1.54556 9.544856,-0.0673"
       stroke="none"
       fill="#ee1b2d"
       fill-rule="evenodd"
       style="fill:#000000;fill-opacity:1;stroke-width:1.24541" />
  </g>
</svg>
