<?xml version="1.0" encoding="UTF-8" standalone="no"?>
<svg
   version="1.1"
   viewBox="0 0 500 340"
   id="svg30"
   sodipodi:docname="vectorizer.ai-logo.svg"
   width="500"
   height="340"
   inkscape:version="1.2.2 (1:1.2.2+202305151914+b0a8486541)"
   xmlns:inkscape="http://www.inkscape.org/namespaces/inkscape"
   xmlns:sodipodi="http://sodipodi.sourceforge.net/DTD/sodipodi-0.dtd"
   xmlns="http://www.w3.org/2000/svg"
   xmlns:svg="http://www.w3.org/2000/svg">
  <defs
     id="defs34" />
  <sodipodi:namedview
     id="namedview32"
     pagecolor="#505050"
     bordercolor="#ffffff"
     borderopacity="1"
     inkscape:showpageshadow="0"
     inkscape:pageopacity="0"
     inkscape:pagecheckerboard="1"
     inkscape:deskcolor="#505050"
     showgrid="false"
     inkscape:zoom="1.1558333"
     inkscape:cx="375.05407"
     inkscape:cy="197.69286"
     inkscape:window-width="1557"
     inkscape:window-height="719"
     inkscape:window-x="2096"
     inkscape:window-y="206"
     inkscape:window-maximized="0"
     inkscape:current-layer="svg30" />
  <path
     fill="#ffffff"
     d="m 206.00643,273.94587 c 7.72713,6.26419 20.85443,6.54892 30.20161,5.13507 33.48099,-4.79142 59.26429,-32.88207 72.65669,-62.20002 10.27012,-22.47448 17.00559,-49.30836 19.85295,-73.1967 0.33383,-2.79826 -2.06189,-3.62302 -4.50668,-3.91758 -21.18826,-2.54298 -42.29797,-11.28142 -54.77725,-29.16085 -10.66286,-15.267731 -13.74586,-36.868365 -11.44834,-55.022722 4.38886,-34.678832 29.20995,-51.9495295 63.34878,-50.9480458 43.24055,1.2862197 52.29318,47.1286618 52.0379,80.7471138 -0.0197,2.484069 -0.41238,6.24454 -0.0197,9.474825 q 0.29456,2.444791 2.50372,0.736381 c 6.45073,-5.007421 11.70361,-9.396279 20.31441,-9.347183 9.45519,0.04914 8.31624,6.774745 6.88275,13.559303 q -3.58374,17.044868 -17.9187,27.639008 c -2.93573,2.17969 -14.75717,6.06781 -15.01245,12.30254 q -2.43499,59.96141 -27.04007,114.56192 c -17.68306,39.21497 -47.7865,66.64779 -90.23175,76.64299 -29.91688,7.03984 -62.80876,6.42128 -90.0452,-6.83366 -10.31921,-5.02705 -18.46854,-14.25642 -24.07489,-24.73273 q -15.49355,-28.96449 -7.75659,-62.59275 11.5858,-50.40804 22.79849,-94.86607 c 4.86996,-19.33257 7.83514,-38.40986 8.52243,-58.370814 0.19637,-5.576892 -0.78547,-14.541157 -3.30882,-20.412599 -11.82144,-27.442633 -37.65384,6.293636 -52.38154,9.180266 -7.501315,1.472776 -10.810135,-1.757509 -10.603955,-9.170449 1.07022,-38.07603 39.391705,-56.2598391 72.470135,-55.4939991 41.56159,0.952389 58.14498,37.9680301 55.34672,74.4240141 q -1.81641,23.701791 -7.26567,46.883201 -9.42573,40.04954 -17.80088,80.33473 -4.3005,20.71697 -3.7703,41.8856 c 0.22583,9.19991 3.17137,17.55543 11.02615,22.75921 z M 315.25655,46.530438 q -1.12913,1.78697 -1.44331,3.878297 -4.24159,27.727366 18.78274,43.780568 a 0.82475157,0.82475157 0 0 0 1.29603,-0.589108 q 0.27492,-2.542984 0.216,-5.390344 -0.36328,-16.033568 -0.4811,-32.106396 -0.0687,-10.751235 -9.64174,-13.097842 c -4.17284,-1.02112 -6.49983,0.0098 -8.72862,3.524825 z"
     id="path24"
     style="stroke-width:0.981851;fill:#000000;fill-opacity:1" />
  <path
     fill="#385bc3"
     d="m 586.29,426.4 c -9.52,1.44 -22.89,1.15 -30.76,-5.23 q 7.29,3.44 11.9,4.16 6.13,0.97 18.86,1.07 z"
     id="path28" />
</svg>
