<?xml version="1.0" standalone="no"?>
<!DOCTYPE svg PUBLIC "-//W3C//DTD SVG 20010904//EN"
 "http://www.w3.org/TR/2001/REC-SVG-20010904/DTD/svg10.dtd">
<svg version="1.0" xmlns="http://www.w3.org/2000/svg"
 width="232.000000pt" height="217.000000pt" viewBox="0 0 232.000000 217.000000"
 preserveAspectRatio="xMidYMid meet">

<g transform="translate(0.000000,217.000000) scale(0.100000,-0.100000)"
fill="#000000" stroke="none">
<path d="M760 1632 c-25 -20 -30 -63 -10 -87 10 -12 48 -15 226 -15 209 0 213
0 228 22 23 32 20 54 -10 77 -25 20 -40 21 -219 21 -171 0 -195 -2 -215 -18z"/>
<path d="M1800 1632 c-25 -20 -30 -63 -10 -87 10 -12 48 -15 226 -15 209 0
213 0 228 22 23 32 20 54 -10 77 -25 20 -40 21 -219 21 -171 0 -195 -2 -215
-18z"/>
<path d="M90 1432 c-13 -11 -22 -29 -22 -45 -1 -59 -25 -57 563 -57 l539 0 16
25 c21 32 12 68 -21 83 -19 9 -168 12 -539 12 -481 0 -515 -1 -536 -18z"/>
<path d="M1650 1432 c-25 -20 -30 -63 -10 -87 10 -12 48 -15 226 -15 209 0
213 0 228 22 23 32 20 54 -10 77 -25 20 -40 21 -219 21 -171 0 -195 -2 -215
-18z"/>
<path d="M426 1218 c-21 -30 -20 -54 4 -78 17 -17 33 -20 105 -20 93 0 125 16
125 63 0 45 -28 57 -128 57 -83 0 -92 -2 -106 -22z"/>
<path d="M760 1222 c-25 -20 -30 -63 -10 -87 10 -12 48 -15 226 -15 209 0 213
0 228 22 23 32 20 54 -10 77 -25 20 -40 21 -219 21 -171 0 -195 -2 -215 -18z"/>
<path d="M1450 1222 c-25 -20 -30 -63 -10 -87 10 -12 48 -15 226 -15 209 0
213 0 228 22 23 32 20 54 -10 77 -25 20 -40 21 -219 21 -171 0 -195 -2 -215
-18z"/>
<path d="M760 1012 c-25 -20 -30 -63 -10 -87 10 -12 48 -15 226 -15 209 0 213
0 228 22 23 32 20 54 -10 77 -25 20 -40 21 -219 21 -171 0 -195 -2 -215 -18z"/>
<path d="M1290 1012 c-25 -20 -30 -63 -10 -87 10 -12 48 -15 226 -15 209 0
213 0 228 22 23 32 20 54 -10 77 -25 20 -40 21 -219 21 -171 0 -195 -2 -215
-18z"/>
<path d="M427 812 c-21 -23 -22 -52 -3 -77 11 -15 30 -20 85 -23 107 -6 151
12 151 62 0 44 -28 56 -127 56 -74 0 -93 -3 -106 -18z"/>
<path d="M767 812 c-22 -24 -21 -65 1 -85 17 -15 59 -17 404 -17 360 0 386 1
401 18 22 24 21 65 -1 85 -17 15 -59 17 -404 17 -360 0 -386 -1 -401 -18z"/>
<path d="M120 623 c-50 -18 -65 -67 -29 -99 31 -28 177 -28 208 0 27 24 27 58
0 82 -15 14 -38 19 -92 20 -40 1 -79 0 -87 -3z"/>
<path d="M436 604 c-22 -21 -20 -67 2 -87 17 -15 65 -17 480 -17 449 0 463 1
482 20 24 24 25 48 4 78 l-15 22 -469 0 c-413 0 -470 -2 -484 -16z"/>
</g>
</svg>
