<?xml version="1.0" encoding="UTF-8" standalone="no"?>
<svg
   width="500"
   height="500"
   viewBox="0 0 500 500"
   version="1.1"
   id="svg24"
   sodipodi:docname="whatsapp.svg"
   inkscape:version="1.2 (56b05e47e7, 2022-06-09, custom)"
   xmlns:inkscape="http://www.inkscape.org/namespaces/inkscape"
   xmlns:sodipodi="http://sodipodi.sourceforge.net/DTD/sodipodi-0.dtd"
   xmlns="http://www.w3.org/2000/svg"
   xmlns:svg="http://www.w3.org/2000/svg">
  <defs
     id="defs28" />
  <sodipodi:namedview
     id="namedview26"
     pagecolor="#505050"
     bordercolor="#ffffff"
     borderopacity="1"
     inkscape:showpageshadow="0"
     inkscape:pageopacity="0"
     inkscape:pagecheckerboard="1"
     inkscape:deskcolor="#505050"
     showgrid="false"
     inkscape:zoom="6.2496865"
     inkscape:cx="-45.202267"
     inkscape:cy="14.720738"
     inkscape:window-width="1920"
     inkscape:window-height="962"
     inkscape:window-x="0"
     inkscape:window-y="27"
     inkscape:window-maximized="1"
     inkscape:current-layer="svg24" />
  <g
     id="g22"
     transform="matrix(20.791667,0,0,20.791667,0.499996,0.499996)">
    <path
       fill="none"
       d="M 0,0 H 24 V 24 H 0 Z"
       id="path18" />
    <path
       fill-rule="nonzero"
       d="m 7.253,18.494 0.724,0.423 A 7.953,7.953 0 0 0 12,20 8,8 0 1 0 4,12 c 0,1.436 0.377,2.813 1.084,4.024 l 0.422,0.724 -0.653,2.401 z M 2.004,22 3.356,17.032 A 9.954,9.954 0 0 1 2,12 C 2,6.477 6.477,2 12,2 17.523,2 22,6.477 22,12 22,17.523 17.523,22 12,22 A 9.954,9.954 0 0 1 6.97,20.645 Z M 8.391,7.308 C 8.525,7.298 8.66,7.298 8.794,7.304 8.848,7.308 8.902,7.314 8.956,7.32 9.115,7.338 9.29,7.435 9.349,7.569 c 0.298,0.676 0.588,1.357 0.868,2.04 0.062,0.152 0.025,0.347 -0.093,0.537 a 4.38,4.38 0 0 1 -0.263,0.372 c -0.113,0.145 -0.356,0.411 -0.356,0.411 0,0 -0.099,0.118 -0.061,0.265 0.014,0.056 0.06,0.137 0.102,0.205 l 0.059,0.095 c 0.256,0.427 0.6,0.86 1.02,1.268 0.12,0.116 0.237,0.235 0.363,0.346 0.468,0.413 0.998,0.75 1.57,1 l 0.005,0.002 c 0.085,0.037 0.128,0.057 0.252,0.11 0.062,0.026 0.126,0.049 0.191,0.066 a 0.35,0.35 0 0 0 0.367,-0.13 c 0.724,-0.877 0.79,-0.934 0.796,-0.934 v 0.002 a 0.482,0.482 0 0 1 0.378,-0.127 c 0.06,0.004 0.121,0.015 0.177,0.04 0.531,0.243 1.4,0.622 1.4,0.622 l 0.582,0.261 c 0.098,0.047 0.187,0.158 0.19,0.265 0.004,0.067 0.01,0.175 -0.013,0.373 -0.032,0.259 -0.11,0.57 -0.188,0.733 a 1.155,1.155 0 0 1 -0.21,0.302 2.378,2.378 0 0 1 -0.33,0.288 3.71,3.71 0 0 1 -0.125,0.09 5.024,5.024 0 0 1 -0.383,0.22 1.99,1.99 0 0 1 -0.833,0.23 c -0.185,0.01 -0.37,0.024 -0.556,0.014 -0.008,0 -0.568,-0.087 -0.568,-0.087 A 9.448,9.448 0 0 1 9.85,14.402 C 9.624,14.203 9.415,13.989 9.201,13.776 8.311,12.891 7.639,11.936 7.231,11.034 A 3.47,3.47 0 0 1 6.9,9.62 2.729,2.729 0 0 1 7.464,7.94 C 7.537,7.846 7.606,7.748 7.725,7.635 7.852,7.515 7.932,7.451 8.019,7.407 a 0.961,0.961 0 0 1 0.371,-0.1 z"
       id="path20" />
  </g>
</svg>
