<?xml version="1.0" encoding="UTF-8" standalone="no"?>
<svg
   width="500"
   height="500"
   viewBox="0 0 500 500"
   version="1.1"
   id="svg14843"
   sodipodi:docname="pinterest-svgrepo-com.svg"
   inkscape:version="1.2 (56b05e47e7, 2022-06-09, custom)"
   xmlns:inkscape="http://www.inkscape.org/namespaces/inkscape"
   xmlns:sodipodi="http://sodipodi.sourceforge.net/DTD/sodipodi-0.dtd"
   xmlns="http://www.w3.org/2000/svg"
   xmlns:svg="http://www.w3.org/2000/svg">
  <defs
     id="defs14847" />
  <sodipodi:namedview
     id="namedview14845"
     pagecolor="#505050"
     bordercolor="#ffffff"
     borderopacity="1"
     inkscape:showpageshadow="0"
     inkscape:pageopacity="0"
     inkscape:pagecheckerboard="1"
     inkscape:deskcolor="#505050"
     showgrid="false"
     inkscape:zoom="37.8"
     inkscape:cx="9.7486772"
     inkscape:cy="10"
     inkscape:window-width="1920"
     inkscape:window-height="962"
     inkscape:window-x="0"
     inkscape:window-y="27"
     inkscape:window-maximized="1"
     inkscape:current-layer="svg14843" />
  <path
     d="M 215.49305,330.51727 C 202.36963,399.2281 186.37702,465.09469 138.94809,499.5 124.3277,395.66032 160.42958,317.69324 177.22057,234.91091 148.60353,186.75844 180.66359,89.904615 240.96645,113.78125 315.19111,143.12183 176.69663,292.71883 269.65834,311.43093 366.73671,330.91646 406.35646,143.02203 346.1534,81.920785 259.20451,-6.3504261 93.016123,79.84998 113.47468,206.21903 118.43963,237.10647 150.35,246.46252 126.22386,289.10115 70.561603,276.77612 53.945258,232.86506 56.090913,174.33361 59.533939,78.527658 142.14162,11.488442 225.02374,2.1822913 329.83645,-9.5689071 428.2122,40.679318 441.80966,139.25466 457.10368,250.55423 394.50547,371.11005 282.40752,362.42763 252.01907,360.05744 239.29484,344.98796 215.49305,330.51727 Z"
     id="path14841"
     style="stroke-width:24.9495" />
</svg>
