<?xml version="1.0" standalone="no"?>
<!DOCTYPE svg PUBLIC "-//W3C//DTD SVG 20010904//EN"
 "http://www.w3.org/TR/2001/REC-SVG-20010904/DTD/svg10.dtd">
<svg version="1.0" xmlns="http://www.w3.org/2000/svg"
 width="444.000000pt" height="444.000000pt" viewBox="0 0 444.000000 444.000000"
 preserveAspectRatio="xMidYMid meet">
<metadata>
Created by potrace 1.14, written by Peter Selinger 2001-2017
</metadata>
<g transform="translate(0.000000,444.000000) scale(0.100000,-0.100000)"
fill="#000000" stroke="none">
<path d="M0 2220 l0 -2220 108 0 108 0 17 38 c9 21 17 44 17 50 0 6 6 17 14
24 7 8 21 28 30 46 9 18 21 32 27 32 6 0 7 5 4 10 -3 6 -1 10 5 10 6 0 8 4 5
10 -3 6 4 10 17 9 13 0 17 -3 11 -6 -7 -2 -13 -10 -13 -16 0 -7 -7 -25 -16
-42 -49 -91 -74 -144 -74 -154 0 -8 424 -11 1614 -11 l1615 0 3 27 c2 14 9 29
17 31 10 3 12 0 8 -12 -4 -9 -10 -23 -13 -31 -5 -13 50 -15 465 -15 l471 0 0
400 c0 372 -1 401 -17 407 -28 11 -87 53 -74 53 13 0 49 -20 69 -37 7 -7 15
-13 18 -13 2 0 4 817 4 1815 l0 1815 -2220 0 -2220 0 0 -2220z m2515 1460 c3
-5 1 -10 -4 -10 -6 0 -11 5 -11 10 0 6 2 10 4 10 3 0 8 -4 11 -10z m265 -1
c80 -24 142 -39 163 -39 26 0 164 -42 192 -58 30 -17 104 -39 173 -52 60 -11
64 -10 82 12 11 13 19 26 20 30 0 13 74 -3 93 -20 13 -12 20 -13 29 -4 7 7 9
12 5 12 -4 0 -3 9 3 20 12 23 60 28 60 6 0 -9 18 -16 50 -20 28 -4 67 -16 86
-26 19 -11 41 -20 49 -20 7 0 27 -13 43 -30 16 -16 32 -27 35 -24 3 3 8 -4 12
-15 3 -11 16 -21 28 -23 16 -2 26 -15 37 -48 8 -25 18 -50 21 -55 4 -6 10 -29
14 -52 4 -24 15 -60 25 -80 19 -41 76 -290 68 -298 -10 -10 -67 17 -73 34 -3
10 -34 47 -69 82 -50 51 -70 65 -97 67 -18 2 -38 7 -43 12 -9 9 -75 2 -92 -11
-6 -5 -13 -6 -16 -3 -10 9 -132 -24 -185 -50 -28 -14 -54 -26 -59 -26 -4 0
-15 -7 -25 -16 -23 -21 -58 -13 -92 22 -14 14 -31 23 -37 19 -6 -3 -10 3 -10
14 0 22 -26 29 -32 9 -5 -15 -67 30 -67 49 -1 7 -7 16 -15 20 -7 4 -18 18 -25
31 l-12 22 -25 -30 c-22 -26 -30 -29 -62 -24 -87 12 -249 20 -271 12 -13 -5
-32 -6 -41 -3 -20 6 -71 -13 -83 -32 -4 -7 -15 -13 -22 -13 -8 0 -15 -4 -15
-8 0 -5 -18 -17 -40 -27 -22 -10 -42 -26 -45 -35 -3 -10 -18 -22 -33 -28 -22
-8 -233 -39 -317 -45 -21 -2 -27 20 -12 40 5 7 6 17 2 23 -4 6 -1 9 6 8 7 -2
15 8 19 22 4 14 12 24 17 23 17 -4 23 37 7 44 -26 10 -15 24 14 17 24 -7 26
-6 13 9 -10 13 -11 20 -2 31 7 8 14 36 16 63 3 33 2 43 -5 33 -8 -13 -10 -13
-10 2 0 9 7 21 17 26 15 9 14 12 -6 41 -19 27 -21 39 -16 86 4 30 10 55 14 55
11 0 28 -15 34 -30 3 -8 6 0 6 18 1 29 21 48 21 20 0 -9 4 -8 10 2 5 8 10 12
10 8 0 -5 11 2 25 14 22 19 23 23 10 38 -19 22 -19 36 0 20 12 -10 15 -9 15 5
0 13 5 16 23 10 12 -3 36 -7 53 -9 29 -1 31 0 23 21 -5 13 -6 28 -4 35 7 19
67 51 74 40 3 -5 28 -12 54 -15 43 -6 50 -4 54 12 3 13 19 22 51 29 26 5 47
10 47 11 0 0 16 -4 35 -10z m-570 -229 c0 -5 -4 -10 -10 -10 -5 0 -10 5 -10
10 0 6 5 10 10 10 6 0 10 -4 10 -10z m-109 -293 c-10 -9 -11 -8 -5 6 3 10 9
15 12 12 3 -3 0 -11 -7 -18z m1094 -217 c33 -11 47 -18 30 -15 -81 12 -162 29
-175 37 -25 15 79 0 145 -22z m710 -19 c36 -11 -138 -4 -225 10 -40 6 -21 7
70 4 69 -2 139 -9 155 -14z m-1532 2 c-37 -5 -45 -22 -10 -24 23 -2 -46 -13
-148 -23 -69 -7 -63 -1 8 9 26 3 47 10 47 14 0 7 -148 -10 -210 -25 -16 -3
-21 -2 -15 4 10 10 135 30 227 37 27 2 53 6 56 9 3 3 21 5 41 4 l36 -1 -32 -4z
m377 -62 c0 -12 -66 -34 -83 -28 -15 5 41 36 66 37 9 0 17 -4 17 -9z m-330
-13 c0 -15 -23 -20 -58 -12 l-37 7 30 7 c38 9 65 8 65 -2z m-195 -52 c28 -12
74 -44 104 -69 30 -26 60 -47 67 -47 6 0 17 -7 24 -14 6 -8 32 -23 58 -33 26
-9 59 -32 75 -50 16 -18 44 -38 64 -45 24 -9 39 -23 48 -45 10 -24 20 -33 37
-32 13 0 50 -7 83 -16 99 -28 114 -29 121 -11 3 9 11 16 16 16 6 0 23 11 40
25 36 30 58 32 58 5 0 -14 -7 -20 -21 -20 -11 0 -17 -4 -14 -10 3 -5 -1 -10
-10 -10 -10 0 -13 5 -9 13 5 7 1 7 -10 -2 -15 -13 -16 -15 -2 -23 23 -13 20
-33 -12 -65 -16 -15 -37 -43 -47 -61 -11 -17 -27 -35 -37 -38 -10 -3 -16 -9
-13 -14 3 -5 -4 -19 -15 -30 -15 -15 -25 -18 -37 -12 -9 5 -24 7 -34 5 -24 -7
-24 6 -1 23 16 13 16 13 -3 15 -29 3 -38 5 -58 14 -23 10 -36 -3 -17 -16 11
-7 8 -8 -11 -4 -19 5 -28 2 -32 -9 -4 -9 -13 -16 -21 -16 -9 0 -23 -11 -32
-25 -9 -14 -25 -25 -35 -25 -11 0 -19 -4 -19 -10 0 -5 -7 -10 -15 -10 -8 0
-15 5 -15 11 0 5 -4 8 -10 4 -5 -3 -7 -12 -3 -20 4 -11 -2 -15 -19 -15 -36 0
-42 12 -16 33 l23 19 -25 -6 c-14 -3 -31 -6 -38 -6 -8 0 -12 -9 -10 -22 2 -17
-2 -23 -17 -23 -50 -3 -55 -6 -55 -26 0 -22 26 -74 49 -99 13 -13 12 -15 -2
-18 -21 -4 -21 -11 -1 -40 9 -13 14 -34 12 -47 -3 -15 -1 -22 7 -19 7 3 10 -7
7 -29 -3 -30 -8 -35 -49 -45 -37 -10 -43 -15 -38 -32 5 -14 2 -20 -9 -20 -9 0
-16 -8 -16 -17 -1 -17 -1 -17 -14 0 -7 9 -18 17 -25 17 -6 0 -11 6 -11 13 0
13 -40 37 -60 37 -6 0 -10 -7 -10 -15 0 -19 -24 -19 -40 0 -20 24 -31 18 -18
-10 6 -13 15 -22 19 -19 5 3 9 -2 9 -10 0 -10 -6 -13 -15 -10 -8 4 -15 2 -16
-2 0 -5 -3 -20 -6 -34 -6 -35 -4 -110 4 -124 4 -6 8 -16 9 -22 1 -5 13 -38 26
-72 l25 -61 -23 17 c-13 9 -24 21 -24 26 0 5 -9 17 -21 27 -11 9 -24 30 -29
46 -8 27 -8 28 -9 3 -1 -21 -3 -22 -11 -9 -5 9 -12 85 -15 169 -5 112 -13 178
-31 251 -13 54 -24 105 -24 114 0 20 -12 19 -36 -2 -10 -10 -35 -24 -53 -30
-32 -12 -37 -11 -58 9 -16 15 -23 33 -23 58 0 21 -9 57 -19 81 -11 24 -22 64
-25 89 -4 25 -11 74 -16 110 -12 80 -12 82 -2 76 9 -5 26 37 37 92 8 41 32 54
76 42 43 -13 53 -2 41 44 -12 41 -33 66 -57 66 -9 0 -14 3 -11 8 2 4 -16 7
-41 7 -28 0 -48 -5 -51 -12 -2 -7 -9 -13 -15 -13 -17 0 32 47 64 60 16 7 29
15 29 19 0 11 42 5 73 -9 15 -8 27 -21 27 -32 0 -11 4 -16 10 -13 10 6 60 -84
60 -108 0 -19 24 -67 33 -67 5 0 11 9 14 20 4 16 9 18 25 9 23 -12 37 -4 21
12 -12 12 -2 61 18 85 9 11 8 14 -5 14 -9 0 -16 4 -16 9 0 5 -8 17 -17 27 -13
12 -14 19 -5 22 7 2 10 13 6 26 -14 57 72 74 161 32z m-181 -13 c-8 -32 -12
-39 -19 -31 -9 8 6 58 16 58 5 0 6 -12 3 -27z m1347 -118 c61 -118 87 -153
155 -204 24 -19 164 -42 249 -42 71 1 95 5 115 19 14 11 35 22 47 26 21 7 66
53 90 92 9 16 10 12 6 -21 -2 -22 -6 -148 -7 -280 -4 -362 -22 -489 -81 -570
-44 -61 -67 -85 -77 -79 -5 3 -12 -3 -15 -14 -3 -12 -16 -22 -31 -25 -31 -6
-43 0 -23 12 8 5 11 17 6 30 -8 26 -25 28 -25 2 0 -11 -4 -22 -9 -26 -19 -11
-23 17 -10 61 11 36 15 41 19 24 9 -36 25 -21 22 20 -2 31 2 42 18 52 11 7 20
21 20 30 0 10 6 18 13 19 6 0 2 4 -9 9 -25 10 -40 80 -17 80 8 0 13 13 13 36
0 20 10 52 21 71 18 29 20 38 9 58 -7 13 -10 27 -7 32 7 12 -20 73 -33 73 -5
0 -10 11 -10 25 0 14 -9 34 -20 45 -11 11 -20 25 -20 30 0 6 -11 15 -24 21
-14 7 -22 17 -19 25 3 8 -1 14 -8 14 -8 0 -29 14 -48 30 -38 34 -139 86 -148
76 -3 -3 4 -26 17 -51 13 -25 23 -60 23 -77 0 -34 6 -44 49 -85 28 -26 29 -47
3 -36 -8 3 -15 0 -15 -6 0 -6 -9 -11 -19 -11 -11 0 -23 -9 -26 -20 -8 -26 -25
-16 -25 16 0 13 -5 24 -11 24 -7 0 -9 -9 -5 -24 5 -20 3 -23 -14 -19 -15 4
-20 0 -20 -13 0 -16 -3 -16 -19 6 -21 26 -19 42 4 34 13 -5 74 51 75 70 0 12
-51 50 -73 53 -10 2 -33 -9 -50 -23 -27 -23 -33 -24 -35 -10 -2 9 -7 16 -12
16 -5 0 -7 9 -5 20 2 11 -1 22 -6 26 -6 3 -14 17 -19 30 -10 25 -53 34 -65 14
-3 -6 -17 -7 -31 -4 -13 3 -24 2 -24 -4 0 -5 -19 -10 -42 -10 -24 0 -65 -3
-91 -5 -60 -6 -67 6 -39 71 13 29 17 51 11 57 -20 20 -9 60 20 76 26 15 111
118 111 135 0 11 42 44 57 44 8 0 13 13 13 38 0 41 7 54 24 49 6 -1 41 -61 77
-132z m-478 102 c3 -7 -3 -13 -14 -13 -13 0 -15 3 -7 13 6 7 12 13 13 13 2 0
5 -6 8 -13z m-238 -17 c-3 -5 0 -10 8 -10 8 0 20 -6 26 -14 10 -12 4 -17 -39
-30 -35 -11 -58 -12 -75 -6 -14 5 -25 6 -25 3 0 -4 -5 -2 -12 5 -10 10 -7 16
12 30 37 26 118 43 105 22z m50 0 c3 -5 -1 -10 -9 -10 -9 0 -16 5 -16 10 0 6
4 10 9 10 6 0 13 -4 16 -10z m1008 -35 c-3 -9 -8 -14 -10 -11 -3 3 -2 9 2 15
9 16 15 13 8 -4z m277 -111 c-12 -42 -49 -94 -67 -94 -5 0 -9 10 -10 22 -1 11
-8 25 -15 29 -9 6 -4 17 22 44 18 19 39 35 46 35 7 0 16 10 20 23 14 41 17
-11 4 -59z m-2293 -36 c-2 -13 -4 -5 -4 17 -1 22 1 32 4 23 2 -10 2 -28 0 -40z
m1425 30 c-7 -7 -12 -8 -12 -2 0 6 3 14 7 17 3 4 9 5 12 2 2 -3 -1 -11 -7 -17z
m-42 2 c0 -13 -41 -50 -57 -50 -23 0 -14 17 20 39 37 24 37 24 37 11z m385 0
c3 -5 1 -10 -4 -10 -6 0 -11 5 -11 10 0 6 2 10 4 10 3 0 8 -4 11 -10z m234
-46 c62 -5 85 -3 91 6 11 18 40 5 40 -18 0 -16 -6 -19 -37 -15 -24 2 -33 0
-25 -5 21 -14 -41 -35 -80 -28 -18 3 -50 8 -70 12 -21 3 -38 11 -38 18 0 6 -4
4 -10 -4 -8 -12 -13 -12 -44 3 -61 29 -39 49 44 41 25 -2 83 -7 129 -10z
m-1019 -54 c0 -5 -7 -10 -15 -10 -8 0 -15 5 -15 10 0 6 7 10 15 10 8 0 15 -4
15 -10z m710 -354 c0 -3 -4 -8 -10 -11 -5 -3 -10 -1 -10 4 0 6 5 11 10 11 6 0
10 -2 10 -4z m-10 -36 c0 -5 -5 -10 -11 -10 -5 0 -7 5 -4 10 3 6 8 10 11 10 2
0 4 -4 4 -10z m-965 -20 c3 -5 1 -10 -4 -10 -6 0 -11 5 -11 10 0 6 2 10 4 10
3 0 8 -4 11 -10z m1133 -7 c-2 -11 -11 -17 -21 -15 -10 2 -17 -4 -17 -13 0 -9
-4 -14 -8 -11 -4 2 -9 -4 -9 -15 -2 -17 0 -18 13 -4 9 8 21 15 27 15 13 0 37
-45 37 -67 0 -14 -26 -18 -34 -4 -8 12 -136 14 -150 2 -16 -14 -66 -22 -66
-11 0 5 -7 7 -15 4 -8 -4 -22 -1 -31 6 -21 18 -1 30 53 30 23 0 45 5 48 10 3
6 26 10 50 10 33 0 45 4 49 18 15 45 82 86 74 45z m-78 -9 c0 -8 -5 -12 -10
-9 -6 4 -8 11 -5 16 9 14 15 11 15 -7z m-230 -84 c0 -5 -4 -10 -10 -10 -5 0
-10 5 -10 10 0 6 5 10 10 10 6 0 10 -4 10 -10z m-845 -30 c3 -5 1 -10 -4 -10
-6 0 -11 5 -11 10 0 6 2 10 4 10 3 0 8 -4 11 -10z m310 -69 c12 -24 12 -31 0
-47 -13 -19 -14 -18 -20 1 -4 11 -11 30 -16 43 -10 25 -3 46 12 37 5 -4 16
-19 24 -34z m635 -15 c0 -8 -8 -16 -17 -19 -10 -2 9 -2 42 1 64 5 69 -6 8 -18
l-38 -8 38 -1 c21 0 48 4 59 10 26 14 49 -4 30 -23 -7 -7 -12 -18 -12 -25 0
-18 27 -16 34 2 3 8 12 15 19 15 8 0 28 13 45 29 43 41 88 38 119 -8 25 -37
28 -68 13 -120 -8 -30 -6 -36 25 -68 29 -30 35 -44 35 -79 0 -34 -5 -46 -21
-54 -12 -7 -18 -18 -15 -26 3 -8 -1 -14 -9 -14 -8 0 -18 -6 -22 -14 -21 -35
-68 -86 -80 -86 -8 0 -12 -4 -9 -9 8 -13 -24 -37 -32 -24 -4 5 -14 11 -22 12
-83 9 -103 15 -107 31 -4 14 -14 18 -54 16 -30 0 -51 -6 -54 -14 -3 -7 -9 -10
-15 -7 -6 4 -8 11 -5 16 4 5 -1 9 -9 9 -10 0 -13 6 -10 15 4 8 1 15 -5 15 -6
0 -11 7 -11 16 0 12 7 15 25 12 17 -4 23 -2 17 6 -5 6 -14 30 -21 54 -10 35
-16 42 -36 42 -27 0 -34 17 -10 26 8 3 22 -2 32 -11 11 -11 18 -14 21 -7 2 7
26 15 54 18 54 7 108 46 108 78 0 9 5 16 10 16 6 0 10 7 10 15 0 17 -16 20
-25 5 -8 -13 -35 -13 -35 1 0 5 4 8 9 5 5 -3 11 0 14 8 4 11 -8 13 -59 11 -57
-2 -64 0 -64 17 0 11 5 16 10 13 6 -4 10 6 10 22 0 19 -3 24 -9 14 -6 -10 -13
-10 -28 -2 -11 5 -23 7 -27 4 -3 -3 -6 1 -6 10 0 10 7 17 16 17 13 0 14 3 5
13 -6 8 -8 17 -4 20 3 4 0 7 -8 8 -16 1 39 28 59 29 6 0 12 -6 12 -14z m-119
-19 c-13 -13 -26 -3 -16 12 3 6 11 8 17 5 6 -4 6 -10 -1 -17z m-1282 -243 c2
-76 7 -106 27 -152 8 -18 12 -36 9 -41 -3 -5 -1 -12 4 -15 5 -3 15 -30 22 -58
13 -58 35 -109 63 -150 10 -15 14 -33 10 -39 -4 -8 -3 -9 4 -5 8 5 12 -2 12
-21 0 -22 2 -25 10 -13 8 12 10 8 10 -15 -1 -55 11 -97 27 -91 8 3 16 -2 19
-12 3 -9 10 -25 15 -34 5 -10 9 -29 9 -42 0 -13 7 -26 15 -30 15 -5 22 -38 8
-33 -5 1 -10 -3 -12 -8 -2 -6 -11 -15 -20 -22 -24 -19 5 -16 33 3 26 16 40 7
30 -20 -4 -10 -13 -14 -23 -11 -12 3 -17 -1 -18 -17 -1 -13 1 -18 5 -12 8 12
52 25 52 16 0 -9 -34 -25 -155 -75 l-100 -41 -150 -1 c-135 0 -155 2 -199 23
-56 25 -84 28 -92 8 -3 -8 -13 -12 -24 -9 -16 4 -18 0 -15 -25 4 -32 -12 -46
-40 -36 -8 4 -15 1 -15 -5 0 -6 15 -12 33 -13 45 -2 50 -3 73 -15 12 -7 25 -8
35 -2 22 14 35 11 15 -4 -15 -11 -16 -17 -7 -35 9 -16 7 -27 -7 -51 -19 -35
-37 -42 -27 -11 4 12 2 20 -5 20 -6 0 -8 -5 -5 -10 3 -6 2 -10 -4 -10 -5 0
-16 -3 -24 -6 -12 -4 -14 0 -10 14 3 12 -1 22 -12 26 -13 5 -15 2 -10 -15 6
-18 5 -19 -14 -7 -12 7 -21 16 -21 20 0 5 -7 8 -15 8 -8 0 -19 9 -25 21 -7 11
-18 18 -25 15 -8 -3 -17 -1 -20 4 -4 6 -21 10 -38 10 -25 0 -29 3 -17 11 11 7
0 8 -38 4 -29 -4 -84 -7 -122 -7 l-69 -1 -12 -36 c-14 -41 -39 -65 -53 -50 -6
5 -24 9 -40 9 l-31 0 23 -18 c13 -10 20 -21 16 -25 -10 -10 -44 -9 -44 2 0 5
-15 7 -32 5 -18 -1 -41 -3 -50 -3 -11 -1 -18 -9 -18 -21 0 -11 -4 -20 -10 -20
-5 0 -10 -6 -10 -14 0 -8 -7 -16 -15 -20 -8 -3 -15 -13 -15 -23 0 -21 -52 -53
-86 -53 -26 0 -33 -17 -9 -22 13 -2 12 -6 -5 -21 -20 -17 -21 -17 -31 13 -16
45 -49 41 -49 -5 0 -30 -3 -35 -22 -35 -13 0 -38 -9 -56 -20 -40 -24 -62 -16
-30 10 l23 19 -25 -6 c-14 -3 -28 -11 -32 -17 -4 -6 -10 -8 -13 -4 -9 9 25 58
40 58 7 0 18 -7 25 -15 14 -17 45 -21 35 -5 -3 6 -1 10 4 10 6 0 11 5 11 11 0
7 -9 9 -24 5 -32 -8 -39 3 -21 31 9 13 13 23 10 23 -4 0 4 18 16 40 13 22 26
40 30 40 4 0 24 18 45 40 27 29 41 37 50 29 8 -7 14 -7 19 1 4 6 15 8 24 5 11
-3 29 6 50 25 25 25 29 34 22 49 -9 16 -2 22 52 46 74 33 113 68 128 113 6 18
23 39 37 47 26 14 19 20 -20 16 -10 -1 -18 2 -18 7 0 24 46 55 175 117 77 37
215 104 306 148 l167 82 4 45 c5 54 90 201 144 250 19 17 34 37 34 44 0 8 3
16 8 18 8 3 72 95 72 104 0 6 31 54 35 54 1 0 3 -30 4 -66z m1869 -76 c-2 -6
-10 -14 -16 -16 -7 -2 -10 2 -6 12 7 18 28 22 22 4z m-418 -178 c0 -5 -4 -10
-10 -10 -5 0 -10 5 -10 10 0 6 5 10 10 10 6 0 10 -4 10 -10z m267 -26 c-3 -3
-12 -4 -19 -1 -8 3 -5 6 6 6 11 1 17 -2 13 -5z m27 -18 c-3 -9 -12 -12 -22 -9
-15 6 -9 11 25 22 1 1 0 -5 -3 -13z m-56 -7 c-10 -5 -18 -17 -18 -24 0 -8 -4
-15 -10 -15 -5 0 -10 5 -10 11 0 5 -6 7 -12 4 -7 -4 -2 3 12 14 14 11 32 21
40 20 12 0 11 -2 -2 -10z m12 -39 c0 -5 -5 -10 -11 -10 -5 0 -7 5 -4 10 3 6 8
10 11 10 2 0 4 -4 4 -10z m-43 -32 c-3 -8 -6 -5 -6 6 -1 11 2 17 5 13 3 -3 4
-12 1 -19z m508 -275 c-2 -7 2 -13 10 -13 8 0 15 -4 15 -9 0 -4 20 -7 45 -6
24 1 50 -2 57 -7 7 -4 9 -8 3 -8 -5 -1 -26 -3 -45 -5 -45 -4 -152 29 -187 59
-15 13 -36 38 -46 54 l-17 30 85 -41 c52 -26 83 -47 80 -54z m-551 29 c-4 -18
-12 -32 -19 -32 -21 0 -28 -30 -32 -145 -4 -119 -22 -236 -37 -232 -5 1 -13
-10 -17 -25 -4 -15 -14 -35 -23 -43 -14 -14 -16 -13 -26 5 -9 16 -8 20 4 20 9
0 20 9 26 21 20 37 6 36 -32 -3 l-38 -38 27 -25 c20 -18 29 -21 35 -12 6 9 8
8 8 -4 0 -8 -7 -24 -15 -35 -14 -19 -14 -18 -15 3 0 20 -4 22 -30 17 -18 -4
-30 -2 -30 4 0 6 -10 8 -22 4 -20 -5 -21 -6 -3 -12 16 -6 14 -8 -13 -18 -35
-12 -46 -38 -12 -27 21 7 27 -9 12 -32 -6 -9 -12 -7 -25 7 -9 11 -17 25 -17
30 0 6 -8 13 -17 17 -10 4 -32 18 -49 32 -17 14 -41 33 -54 41 -12 8 -33 23
-45 33 -13 9 -28 17 -33 17 -6 0 -14 9 -17 20 -3 11 -13 20 -21 20 -8 0 -14 4
-14 10 0 5 10 8 23 6 12 -3 28 -5 35 -5 7 -1 11 -4 9 -8 -3 -5 8 -9 24 -10 17
-1 27 2 24 8 -4 5 -11 7 -16 4 -5 -4 -9 4 -9 17 0 13 -9 31 -20 41 -11 9 -20
23 -20 32 0 8 -9 19 -20 25 -11 6 -20 17 -20 26 0 12 -4 13 -21 3 -15 -8 -19
-8 -15 0 4 6 3 11 -2 11 -6 0 -13 7 -16 16 -4 10 -2 13 6 8 8 -5 9 -2 4 12
-22 53 -21 56 20 49 22 -3 60 -11 85 -16 128 -28 290 4 383 76 29 22 10 32
-23 12 -36 -21 -47 -22 -31 -2 7 8 18 15 24 15 6 0 32 20 57 45 26 24 49 41
53 38 3 -4 6 0 6 7 0 7 2 11 5 8 3 -3 2 -19 -1 -36z m749 -59 c-7 -2 -19 -2
-25 0 -7 3 -2 5 12 5 14 0 19 -2 13 -5z m-433 -24 c0 -6 -9 -8 -21 -4 -14 5
-25 2 -30 -6 -7 -11 -9 -10 -9 4 0 12 8 17 30 17 17 0 30 -5 30 -11z m-483
-15 c-3 -3 -12 -4 -19 -1 -8 3 -5 6 6 6 11 1 17 -2 13 -5z m-2400 -20 c7 -20
-22 -84 -39 -84 -7 0 -22 -17 -33 -38 -13 -23 -27 -37 -40 -37 -13 0 -19 -7
-19 -18 1 -9 -2 -14 -7 -11 -5 3 -19 2 -30 -1 -16 -5 -18 -9 -9 -15 9 -5 3
-14 -19 -31 -27 -20 -30 -25 -17 -35 13 -9 12 -14 -12 -37 -25 -24 -32 -26
-62 -17 -46 13 -175 13 -223 -1 -62 -17 -53 -3 20 31 37 18 92 48 122 68 29
21 60 42 69 47 26 16 41 32 36 38 -3 3 10 16 28 30 24 18 41 23 64 20 22 -3
38 2 60 20 34 28 71 40 78 23 2 -6 5 -3 5 7 1 9 6 17 13 17 9 0 9 3 0 12 -15
15 -16 28 -2 28 6 0 13 -7 17 -16z m2923 -19 c-14 -17 -56 -20 -65 -5 -4 6 6
10 24 10 16 0 33 5 36 11 4 6 9 8 12 5 3 -3 0 -12 -7 -21z m-1430 -70 c7 -8
19 -15 27 -15 10 0 13 -9 11 -27 -2 -22 -9 -29 -29 -31 -18 -2 -26 2 -26 12 0
9 6 16 14 16 7 0 13 7 13 15 0 9 -10 15 -26 15 -14 0 -23 -4 -19 -10 3 -5 1
-10 -4 -10 -6 0 -11 11 -11 25 0 29 29 35 50 10z m-60 -31 c0 -8 -4 -14 -10
-14 -5 0 -10 9 -10 21 0 11 5 17 10 14 6 -3 10 -13 10 -21z m327 -80 c-3 -3
-12 -4 -19 -1 -8 3 -5 6 6 6 11 1 17 -2 13 -5z m-1627 -98 c0 -3 -4 -8 -10
-11 -5 -3 -10 -1 -10 4 0 6 5 11 10 11 6 0 10 -2 10 -4z m1720 0 c0 -3 -4 -8
-10 -11 -5 -3 -10 -1 -10 4 0 6 5 11 10 11 6 0 10 -2 10 -4z m-2211 -50 c9
-10 4 -20 -21 -45 -18 -17 -38 -29 -45 -27 -7 3 -15 0 -19 -6 -4 -7 -3 -8 4
-4 15 9 15 1 1 -25 -6 -11 -17 -18 -24 -15 -8 3 -12 0 -10 -7 3 -7 -15 -38
-40 -69 -44 -54 -47 -56 -83 -51 -20 3 -48 10 -62 15 -14 6 -51 10 -83 11 -31
0 -57 4 -57 8 0 13 84 107 96 108 7 1 19 12 28 26 19 28 84 65 118 65 13 1 37
7 53 15 40 18 129 19 144 1z m1027 -32 c-4 -10 1 -22 11 -30 15 -11 15 -14 3
-15 -8 0 -24 -2 -35 -3 -14 -2 -21 3 -21 15 0 17 1 17 20 1 18 -16 19 -16 13
1 -6 17 0 47 10 47 3 0 2 -7 -1 -16z m404 -24 c0 -5 -7 -10 -16 -10 -8 0 -12
-4 -9 -10 3 -5 1 -10 -4 -10 -15 0 -14 27 2 33 20 9 27 8 27 -3z m1025 -10 c8
-13 -15 -13 -35 0 -12 8 -11 10 7 10 12 0 25 -4 28 -10z m-995 -14 c0 -2 -7
-7 -16 -10 -8 -3 -12 -2 -9 4 6 10 25 14 25 6z m1098 -33 c7 -7 21 -13 31 -13
10 0 26 -9 35 -19 10 -11 31 -23 47 -26 16 -4 29 -11 29 -16 0 -14 -7 -12 -79
22 -90 42 -132 69 -125 80 6 10 40 -5 62 -28z m-1357 -36 c-1 -12 -15 -9 -19
4 -3 6 1 10 8 8 6 -3 11 -8 11 -12z m106 -39 c-7 -23 21 -37 34 -17 6 10 9 6
10 -16 1 -17 3 -22 6 -12 5 21 33 23 33 2 0 -8 8 -15 19 -15 10 0 21 -8 23
-18 6 -23 85 -47 139 -43 26 2 38 -2 42 -14 6 -13 1 -15 -26 -12 -17 2 -24 2
-14 0 9 -2 17 -9 17 -14 0 -5 16 -9 35 -9 19 0 35 -4 35 -8 0 -18 -37 -42 -55
-36 -14 6 -16 3 -10 -16 4 -12 3 -20 -1 -18 -5 3 -18 8 -29 13 l-20 7 20 8
c17 8 16 9 -8 9 -16 1 -30 8 -34 18 -13 33 -38 53 -65 53 -16 0 -28 5 -28 10
0 6 -7 10 -15 10 -9 0 -18 7 -21 15 -4 8 -14 15 -24 15 -10 0 -23 7 -30 15 -7
8 -20 15 -29 15 -10 0 -27 11 -39 25 -16 18 -32 25 -57 25 -19 0 -35 5 -35 11
0 5 5 7 10 4 6 -3 10 -1 10 4 0 6 7 11 15 11 8 0 15 -5 15 -11 0 -6 9 -4 21 4
28 20 62 10 56 -15z m-1138 -34 c-12 -15 -39 -8 -39 11 0 18 22 25 38 12 9 -7
9 -13 1 -23z m2581 5 c0 -11 -3 -11 -24 -3 -23 9 -20 23 4 17 11 -3 20 -9 20
-14z m-3206 -43 c-3 -9 -11 -16 -18 -16 -6 -1 -29 -31 -52 -68 -22 -37 -46
-66 -52 -65 -7 2 -12 -5 -12 -14 0 -9 -3 -14 -6 -10 -10 10 7 48 18 41 8 -5 9
-1 4 11 -7 20 30 69 45 59 5 -3 9 0 9 7 0 13 61 81 67 75 2 -2 1 -11 -3 -20z
m506 3 c0 -16 -29 -41 -40 -34 -5 3 -2 14 8 25 19 21 32 25 32 9z m1837 -11
c-3 -8 -6 -5 -6 6 -1 11 2 17 5 13 3 -3 4 -12 1 -19z m-1737 -8 c0 -5 -4 -10
-10 -10 -5 0 -10 5 -10 10 0 6 5 10 10 10 6 0 10 -4 10 -10z m-148 -28 c21
-17 14 -34 -9 -25 -11 4 -14 3 -9 -5 5 -8 2 -10 -8 -6 -9 3 -16 1 -16 -6 0 -6
-5 -8 -12 -4 -8 5 -4 14 13 27 13 11 17 18 9 15 -8 -3 -26 -8 -40 -12 -24 -7
-24 -6 4 18 30 25 37 25 68 -2z m-412 3 c9 5 11 4 6 -3 -11 -18 -36 -14 -36 6
0 13 2 14 9 3 5 -8 14 -10 21 -6z m530 7 c0 -14 -39 -46 -47 -39 -3 4 -2 7 4
7 6 0 13 9 16 20 5 19 27 29 27 12z m-350 -16 c0 -2 -7 -7 -16 -10 -8 -3 -12
-2 -9 4 6 10 25 14 25 6z m1913 -17 c-8 -8 -16 -8 -30 0 -16 9 -14 10 12 11
21 0 26 -3 18 -11z m-1623 -34 c0 -8 -4 -15 -10 -15 -5 0 -10 7 -10 15 0 8 5
15 10 15 6 0 10 -7 10 -15z m1420 5 c0 -5 -5 -10 -11 -10 -5 0 -7 5 -4 10 3 6
8 10 11 10 2 0 4 -4 4 -10z m-1660 -9 c0 -6 -4 -13 -10 -16 -5 -3 -10 1 -10 9
0 9 5 16 10 16 6 0 10 -4 10 -9z m1920 -6 c7 -8 22 -15 34 -15 12 0 31 -8 42
-18 10 -10 26 -16 36 -14 9 2 19 -1 22 -7 4 -6 -9 -8 -36 -5 -23 3 -45 9 -48
14 -7 12 -43 16 -58 6 -10 -6 -13 -2 -10 14 2 13 -3 25 -11 28 -10 3 -12 -1
-8 -17 6 -24 -5 -28 -22 -8 -8 10 -7 17 1 25 16 16 43 15 58 -3z m-1790 -15
c0 -5 -2 -10 -4 -10 -3 0 -8 5 -11 10 -3 6 -1 10 4 10 6 0 11 -4 11 -10z m163
-6 c3 -4 -5 -16 -19 -27 -20 -15 -30 -17 -47 -9 l-22 11 21 0 c12 1 27 8 34
16 13 16 23 19 33 9z m-196 -36 c-8 -24 -12 -28 -15 -15 -2 10 2 24 8 32 19
22 20 18 7 -17z m-117 12 c0 -5 -2 -10 -4 -10 -3 0 -8 5 -11 10 -3 6 -1 10 4
10 6 0 11 -4 11 -10z m350 -20 c0 -11 -50 -43 -57 -36 -3 3 2 12 11 21 9 9 16
20 16 25 0 5 7 7 15 4 8 -4 15 -10 15 -14z m1540 10 c0 -13 -28 -25 -38 -16
-3 4 0 11 8 16 20 13 30 12 30 0z m-1460 -20 c0 -5 -4 -10 -10 -10 -5 0 -10 5
-10 10 0 6 5 10 10 10 6 0 10 -4 10 -10z m-40 -49 c0 -8 -52 -23 -59 -16 -1 2
0 8 4 14 8 13 55 15 55 2z"/>
<path d="M2246 3415 c4 -8 1 -15 -5 -15 -6 0 -11 -7 -11 -15 0 -23 17 -18 24
8 8 31 7 37 -4 37 -5 0 -7 -7 -4 -15z"/>
<path d="M3232 3100 c0 -14 2 -19 5 -12 2 6 2 18 0 25 -3 6 -5 1 -5 -13z"/>
<path d="M2078 2738 c-6 -17 1 -38 13 -38 5 0 9 11 9 25 0 26 -14 34 -22 13z"/>
<path d="M1882 2531 c-60 -31 -119 -173 -81 -196 5 -4 14 -18 19 -31 6 -14 18
-24 30 -24 26 0 79 58 80 86 0 12 7 35 15 50 17 33 19 54 5 54 -5 0 -12 16
-16 35 -3 19 -9 37 -13 39 -3 2 -21 -4 -39 -13z"/>
<path d="M2341 2144 c0 -11 3 -14 6 -6 3 7 2 16 -1 19 -3 4 -6 -2 -5 -13z"/>
<path d="M2310 1995 c0 -8 4 -15 10 -15 5 0 7 7 4 15 -4 8 -8 15 -10 15 -2 0
-4 -7 -4 -15z"/>
<path d="M2343 1884 c-15 -16 -16 -24 -4 -24 8 0 24 30 19 35 -2 2 -9 -3 -15
-11z"/>
<path d="M2145 1820 c-3 -5 -1 -10 4 -10 6 0 11 5 11 10 0 6 -2 10 -4 10 -3 0
-8 -4 -11 -10z"/>
<path d="M3318 2673 c7 -3 16 -2 19 1 4 3 -2 6 -13 5 -11 0 -14 -3 -6 -6z"/>
<path d="M3366 2645 c4 -8 8 -15 10 -15 2 0 4 7 4 15 0 8 -4 15 -10 15 -5 0
-7 -7 -4 -15z"/>
<path d="M3370 2580 c0 -5 5 -10 11 -10 5 0 7 5 4 10 -3 6 -8 10 -11 10 -2 0
-4 -4 -4 -10z"/>
<path d="M3422 2540 c0 -14 2 -19 5 -12 2 6 2 18 0 25 -3 6 -5 1 -5 -13z"/>
<path d="M3865 1850 c3 -5 10 -10 16 -10 5 0 9 5 9 10 0 6 -7 10 -16 10 -8 0
-12 -4 -9 -10z"/>
<path d="M3820 2550 c0 -5 5 -10 10 -10 6 0 10 5 10 10 0 6 -4 10 -10 10 -5 0
-10 -4 -10 -10z"/>
<path d="M3618 2523 c7 -3 16 -2 19 1 4 3 -2 6 -13 5 -11 0 -14 -3 -6 -6z"/>
<path d="M3671 2509 c13 -8 97 -13 88 -5 -2 2 -26 6 -53 9 -30 3 -43 1 -35 -4z"/>
<path d="M3328 1823 c7 -3 16 -2 19 1 4 3 -2 6 -13 5 -11 0 -14 -3 -6 -6z"/>
<path d="M3340 1483 c0 -13 5 -23 11 -23 7 0 9 -10 7 -25 -4 -18 0 -26 14 -31
26 -8 35 3 20 24 -7 9 -21 31 -32 47 -18 28 -20 28 -20 8z"/>
<path d="M1955 1202 c-11 -8 -17 -27 -19 -57 -1 -15 4 -19 19 -17 26 5 27 6
28 43 2 32 -9 45 -28 31z"/>
<path d="M1622 1117 c-6 -7 -43 -26 -81 -42 -39 -17 -81 -38 -93 -48 -13 -9
13 -1 57 19 44 19 95 42 113 50 17 7 32 18 32 24 0 14 -15 13 -28 -3z"/>
<path d="M2080 1080 c-9 -6 -10 -10 -3 -10 6 0 15 5 18 10 8 12 4 12 -15 0z"/>
<path d="M1390 1000 c-8 -5 -10 -10 -5 -10 6 0 17 5 25 10 8 5 11 10 5 10 -5
0 -17 -5 -25 -10z"/>
<path d="M2102 988 c6 -18 25 -20 31 -3 5 10 0 15 -14 15 -12 0 -19 -5 -17
-12z"/>
<path d="M1318 956 c-58 -35 -58 -41 0 -12 28 14 52 29 52 31 0 9 -14 4 -52
-19z"/>
<path d="M1617 933 c-4 -3 -7 -19 -7 -35 0 -16 -4 -27 -9 -24 -11 7 -32 -65
-25 -90 3 -12 -1 -26 -10 -33 -18 -15 -21 -41 -6 -41 6 0 10 7 10 15 0 8 4 15
10 15 16 0 28 33 35 95 3 33 8 70 11 83 5 23 2 27 -9 15z"/>
<path d="M2125 930 c-3 -5 3 -10 14 -10 12 0 21 5 21 10 0 6 -6 10 -14 10 -8
0 -18 -4 -21 -10z"/>
<path d="M1230 910 c-8 -5 -10 -10 -5 -10 6 0 17 5 25 10 8 5 11 10 5 10 -5 0
-17 -5 -25 -10z"/>
<path d="M1125 847 c-22 -12 -42 -23 -44 -24 -2 -2 -1 -6 2 -10 4 -3 15 1 24
9 10 9 32 23 48 31 17 9 26 16 20 16 -5 0 -28 -9 -50 -22z"/>
<path d="M2156 811 c-10 -16 -149 -59 -231 -72 -44 -6 -84 -15 -88 -19 -4 -4
18 -3 50 1 32 5 76 9 98 10 22 2 47 6 55 10 80 37 130 65 130 71 0 11 -8 10
-14 -1z"/>
<path d="M1998 693 c7 -3 16 -2 19 1 4 3 -2 6 -13 5 -11 0 -14 -3 -6 -6z"/>
<path d="M1600 556 c0 -16 18 -31 27 -22 3 3 -2 12 -11 21 -14 14 -16 14 -16
1z"/>
<path d="M1056 543 c-11 -11 -6 -23 9 -23 8 0 15 4 15 9 0 13 -16 22 -24 14z"/>
<path d="M3200 562 c0 -6 -8 -13 -17 -15 -16 -4 -16 -5 -1 -6 18 -1 34 16 24
26 -3 4 -6 1 -6 -5z"/>
<path d="M3249 517 c-15 -12 -14 -19 9 -56 6 -11 29 35 24 51 -5 21 -11 22
-33 5z"/>
<path d="M925 800 c-3 -5 -1 -10 4 -10 6 0 11 5 11 10 0 6 -2 10 -4 10 -3 0
-8 -4 -11 -10z"/>
<path d="M807 737 c-26 -17 -45 -32 -43 -34 2 -3 24 8 48 23 51 32 53 33 47
37 -2 2 -25 -10 -52 -26z"/>
<path d="M765 750 c-8 -13 5 -13 25 0 13 8 13 10 -2 10 -9 0 -20 -4 -23 -10z"/>
<path d="M87 173 c-4 -3 -7 -11 -7 -17 0 -6 5 -5 12 2 6 6 9 14 7 17 -3 3 -9
2 -12 -2z"/>
</g>
</svg>
