<?xml version="1.0" encoding="UTF-8" standalone="no"?>
<!-- Created with Inkscape (http://www.inkscape.org/) -->

<svg
   width="150"
   height="150"
   viewBox="0 0 39.6875 39.6875"
   version="1.1"
   id="svg1"
   xml:space="preserve"
   inkscape:version="1.3 (0e150ed6c4, 2023-07-21)"
   sodipodi:docname="icon-data-graph.svg"
   xmlns:inkscape="http://www.inkscape.org/namespaces/inkscape"
   xmlns:sodipodi="http://sodipodi.sourceforge.net/DTD/sodipodi-0.dtd"
   xmlns="http://www.w3.org/2000/svg"
   xmlns:svg="http://www.w3.org/2000/svg"><sodipodi:namedview
     id="namedview1"
     pagecolor="#ffffff"
     bordercolor="#000000"
     borderopacity="0.25"
     inkscape:showpageshadow="2"
     inkscape:pageopacity="0.0"
     inkscape:pagecheckerboard="0"
     inkscape:deskcolor="#d1d1d1"
     inkscape:document-units="mm"
     inkscape:zoom="1.4142136"
     inkscape:cx="105.35891"
     inkscape:cy="106.41957"
     inkscape:window-width="1920"
     inkscape:window-height="1001"
     inkscape:window-x="-9"
     inkscape:window-y="-9"
     inkscape:window-maximized="1"
     inkscape:current-layer="layer1" /><defs
     id="defs1" /><g
     inkscape:label="Layer 1"
     inkscape:groupmode="layer"
     id="layer1"><rect
       style="fill:#026937;stroke-width:9.16543;stroke-linecap:round;stroke-linejoin:round;paint-order:fill markers stroke;fill-opacity:1"
       id="rect7"
       width="39.6875"
       height="39.6875"
       x="-3.5527137e-15"
       y="-3.5527137e-15" /><path
       id="rect1"
       style="fill:#ffffff;fill-opacity:1;stroke-width:5.29167;stroke-linecap:round;stroke-linejoin:round;paint-order:fill markers stroke"
       d="m 11.469586,5.953125 c -3.0253315,0 -5.4630135,2.4122239 -5.5118075,5.425509 H 33.729722 C 33.680932,8.3653489 31.243763,5.953125 28.218432,5.953125 Z m -5.5164585,9.354468 v 12.910323 c 0,3.056061 2.460397,5.516459 5.5164585,5.516459 h 16.748846 c 3.05606,0 5.51594,-2.460398 5.51594,-5.516459 V 15.307593 Z m 4.3940465,2.775024 h 18.993668 c 0.69841,0 1.26091,0.561983 1.26091,1.260388 v 2.530078 c 0,0.698406 -0.5625,1.260905 -1.26091,1.260905 H 10.347174 c -0.6984045,0 -1.2609045,-0.562499 -1.2609045,-1.260905 v -2.530078 c 0,-0.698405 0.5625,-1.260388 1.2609045,-1.260388 z m 5.425509,7.826396 h 13.568159 c 0.69841,0 1.26091,0.561983 1.26091,1.260388 v 2.530078 c 0,0.698405 -0.5625,1.260905 -1.26091,1.260905 H 15.772683 c -0.698406,0 -1.260905,-0.5625 -1.260905,-1.260905 v -2.530078 c 0,-0.698405 0.562499,-1.260388 1.260905,-1.260388 z" /></g></svg>
