<?xml version="1.0" encoding="UTF-8" standalone="no"?>
<svg
   width="500"
   height="500"
   viewBox="0 0 500 500"
   version="1.1"
   id="svg15597"
   sodipodi:docname="tiktok-svgrepo-com.svg"
   inkscape:version="1.2 (56b05e47e7, 2022-06-09, custom)"
   xmlns:inkscape="http://www.inkscape.org/namespaces/inkscape"
   xmlns:sodipodi="http://sodipodi.sourceforge.net/DTD/sodipodi-0.dtd"
   xmlns="http://www.w3.org/2000/svg"
   xmlns:svg="http://www.w3.org/2000/svg">
  <defs
     id="defs15601" />
  <sodipodi:namedview
     id="namedview15599"
     pagecolor="#505050"
     bordercolor="#ffffff"
     borderopacity="1"
     inkscape:showpageshadow="0"
     inkscape:pageopacity="0"
     inkscape:pagecheckerboard="1"
     inkscape:deskcolor="#505050"
     showgrid="false"
     inkscape:zoom="6.9399548"
     inkscape:cx="-15.490014"
     inkscape:cy="24.207651"
     inkscape:window-width="1920"
     inkscape:window-height="962"
     inkscape:window-x="0"
     inkscape:window-y="27"
     inkscape:window-maximized="1"
     inkscape:current-layer="svg15597" />
  <path
     d="m 260.95721,0.92105463 c 27.21254,-0.42105371 54.26914,-0.1715404 81.29455,-0.42105371 1.63743,31.82854108 13.08386,64.24967708 36.38216,86.75265808 23.25152,23.064381 56.1405,33.621921 88.14058,37.193081 v 83.7273 c -29.98838,-0.98245 -60.11711,-7.22029 -87.32966,-20.1326 -11.85188,-5.36454 -22.89285,-12.27294 -33.69989,-19.33728 -0.14035,60.75649 0.24951,121.43501 -0.38987,181.94198 -1.62183,29.0683 -11.2125,57.99625 -28.11703,81.94953 -27.19695,39.87535 -74.40175,65.87151 -122.8853,66.68243 -29.73887,1.69981 -59.44655,-6.40937 -84.78774,-21.34898 -41.996205,-24.7642 -71.547937,-70.09765 -75.852042,-118.75274 -0.499027,-10.40159 -0.670567,-20.78758 -0.249513,-30.93965 3.742699,-39.56345 23.3139,-77.4115 53.692145,-103.15816 34.43284,-29.98838 82.66687,-44.27302 127.82878,-35.82075 0.42106,30.7993 -0.81092,61.56741 -0.81092,92.3667 -20.63163,-6.67448 -44.74085,-4.80313 -62.76819,7.71932 -13.16183,8.53024 -23.15795,21.5985 -28.36654,36.38216 -4.3041,10.54194 -3.07213,22.25347 -2.82262,33.45038 4.94349,34.12094 37.75448,62.79938 72.77991,59.69606 23.22033,-0.24951 45.4738,-13.72323 57.5752,-33.45038 3.91424,-6.9084 8.29631,-13.97274 8.53023,-22.09752 2.04289,-37.19308 1.23198,-74.23021 1.48149,-111.42329 0.17154,-83.82087 -0.24951,-167.407832 0.38986,-250.96360079 z"
     id="path15595"
     style="stroke-width:15.5946" />
</svg>
