<?xml version="1.0" encoding="UTF-8" standalone="no"?>
<svg
   version="1.1"
   id="Layer_1"
   x="0px"
   y="0px"
   width="500"
   viewBox="0 0 500 500"
   enable-background="new 0 0 370 374"
   xml:space="preserve"
   sodipodi:docname="SegurosLAFISE.svg"
   height="500"
   inkscape:version="1.2.1 (2ed6d7ae0b, 2022-08-22, custom)"
   xmlns:inkscape="http://www.inkscape.org/namespaces/inkscape"
   xmlns:sodipodi="http://sodipodi.sourceforge.net/DTD/sodipodi-0.dtd"
   xmlns="http://www.w3.org/2000/svg"
   xmlns:svg="http://www.w3.org/2000/svg"><defs
   id="defs69" /><sodipodi:namedview
   id="namedview67"
   pagecolor="#505050"
   bordercolor="#ffffff"
   borderopacity="1"
   inkscape:showpageshadow="0"
   inkscape:pageopacity="0"
   inkscape:pagecheckerboard="1"
   inkscape:deskcolor="#505050"
   showgrid="false"
   inkscape:zoom="0.94511854"
   inkscape:cx="-110.56814"
   inkscape:cy="207.91043"
   inkscape:window-width="1920"
   inkscape:window-height="1043"
   inkscape:window-x="1920"
   inkscape:window-y="0"
   inkscape:window-maximized="1"
   inkscape:current-layer="Layer_1" />

<path
   id="path4"
   d="m 143.12191,35.467628 c -5.21087,0.01746 -8.03332,3.844608 -8.04709,11.029274 -0.006,3.225243 -8.8e-4,6.452081 0,10.28436 -1.14427,6.555732 1.89436,10.082941 7.16788,11.454939 3.20767,0.834539 9.65384,-6.931167 9.67375,-11.031808 0.026,-5.374905 0.17109,-10.764589 -0.16723,-16.119513 -0.0976,-1.543981 -1.3508,-3.85889 -2.63506,-4.347861 -2.25198,-0.857422 -4.25529,-1.27521 -5.99225,-1.269391 z m 68.97033,0.684104 c -1.37837,-0.0171 -3.07349,0.04739 -5.15865,0.121618 -4.11564,0.146499 -5.78288,1.599715 -5.7186,5.743939 0.14693,9.473673 0.32277,18.964629 -0.0887,28.423246 -0.24619,5.659737 1.41038,9.106252 7.76331,9.94231 2.42588,1.054514 4.35678,2.052218 7.4694,3.661221 0.6477,-3.029109 1.60326,-5.543283 1.65198,-8.074958 0.18647,-9.688017 0.0909,-19.380349 0.0837,-29.071878 -0.006,-9.058336 -0.0295,-10.671436 -6.00239,-10.745498 z m 97.7787,0.01012 c -5.87028,0.09414 -8.98877,0.838326 -8.90348,8.024284 0.37185,31.320848 0.15658,62.647814 0.15456,94.621714 8e-5,16.85129 -0.0477,33.05304 0.0151,49.25547 0.0501,12.89127 -1.1514,11.67963 12.01742,11.69818 36.07799,0.0509 72.15731,0.0194 108.23535,0.0178 12.09802,-5.5e-4 24.19636,0.0561 36.29299,-0.076 2.0377,-0.0222 5.74068,-0.66583 5.83008,-1.37834 0.60757,-4.84391 0.88727,-9.84507 0.19256,-14.63983 -0.14762,-1.01864 -4.74716,-1.96847 -7.29964,-1.9763 -40.39838,-0.12428 -80.79905,-0.0899 -121.19786,-0.0912 -17.22206,-5.6e-4 -17.22093,-6e-5 -17.22168,-17.54346 -8.8e-4,-39.96672 -0.12817,-79.935416 0.11909,-119.900597 0.0394,-6.382258 -2.16025,-8.109033 -8.23459,-8.011616 z m 133.97034,0.03041 c -1.74698,-0.01 -3.56783,0.22305 -5.31827,0.162158 -3.52994,-0.1228 -5.106,1.461126 -5.05731,5.011694 0.0886,6.470071 0.11897,12.944854 -0.0178,19.413345 -0.0815,3.853812 1.54359,5.455437 5.38668,5.379084 6.46877,-0.12852 12.95873,-0.291299 19.41081,0.06587 5.4955,0.304219 6.78304,-2.493479 6.3039,-7.086808 -0.43953,-4.213875 2.17482,-10.501266 -6.04546,-9.790287 -5.43169,0.469797 -7.53444,-1.897651 -6.93225,-7.677163 -1.55872,-2.137101 -2.84965,-4.517151 -4.69751,-5.08264 -0.96208,-0.29442 -1.98469,-0.389275 -3.03287,-0.395258 z m -269.97777,0.03294 c -3.97177,0.05863 -5.36297,2.580817 -5.12572,7.178023 0.32205,6.239815 0.13863,12.509433 0.0583,18.764715 -0.0549,4.278477 0.8146,7.556434 5.88837,8.442348 1.4087,0.245967 2.53311,2.261977 3.73469,3.516801 1.48032,1.545917 2.90424,3.144106 4.35293,4.720316 0.95356,-1.640542 2.70906,-3.269903 2.73135,-4.923014 0.15711,-11.641575 -0.0421,-23.287274 -0.32179,-35.48472 -3.28062,-1.069225 -6.35686,-1.659964 -9.45583,-2.087783 -0.67552,-0.09326 -1.29489,-0.135062 -1.86228,-0.126691 z m 232.95508,0.01012 c -5.21395,-0.04624 -7.27284,1.544083 -7.18562,6.993062 0.26248,16.393777 0.33453,32.799903 -0.0354,49.189597 -0.13987,6.19545 2.29816,7.655659 7.95334,7.560615 16.17766,-0.271889 32.36382,-0.07056 48.54603,-0.101356 8.45465,-0.01609 8.45394,-0.05871 8.47528,-8.748927 0.023,-9.351994 0.0244,-9.354873 -9.13151,-9.39756 -1.94181,-0.0091 -3.88333,-0.0018 -6.46605,-0.0026 -7.76112,-7.58e-4 -14.88263,0.01478 -22.0028,-0.0077 -9.03788,-0.0284 -9.05974,-0.03993 -9.08845,-8.789467 -0.0282,-8.630448 -0.003,-17.261531 -0.0104,-25.892063 -0.0104,-10.934362 -0.0154,-10.705857 -11.05462,-10.803773 z m -129.00678,0.01773 c -0.58224,-0.01366 -1.19703,-0.0066 -1.83695,0.0077 -4.78548,0.106026 -8.82972,-0.350113 -8.70331,6.803032 0.38563,21.824327 0.1584,43.660653 0.19509,65.491536 8.8e-4,0.59289 0.30572,1.1838 0.53715,2.02191 1.26083,-0.52452 2.38271,-0.99113 3.70937,-1.54304 1.46089,2.46392 2.72028,5.06826 4.42894,7.33258 1.74873,2.31745 3.93906,4.30212 5.94662,6.44325 -5.84833,5.66899 -5.93381,6.56863 -0.46873,8.26498 -0.0117,-0.0484 -0.014,-0.16382 0.0104,-0.42566 0.90354,-3.07288 2.48304,-5.61875 2.50077,-8.17378 0.18299,-26.369057 -0.0934,-52.742023 0.25591,-79.107728 0.079,-5.959271 -2.49925,-7.019088 -6.575,-7.114682 z m 3.80818,94.821858 c 0.0117,0.0484 0.0345,0.0297 0.0507,0.0178 -0.0195,-0.006 -0.0314,-0.0118 -0.0507,-0.0178 z m 94.13269,-94.816794 c -4.90587,0.02771 -8.681,-0.117403 -8.59437,6.906915 0.33821,27.427169 0.25206,54.862867 0.0431,82.292619 -0.0421,5.50684 2.07642,7.02842 7.24389,6.93733 13.81932,-0.24361 27.64391,-0.077 42.11293,-0.0735 13.77582,0.43056 26.92774,0.55591 40.03022,1.41381 7.0561,0.462 8.31236,-2.68572 8.08508,-8.75146 -0.35239,-9.40171 -0.0678,-9.48971 -7.82412,-9.50651 -21.59937,-0.0468 -43.20035,-0.22759 -64.79477,0.10136 -6.3289,0.0964 -8.10881,-2.05655 -8.02175,-8.18645 0.30346,-21.379097 -0.1386,-42.769479 0.24071,-64.146133 0.12311,-6.939805 -3.52925,-7.016184 -8.52089,-6.987994 z m -295.755816,0.0304 c -0.286589,0.0082 -0.586003,0.02454 -0.896936,0.05067 -10.154272,0.07083 -10.164402,0.06984 -10.183014,9.56732 -0.01649,8.417252 -0.0048,16.836276 -0.005,25.253566 -2.49e-4,7.428348 0,14.857425 0,22.349924 3.977329,-1.577041 7.48068,-2.316453 10.137404,-4.228775 2.106479,-1.516241 3.174943,-4.470939 4.705114,-6.787829 -1.902993,-0.291976 -3.809461,-0.559853 -5.705932,-0.889336 -0.786408,-0.136623 -1.549032,-0.40642 -2.255009,-0.597958 0.321855,-6.157384 4.067939,-7.168727 9.957512,-6.022646 0,-11.309056 -0.130991,-21.997226 0.06334,-32.679894 0.07699,-4.232229 -1.518598,-6.137921 -5.817417,-6.015046 z m 263.030316,0.04054 c -1.29605,-0.0033 -2.59913,0.112408 -3.88672,0.01272 -4.27311,-0.330978 -5.60954,1.793069 -5.60206,5.825017 0.073,39.317059 0.0689,78.635097 0,117.952157 -0.006,3.95409 1.17007,5.95321 5.51844,5.94411 39.96503,-0.0837 79.93048,-0.0317 119.89553,-0.10391 1.60475,-0.003 4.52773,-0.70279 4.5987,-1.3302 0.50085,-4.42947 0.91986,-9.01248 0.16469,-13.33749 -0.19046,-1.09056 -4.7303,-2.00079 -7.27684,-2.01177 -32.8358,-0.14145 -65.67487,-0.10572 -99.11397,-0.12921 -6.52047,0.19786 -5.57168,-4.16757 -5.57672,-7.6873 -0.0462,-32.18827 -0.0205,-64.37673 -0.0457,-96.565052 -0.006,-8.54261 -0.0553,-8.546251 -8.67544,-8.569035 z m -235.01246,0.01012 c -7.14852,0.852108 -8.735182,6.114671 -5.19666,16.066348 5.27001,-2.971968 10.2469,-3.097487 13.98612,3.377447 4.04928,-15.243506 2.10766,-19.368693 -8.78946,-19.443751 z m 135.57164,0.197629 c -2.36639,0.01051 -4.69012,0.234595 -6.85371,0.899471 -1.41821,0.435819 -1.22828,6.111235 -1.766,9.392492 -0.0344,0.209972 -0.005,0.432083 -0.005,1.279527 -1.5e-4,15.698465 -0.10066,30.764378 0.0279,45.829888 0.12609,14.784477 -0.56254,29.618227 1.78373,44.659307 2.72379,-2.11364 5.80316,-5.41301 5.10545,-6.77263 -2.62014,-5.10591 0.56943,-7.4787 3.22035,-10.558 0.86765,-1.00785 1.25367,-2.71884 1.27447,-4.11728 0.0944,-6.35478 -0.89017,-12.95491 5.89089,-17.08486 0.7366,-0.448622 0.79272,-2.373834 0.79558,-3.615622 0.0424,-18.325289 0.0801,-36.652671 -0.0862,-54.976609 -0.0145,-1.598274 -1.36787,-4.482512 -2.27782,-4.555626 -2.33411,-0.187539 -4.74322,-0.39051 -7.10961,-0.380058 z M 40.767309,36.810496 c -1.109648,0.03786 -2.213227,0.123565 -3.303969,0.266041 -1.024537,0.133827 -2.177267,4.249463 -2.178996,6.534459 -0.104313,137.719594 -0.06188,275.441214 -0.19763,413.160714 -0.0058,5.94302 1.883521,7.75115 7.778514,7.74557 137.935742,-0.13132 275.873652,-0.13983 413.809332,0.0151 6.32487,0.006 8.19246,-2.04194 8.06482,-8.18391 -0.12103,-5.82263 -0.75382,-9.02895 -7.99135,-8.94655 -32.42585,0.36896 -64.85963,0.14845 -97.28969,0.17736 -2.01162,8.8e-4 -4.02129,0.31053 -6.03278,0.47634 -0.17135,0.55409 -0.34305,1.10802 -0.51434,1.66212 3.46516,2.35567 6.93039,4.71212 10.66947,7.25402 -9.8255,1.95595 -13.36599,0.066 -14.3535,-8.11803 -3.06893,0 -6.2538,4e-5 -9.44063,0 -92.31757,-3e-4 -184.63553,8.8e-4 -276.953102,-0.003 -10.771731,-4.4e-4 -10.782577,-0.0139 -10.783503,-11.03181 -0.0041,-49.72602 -0.0024,-99.45152 -0.0026,-149.82624 0,-64.21154 0.0012,-127.77587 0,-191.33878 -3.47e-4,-17.728426 0.03192,-35.454836 -0.06588,-53.182738 -0.01141,-2.060889 -0.48664,-5.780582 -1.221253,-5.903564 -3.276154,-0.548471 -6.664042,-0.871127 -9.992983,-0.757581 z M 217.78044,99.000603 c -0.34891,0.01206 -0.80099,0.05735 -1.21112,0.172294 -8.07681,5.975643 -8.62767,8.363343 -4.07675,16.030833 0.41387,0.69729 0.14429,1.80606 0.57008,2.48811 0.59664,0.95569 1.54864,1.68985 2.34876,2.51851 0.85282,-1.03739 2.37689,-2.03081 2.44758,-3.119 0.39022,-6.0088 0.42736,-12.04048 0.51687,-18.06541 2.6e-4,-0.01731 -0.24651,-0.03742 -0.59542,-0.02533 z M 72.86698,102.24883 c -2.036235,2.4704 -3.835093,3.63901 -3.93233,4.93568 -0.643598,8.58261 -1.202279,17.19229 -1.264324,25.79579 -0.162139,22.48182 -0.05552,44.96459 -0.05574,68.09619 7.52e-4,74.3667 -0.004,148.08612 0.0077,221.80421 0.0014,9.05193 0.03967,9.09727 8.807204,9.09858 82.14938,0.0117 164.3003,0.0117 246.44966,-0.0202 2.47466,-8.8e-4 4.94901,-0.38527 7.89001,-0.6309 -0.33366,-5.72259 -0.62357,-10.6869 -0.94514,-16.20316 h -9.65599 c -74.58301,-3.1e-4 -149.16457,8.8e-4 -223.74756,-0.003 -10.624566,-6.4e-4 -10.641121,-0.0148 -10.641615,-10.52254 -0.0044,-93.60704 -0.0022,-187.21502 -0.0026,-280.82209 -1e-5,-2.99587 0,-5.99184 0,-8.92375 -7.41577,-0.74646 -12.677597,-5.19803 -12.909254,-12.6052 z m 31.28635,0.58782 c -0.25421,0.027 -0.48262,0.084 -0.67904,0.17483 -0.92115,0.42586 -1.71241,1.86797 -1.91042,2.96191 -0.34221,1.89053 -0.21269,3.87328 -0.21283,5.81742 -0.007,92.30384 -0.01,184.60619 -0.003,276.91003 7.8e-4,9.52543 0.0316,9.55338 9.65854,9.55464 69.17382,0.009 138.3478,0.006 207.52162,0.008 h 5.80475 c 0,-2.23082 -0.18383,-4.12264 0.0304,-5.96691 1.26551,-10.89484 1.29513,-10.89696 -9.90938,-10.89752 -62.04027,-0.003 -124.07903,-8.8e-4 -186.11931,-0.008 -10.10554,-8.8e-4 -10.12103,-0.0203 -10.12474,-10.38823 -0.009,-24.42699 -0.002,-48.85317 -0.003,-73.92882 -1.1e-4,-59.66256 -3.8e-4,-118.6757 -0.005,-177.68963 -1.8e-4,-2.37738 0.10735,-4.77109 -0.11654,-7.12989 -0.3202,-3.37744 -10.1194,-9.82242 -13.93252,-9.41783 z m 177.42866,28.33457 c 0,0 0.0567,-0.0554 -0.22044,0.28124 -2.70074,1.17252 -5.07413,2.48384 -7.55807,2.74402 -5.17079,0.54161 -7.60814,3.15356 -6.29882,8.08256 1.52483,5.7403 0.0867,11.27578 0.0104,16.9151 -0.29039,21.39207 -0.13411,42.7907 -0.11143,64.18667 0.009,8.78178 0.0477,8.82023 9.08084,8.82241 54.89478,0.0134 109.78929,0.008 164.68407,0.005 6.05126,-2.9e-4 12.10401,-0.0934 18.15409,-0.0152 3.40899,0.0441 4.98267,-1.20648 5.27773,-4.8546 0.9214,-11.39028 0.50213,-11.98841 -11.13569,-11.98956 -53.59806,-0.005 -107.19762,-0.0982 -160.7948,0.11662 -6.38648,0.0255 -8.65831,-1.63325 -8.5513,-8.33339 0.37269,-23.33509 0.20337,-46.68217 0.0202,-70.02183 -0.0156,-1.98625 -1.6654,-3.95967 -2.55652,-5.93904 z m -146.44383,5.53364 c -0.45416,0.0667 -0.90896,0.13344 -1.36314,0.20016 0,2.24236 -1e-5,4.48468 0,6.72702 4.9e-4,71.08332 -0.003,142.16706 0.0101,213.25037 0.002,8.89448 0.0428,8.93441 8.95923,8.93642 57.25556,0.0129 114.51207,0.008 172.38149,0.005 8.15828,-0.37633 8.92234,-1.43132 8.95417,-12.91689 0.0165,-5.97188 -4.55308,-5.22029 -8.37649,-5.22199 -50.77378,-0.0224 -101.54828,0.003 -152.32203,-0.0329 -12.53246,-0.009 -11.41776,0.99036 -11.42961,-11.64244 -0.0419,-44.72409 0.0314,-89.44692 -0.12674,-134.1705 -0.0104,-2.97437 -0.64722,-6.90959 -2.56919,-8.75906 -12.38071,-11.91384 -14.95746,-22.66763 -8.00907,-37.94762 1.77166,-3.89598 2.12408,-7.28084 -0.78293,-10.78604 -1.97511,-2.38152 -3.56389,-5.0834 -5.32587,-7.64168 z m 114.72422,27.29321 c -0.79679,8.8e-4 -1.89138,0.60325 -3.36225,2.03205 -1.79662,1.76816 -4.8167,3.52618 -4.58096,4.46693 1.60214,6.39359 -2.44099,9.91074 -6.00745,13.85691 -0.63282,0.70019 -0.83187,2.00409 -0.83613,3.03033 -0.0575,13.83358 -0.10714,27.6677 0.0457,41.49977 0.0158,1.43441 1.24419,4.02498 2.08018,4.09701 7.37675,0.63579 5.14695,5.7865 5.31574,10.0918 0.0781,1.99153 0.8254,4.40108 2.13591,5.81996 4.28217,4.63621 13.12436,6.20463 18.49616,-0.50168 -0.92252,-0.20159 -1.73871,-0.55203 -2.54133,-0.52701 -9.11598,0.28394 -8.76154,-0.53633 -8.77426,-9.18981 -0.0232,-15.77998 -8.8e-4,-31.55998 -0.0104,-47.33998 -0.004,-7.78171 0.0534,-15.56623 -0.0887,-23.34568 -0.0424,-2.32048 -0.54446,-3.99238 -1.87242,-3.9906 z m -32.0338,30.44516 c -3.57692,0.51741 -6.28097,1.31793 -8.9491,1.20858 -5.26381,-0.21579 -7.57674,2.20742 -7.60874,7.22869 -0.0317,4.96434 0.21009,9.9442 -0.0912,14.89067 -0.2527,4.14895 1.43629,6.49669 5.62485,7.82159 2.59785,-0.92116 5.52595,-1.57109 7.00828,-3.39519 6.84597,-8.42443 3.83715,-18.20269 4.01594,-27.75434 z m -48.63218,13.76061 c -0.76566,0.44149 -1.5299,0.88366 -2.29555,1.32513 l 4.6063,13.51232 c 0.15199,0.38418 0.30409,0.76869 0.45607,1.15285 -0.15542,-0.38045 -0.33286,-0.73553 -0.67397,-0.89693 -0.35404,0.42384 -0.49798,0.60102 -0.4662,0.90199 -0.15262,-0.0333 -0.23987,-0.0413 -0.44087,-0.0938 -1.37359,1.92179 -2.7672,4.08563 -2.77696,6.25575 -0.14079,31.33201 0.0203,62.66725 -0.19763,93.9984 -0.0404,5.80757 1.64913,7.87363 7.68224,7.84692 46.45784,-0.20555 92.91601,-0.10287 139.37476,-0.13935 2.16621,-8.8e-4 4.33291,-0.41818 6.49897,-0.64103 0.16509,-0.67621 0.32898,-1.35078 0.49408,-2.02697 -3.2348,-1.8491 -6.51119,-3.62675 -9.68894,-5.56912 -2.7089,-1.6558 -5.89513,-3.02095 -7.81399,-5.37401 -3.09901,-3.80028 -6.67712,-4.60793 -11.2573,-4.58857 -32.41249,0.13701 -64.82594,0.0777 -97.23902,0.0659 -9.76827,-0.004 -9.78277,-0.0251 -9.78776,-10.06393 -0.0104,-22.04091 0.0796,-44.08245 -0.0633,-66.12243 -0.0367,-5.64759 2.30104,-12.3925 -5.52604,-15.42527 -0.53388,-0.20685 -0.46698,-1.65223 -0.97801,-2.27782 -3.25525,-3.98486 -6.5955,-7.90099 -9.90684,-11.84006 z m 33.4096,23.0543 c -0.45129,1.32985 -0.90352,2.65934 -1.3606,4.51508 -0.003,19.08501 -0.006,37.6439 0.0151,56.20294 0.004,3.05799 -0.22297,6.16408 4.3428,6.35963 6.00501,0.25719 11.99192,1.20998 17.99194,1.26433 18.98914,0.17199 37.98004,0.0842 56.97064,0.038 2.20948,-0.005 4.41946,-0.38303 6.63073,-0.58781 -1.61759,-4.16294 -3.89224,-7.46288 -3.98045,-10.82152 -0.14618,-5.56615 -2.44308,-6.85927 -7.49728,-6.79542 -16.82989,0.21256 -33.66483,-0.0734 -50.49447,0.14948 -5.19422,0.0687 -7.43695,-1.48611 -7.20335,-6.96772 0.33964,-7.97004 -0.13978,-15.97212 0.14948,-23.94616 0.21533,-5.93609 0.26952,-11.13267 -7.48713,-12.31641 -1.58227,-0.2415 -2.6878,-3.04489 -4.20598,-4.45934 -1.12941,-1.05228 -2.56907,-1.76851 -3.87152,-2.63508 z m 254.72226,16.3805 c -18.11369,0.44412 -36.2464,0.14254 -55.01968,0.13934 -18.77332,3.5e-4 -36.89752,-0.004 -55.02221,0.005 -1.7248,8.3e-4 -3.52297,-0.20378 -5.14599,0.22296 -0.93659,0.24627 -1.93611,1.463 -2.23474,2.44758 -0.16654,0.54902 0.89318,1.97318 1.65705,2.22459 7.24552,2.38483 14.55468,4.57733 21.82798,6.87906 2.8561,0.90388 5.64873,2.00913 8.50822,2.90111 2.59632,0.80985 5.2406,2.06433 7.86974,2.08017 25.89148,0.15594 51.78593,-0.11299 77.67365,0.23563 6.68105,0.09 7.24406,-3.08246 7.23123,-8.29791 -0.0129,-5.28133 -0.14011,-9.01426 -7.34525,-8.83761 z m -188.23497,0.85132 c 5.03372,3.91616 9.16005,5.6434 14.55621,3.13674 1.37247,-0.94391 2.28338,-1.785 3.74991,-3.13674 z m -34.10637,2.48557 c 0,3.09268 0.12518,6.10647 -0.0304,9.10365 -0.20809,4.0075 1.26078,5.92214 5.55138,5.8757 13.58395,-0.14702 27.17238,-0.0388 40.75739,-0.11909 1.13286,-0.006 2.25958,-0.68537 5.12318,-1.61398 -3.43705,-1.95252 -5.52937,-3.10592 -7.58596,-4.31999 -2.2116,-1.30559 -4.24979,-3.04652 -6.61554,-3.90952 -2.7998,-1.02132 -5.87345,-1.81879 -8.81988,-1.79387 -4.49011,0.038 -8.97308,0.86709 -13.98357,1.30992 -5.0523,-1.51227 -9.58067,-2.97682 -14.39659,-4.53282 z m 223.72729,31.7855 c -9.70537,0.28122 -19.42397,0.048 -29.13776,0.043 -9.3709,-0.005 -18.74323,0 -28.11413,0 -0.0589,0.51173 -0.11844,1.0237 -0.17736,1.53542 5.95628,1.29264 11.91425,2.58597 18.33398,4.07929 8.30853,7.21746 16.46212,13.25158 28.02546,11.34093 3.57355,-0.59048 7.33957,-0.33761 10.98873,-0.0684 6.51698,0.48076 6.05799,-3.91151 5.91876,-8.09017 -0.13607,-4.0808 1.36337,-9.04884 -5.83768,-8.84013 z m -15.78,32.48734 c -5.6205,0.004 -11.24041,0.0807 -16.85937,0.17988 -1.35455,0.0238 -3.54854,1.28313 -3.87151,2.39944 -1.2304,4.25255 -1.85223,8.68195 -2.94165,14.27242 4.70776,0 8.52834,-10e-6 12.98025,0 9.27809,-0.0104 17.92874,-0.13241 26.57362,0.0178 4.11539,0.0715 6.04384,-1.48734 5.75408,-5.69073 -0.14831,-2.1521 0.56319,-4.58478 -0.22551,-6.4103 -0.81094,-1.87701 -2.93226,-4.45418 -4.55563,-4.51003 -5.61388,-0.19308 -11.23379,-0.26228 -16.85428,-0.25843 z m -32.41639,32.41891 c -16.30252,1.9e-4 -16.30626,4.9e-4 -18.03247,15.67105 -0.0424,0.38484 0.24499,0.80559 0.80066,2.49064 18.89839,0 38.23754,1.6e-4 58.21216,0 12.64357,-0.0389 14.46551,-3.18309 10.60361,-18.16169 -17.07719,0 -34.33118,-2.3e-4 -51.58396,0 z m 48.40414,33.67311 c -0.4559,-0.008 -0.95364,0.0136 -1.49489,0.0633 -30.24048,-0.004 -59.91836,-0.003 -90.0458,-0.003 3.00448,7.14978 1.97586,9.13821 -4.10969,11.57401 -2.24736,0.89955 -4.08594,2.82027 -6.11132,4.27439 l 1.05149,2.30832 c 2.74105,0 5.48088,-4e-5 8.22191,0 28.08288,2.7e-4 56.16579,8.8e-4 84.24866,0 13.21032,-7.9e-4 13.04203,-8.8e-4 12.69393,-13.08665 -0.0947,-3.56134 -1.26298,-5.0746 -4.45429,-5.13078 z m -39.90099,33.77952 c -12.81348,-0.006 -25.70915,0.006 -38.76587,0.005 -8.20161,0.0129 -15.7561,0.1139 -23.30768,0.0151 -7.57925,-0.099 -5.33577,6.29415 -5.93397,9.90175 -0.54118,3.26372 0.71971,7.03393 6.11133,7.00574 33.88021,-0.17744 67.76163,-0.0706 101.64263,-0.13935 1.62115,-0.004 4.57075,-0.59868 4.64937,-1.20858 0.56768,-4.40417 0.98507,-8.94075 0.40793,-13.29696 -0.1359,-1.02611 -4.24159,-2.15738 -6.52686,-2.17139 -12.73198,-0.0782 -25.46337,-0.10496 -38.27688,-0.11144 z"
   style="stroke-width:1.29727" />






























</svg>
