<svg id="svg" xmlns="http://www.w3.org/2000/svg" xmlns:xlink="http://www.w3.org/1999/xlink" width="400" height="313.6700336700337" viewBox="0, 0, 400,313.6700336700337"><g id="svgg"><path id="path0" d="M179.192 0.138 C 132.462 2.945,90.245 25.925,62.901 63.439 C 60.570 66.637,59.770 68.188,59.138 70.728 C 56.383 81.818,63.983 91.968,75.960 93.195 C 79.644 93.572,83.891 92.118,88.316 88.964 C 89.832 87.883,89.856 87.885,90.602 89.148 C 94.948 96.507,103.929 99.874,112.008 97.173 C 114.857 96.221,116.356 95.273,119.286 92.572 C 143.356 70.379,175.309 61.222,206.869 67.473 C 268.610 79.703,304.406 146.319,279.512 202.661 C 268.039 228.628,244.364 248.785,217.384 255.558 C 209.970 257.419,206.218 257.881,194.394 258.388 C 185.786 258.756,180.429 261.172,175.685 266.824 C 161.794 283.375,173.840 308.660,195.113 307.603 C 269.841 303.890,331.179 246.979,340.261 172.929 C 341.127 165.873,341.345 162.037,341.344 153.872 C 341.341 112.195,325.100 73.379,295.471 44.238 C 269.179 18.379,236.175 3.388,198.788 0.323 C 195.766 0.075,182.348 -0.051,179.192 0.138 M195.488 10.109 C 271.619 14.328,331.314 77.395,331.375 153.670 C 331.381 161.014,331.320 162.439,330.764 168.081 C 324.696 229.633,279.166 280.859,218.423 294.476 L 216.442 294.920 215.371 293.865 C 209.785 288.361,191.161 288.030,185.155 293.328 C 184.404 293.990,184.403 293.989,183.363 292.794 C 176.504 284.903,179.726 272.574,189.582 268.999 C 191.106 268.447,191.785 268.383,198.586 268.156 C 258.779 266.143,304.266 211.989,296.558 151.515 C 289.084 92.878,236.260 50.639,177.239 56.104 C 152.811 58.366,130.926 68.258,112.204 85.498 C 107.183 90.121,99.984 88.309,98.372 82.016 C 97.693 79.364,98.173 78.259,100.250 77.692 C 106.743 75.923,115.506 67.050,117.391 60.337 C 117.900 58.523,117.682 58.732,122.149 55.755 C 173.146 21.765,241.619 32.425,279.622 80.269 C 282.447 83.826,282.582 83.969,283.602 84.471 C 287.415 86.347,291.638 82.858,290.567 78.715 C 289.723 75.450,277.390 62.143,268.350 54.744 C 217.649 13.246,143.507 17.034,97.031 63.496 C 92.998 67.528,90.310 70.685,83.932 78.881 C 81.366 82.178,79.581 83.232,76.566 83.232 C 70.707 83.232,67.122 77.617,69.383 71.982 L 69.697 71.200 70.865 70.908 C 78.128 69.092,88.189 57.471,88.213 50.871 C 88.218 49.595,88.719 49.028,93.424 44.974 C 121.755 20.560,158.370 8.053,195.488 10.109 M180.925 92.495 C 180.767 92.623,180.576 92.848,180.501 92.997 C 180.063 93.863,149.899 177.826,149.899 178.181 C 149.899 178.492,150.027 178.740,150.357 179.071 L 150.815 179.529 170.774 179.529 L 190.734 179.529 191.192 179.987 C 191.479 180.273,191.650 180.576,191.650 180.796 C 191.650 180.989,186.165 196.388,179.461 215.016 C 172.758 233.645,167.273 249.075,167.273 249.305 C 167.273 250.266,168.628 250.968,169.515 250.467 C 169.736 250.342,205.626 204.408,237.092 163.978 C 239.707 160.618,239.874 160.217,239.021 159.363 L 238.647 158.990 219.896 158.923 C 199.608 158.850,200.754 158.895,200.414 158.149 C 200.334 157.975,200.269 157.721,200.269 157.584 C 200.269 157.448,205.432 143.132,211.741 125.772 C 224.125 91.701,223.575 93.348,222.792 92.649 L 222.353 92.256 201.782 92.259 C 182.496 92.262,181.194 92.276,180.925 92.495 " stroke="none" fill="#000000" fill-rule="evenodd"></path></g></svg>