<?xml version="1.0" encoding="UTF-8" standalone="no"?>
<!-- Generator: Adobe Illustrator 18.0.0, SVG Export Plug-In . SVG Version: 6.00 Build 0)  -->

<svg
   version="1.1"
   id="Capa_1"
   x="0px"
   y="0px"
   viewBox="0 0 500 500"
   xml:space="preserve"
   sodipodi:docname="linked-symbol-svgrepo-com.svg"
   width="500"
   height="500"
   inkscape:version="1.2 (56b05e47e7, 2022-06-09, custom)"
   xmlns:inkscape="http://www.inkscape.org/namespaces/inkscape"
   xmlns:sodipodi="http://sodipodi.sourceforge.net/DTD/sodipodi-0.dtd"
   xmlns="http://www.w3.org/2000/svg"
   xmlns:svg="http://www.w3.org/2000/svg"><defs
   id="defs10585" /><sodipodi:namedview
   id="namedview10583"
   pagecolor="#505050"
   bordercolor="#ffffff"
   borderopacity="1"
   inkscape:showpageshadow="0"
   inkscape:pageopacity="0"
   inkscape:pagecheckerboard="1"
   inkscape:deskcolor="#505050"
   showgrid="false"
   inkscape:zoom="0.38649624"
   inkscape:cx="133.24838"
   inkscape:cy="258.73473"
   inkscape:window-width="1920"
   inkscape:window-height="962"
   inkscape:window-x="0"
   inkscape:window-y="27"
   inkscape:window-maximized="1"
   inkscape:current-layer="Capa_1" />
<path
   d="m 465.7132,34.286964 c -45.04928,-45.049284 -118.34728,-45.049284 -163.39656,0 l -77.13242,77.131106 c -21.60412,21.60412 -33.33327,50.46738 -33.78893,79.97804 -29.51066,0.45567 -58.37393,12.1835 -79.97804,33.78762 l -77.132422,77.13242 c -45.047971,45.04928 -45.047971,118.34728 0,163.39787 45.049284,45.04797 118.348592,45.04797 163.397872,0 l 77.13242,-77.13242 c 21.60412,-21.6028 33.33458,-50.46738 33.78893,-79.97672 29.51197,-0.45567 58.37393,-12.18482 79.97804,-33.78894 l 77.13111,-77.1311 c 45.0506,-45.04929 45.0506,-118.349906 0,-163.397876 z m -38.7947,124.601856 -77.13111,77.13111 c -16.89381,16.8925 -42.25619,22.28433 -64.61406,13.72909 -10.10871,-3.86726 -21.54502,-1.43003 -29.19944,6.22438 -7.65441,7.65442 -10.09163,19.08942 -6.22438,29.19813 8.55524,22.35787 3.16341,47.72156 -13.72909,64.61406 L 158.888,426.9167 c -23.6579,23.65789 -62.150573,23.65789 -85.808472,0 -23.656586,-23.65659 -23.656586,-62.14926 0,-85.80716 l 77.132422,-77.13111 c 16.89381,-16.8925 42.25619,-22.28433 64.61406,-13.73041 10.10871,3.86857 21.54371,1.43003 29.19812,-6.22306 7.65442,-7.65442 10.09296,-19.09073 6.22438,-29.19813 -8.55524,-22.35787 -3.1634,-47.72156 13.7291,-64.61537 l 77.13111,-77.131109 c 23.65789,-23.657899 62.15188,-23.657899 85.80715,0 23.66053,23.656586 23.66053,62.151889 0.003,85.808469 z"
   id="path10550"
   style="stroke-width:1.31316" />
<g
   id="g10552">
</g>
<g
   id="g10554">
</g>
<g
   id="g10556">
</g>
<g
   id="g10558">
</g>
<g
   id="g10560">
</g>
<g
   id="g10562">
</g>
<g
   id="g10564">
</g>
<g
   id="g10566">
</g>
<g
   id="g10568">
</g>
<g
   id="g10570">
</g>
<g
   id="g10572">
</g>
<g
   id="g10574">
</g>
<g
   id="g10576">
</g>
<g
   id="g10578">
</g>
<g
   id="g10580">
</g>
</svg>
