<?xml version="1.0" encoding="UTF-8" standalone="no"?>
<svg
   class="svg-icon"
   style="overflow:hidden;fill:currentColor"
   viewBox="0 0 500 500"
   version="1.1"
   id="svg20"
   sodipodi:docname="google-translate.svg"
   width="500"
   height="500"
   inkscape:version="1.2.1 (0b8a7e5fb6, 2022-09-14, custom)"
   xmlns:inkscape="http://www.inkscape.org/namespaces/inkscape"
   xmlns:sodipodi="http://sodipodi.sourceforge.net/DTD/sodipodi-0.dtd"
   xmlns="http://www.w3.org/2000/svg"
   xmlns:svg="http://www.w3.org/2000/svg">
  <defs
     id="defs24" />
  <sodipodi:namedview
     id="namedview22"
     pagecolor="#505050"
     bordercolor="#ffffff"
     borderopacity="1"
     inkscape:showpageshadow="0"
     inkscape:pageopacity="0"
     inkscape:pagecheckerboard="1"
     inkscape:deskcolor="#505050"
     showgrid="false"
     inkscape:zoom="0.66031919"
     inkscape:cx="307.42708"
     inkscape:cy="379.36199"
     inkscape:window-width="1920"
     inkscape:window-height="985"
     inkscape:window-x="0"
     inkscape:window-y="93"
     inkscape:window-maximized="1"
     inkscape:current-layer="g1534"
     showguides="false" />
  <g
     id="g1534"
     transform="matrix(0.48945664,0,0,0.48945664,-0.60180143,-0.60180143)">
    <path
       id="path1697"
       d="m 526.50509,213.33495 28.16021,85.33059 h 341.33434 v 597.3341 H 528.21298 l 27.73324,85.33458 h 340.05342 c 47.35995,0 85.33458,-37.97463 85.33458,-85.33458 v -597.3341 c 0,-47.35995 -37.97463,-85.33059 -85.33458,-85.33059 z m 156.16009,213.33047 v 42.66929 H 611.83967 L 625.4948,512 h 142.50496 c -11.51999,26.02665 -15.78715,49.92128 -50.77378,90.88123 -17.06665,-20.05331 -30.72081,-37.54928 -34.5608,-48.21593 h -42.6653 c 5.12,18.34664 26.45472,46.93587 52.0547,75.94917 -5.54666,5.54667 -13.22906,12.79749 -20.05573,18.77082 l 11.94725,35.84172 c 10.66664,-9.38666 21.33231,-19.20083 31.99897,-29.01416 43.51995,45.6533 89.60031,87.89243 89.60031,87.89243 l 23.89448,-25.59838 c 0,0 -45.65155,-44.80005 -86.61151,-89.17334 C 769.70833,599.46693 793.5984,563.19995 810.66506,512 h 42.66928 V 469.33471 H 725.33447 v -42.66929 z"
       style="display:inline;stroke-width:0.99906705;stroke-dasharray:none;fill:#657e8d;fill-opacity:1" />
    <path
       id="path18"
       style="display:inline;overflow:hidden;fill:#4285f4;fill-opacity:1"
       d="m 128.00037,42.665784 c -47.359956,0 -85.334586,37.97463 -85.334586,85.334586 v 597.3341 c 0,47.35995 37.97463,85.33059 85.334586,85.33059 H 639.99988 L 384.00012,42.665784 Z M 301.22738,252.16149 c 46.93328,0 86.61266,17.06408 116.05263,46.50405 l -47.78497,43.94621 c -12.37332,-12.37331 -33.7077,-26.45232 -68.26766,-26.45232 -59.30662,0 -106.66724,48.64154 -106.66724,107.94815 0,59.3066 47.36062,109.22507 106.66724,109.22507 69.11993,0 93.86572,-49.91763 98.98572,-74.66427 H 301.22738 V 400.2131 h 162.98765 c 2.13334,9.81333 2.55784,16.64083 2.55784,29.01415 0,98.98657 -66.55893,168.10734 -165.54549,168.10734 -95.99991,0 -173.22701,-77.22711 -173.22701,-173.22701 0,-96.42658 77.2271,-171.94609 173.22701,-171.94609 z" />
  </g>
</svg>
