<?xml version="1.0" encoding="UTF-8" standalone="no"?>
<!-- Generator: Adobe Illustrator 16.0.0, SVG Export Plug-In . SVG Version: 6.00 Build 0)  -->

<svg
   version="1.1"
   id="Layer_1"
   x="0px"
   y="0px"
   width="500"
   height="500"
   viewBox="0 0 499.99999 499.99999"
   xml:space="preserve"
   sodipodi:docname="instagram-logo-svgrepo-com.svg"
   inkscape:version="1.2 (56b05e47e7, 2022-06-09, custom)"
   xmlns:inkscape="http://www.inkscape.org/namespaces/inkscape"
   xmlns:sodipodi="http://sodipodi.sourceforge.net/DTD/sodipodi-0.dtd"
   xmlns="http://www.w3.org/2000/svg"
   xmlns:svg="http://www.w3.org/2000/svg"><defs
   id="defs5999" /><sodipodi:namedview
   id="namedview5997"
   pagecolor="#505050"
   bordercolor="#ffffff"
   borderopacity="1"
   inkscape:showpageshadow="0"
   inkscape:pageopacity="0"
   inkscape:pagecheckerboard="1"
   inkscape:deskcolor="#505050"
   showgrid="false"
   inkscape:zoom="1.338561"
   inkscape:cx="-78.06891"
   inkscape:cy="103.84286"
   inkscape:window-width="1920"
   inkscape:window-height="962"
   inkscape:window-x="0"
   inkscape:window-y="27"
   inkscape:window-maximized="1"
   inkscape:current-layer="Layer_1" />
<g
   id="g5964"
   transform="matrix(2.9515799,0,0,2.9515799,0.49999942,0.49999947)">
	<path
   d="M 122.406,0 H 46.654 C 20.929,0 0,20.93 0,46.655 v 75.752 c 0,25.726 20.929,46.655 46.654,46.655 h 75.752 c 25.727,0 46.656,-20.93 46.656,-46.655 V 46.655 C 169.063,20.93 148.133,0 122.406,0 Z m 31.657,122.407 c 0,17.455 -14.201,31.655 -31.656,31.655 H 46.654 C 29.2,154.063 15,139.862 15,122.407 V 46.655 C 15,29.201 29.2,15 46.654,15 h 75.752 c 17.455,0 31.656,14.201 31.656,31.655 v 75.752 z"
   id="path5958" />
	<path
   d="m 84.531,40.97 c -24.021,0 -43.563,19.542 -43.563,43.563 0,24.02 19.542,43.561 43.563,43.561 24.021,0 43.563,-19.541 43.563,-43.561 0,-24.021 -19.542,-43.563 -43.563,-43.563 z m 0,72.123 c -15.749,0 -28.563,-12.812 -28.563,-28.561 0,-15.75 12.813,-28.563 28.563,-28.563 15.75,0 28.563,12.813 28.563,28.563 0,15.749 -12.814,28.561 -28.563,28.561 z"
   id="path5960" />
	<path
   d="m 129.921,28.251 c -2.89,0 -5.729,1.17 -7.77,3.22 -2.051,2.04 -3.23,4.88 -3.23,7.78 0,2.891 1.18,5.73 3.23,7.78 2.04,2.04 4.88,3.22 7.77,3.22 2.9,0 5.73,-1.18 7.78,-3.22 2.05,-2.05 3.22,-4.89 3.22,-7.78 0,-2.9 -1.17,-5.74 -3.22,-7.78 -2.04,-2.05 -4.88,-3.22 -7.78,-3.22 z"
   id="path5962" />
</g>
<g
   id="g5966">
</g>
<g
   id="g5968">
</g>
<g
   id="g5970">
</g>
<g
   id="g5972">
</g>
<g
   id="g5974">
</g>
<g
   id="g5976">
</g>
<g
   id="g5978">
</g>
<g
   id="g5980">
</g>
<g
   id="g5982">
</g>
<g
   id="g5984">
</g>
<g
   id="g5986">
</g>
<g
   id="g5988">
</g>
<g
   id="g5990">
</g>
<g
   id="g5992">
</g>
<g
   id="g5994">
</g>
</svg>
