<?xml version="1.0" encoding="UTF-8" standalone="no"?>
<svg
   version="1.0"
   width="180.000000pt"
   height="180.000000pt"
   viewBox="0 0 180.000000 180.000000"
   preserveAspectRatio="xMidYMid meet"
   id="svg3412"
   xmlns="http://www.w3.org/2000/svg"
   xmlns:svg="http://www.w3.org/2000/svg">
  <defs
     id="defs3416" />
  <path
     d="M713 1504 c-254 -55 -487 -235 -603 -464 -60 -120 -100 -303 -94 -440 l1 -45 117 -3 116 -3 0 41 0 40 -54 0 c-30 0 -57 4 -61 9 -10 17 17 154 45 234 102 279 352 470 659 502 l63 7 -6 -48 c-3 -27 -17 -177 -32 -334 -18 -203 -29 -289 -40 -301 -59 -65 10 -179 99 -162 65 13 98 104 58 161 -21 31 -38 192 -20 192 24 0 87 -34 117 -63 41 -39 69 -92 78 -146 l7 -41 52 0 c28 0 54 2 57 5 12 12 -16 124 -44 178 -49 92 -148 164 -249 182 -40 7 -49 27 -49 106 0 38 1 38 33 33 130 -21 216 -63 297 -144 84 -85 150 -227 150 -327 l0 -33 60 0 60 0 0 53 c0 122 -67 272 -170 381 -107 112 -231 175 -385 194 l-60 7 -3 53 c-4 61 -6 60 118 38 320 -58 563 -298 626 -618 22 -112 18 -120 -48 -117 l-53 3 -3 -42 -3 -42 122 0 122 0 -6 113 c-8 141 -35 246 -92 363 -120 247 -345 423 -615 480 -82 17 -285 16 -367 -2z"
     id="path3408"
     transform="matrix(0.1,0,0,-0.1,0,180)" />
</svg>
