<?xml version="1.0" encoding="UTF-8" standalone="no"?>
<!-- Created with Inkscape (http://www.inkscape.org/) -->

<svg
   xmlns:dc="http://purl.org/dc/elements/1.1/"
   xmlns:cc="http://creativecommons.org/ns#"
   xmlns:rdf="http://www.w3.org/1999/02/22-rdf-syntax-ns#"
   xmlns:svg="http://www.w3.org/2000/svg"
   xmlns="http://www.w3.org/2000/svg"
   xmlns:sodipodi="http://sodipodi.sourceforge.net/DTD/sodipodi-0.dtd"
   xmlns:inkscape="http://www.inkscape.org/namespaces/inkscape"
   version="1.1"
   id="svg2"
   xml:space="preserve"
   width="666.66669"
   height="666.66669"
   viewBox="0 0 666.66669 666.66669"
   sodipodi:docname="logo-whatsapp.svg"
   inkscape:version="0.92.5 (2060ec1f9f, 2020-04-08)"><metadata
     id="metadata8"><rdf:RDF><cc:Work
         rdf:about=""><dc:format>image/svg+xml</dc:format><dc:type
           rdf:resource="http://purl.org/dc/dcmitype/StillImage" /><dc:title></dc:title></cc:Work></rdf:RDF></metadata><defs
     id="defs6"><clipPath
       clipPathUnits="userSpaceOnUse"
       id="clipPath22"><path
         d="m 2500,757.84 c -664.12,0 -1202.5,28.82 -1202.5,64.359 0,35.539 538.38,64.36 1202.5,64.36 664.12,0 1202.5,-28.821 1202.5,-64.36 0,-35.539 -538.38,-64.359 -1202.5,-64.359"
         id="path20"
         inkscape:connector-curvature="0" /></clipPath><radialGradient
       fx="0"
       fy="0"
       cx="0"
       cy="0"
       r="1"
       gradientUnits="userSpaceOnUse"
       gradientTransform="matrix(854.676,0,0,-45.0099,2500,822.2)"
       spreadMethod="pad"
       id="radialGradient28"><stop
         style="stop-opacity:1;stop-color:#a5b5ac"
         offset="0"
         id="stop24" /><stop
         style="stop-opacity:1;stop-color:#cadfd1"
         offset="1"
         id="stop26" /></radialGradient><linearGradient
       x1="0"
       y1="0"
       x2="1"
       y2="0"
       gradientUnits="userSpaceOnUse"
       gradientTransform="matrix(0,-3697.5182,-3697.5182,0,2549.9093,4618.3395)"
       spreadMethod="pad"
       id="linearGradient36"><stop
         style="stop-opacity:1;stop-color:#21b04c"
         offset="0"
         id="stop32" /><stop
         style="stop-opacity:1;stop-color:#128c49"
         offset="1"
         id="stop34" /></linearGradient></defs><sodipodi:namedview
     pagecolor="#ffffff"
     bordercolor="#666666"
     borderopacity="1"
     objecttolerance="10"
     gridtolerance="10"
     guidetolerance="10"
     inkscape:pageopacity="0"
     inkscape:pageshadow="2"
     inkscape:window-width="1920"
     inkscape:window-height="972"
     id="namedview4"
     showgrid="false"
     inkscape:zoom="0.50063159"
     inkscape:cx="60.375815"
     inkscape:cy="239.95382"
     inkscape:window-x="0"
     inkscape:window-y="27"
     inkscape:window-maximized="1"
     inkscape:current-layer="g10" /><g
     id="g10"
     inkscape:groupmode="layer"
     inkscape:label="ink_ext_XXXXXX"
     transform="matrix(1.3333333,0,0,-1.3333333,0,666.66667)"><g
       id="g12"
       transform="matrix(0.1,0,0,0.1,0,-25.5)"><g
         id="g893"><path
           inkscape:connector-curvature="0"
           id="path38"
           style="display:inline;fill:url(#linearGradient36);fill-opacity:1;fill-rule:evenodd;stroke:none;stroke-width:1.5023905"
           d="m 2549.9996,4618.3397 c -1027.6202,0 -1863.2648,-829.2445 -1863.2648,-1848.8569 0,-404.3383 131.72961,-779.0946 354.8647,-1083.9898 L 808.92423,999.00571 1524.8133,1226.4827 c 294.123,-192.9971 646.5538,-305.66139 1025.1863,-305.66139 1027.1844,0 1863.0994,829.30459 1863.0994,1848.66149 0,1019.6124 -835.915,1848.8569 -1863.0994,1848.8569" /><path
           inkscape:connector-curvature="0"
           id="path40"
           style="display:inline;fill:#ffffff;fill-opacity:1;fill-rule:evenodd;stroke:none;stroke-width:1.5023905"
           d="m 3605.3087,2302.7802 c -13.0708,21.4391 -47.5957,34.2996 -99.1427,59.9755 -51.8025,25.6307 -306.3825,149.9986 -353.7529,167.0057 -47.3704,17.0972 -82.1357,25.6909 -116.4202,-25.6158 -34.525,-51.3817 -133.7579,-167.0658 -164.031,-201.3654 -30.108,-34.3446 -60.2159,-38.5213 -111.9882,-12.8454 -51.8475,25.6308 -218.703,80.0474 -416.2974,254.7754 -153.7547,136.3119 -257.63,304.2791 -287.9783,355.6459 -30.0478,51.3216 -2.9897,79.1008 22.6411,104.7166 23.3471,23.1218 51.8475,59.9754 77.7036,89.8429 25.9313,30.1079 34.54,51.6072 51.8024,85.8917 17.2625,34.2996 8.6538,64.1521 -4.432,89.843 -12.8304,25.6307 -116.4203,278.3629 -159.599,381.2917 -42.8932,102.6132 -86.0869,98.7821 -116.4202,98.7821 -30.1079,0 -85.9668,-8.9392 -85.9668,-8.9392 0,0 -103.7551,-12.8454 -151.1255,-64.2272 -47.3703,-51.3066 -181.053,-175.6745 -181.053,-428.1663 0,-252.687 185.2898,-496.9908 211.1609,-531.0349 25.9163,-34.3597 357.9296,-569.8117 884.1268,-775.4138 526.1823,-205.5421 526.1823,-136.973 621.1183,-128.3042 94.7258,8.3533 306.1422,124.1275 349.3209,244.0634 43.1937,119.9508 43.1937,222.8045 30.3332,244.0783 z M 2539.1823,4546.7507 c -979.0478,0 -1775.17955,-790.047 -1775.17955,-1761.4327 0,-385.2279 125.50971,-742.2711 338.09795,-1032.7583 l -221.67771,-654.0206 682.05531,216.7198 c 280.2108,-183.8625 615.9651,-291.2083 976.704,-291.2083 978.6272,0 1774.9994,790.1071 1774.9994,1761.2674 0,971.3857 -796.3722,1761.4327 -1774.9994,1761.4327 z M 4650.4317,2785.318 c 0,-1156.8707 -945.229,-2094.94838 -2111.2494,-2094.94838 -370.2942,0 -718.1877,94.56046 -1020.6189,260.69481 L 349.56832,579.56832 730.61963,1703.5367 c -192.29096,315.7424 -302.85188,686.0366 -302.85188,1081.7813 0,1157.1112 945.22905,2095.1137 2111.41455,2095.1137 1166.0204,0 2111.2494,-938.0025 2111.2494,-2095.1137" /></g></g></g></svg>