<?xml version="1.0" standalone="no"?>
<!DOCTYPE svg PUBLIC "-//W3C//DTD SVG 20010904//EN"
 "http://www.w3.org/TR/2001/REC-SVG-20010904/DTD/svg10.dtd">
<svg version="1.0" xmlns="http://www.w3.org/2000/svg"
 width="1124.000000pt" height="1124.000000pt" viewBox="0 0 1124.000000 1124.000000"
 preserveAspectRatio="xMidYMid meet">

<g transform="translate(0.000000,1124.000000) scale(0.100000,-0.100000)"
fill="#000000" stroke="none">
<path d="M4750 8564 c-161 -42 -315 -165 -384 -306 -70 -143 -69 -131 -63
-823 6 -630 12 -789 48 -1270 41 -551 108 -1062 199 -1510 159 -786 328 -1292
559 -1674 28 -46 51 -86 51 -89 0 -2 -51 -2 -112 0 -93 4 -126 10 -188 33
-134 52 -332 220 -443 376 -71 100 -203 322 -263 442 -151 300 -292 731 -374
1147 -97 488 -211 1600 -285 2775 -23 369 -28 418 -51 491 -61 193 -223 346
-424 399 -71 19 -198 19 -279 0 -254 -60 -443 -283 -458 -540 -4 -62 5 -151
41 -400 212 -1451 442 -2622 622 -3162 246 -737 654 -1424 1062 -1785 226
-201 447 -324 689 -385 99 -25 123 -28 303 -27 186 0 200 2 313 32 65 17 169
53 231 80 l113 49 66 -34 c167 -84 306 -113 542 -113 152 0 185 3 271 25 116
30 327 130 424 200 97 72 251 207 332 293 121 130 318 404 467 650 370 612
787 1687 1120 2888 112 402 277 1062 268 1071 -2 2 -26 -58 -52 -134 -308
-895 -783 -1998 -1151 -2671 -273 -499 -480 -811 -743 -1122 -246 -291 -479
-477 -679 -543 -80 -26 -222 -47 -222 -32 0 4 40 51 88 104 358 391 615 750
942 1316 335 581 709 1386 975 2100 133 356 316 927 303 941 -2 2 -24 -47 -48
-109 -141 -366 -532 -1151 -844 -1696 -319 -556 -741 -1171 -1104 -1608 -173
-209 -587 -614 -736 -721 l-44 -32 -25 43 c-66 113 -152 349 -201 549 -129
531 -203 1232 -213 2028 -8 638 27 1400 91 1970 17 151 7 322 -24 405 -31 81
-99 183 -164 242 -61 56 -175 116 -261 138 -74 19 -212 18 -285 -1z"/>
</g>
</svg>
