<?xml version="1.0" encoding="UTF-8" standalone="no"?>
<!-- Generator: Adobe Illustrator 19.0.0, SVG Export Plug-In . SVG Version: 6.00 Build 0)  -->

<svg
   version="1.1"
   id="Layer_1"
   x="0px"
   y="0px"
   viewBox="0 0 500 500"
   xml:space="preserve"
   sodipodi:docname="telegram-svgrepo-com.svg"
   width="500"
   height="500"
   inkscape:version="1.2 (56b05e47e7, 2022-06-09, custom)"
   xmlns:inkscape="http://www.inkscape.org/namespaces/inkscape"
   xmlns:sodipodi="http://sodipodi.sourceforge.net/DTD/sodipodi-0.dtd"
   xmlns="http://www.w3.org/2000/svg"
   xmlns:svg="http://www.w3.org/2000/svg"><defs
   id="defs16864" /><sodipodi:namedview
   id="namedview16862"
   pagecolor="#505050"
   bordercolor="#ffffff"
   borderopacity="1"
   inkscape:showpageshadow="0"
   inkscape:pageopacity="0"
   inkscape:pagecheckerboard="1"
   inkscape:deskcolor="#505050"
   showgrid="false"
   inkscape:zoom="2.6433333"
   inkscape:cx="139.78562"
   inkscape:cy="150.18916"
   inkscape:window-width="1920"
   inkscape:window-height="962"
   inkscape:window-x="0"
   inkscape:window-y="27"
   inkscape:window-maximized="1"
   inkscape:current-layer="Layer_1" />
<g
   id="XMLID_496_"
   transform="matrix(1.6633355,0,0,1.6633355,0.49981008,0.49876115)">
	<path
   id="XMLID_497_"
   d="m 5.299,144.645 69.126,25.8 26.756,86.047 c 1.712,5.511 8.451,7.548 12.924,3.891 l 38.532,-31.412 c 4.039,-3.291 9.792,-3.455 14.013,-0.391 l 69.498,50.457 c 4.785,3.478 11.564,0.856 12.764,-4.926 L 299.823,29.22 c 1.31,-6.316 -4.896,-11.585 -10.91,-9.259 L 5.218,129.402 c -7.001,2.7 -6.94,12.612 0.081,15.243 z m 91.57,12.066 135.098,-83.207 c 2.428,-1.491 4.926,1.792 2.841,3.726 L 123.313,180.87 c -3.919,3.648 -6.447,8.53 -7.163,13.829 l -3.798,28.146 c -0.503,3.758 -5.782,4.131 -6.819,0.494 L 90.926,172.014 c -1.673,-5.854 0.765,-12.107 5.943,-15.303 z" />
</g>
<g
   id="g16831">
</g>
<g
   id="g16833">
</g>
<g
   id="g16835">
</g>
<g
   id="g16837">
</g>
<g
   id="g16839">
</g>
<g
   id="g16841">
</g>
<g
   id="g16843">
</g>
<g
   id="g16845">
</g>
<g
   id="g16847">
</g>
<g
   id="g16849">
</g>
<g
   id="g16851">
</g>
<g
   id="g16853">
</g>
<g
   id="g16855">
</g>
<g
   id="g16857">
</g>
<g
   id="g16859">
</g>
</svg>
