<?xml version="1.0" encoding="UTF-8" standalone="no"?>
<!-- Generator: Adobe Illustrator 19.0.0, SVG Export Plug-In . SVG Version: 6.00 Build 0)  -->

<svg
   version="1.1"
   id="Layer_1"
   x="0px"
   y="0px"
   viewBox="0 0 499.99999 499.99999"
   xml:space="preserve"
   sodipodi:docname="twitter-social-media-svgrepo-com.svg"
   width="500"
   height="500"
   inkscape:version="1.2 (56b05e47e7, 2022-06-09, custom)"
   xmlns:inkscape="http://www.inkscape.org/namespaces/inkscape"
   xmlns:sodipodi="http://sodipodi.sourceforge.net/DTD/sodipodi-0.dtd"
   xmlns="http://www.w3.org/2000/svg"
   xmlns:svg="http://www.w3.org/2000/svg"><defs
   id="defs9305" /><sodipodi:namedview
   id="namedview9303"
   pagecolor="#505050"
   bordercolor="#ffffff"
   borderopacity="1"
   inkscape:showpageshadow="0"
   inkscape:pageopacity="0"
   inkscape:pagecheckerboard="1"
   inkscape:deskcolor="#505050"
   showgrid="false"
   inkscape:zoom="1.5500754"
   inkscape:cx="243.53654"
   inkscape:cy="256.11657"
   inkscape:window-width="1920"
   inkscape:window-height="962"
   inkscape:window-x="0"
   inkscape:window-y="27"
   inkscape:window-maximized="1"
   inkscape:current-layer="Layer_1" />
<g
   id="g9270"
   transform="matrix(0.97539362,0,0,0.97539362,0.50000247,0.49981378)">
	<g
   id="g9268">
		<path
   d="m 508.508,93.804 c -2.794,-2.708 -6.795,-3.601 -10.44,-2.334 l -17.252,5.953 c 10.162,-12.297 17.66,-25.14 21.608,-37.315 1.146,-3.549 0.104,-7.48 -2.647,-10.006 -2.768,-2.543 -6.786,-3.263 -10.275,-1.805 -24.194,10.145 -45.603,18.979 -62.629,24.264 -0.633,0.2 -1.284,0.113 -1.935,-0.252 -13.572,-7.602 -47.547,-25.062 -71.68,-24.784 -61.032,1.119 -110.696,53.274 -110.696,116.267 v 3.445 C 152.693,149.838 103.029,123.986 49.252,67.571 l -8.4,-8.817 -5.589,10.821 C 6.071,126.043 26.768,176.653 60.881,210.74 45.764,208.423 34.786,203.555 25.544,195.493 c -3.549,-3.072 -8.583,-3.454 -12.54,-0.937 -3.896,2.482 -5.675,7.125 -4.417,11.55 11.481,40.622 42.227,73.98 74.683,93.913 -15.681,-0.017 -28.585,-1.762 -41.559,-10.101 -3.775,-2.43 -8.687,-2.178 -12.21,0.607 -3.497,2.777 -4.842,7.463 -3.35,11.672 15.82,44.431 45.403,67.801 94.425,73.624 -25.201,14.735 -57.899,26.381 -108.952,27.448 -4.981,0.104 -9.39,3.341 -10.986,8.044 -1.596,4.687 -0.138,9.72 3.706,12.809 31.024,25.01 100.612,39.945 186.151,39.945 153.123,0 277.695,-136.253 277.695,-303.729 v -2.942 c 19.812,-9.468 34.929,-28.151 42.921,-53.274 1.163,-3.662 0.165,-7.619 -2.603,-10.318 z"
   id="path9266" />
	</g>
</g>
<g
   id="g9272">
</g>
<g
   id="g9274">
</g>
<g
   id="g9276">
</g>
<g
   id="g9278">
</g>
<g
   id="g9280">
</g>
<g
   id="g9282">
</g>
<g
   id="g9284">
</g>
<g
   id="g9286">
</g>
<g
   id="g9288">
</g>
<g
   id="g9290">
</g>
<g
   id="g9292">
</g>
<g
   id="g9294">
</g>
<g
   id="g9296">
</g>
<g
   id="g9298">
</g>
<g
   id="g9300">
</g>
</svg>
