<?xml version="1.0" encoding="UTF-8" standalone="no"?>
<!-- Generator: Adobe Illustrator 16.0.0, SVG Export Plug-In . SVG Version: 6.00 Build 0)  -->

<svg
   version="1.1"
   id="Capa_1"
   x="0px"
   y="0px"
   width="500"
   height="500"
   viewBox="0 0 499.99999 499.99999"
   xml:space="preserve"
   sodipodi:docname="world-svgrepo-com (1).svg"
   inkscape:version="1.2 (56b05e47e7, 2022-06-09, custom)"
   xmlns:inkscape="http://www.inkscape.org/namespaces/inkscape"
   xmlns:sodipodi="http://sodipodi.sourceforge.net/DTD/sodipodi-0.dtd"
   xmlns="http://www.w3.org/2000/svg"
   xmlns:svg="http://www.w3.org/2000/svg"><defs
   id="defs61" /><sodipodi:namedview
   id="namedview59"
   pagecolor="#505050"
   bordercolor="#ffffff"
   borderopacity="1"
   inkscape:showpageshadow="0"
   inkscape:pageopacity="0"
   inkscape:pagecheckerboard="1"
   inkscape:deskcolor="#505050"
   showgrid="false"
   inkscape:zoom="1.2316035"
   inkscape:cx="23.140563"
   inkscape:cy="284.18236"
   inkscape:window-width="1920"
   inkscape:window-height="962"
   inkscape:window-x="0"
   inkscape:window-y="27"
   inkscape:window-maximized="1"
   inkscape:current-layer="Capa_1" />
<g
   id="g26"
   transform="matrix(15.886155,0,0,15.883626,0.43644803,0.50000279)">
	<g
   id="g24">
		<path
   d="M 28.755,6.968 28.285,7.117 25.782,7.34 25.075,8.469 24.562,8.306 22.57,6.51 22.281,5.576 21.894,4.58 20.642,3.457 19.165,3.168 19.131,3.844 20.578,5.256 21.286,6.09 20.49,6.506 19.842,6.315 18.871,5.91 18.904,5.127 17.63,4.603 l -0.423,1.841 -1.284,0.291 0.127,1.027 1.673,0.322 0.289,-1.641 1.381,0.204 0.642,0.376 h 1.03 l 0.705,1.412 1.869,1.896 -0.137,0.737 -1.507,-0.192 -2.604,1.315 -1.875,2.249 -0.244,0.996 h -0.673 l -1.254,-0.578 -1.218,0.578 0.303,1.285 0.53,-0.611 0.932,-0.029 -0.065,1.154 0.772,0.226 0.771,0.866 1.259,-0.354 1.438,0.227 1.67,0.449 0.834,0.098 1.414,1.605 2.729,1.605 -1.765,3.372 -1.863,0.866 -0.707,1.927 -2.696,1.8 -0.287,1.038 C 26.288,29.3 31.415,23.109 31.415,15.707 31.413,12.474 30.433,9.465 28.755,6.968 Z"
   id="path18" />
		<path
   d="m 17.515,23.917 -1.144,-2.121 1.05,-2.188 -1.05,-0.314 L 15.192,18.11 12.58,17.524 11.713,15.71 v 1.077 H 11.331 L 9.08,13.735 V 11.228 L 7.43,8.545 4.81,9.012 H 3.045 L 2.157,8.43 3.29,7.532 2.16,7.793 c -1.362,2.326 -2.156,5.025 -2.156,7.916 0,8.673 7.031,15.707 15.705,15.707 0.668,0 1.323,-0.059 1.971,-0.137 l -0.164,-1.903 c 0,0 0.721,-2.826 0.721,-2.922 -10e-4,-0.097 -0.722,-2.537 -0.722,-2.537 z"
   id="path20" />
		<path
   d="M 5.84,5.065 8.63,4.676 9.916,3.971 11.363,4.388 13.675,4.26 14.467,3.015 15.622,3.205 18.427,2.942 19.2,2.09 20.29,1.362 21.832,1.594 22.394,1.509 C 20.363,0.553 18.103,0 15.708,0 10.833,0 6.474,2.222 3.596,5.711 H 3.604 Z M 16.372,1.562 17.976,0.679 19.006,1.274 17.515,2.409 16.091,2.552 15.45,2.136 Z m -4.751,0.129 0.708,0.295 0.927,-0.295 0.505,0.875 -2.14,0.562 -1.029,-0.602 c -0.001,0 1.006,-0.648 1.029,-0.835 z"
   id="path22" />
	</g>
</g>
<g
   id="g28">
</g>
<g
   id="g30">
</g>
<g
   id="g32">
</g>
<g
   id="g34">
</g>
<g
   id="g36">
</g>
<g
   id="g38">
</g>
<g
   id="g40">
</g>
<g
   id="g42">
</g>
<g
   id="g44">
</g>
<g
   id="g46">
</g>
<g
   id="g48">
</g>
<g
   id="g50">
</g>
<g
   id="g52">
</g>
<g
   id="g54">
</g>
<g
   id="g56">
</g>
</svg>
