<?xml version="1.0" encoding="UTF-8" standalone="no"?>
<svg
   id="svg"
   version="1.1"
   width="500"
   height="340"
   viewBox="0 0 500 340"
   sodipodi:docname="channels4_profile.svg"
   inkscape:version="1.2.1 (0f2f062aeb, 2022-09-21, custom)"
   xml:space="preserve"
   xmlns:inkscape="http://www.inkscape.org/namespaces/inkscape"
   xmlns:sodipodi="http://sodipodi.sourceforge.net/DTD/sodipodi-0.dtd"
   xmlns="http://www.w3.org/2000/svg"
   xmlns:svg="http://www.w3.org/2000/svg"><defs
     id="defs510" /><sodipodi:namedview
     id="namedview508"
     pagecolor="#505050"
     bordercolor="#ffffff"
     borderopacity="1"
     inkscape:showpageshadow="0"
     inkscape:pageopacity="0"
     inkscape:pagecheckerboard="1"
     inkscape:deskcolor="#505050"
     showgrid="false"
     inkscape:zoom="0.99104167"
     inkscape:cx="84.254782"
     inkscape:cy="217.44797"
     inkscape:window-width="1920"
     inkscape:window-height="1043"
     inkscape:window-x="1920"
     inkscape:window-y="0"
     inkscape:window-maximized="1"
     inkscape:current-layer="svgg"
     showguides="true" /><g
     id="svgg"><g
       id="g6414"
       transform="matrix(0.66770106,0,0,0.66770106,83.074736,3.0747363)"><g
         id="XMLID_834_"
         transform="matrix(1.6096746,0,0,1.6096746,0.49963216,0.500437)">
	<path
   id="XMLID_835_"
   d="m 81.703,165.106 h 33.981 V 305 c 0,2.762 2.238,5 5,5 H 178.3 c 2.762,0 5,-2.238 5,-5 V 165.765 h 39.064 c 2.54,0 4.677,-1.906 4.967,-4.429 l 5.933,-51.502 c 0.163,-1.417 -0.286,-2.836 -1.234,-3.899 -0.949,-1.064 -2.307,-1.673 -3.732,-1.673 H 183.302 V 71.978 c 0,-9.732 5.24,-14.667 15.576,-14.667 1.473,0 29.42,0 29.42,0 2.762,0 5,-2.239 5,-5 V 5.037 c 0,-2.762 -2.238,-5 -5,-5 H 187.753 C 187.467,0.023 186.832,0 185.896,0 178.861,0 154.408,1.381 135.092,19.151 113.69,38.843 116.665,62.421 117.376,66.509 v 37.752 H 81.703 c -2.762,0 -5,2.238 -5,5 v 50.844 c 0,2.762 2.238,5.001 5,5.001 z" />
</g><g
         id="g7263">
</g><g
         id="g7265">
</g><g
         id="g7267">
</g><g
         id="g7269">
</g><g
         id="g7271">
</g><g
         id="g7273">
</g><g
         id="g7275">
</g><g
         id="g7277">
</g><g
         id="g7279">
</g><g
         id="g7281">
</g><g
         id="g7283">
</g><g
         id="g7285">
</g><g
         id="g7287">
</g><g
         id="g7289">
</g><g
         id="g7291">
</g></g></g></svg>
