<?xml version="1.0" encoding="UTF-8" standalone="no"?>
<svg
   id="svg"
   version="1.1"
   width="500"
   height="340"
   viewBox="0 0 500 340"
   sodipodi:docname="fast.svg"
   inkscape:version="1.2.1 (0f2f062aeb, 2022-09-21, custom)"
   xml:space="preserve"
   xmlns:inkscape="http://www.inkscape.org/namespaces/inkscape"
   xmlns:sodipodi="http://sodipodi.sourceforge.net/DTD/sodipodi-0.dtd"
   xmlns="http://www.w3.org/2000/svg"
   xmlns:svg="http://www.w3.org/2000/svg"><defs
     id="defs510"><rect
       x="24.86235"
       y="410.06543"
       width="609.14688"
       height="239.88722"
       id="rect5915" /></defs><sodipodi:namedview
     id="namedview508"
     pagecolor="#505050"
     bordercolor="#ffffff"
     borderopacity="1"
     inkscape:showpageshadow="0"
     inkscape:pageopacity="0"
     inkscape:pagecheckerboard="1"
     inkscape:deskcolor="#505050"
     showgrid="false"
     inkscape:zoom="0.99104167"
     inkscape:cx="84.759302"
     inkscape:cy="217.95249"
     inkscape:window-width="1920"
     inkscape:window-height="958"
     inkscape:window-x="0"
     inkscape:window-y="27"
     inkscape:window-maximized="1"
     inkscape:current-layer="svg"
     showguides="true" /><path
     id="path6801"
     style="font-weight:bold;font-size:200px;line-height:0px;font-family:Ubuntu;-inkscape-font-specification:'Ubuntu Bold';letter-spacing:20px;white-space:pre;shape-inside:url(#rect5915);fill:#000000;stroke:none;stroke-width:49.5416;stroke-linecap:round;stroke-linejoin:bevel"
     d="M 249.98811,5.438932 A 163.5887,163.5887 0 0 0 86.474897,167.80754 h -0.120573 v 18.25928 H 134.51418 V 167.80754 H 111.18401 A 137.60769,137.60769 0 0 1 248.77049,30.569207 137.60769,137.60769 0 0 1 386.37055,167.80754 H 366.11077 A 116.17364,116.17364 0 0 0 251.86804,52.839678 L 250.99855,44.08365 238.0666,156.80817 a 16.444526,16.444526 0 0 0 -4.51048,11.27958 16.444526,16.444526 0 0 0 16.44388,16.44557 16.444526,16.444526 0 0 0 16.44387,-16.44557 16.444526,16.444526 0 0 0 -4.21328,-10.98749 l -5.37997,-54.12909 a 66.200307,66.200307 0 0 1 58.75845,65.37132 66.200307,66.200307 0 0 1 -0.0102,0.15114 h 13.08819 A 78.699241,78.699241 0 0 0 255.6262,90.64717 l -1.96485,-19.767287 a 97.723044,97.723044 0 0 1 93.18819,97.389577 97.723044,97.723044 0 0 1 -0.0136,0.22417 h 18.64817 v 17.57319 h 48.16154 V 167.80754 H 413.5251 A 163.5887,163.5887 0 0 0 249.98811,5.438932 Z m 45.71441,199.576638 c -4.87158,0 -9.24819,0.61932 -13.12894,1.85785 -3.88075,1.15597 -7.18264,2.84831 -9.90743,5.07768 -2.72478,2.22936 -4.83113,4.95504 -6.31738,8.17524 -1.48624,3.13762 -2.22976,6.68623 -2.22976,10.64955 0,3.96332 0.70212,7.3497 2.1058,10.15706 1.40366,2.72477 3.22022,5.07784 5.44958,7.0595 2.22937,1.89909 4.74804,3.50863 7.55539,4.82974 2.80735,1.23853 5.61412,2.35466 8.42148,3.34549 6.44039,2.1468 10.98091,4.16866 13.62313,6.06775 2.64221,1.81652 3.96364,4.12818 3.96364,6.93553 0,1.32111 -0.2053,2.51835 -0.61815,3.59174 -0.41284,1.0734 -1.15636,2.02393 -2.22976,2.84962 -1.0734,0.74312 -2.51734,1.36244 -4.33386,1.85785 -1.73395,0.41285 -3.96451,0.61815 -6.6893,0.61815 -5.44956,0 -10.07288,-0.53651 -13.87106,-1.60991 -3.71562,-1.15597 -6.8536,-2.43431 -9.41324,-3.83798 l -5.44959,15.35701 c 1.15596,0.66055 2.5585,1.36268 4.20989,2.1058 1.73395,0.74312 3.7575,1.44354 6.06944,2.10409 2.39451,0.66055 5.12017,1.19707 8.17524,1.60992 3.05505,0.49541 6.48114,0.74382 10.27932,0.74382 11.31198,0 19.77541,-2.18746 25.39011,-6.56363 5.6147,-4.45873 8.42317,-10.6933 8.42317,-18.7025 0,-4.12847 -0.53821,-7.63736 -1.61161,-10.52728 -1.07339,-2.88992 -2.72434,-5.40858 -4.95371,-7.55539 -2.14679,-2.14679 -4.87247,-4.00473 -8.17523,-5.57355 -3.30277,-1.65139 -7.18258,-3.30234 -11.64131,-4.95372 -2.1468,-0.74312 -4.12895,-1.44524 -5.94547,-2.10579 -1.73396,-0.74312 -3.3021,-1.52805 -4.70577,-2.35374 -1.32111,-0.90825 -2.35274,-1.89849 -3.09586,-2.97188 -0.74312,-1.0734 -1.11573,-2.39483 -1.11573,-3.96365 0,-2.64221 0.99192,-4.58297 2.97359,-5.8215 2.06422,-1.32111 5.40751,-1.98013 10.03139,-1.98013 4.12845,0 7.63734,0.49511 10.52727,1.48595 2.97248,0.90826 5.65676,1.98128 8.05126,3.21982 l 5.57357,-15.23474 c -2.72479,-1.48624 -6.19398,-2.84738 -10.405,-4.08592 -4.21103,-1.23853 -9.20526,-1.85785 -14.98511,-1.85785 z m -209.312534,1.98182 v 85.82979 h 19.320664 v -35.42149 h 33.93555 v -16.2265 H 105.71065 V 223.2205 h 38.14714 v -16.22311 z m 103.046354,0 c -2.88991,5.94498 -5.69839,12.05535 -8.42318,18.3306 -2.64221,6.19269 -5.36618,12.75506 -8.17353,19.69087 -2.72479,6.93581 -5.53326,14.32621 -8.42318,22.17028 -2.88992,7.84407 -5.9451,16.3903 -9.1653,25.63804 h 20.06448 c 0.90827,-2.97249 1.89849,-6.02767 2.97189,-9.1653 1.15597,-3.13762 2.2721,-6.27561 3.34549,-9.41324 h 33.43968 l 3.22152,9.41324 c 1.15597,3.13763 2.1876,6.19281 3.09586,9.1653 h 20.68264 c -3.22021,-9.24774 -6.27369,-17.79397 -9.16361,-25.63804 -2.88992,-7.84407 -5.73979,-15.23447 -8.54715,-22.17028 -2.72478,-6.93581 -5.44875,-13.49818 -8.17353,-19.69087 -2.72478,-6.27525 -5.49186,-12.38562 -8.29921,-18.3306 z m 153.08274,0 v 16.47105 h 25.88429 v 69.35874 h 19.32236 v -69.35874 h 25.88598 v -16.47105 z m -144.28935,19.44464 c 0.49542,1.23853 1.15444,2.93088 1.98012,5.07767 0.82569,2.1468 1.77622,4.62407 2.84962,7.43142 1.15597,2.80734 2.3532,5.90393 3.59174,9.28927 1.23854,3.38534 2.51857,6.93563 3.83967,10.65124 h -24.40003 c 1.3211,-3.71561 2.60113,-7.2659 3.83967,-10.65124 1.32111,-3.38534 2.51835,-6.48193 3.59174,-9.28927 1.0734,-2.80735 2.02393,-5.28462 2.84962,-7.43142 0.82569,-2.14679 1.445,-3.83914 1.85785,-5.07767 z" /></svg>
