<?xml version="1.0" encoding="UTF-8" standalone="no"?>
<svg
   id="svg"
   version="1.1"
   width="500"
   height="340"
   viewBox="0 0 500 340"
   sodipodi:docname="channels4_profile.svg"
   inkscape:version="1.2.1 (0f2f062aeb, 2022-09-21, custom)"
   xml:space="preserve"
   xmlns:inkscape="http://www.inkscape.org/namespaces/inkscape"
   xmlns:sodipodi="http://sodipodi.sourceforge.net/DTD/sodipodi-0.dtd"
   xmlns="http://www.w3.org/2000/svg"
   xmlns:svg="http://www.w3.org/2000/svg"><defs
     id="defs510"><rect
       x="24.86235"
       y="410.06543"
       width="609.14688"
       height="239.88722"
       id="rect5915" /><style
       id="style18">.cls-1,.cls-2,.cls-4{fill:#e61e25;}.cls-1{clip-rule:evenodd;}.cls-3{fill:none;}.cls-4{fill-rule:evenodd;}.cls-5{clip-path:url(#clip-path);}.cls-6{clip-path:url(#clip-path-2);}.cls-7{clip-path:url(#clip-path-3);}</style><clipPath
       id="clip-path"
       transform="translate(-12.5 -100.8)"><polygon
         class="cls-1"
         points="423.52,416.39 427.8,419.24 432.08,422.09 434.94,424.95 437.8,430.67 442.08,434.94 444.93,439.22 449.21,444.94 450.64,452.07 452.07,459.21 453.49,467.76 454.92,476.32 454.92,484.89 453.49,494.89 450.64,504.87 449.21,514.86 443.5,524.85 437.8,536.27 434.94,546.26 426.38,553.39 420.67,564.81 410.68,573.38 402.12,581.94 392.13,589.07 383.56,596.21 372.15,603.35 363.58,607.62 346.45,610.48 335.04,616.2 320.77,617.62 309.35,619.04 297.93,619.04 286.52,619.04 259.4,616.2 225.15,600.49 220.87,596.21 213.73,593.35 209.45,589.07 206.59,581.94 199.46,577.66 195.18,570.52 192.32,563.39 188.04,553.39 185.19,546.26 182.33,536.27 179.48,524.85 179.48,514.86 178.05,503.44 178.05,496.31 178.05,493.45 179.48,487.75 179.48,482.04 180.91,477.76 183.76,472.04 189.47,456.35 189.47,450.64 192.32,449.21 192.32,447.78 192.32,449.21 192.32,450.64 193.75,452.07 193.75,450.64 195.18,450.64 195.18,449.21 195.18,447.78 196.6,444.94 196.6,443.5 196.6,442.08 198.03,439.22 199.46,436.37 216.59,419.24 226.57,410.68 228,409.26 229.43,407.82 229.43,406.4 230.86,404.97 230.86,403.54 230.86,402.12 232.28,400.69 228,399.26 226.57,399.26 226.57,396.41 225.15,396.41 223.72,396.41 222.29,396.41 220.87,394.99 218.01,394.99 230.86,379.28 235.14,376.43 235.14,375 235.14,372.14 238,373.57 242.27,373.57 242.27,375 243.7,375 245.13,376.43 246.55,376.43 249.41,377.86 249.41,379.28 250.84,379.28 255.12,380.71 250.84,372.14 249.41,367.86 249.41,366.44 249.41,365.01 249.41,363.59 249.41,362.16 249.41,360.73 249.41,359.3 249.41,357.87 250.84,356.45 252.27,353.59 257.97,349.31 269.39,337.89 275.1,332.19 279.38,329.33 283.66,325.05 289.37,320.77 293.65,317.91 299.36,315.06 306.5,310.78 310.77,309.35 320.77,305.07 330.76,302.21 342.18,299.36 353.59,296.51 365.01,296.51 377.85,296.51 387.85,296.51 400.69,296.51 406.4,296.51 409.25,299.36 416.39,300.79 420.67,302.21 423.52,302.21 427.8,303.64 432.08,303.64 434.94,306.5 437.8,306.5 437.8,307.92 440.65,307.92 457.78,316.49 477.75,325.05 487.75,327.91 497.73,330.76 506.3,333.61 510.58,333.61 514.86,335.04 531.98,335.04 543.4,336.46 550.54,336.46 556.25,335.04 569.09,335.04 579.08,333.61 594.78,335.04 599.06,335.04 603.34,335.04 606.2,335.04 607.63,336.46 610.48,336.46 613.33,336.46 616.19,337.89 620.47,337.89 617.61,335.04 616.19,332.19 614.76,330.76 611.91,329.33 609.06,327.91 607.63,327.91 603.34,325.05 594.78,322.19 591.93,319.34 587.65,319.34 586.22,317.91 601.92,316.49 606.2,315.06 609.06,315.06 610.48,315.06 611.91,315.06 611.91,313.63 613.33,313.63 614.76,310.78 616.19,309.35 616.19,307.92 617.61,307.92 620.47,306.5 620.47,305.07 621.9,303.64 623.33,303.64 624.75,303.64 626.18,302.21 627.61,302.21 630.46,302.21 631.88,302.21 639.02,303.64 641.88,303.64 643.31,303.64 644.74,303.64 649.01,302.21 650.44,300.79 653.29,299.36 654.72,296.51 660.43,295.08 664.71,292.23 670.42,289.37 674.7,286.51 677.56,285.09 680.41,282.24 683.26,282.24 687.55,280.81 698.96,279.38 706.1,277.96 707.53,276.53 711.81,275.1 714.66,273.67 717.51,272.24 720.37,267.96 723.23,266.54 727.51,263.69 730.36,260.83 734.64,256.55 737.5,252.26 731.79,252.26 727.51,253.69 714.66,259.4 698.96,265.11 688.97,267.96 678.99,270.82 667.56,273.67 654.72,275.1 640.45,275.1 624.75,275.1 609.06,273.67 591.93,267.96 570.52,265.11 549.11,257.97 541.98,253.69 536.27,253.69 529.13,250.83 526.28,249.41 523.43,249.41 524.85,246.56 524.85,243.7 526.28,242.28 526.28,239.42 526.28,237.99 526.28,235.14 524.85,232.28 524.85,229.43 523.43,228.01 522,225.15 520.57,225.15 520.57,223.72 517.71,222.29 516.29,220.87 514.86,219.44 512,218.01 507.73,215.16 503.44,213.73 497.73,210.88 493.45,210.88 489.17,209.45 486.32,208.02 483.46,206.6 477.75,203.74 467.76,200.88 460.63,199.46 457.78,199.46 453.49,196.6 444.93,196.6 436.37,196.6 434.94,195.18 429.23,195.18 430.66,193.75 434.94,192.33 439.22,192.33 443.5,190.9 452.07,189.47 457.78,189.47 463.48,189.47 466.34,189.47 474.9,188.04 492.03,189.47 492.03,188.04 489.17,186.61 487.75,185.19 486.32,182.33 484.89,182.33 483.46,182.33 482.03,182.33 480.61,182.33 479.18,182.33 477.75,182.33 473.48,182.33 463.48,182.33 437.8,182.33 424.95,186.61 420.67,188.04 414.96,189.47 409.25,190.9 403.54,190.9 394.98,192.33 386.42,192.33 386.42,190.9 386.42,189.47 387.85,188.04 389.27,186.61 389.27,185.19 389.27,182.33 387.85,182.33 386.42,182.33 383.56,182.33 372.15,182.33 360.73,182.33 349.31,182.33 337.9,185.19 316.49,189.47 297.93,196.6 280.81,203.74 266.54,209.45 255.12,213.73 249.41,216.58 246.55,216.58 249.41,215.16 250.84,210.88 263.68,206.6 292.22,188.04 322.2,170.92 343.6,160.93 429.23,110.98 430.66,109.55 432.08,109.55 434.94,108.12 434.94,106.7 436.37,106.7 436.37,105.27 436.37,103.84 437.8,100.98 406.4,110.98 379.28,119.54 346.45,129.53 315.06,138.09 300.79,139.52 289.37,143.8 280.81,143.8 277.95,145.23 273.67,143.8 272.25,143.8 267.96,145.23 249.41,152.36 235.14,156.65 228,158.07 226.57,159.5 225.15,159.5 223.72,160.93 222.29,162.35 220.87,163.78 220.87,165.21 218.01,165.21 216.59,166.63 215.16,166.63 213.73,168.06 212.3,168.06 210.87,168.06 209.45,168.06 209.45,166.63 209.45,165.21 208.02,165.21 206.59,165.21 206.59,166.63 203.74,166.63 200.89,168.06 199.46,168.06 198.03,168.06 198.03,170.92 196.6,170.92 196.6,172.34 195.18,172.34 193.75,173.77 192.32,173.77 189.47,175.2 192.32,170.92 193.75,168.06 196.6,166.63 199.46,163.78 210.87,153.79 226.57,142.38 229.43,139.52 230.86,139.52 230.86,138.09 232.28,136.66 235.14,135.24 235.14,133.81 235.14,132.38 232.28,132.38 229.43,132.38 228,132.38 225.15,132.38 223.72,133.81 222.29,135.24 220.87,135.24 218.01,136.66 215.16,138.09 212.3,139.52 206.59,145.23 178.05,163.78 175.19,166.63 170.92,168.06 165.21,173.77 163.78,175.2 159.5,176.63 156.64,178.06 152.37,180.91 149.51,182.33 143.8,185.19 140.94,186.61 136.67,188.04 123.82,196.6 123.82,195.18 125.24,193.75 125.24,192.33 126.67,189.47 128.1,186.61 130.96,182.33 135.24,176.63 138.09,172.34 140.94,168.06 138.09,168.06 136.67,170.92 135.24,170.92 135.24,172.34 132.38,173.77 130.96,175.2 129.53,176.63 129.53,178.06 128.1,179.48 125.24,182.33 123.82,182.33 116.69,188.04 113.83,190.9 110.97,192.33 110.97,193.75 109.55,193.75 109.55,195.18 106.69,202.31 103.84,205.17 103.84,206.6 100.99,209.45 99.56,210.88 98.13,210.88 96.7,213.73 92.42,216.58 88.14,220.87 83.86,225.15 78.15,229.43 71.02,236.56 69.59,239.42 68.16,242.28 65.31,243.7 63.88,246.56 58.17,249.41 52.47,253.69 49.61,256.55 43.9,259.4 42.47,260.83 41.04,262.26 39.62,265.11 38.19,266.54 35.34,273.67 35.34,275.1 35.34,277.96 32.48,279.38 31.06,280.81 29.63,282.24 22.49,289.37 21.06,290.8 18.21,292.23 16.79,293.65 15.36,295.08 13.93,296.51 13.93,300.79 12.5,303.64 12.5,306.5 16.79,306.5 21.06,306.5 29.63,307.92 38.19,307.92 43.9,309.35 49.61,309.35 66.74,307.92 82.43,306.5 95.28,305.07 108.12,300.79 130.96,293.65 150.94,285.09 170.92,277.96 182.33,273.67 195.18,270.82 208.02,267.96 222.29,267.96 239.42,267.96 257.97,267.96 277.95,270.82 287.95,272.24 292.22,272.24 297.93,272.24 297.93,277.96 289.37,277.96 282.23,279.38 273.67,280.81 265.11,282.24 246.55,290.8 228,299.36 208.02,307.92 192.32,316.49 178.05,325.05 166.64,332.19 153.79,343.6 140.94,353.59 129.53,366.44 120.97,379.28 109.55,393.55 100.99,407.82 92.42,423.53 86.72,439.22 82.43,456.35 79.58,470.62 78.15,486.31 78.15,499.17 81.01,513.44 83.86,524.85 88.14,537.7 92.42,550.54 99.56,561.95 106.69,571.95 115.26,581.94 125.24,591.93 135.24,600.49 146.65,607.62 158.07,616.2 169.49,621.89 183.76,629.03 193.75,633.31 203.74,636.17 212.3,639.02 222.29,643.3 230.86,644.74 235.14,646.16 239.42,646.16 240.84,646.16 242.27,646.16 249.41,647.58 263.68,649.02 306.5,649.02 349.31,649.02 360.73,649.02 365.01,649.02 366.44,647.58 367.86,647.58 370.72,647.58 370.72,646.16 372.15,646.16 370.72,647.58 369.29,647.58 367.86,646.16 366.44,646.16 365.01,644.74 363.58,644.74 363.58,643.3 363.58,644.74 363.58,646.16 363.58,644.74 363.58,643.3 379.28,639.02 382.13,639.02 386.42,639.02 387.85,639.02 389.27,637.6 392.13,637.6 392.13,636.17 393.55,634.75 394.98,631.89 403.54,631.89 410.68,630.47 420.67,630.47 426.38,629.03 434.94,624.75 440.65,624.75 449.21,621.89 450.64,620.47 453.49,619.04 457.78,616.2 463.48,614.76 463.48,613.34 464.91,613.34 469.19,610.48 477.75,610.48 482.03,610.48 487.75,607.62 507.73,600.49 531.98,591.93 544.83,587.65 554.82,581.94 559.11,579.08 563.38,576.23 566.24,574.8 567.66,573.38 569.09,571.95 563.38,573.38 553.39,576.23 534.84,581.94 522,586.22 510.58,589.07 497.73,590.5 492.03,591.93 486.32,591.93 487.75,590.5 489.17,590.5 489.17,589.07 494.88,586.22 499.16,584.79 500.59,581.94 502.02,581.94 503.44,580.52 503.44,579.08 506.3,579.08 507.73,576.23 510.58,574.8 512,573.38 514.86,573.38 517.71,571.95 516.29,566.25 516.29,564.81 516.29,563.39 514.86,553.39 520.57,550.54 522,549.12 523.43,549.12 523.43,547.68 524.85,546.26 526.28,539.12 526.28,536.27 527.71,530.57 529.13,527.71 529.13,524.85 530.56,523.43 530.56,521.99 534.84,517.72 536.27,513.44 540.55,509.16 549.11,496.31 591.93,449.21 591.93,447.78 593.36,446.36 594.78,443.5 599.06,439.22 606.2,436.37 637.6,417.81 654.72,406.4 663.28,400.69 668.99,394.99 677.56,387.85 680.41,382.14 681.84,379.28 684.69,375 684.69,372.14 686.12,367.86 684.69,370.72 683.26,370.72 681.84,372.14 681.84,373.57 677.56,377.86 677.56,380.71 671.85,382.14 668.99,387.85 663.28,392.13 653.29,399.26 646.16,403.54 641.88,406.4 637.6,407.82 634.74,409.26 630.46,409.26 626.18,410.68 621.9,410.68 613.33,410.68 591.93,410.68 584.79,410.68 579.08,410.68 567.66,413.54 557.68,413.54 551.97,414.96 546.25,414.96 549.11,410.68 550.54,409.26 551.97,409.26 553.39,409.26 553.39,407.82 554.82,407.82 554.82,406.4 556.25,404.97 557.68,400.69 540.55,404.97 536.27,404.97 531.98,406.4 526.28,406.4 520.57,406.4 512,406.4 506.3,404.97 499.16,403.54 493.45,402.12 489.17,400.69 483.46,396.41 473.48,392.13 463.48,386.41 457.78,382.14 452.07,382.14 444.93,379.28 437.8,377.86 429.23,376.43 420.67,375 380.71,373.57 360.73,373.57 340.75,373.57 320.77,376.43 309.35,377.86 299.36,380.71 289.37,382.14 279.38,387.85 269.39,393.55 259.4,399.26 245.13,409.26 235.14,420.67 225.15,430.67 218.01,442.08 213.73,452.07 210.87,457.77 210.87,463.49 209.45,467.76 209.45,473.48 209.45,479.18 210.87,482.04 210.87,487.75 213.73,492.03 215.16,496.31 216.59,500.59 220.87,504.87 222.29,509.16 225.15,510.58 229.43,514.86 232.28,519.14 236.57,520.57 240.84,523.43 246.55,524.85 250.84,524.85 255.12,527.71 266.54,529.13 272.25,529.13 277.95,529.13 280.81,527.71 282.23,527.71 285.09,527.71 286.52,524.85 289.37,524.85 292.22,524.85 293.65,523.43 295.08,521.99 297.93,520.57 299.36,519.14 300.79,517.72 302.22,516.29 306.5,510.58 309.35,507.72 310.77,504.87 312.2,502.02 312.2,499.17 313.63,496.31 313.63,494.89 313.63,492.03 313.63,489.17 313.63,484.89 312.2,479.18 309.35,474.9 307.92,470.62 306.5,467.76 302.22,463.49 299.36,460.63 295.08,456.35 293.65,453.49 292.22,453.49 287.95,444.94 286.52,439.22 285.09,437.8 283.66,433.51 283.66,430.67 283.66,427.81 283.66,424.95 285.09,422.09 286.52,419.24 287.95,416.39 292.22,413.54 292.22,410.68 295.08,409.26 302.22,404.97 309.35,402.12 317.91,399.26 327.9,396.41 337.9,396.41 349.31,396.41 359.3,396.41 370.72,396.41 382.13,399.26 387.85,400.69 392.13,400.69 394.98,402.12 397.83,402.12 400.69,402.12 403.54,403.54 406.4,404.97 409.25,407.82 416.39,410.68 "
         id="polygon20" /></clipPath><clipPath
       id="clip-path-2"
       transform="translate(-12.5 -100.8)"><rect
         class="cls-2"
         x="13.93"
         y="100.98"
         width="724.98999"
         height="549.46002"
         id="rect23" /></clipPath><clipPath
       id="clip-path-3"
       transform="translate(-12.5 -100.8)"><rect
         class="cls-3"
         x="13.93"
         y="100.99"
         width="725"
         height="549.46002"
         id="rect26" /></clipPath><inkscape:path-effect
       effect="bspline"
       id="path-effect863"
       is_visible="true"
       lpeversion="1"
       weight="33.333333"
       steps="2"
       helper_size="0"
       apply_no_weight="true"
       apply_with_weight="true"
       only_selected="false" /></defs><sodipodi:namedview
     id="namedview508"
     pagecolor="#505050"
     bordercolor="#ffffff"
     borderopacity="1"
     inkscape:showpageshadow="0"
     inkscape:pageopacity="0"
     inkscape:pagecheckerboard="1"
     inkscape:deskcolor="#505050"
     showgrid="false"
     inkscape:zoom="1.1684753"
     inkscape:cx="92.000233"
     inkscape:cy="210.95867"
     inkscape:window-width="1920"
     inkscape:window-height="1043"
     inkscape:window-x="1920"
     inkscape:window-y="0"
     inkscape:window-maximized="1"
     inkscape:current-layer="svg"
     showguides="true" /><path
     id="path4"
     d="m 167.43651,4.2734489 c -4.0254,0.013488 -6.20575,2.9699653 -6.21639,8.5201301 -0.005,2.491504 -6.8e-4,4.984241 0,7.944682 -0.88395,5.064313 1.4634,7.789087 5.5372,8.848957 2.47793,0.644683 7.45761,-5.354336 7.47299,-8.522087 0.0201,-4.152122 0.13217,-8.31566 -0.12919,-12.4523468 -0.0754,-1.1927275 -1.04349,-2.9809981 -2.03559,-3.3587289 -1.73965,-0.6623597 -3.28721,-0.9851016 -4.62902,-0.9806064 z m 53.27968,0.5284714 c -1.06479,-0.01321 -2.37427,0.036609 -3.98506,0.09395 -3.17934,0.1131707 -4.46728,1.2357822 -4.41763,4.4372013 0.11351,7.3184254 0.24934,14.6502024 -0.0685,21.9569984 -0.19018,4.372155 1.08952,7.034593 5.99717,7.680449 1.87399,0.814613 3.36562,1.585341 5.77012,2.828298 0.50035,-2.339991 1.23852,-4.282194 1.27616,-6.237917 0.14405,-7.484007 0.0702,-14.971348 0.0647,-22.458067 -0.005,-6.9975776 -0.0228,-8.2436997 -4.63686,-8.3009127 z m 75.53419,0.00782 c -4.5348,0.072723 -6.94384,0.647608 -6.87795,6.1987707 0.28725,24.1954 0.12096,48.395526 0.1194,73.09541 6e-5,13.017643 -0.0369,25.533519 0.0117,38.049919 0.0387,9.95853 -0.88946,9.02253 9.28348,9.03686 27.8703,0.0393 55.74162,0.015 83.61196,0.0138 9.34574,-4.2e-4 18.69172,0.0433 28.03639,-0.0587 1.57412,-0.0171 4.43468,-0.51435 4.50374,-1.06477 0.46935,-3.74193 0.68542,-7.60533 0.14876,-11.30929 -0.11404,-0.7869 -3.66719,-1.52064 -5.63899,-1.52669 -31.2078,-0.096 -62.41738,-0.0695 -93.62552,-0.0705 -13.30406,-4.4e-4 -13.30319,-5e-5 -13.30377,-13.55235 -6.8e-4,-30.874349 -0.099,-61.750224 0.092,-92.623384 0.0304,-4.9303032 -1.6688,-6.2642394 -6.36124,-6.1889846 z m 103.49228,0.023492 c -1.34954,-0.00773 -2.75615,0.1723065 -4.10837,0.1252673 -2.72688,-0.094863 -3.94439,1.128722 -3.90678,3.8715409 0.0684,4.9981395 0.0919,9.9999185 -0.0138,14.9968365 -0.063,2.977076 1.19243,4.214333 4.16122,4.15535 4.99713,-0.09928 10.01064,-0.225028 14.99488,0.05089 4.24528,0.23501 5.23991,-1.926216 4.86977,-5.474569 -0.33954,-3.255225 1.68005,-8.112243 -4.67013,-7.563011 -4.19598,0.362919 -5.82036,-1.465938 -5.35517,-5.9306194 -1.20411,-1.6509136 -2.20136,-3.4895057 -3.62883,-3.9263467 -0.74321,-0.2274399 -1.53318,-0.3007155 -2.3429,-0.3053374 z m -208.55822,0.025446 c -3.06819,0.045292 -4.1429,1.9936849 -3.95962,5.5450327 0.24878,4.820265 0.10709,9.663554 0.045,14.495769 -0.0424,3.30513 0.62928,5.837356 4.54878,6.521726 1.08822,0.19001 1.95683,1.747381 2.88505,2.716734 1.14355,1.194223 2.24353,2.428827 3.36265,3.646451 0.73662,-1.267321 2.09275,-2.526005 2.10997,-3.803035 0.12137,-8.993134 -0.0325,-17.989454 -0.24858,-27.4119971 -2.53429,-0.8259779 -4.91069,-1.2823246 -7.30465,-1.6128154 -0.52184,-0.072043 -1.0003,-0.1043356 -1.43861,-0.097869 z m 179.95814,0.00782 c -4.02778,-0.035721 -5.61828,1.1928063 -5.5509,5.4021507 0.20276,12.664216 0.25842,25.337972 -0.0274,37.999034 -0.10805,4.785995 1.77533,5.914008 6.14397,5.840586 12.49726,-0.210034 25.0011,-0.05451 37.50188,-0.0783 6.53123,-0.01243 6.53068,-0.04535 6.54716,-6.758559 0.0178,-7.224429 0.0188,-7.226653 -7.0541,-7.259628 -1.50005,-0.007 -2.99988,-0.0014 -4.99503,-0.002 -5.99548,-5.86e-4 -11.49686,0.01142 -16.9972,-0.0059 -6.98177,-0.02194 -6.99866,-0.03085 -7.02084,-6.789876 -0.0218,-6.667034 -0.002,-13.334558 -0.008,-20.001656 -0.008,-8.4468108 -0.0119,-8.2702904 -8.53971,-8.3459306 z m -99.65792,0.013696 c -0.44979,-0.010552 -0.92471,-0.0051 -1.41905,0.00595 -3.69679,0.081905 -6.82097,-0.2704628 -6.72332,5.2553517 0.2979,16.859324 0.12236,33.727918 0.15071,50.592306 6.8e-4,0.458009 0.23617,0.914487 0.41495,1.561929 0.97399,-0.405193 1.84064,-0.76565 2.86549,-1.192001 1.12854,1.903382 2.10142,3.915238 3.42136,5.664429 1.3509,1.790233 3.04293,3.323394 4.59378,4.97742 -4.51785,4.379303 -4.58388,5.074276 -0.3621,6.384709 -0.009,-0.03739 -0.0108,-0.126552 0.008,-0.328823 0.69799,-2.373805 1.91816,-4.340493 1.93185,-6.314257 0.14136,-20.370135 -0.0721,-40.743289 0.19769,-61.110834 0.061,-4.6035456 -1.93067,-5.4222558 -5.07919,-5.4961023 z m 2.94182,73.2500217 c 0.009,0.03739 0.0266,0.02294 0.0392,0.01375 -0.0151,-0.0046 -0.0243,-0.0091 -0.0392,-0.01375 z M 347.14412,4.8841021 c -3.78979,0.021406 -6.70608,-0.090694 -6.63916,5.3356019 0.26126,21.187527 0.19471,42.381643 0.0333,63.571167 -0.0325,4.254042 1.60404,5.429464 5.59592,5.359097 10.67544,-0.188189 21.35496,-0.05948 32.5323,-0.05678 10.64184,0.332608 20.80171,0.429442 30.9234,1.092171 5.45085,0.356895 6.42131,-2.074723 6.24574,-6.760516 -0.27223,-7.262835 -0.0524,-7.330815 -6.04415,-7.343793 -16.68554,-0.03615 -33.37233,-0.175813 -50.05405,0.0783 -4.88909,0.07447 -6.26407,-1.588688 -6.19682,-6.324045 0.23443,-16.515383 -0.10706,-33.039484 0.18595,-49.552979 0.0951,-5.3610099 -2.72635,-5.4200128 -6.5824,-5.398236 z m -228.4718,0.023484 c -0.22139,0.00633 -0.45268,0.018957 -0.69288,0.039143 -7.84419,0.054716 -7.85202,0.053952 -7.86639,7.3907679 -0.0127,6.502339 -0.004,13.006047 -0.004,19.508416 -1.9e-4,5.73841 0,11.477382 0,17.265349 3.0725,-1.218267 5.77884,-1.789464 7.83116,-3.266735 1.62726,-1.171298 2.45265,-3.453807 3.63471,-5.243608 -1.47006,-0.225552 -2.94281,-0.432487 -4.40784,-0.687013 -0.6075,-0.105542 -1.19663,-0.31396 -1.742,-0.461924 0.24864,-4.756588 3.14249,-5.537852 7.69219,-4.652502 0,-8.736263 -0.10119,-16.992889 0.0489,-25.2452649 0.0595,-3.2694031 -1.17312,-4.7415529 -4.49397,-4.6466318 z m 203.1913,0.031317 c -1.0012,-0.00255 -2.00783,0.086835 -3.00249,0.00983 -3.30099,-0.255681 -4.33338,1.3851484 -4.3276,4.4998341 0.0564,30.3724848 0.0532,60.7457258 0,91.1182028 -0.005,3.05454 0.90388,4.59887 4.263,4.59184 30.87304,-0.0647 61.74641,-0.0245 92.61947,-0.0803 1.23967,-0.002 3.49768,-0.54291 3.5525,-1.02759 0.38691,-3.42177 0.7106,-6.962146 0.12723,-10.303223 -0.14713,-0.842459 -3.65417,-1.545613 -5.62137,-1.554095 -25.36571,-0.10927 -50.73393,-0.08167 -76.56569,-0.09981 -5.03707,0.152847 -4.30413,-3.219454 -4.30802,-5.93845 -0.0357,-24.865482 -0.0158,-49.731114 -0.0353,-74.596639 -0.005,-6.5991792 -0.0427,-6.6019918 -6.70179,-6.6195925 z m -181.54746,0.00782 c -5.52224,0.6582547 -6.74794,4.7235922 -4.01443,12.4112759 4.07109,-2.295849 7.91575,-2.392813 10.8043,2.609083 C 150.2341,8.1914504 148.7342,5.0047374 140.31616,4.946755 Z m 104.72929,0.1526687 c -1.82804,0.00812 -3.62313,0.181225 -5.2945,0.6948427 -1.09557,0.3366708 -0.94885,4.7209375 -1.36424,7.2557135 -0.0266,0.162204 -0.004,0.333785 -0.004,0.988437 -1.2e-4,12.127086 -0.0778,23.765526 0.0216,35.403654 0.0974,11.42103 -0.43456,22.880123 1.37793,34.499379 2.10413,-1.63279 4.48295,-4.181558 3.94397,-5.231866 -2.02406,-3.944323 0.43989,-5.777307 2.48772,-8.156071 0.67027,-0.778565 0.96847,-2.100308 0.98453,-3.180604 0.0729,-4.909077 -0.68765,-10.007687 4.55073,-13.19808 0.56902,-0.346561 0.61237,-1.83379 0.61458,-2.793073 0.0328,-14.156312 0.0619,-28.314241 -0.0666,-42.4695091 -0.0112,-1.234669 -1.05668,-3.4627471 -1.75962,-3.5192277 -1.8031,-0.1448742 -3.66414,-0.3016696 -5.49218,-0.2935954 z M 88.367434,5.3108164 c -0.857206,0.029247 -1.709716,0.095454 -2.552322,0.2055171 -0.791451,0.1033815 -1.681936,3.2827163 -1.683273,5.0478795 -0.08059,106.388587 -0.04782,212.778737 -0.152669,319.167247 -0.0046,4.59099 1.455022,5.98778 6.00891,5.98347 106.55556,-0.10145 213.1128,-0.10802 319.66831,0.0117 4.88597,0.005 6.32869,-1.5774 6.23008,-6.32208 -0.0935,-4.49799 -0.58232,-6.97488 -6.17332,-6.91122 -25.04902,0.28502 -50.10416,0.11467 -75.15643,0.13701 -1.55398,6.8e-4 -3.10645,0.23988 -4.66033,0.36797 -0.13237,0.42803 -0.26501,0.85595 -0.39733,1.28399 2.67684,1.81976 5.35374,3.64012 8.24218,5.60374 -7.59021,1.51097 -10.32525,0.051 -11.0881,-6.27119 -2.37075,0 -4.83107,3e-5 -7.2929,0 -71.31546,-2.3e-4 -142.63121,6.8e-4 -213.94667,-0.002 -8.32118,-3.4e-4 -8.329562,-0.0107 -8.330273,-8.52209 -0.0031,-38.41342 -0.0015,-76.82644 -0.0023,-115.74098 0,-49.60351 7.72e-4,-98.70705 0,-147.809488 C 97.080726,37.845057 97.105637,24.15138 97.030087,10.456551 97.021287,8.8645108 96.654157,5.9910426 96.08667,5.8960388 93.555831,5.4723442 90.938681,5.2230919 88.36707,5.3108064 Z M 225.11034,53.352763 c -0.26954,0.0093 -0.61877,0.0443 -0.9356,0.133098 -6.23934,4.616193 -6.66488,6.460694 -3.14929,12.383842 0.31971,0.538657 0.11146,1.395184 0.44039,1.922068 0.4609,0.738272 1.19632,1.305412 1.81442,1.945553 0.6588,-0.801386 1.83615,-1.568804 1.89076,-2.409432 0.30144,-4.641807 0.33013,-9.301289 0.39928,-13.955556 2e-4,-0.01337 -0.19043,-0.02891 -0.45996,-0.01957 z m -111.94586,2.509261 c -1.573,1.908387 -2.96262,2.81114 -3.03773,3.812819 -0.49718,6.630079 -0.92876,13.281069 -0.97669,19.927286 -0.12526,17.367235 -0.0429,34.735211 -0.0431,52.604401 5.8e-4,57.44839 -0.003,114.39675 0.006,171.34408 0.001,6.99263 0.0307,7.02765 6.80358,7.02866 63.46052,0.009 126.92222,0.009 190.38272,-0.0156 1.91168,-6.8e-4 3.82312,-0.29762 6.09505,-0.48737 -0.25776,-4.42071 -0.48171,-8.25565 -0.73013,-12.51697 h -7.45926 c -57.61549,-2.4e-4 -115.22985,6.8e-4 -172.84532,-0.002 -8.20749,-5e-4 -8.22028,-0.0114 -8.22066,-8.12868 -0.003,-72.31158 -0.002,-144.62388 -0.002,-216.935473 -10e-6,-2.314314 0,-4.628705 0,-6.893609 -5.72869,-0.576642 -9.79346,-4.015486 -9.97242,-9.737536 z m 24.16875,0.454091 c -0.19638,0.02086 -0.37283,0.06489 -0.52456,0.135057 -0.71159,0.328977 -1.32284,1.443009 -1.4758,2.28808 -0.26436,1.460437 -0.16431,2.992114 -0.16441,4.493965 -0.005,71.304853 -0.008,142.608553 -0.002,213.913403 6e-4,7.3584 0.0244,7.38 7.46123,7.38097 53.43688,0.007 106.87388,0.005 160.31076,0.006 h 4.48417 c 0,-1.72331 -0.142,-3.18475 0.0235,-4.60945 0.97761,-8.41628 1.00049,-8.41791 -7.65501,-8.41835 -47.9262,-0.002 -95.85123,-6.8e-4 -143.77744,-0.006 -7.80654,-6.8e-4 -7.81851,-0.0157 -7.82138,-8.02492 -0.007,-18.86989 -0.002,-37.73914 -0.002,-57.11012 -9e-5,-46.08942 -3e-4,-91.67715 -0.004,-137.265497 -1.3e-4,-1.836529 0.0829,-3.685674 -0.09,-5.50785 -0.24736,-2.609078 -7.81725,-7.587834 -10.76289,-7.275288 z m 137.0639,21.888497 c 0,0 0.0438,-0.0428 -0.17029,0.217258 -2.08633,0.905773 -3.91978,1.91877 -5.83862,2.119759 -3.99445,0.418395 -5.8773,2.43613 -4.86585,6.243787 1.17793,4.43439 0.067,8.710556 0.008,13.066939 -0.22432,16.525405 -0.1036,33.055885 -0.0861,49.584295 0.007,6.78394 0.0369,6.81364 7.01496,6.81533 42.4063,0.0103 84.81239,0.006 127.21869,0.004 4.6746,-2.2e-4 9.35036,-0.0721 14.02406,-0.0117 2.63345,0.0341 3.84912,-0.93201 4.07705,-3.75019 0.71178,-8.79901 0.3879,-9.26106 -8.60233,-9.26195 -41.40458,-0.004 -82.81032,-0.0759 -124.21422,0.0901 -4.93357,0.0197 -6.68856,-1.26169 -6.60589,-6.43756 0.2879,-18.02639 0.1571,-36.06204 0.0156,-54.091961 -0.012,-1.534381 -1.28652,-3.058851 -1.97491,-4.587917 z m -113.12808,4.274745 c -0.35083,0.05153 -0.70217,0.103082 -1.05302,0.154624 0,1.732223 -1e-5,3.464418 0,5.196629 3.8e-4,54.91197 -0.002,109.82426 0.008,164.73622 0.002,6.871 0.0331,6.90185 6.92102,6.9034 44.23,0.01 88.46074,0.006 133.16495,0.004 6.30228,-0.29071 6.89252,-1.10569 6.91711,-9.97831 0.0127,-4.61329 -3.51726,-4.03269 -6.47085,-4.034 -39.22282,-0.0173 -78.4462,0.002 -117.66899,-0.0254 -9.68135,-0.007 -8.82024,0.76505 -8.82939,-8.99381 -0.0324,-34.54942 0.0242,-69.09787 -0.0979,-103.6469 -0.008,-2.29771 -0.49998,-5.33767 -1.9847,-6.76639 -9.56412,-9.20346 -11.55466,-17.51078 -6.18702,-29.314592 1.36861,-3.00965 1.64085,-5.624459 -0.60481,-8.332231 -1.52578,-1.839728 -2.75312,-3.926934 -4.11425,-5.903206 z m 88.62463,21.084043 c -0.61552,6.8e-4 -1.46109,0.46601 -2.59734,1.56976 -1.38789,1.36591 -3.72091,2.72398 -3.5388,3.45071 1.23766,4.93906 -1.88567,7.65606 -4.64076,10.70448 -0.48886,0.5409 -0.64263,1.54817 -0.64592,2.34094 -0.0444,10.68646 -0.0828,21.37334 0.0353,32.05863 0.0122,1.10809 0.96114,3.1093 1.60694,3.16495 5.69855,0.49115 3.97603,4.47008 4.10642,7.79593 0.0603,1.53846 0.63762,3.39984 1.64999,4.49593 3.30798,3.58147 10.13859,4.79308 14.28831,-0.38755 -0.71265,-0.15573 -1.34316,-0.42645 -1.96318,-0.40712 -7.04211,0.21934 -6.7683,-0.41431 -6.77813,-7.09914 -0.0179,-12.19006 -6.8e-4,-24.38013 -0.008,-36.5702 -0.003,-6.01139 0.0412,-12.02494 -0.0685,-18.03458 -0.0328,-1.79257 -0.4206,-3.08412 -1.44645,-3.08274 z m -24.74616,23.51893 c -2.76317,0.3997 -4.85205,1.0181 -6.91319,0.93363 -4.0663,-0.1667 -5.85304,1.70524 -5.87776,5.58417 -0.0245,3.83496 0.16229,7.68191 -0.0704,11.50307 -0.19521,3.20507 1.10953,5.0187 4.3452,6.04219 2.00684,-0.7116 4.26881,-1.21367 5.41391,-2.62279 5.28852,-6.50789 2.9642,-14.06161 3.10232,-21.44027 z m -37.56843,10.63009 c -0.59147,0.34105 -1.18185,0.68263 -1.77331,1.02367 l 3.55837,10.43828 c 0.11741,0.29678 0.23491,0.59382 0.35232,0.89058 -0.12007,-0.2939 -0.25714,-0.5682 -0.52065,-0.69288 -0.27349,0.32742 -0.38469,0.46429 -0.36014,0.69679 -0.1179,-0.0257 -0.1853,-0.0319 -0.34057,-0.0725 -1.0611,1.48459 -2.13766,3.15615 -2.1452,4.83258 -0.10877,24.20402 0.0157,48.41054 -0.15267,72.6139 -0.0312,4.48635 1.27395,6.08239 5.93454,6.06175 35.88875,-0.15878 71.77775,-0.0795 107.6672,-0.10764 1.6734,-6.8e-4 3.34718,-0.32305 5.02047,-0.4952 0.12753,-0.52237 0.25413,-1.04348 0.38167,-1.56584 -2.49888,-1.42843 -5.0299,-2.80167 -7.48472,-4.30215 -2.09263,-1.27911 -4.55399,-2.33369 -6.03632,-4.15143 -2.39399,-2.93572 -5.15808,-3.55964 -8.69628,-3.54468 -25.03869,0.10584 -50.07813,0.06 -75.11728,0.0509 -7.546,-0.003 -7.5572,-0.0194 -7.56106,-7.7744 -0.008,-17.02664 0.0615,-34.05376 -0.0489,-51.07968 -0.0284,-4.36277 1.77756,-9.57322 -4.26887,-11.91604 -0.41243,-0.15979 -0.36075,-1.27635 -0.75552,-1.75962 -2.51468,-3.07831 -5.09503,-6.10352 -7.65304,-9.14646 z m 25.80897,17.80948 c -0.34862,1.02731 -0.69797,2.05435 -1.05107,3.48791 -0.002,14.7432 -0.005,29.07996 0.0117,43.41685 0.003,2.3623 -0.17225,4.76176 3.35482,4.91282 4.63888,0.19868 9.26377,0.93471 13.8988,0.9767 14.66914,0.13286 29.33963,0.065 44.0099,0.0294 1.70683,-0.004 3.41404,-0.2959 5.12225,-0.45409 -1.24959,-3.21588 -3.00676,-5.76508 -3.07491,-8.35964 -0.11292,-4.29986 -1.88728,-5.29879 -5.79166,-5.24947 -13.00111,0.1642 -26.00613,-0.0567 -39.00705,0.11547 -4.01254,0.0531 -5.74505,-1.14802 -5.5646,-5.38257 0.26238,-6.15687 -0.10798,-12.33849 0.11548,-18.49844 0.16634,-4.58564 0.2082,-8.60001 -5.78382,-9.51445 -1.22231,-0.18656 -2.07633,-2.35218 -3.24913,-3.44485 -0.87247,-0.81288 -1.98461,-1.36617 -2.99075,-2.0356 z m 196.77331,12.65396 c -13.99285,0.34309 -28.00039,0.11011 -42.50278,0.10764 -14.50242,2.7e-4 -28.50339,-0.003 -42.50474,0.004 -1.33241,6.5e-4 -2.7215,-0.15742 -3.97528,0.17224 -0.72352,0.19025 -1.49565,1.13017 -1.72634,1.89076 -0.12865,0.42412 0.68998,1.52429 1.28007,1.7185 5.59718,1.84228 11.24351,3.53599 16.86215,5.31408 2.20634,0.69825 4.36365,1.55206 6.57261,2.24112 2.00566,0.62561 4.04837,1.59469 6.07939,1.60693 20.0012,0.12046 40.0047,-0.0873 60.003,0.18202 5.16113,0.0695 5.59605,-2.3812 5.58614,-6.41014 -0.01,-4.07984 -0.10823,-6.96353 -5.67422,-6.82707 z m -145.41178,0.65765 c 3.88855,3.02524 7.07615,4.35953 11.24469,2.42313 1.06024,-0.72917 1.76391,-1.37891 2.89681,-2.42313 z m -26.34722,1.9201 c 0,2.3891 0.0967,4.71726 -0.0235,7.03259 -0.16075,3.0958 0.97396,4.57486 4.28845,4.53898 10.49362,-0.11357 20.9907,-0.03 31.48514,-0.092 0.87514,-0.005 1.74553,-0.52945 3.95767,-1.24681 -2.65513,-1.50832 -4.27145,-2.39932 -5.86017,-3.33719 -1.70846,-1.00857 -3.28297,-2.35344 -5.11051,-3.02011 -2.16285,-0.78897 -4.53725,-1.40502 -6.81337,-1.38577 -3.46862,0.0293 -6.93172,0.66983 -10.80233,1.01191 -3.90291,-1.16823 -7.40108,-2.29959 -11.12139,-3.50161 z m 172.82965,24.55435 c -7.49741,0.21724 -15.00504,0.0371 -22.50896,0.0332 -7.23903,-0.004 -14.47917,0 -21.71821,0 -0.0455,0.39531 -0.0915,0.79081 -0.13701,1.18611 4.60124,0.99857 9.20378,1.99767 14.16303,3.15126 6.41835,5.5755 12.71701,10.23686 21.64971,8.76088 2.76057,-0.45614 5.66983,-0.2608 8.48881,-0.0528 5.03437,0.37139 4.6798,-3.02164 4.57225,-6.24966 -0.10512,-3.15243 1.0532,-6.99025 -4.50962,-6.82902 z m -12.19007,25.09652 c -4.34184,0.003 -8.68323,0.0623 -13.02389,0.13895 -1.04639,0.0184 -2.74125,0.99122 -2.99075,1.85357 -0.95048,3.28511 -1.43085,6.70682 -2.27242,11.02547 3.63675,0 6.58815,-1e-5 10.02726,0 7.16734,-0.008 13.84998,-0.10229 20.52816,0.0137 3.17914,0.0552 4.66887,-1.14897 4.44503,-4.3961 -0.11457,-1.6625 0.43507,-3.54175 -0.1742,-4.95196 -0.62646,-1.45 -2.26518,-3.44086 -3.51923,-3.48401 -4.33674,-0.14915 -8.67812,-0.20261 -13.01996,-0.19964 z m -25.04171,25.04365 c -12.59372,1.5e-4 -12.59661,3.8e-4 -13.93011,12.10591 -0.0328,0.29729 0.18926,0.62232 0.61851,1.92402 14.59904,0 29.53856,1.3e-4 44.96898,0 9.76718,-0.0301 11.17463,-2.45894 8.19131,-14.02993 -13.19216,0 -26.52089,-1.8e-4 -39.84869,0 z m 37.39227,26.01253 c -0.35218,-0.006 -0.73669,0.0105 -1.15481,0.0489 -23.36081,-0.003 -46.28702,-0.002 -69.56051,-0.002 2.32097,5.52321 1.52636,7.05928 -3.17474,8.94094 -1.73609,0.6949 -3.15639,2.17866 -4.721,3.30197 l 0.81228,1.78318 c 2.11746,0 4.23398,-3e-5 6.35143,0 21.69407,2.1e-4 43.38816,6.8e-4 65.08222,0 10.20499,-6.1e-4 10.07498,-6.8e-4 9.80607,-10.10945 -0.0732,-2.75114 -0.97565,-3.92014 -3.44094,-3.96354 z m -30.82357,26.09473 c -9.89843,-0.005 -19.86036,0.005 -29.94669,0.004 -6.33576,0.01 -12.17161,0.088 -18.00522,0.0117 -5.85498,-0.0765 -4.12189,4.86224 -4.584,7.64912 -0.41806,2.52123 0.55598,5.43372 4.72101,5.41194 26.17251,-0.13707 52.34596,-0.0545 78.51908,-0.10764 1.25234,-0.003 3.53091,-0.46249 3.59164,-0.93363 0.43854,-3.40223 0.76097,-6.90675 0.31513,-10.27193 -0.10498,-0.79267 -3.27663,-1.66657 -5.04201,-1.6774 -9.83547,-0.0604 -19.67049,-0.0811 -29.56894,-0.0861 z"
     style="stroke-width:1.00214" /></svg>
