<?xml version="1.0" encoding="UTF-8" standalone="no"?>
<svg
   version="1.0"
   width="500pt"
   height="340pt"
   viewBox="0 0 500 340"
   preserveAspectRatio="xMidYMid"
   id="svg1577"
   sodipodi:docname="phone.svg"
   inkscape:version="1.2.1 (0f2f062aeb, 2022-09-21, custom)"
   xmlns:inkscape="http://www.inkscape.org/namespaces/inkscape"
   xmlns:sodipodi="http://sodipodi.sourceforge.net/DTD/sodipodi-0.dtd"
   xmlns="http://www.w3.org/2000/svg"
   xmlns:svg="http://www.w3.org/2000/svg">
  <defs
     id="defs1581" />
  <sodipodi:namedview
     id="namedview1579"
     pagecolor="#505050"
     bordercolor="#ffffff"
     borderopacity="1"
     inkscape:showpageshadow="0"
     inkscape:pageopacity="0"
     inkscape:pagecheckerboard="1"
     inkscape:deskcolor="#505050"
     inkscape:document-units="pt"
     showgrid="false"
     inkscape:zoom="1.1557617"
     inkscape:cx="340.90072"
     inkscape:cy="210.25095"
     inkscape:window-width="1920"
     inkscape:window-height="958"
     inkscape:window-x="0"
     inkscape:window-y="27"
     inkscape:window-maximized="1"
     inkscape:current-layer="svg1577" />
  <g
     transform="matrix(0.10307754,0,0,-0.10307754,-13.998268,433.72752)"
     fill="#000000"
     stroke="none"
     id="g1575">
    <path
       d="m 1538,4027 c -75,-28 -136,-74 -250,-185 -148,-144 -160,-170 -166,-334 -7,-200 53,-415 194,-698 220,-440 591,-883 1019,-1217 524,-410 1087,-608 1330,-468 22,13 93,77 158,143 89,91 124,136 147,184 73,154 17,301 -173,454 -170,138 -304,200 -409,191 -78,-7 -142,-44 -250,-146 -81,-77 -93,-84 -136,-88 -123,-12 -298,105 -593,397 -184,183 -325,346 -419,486 -79,118 -112,198 -114,271 l -1,52 102,104 c 152,154 178,225 133,368 -23,75 -85,179 -176,296 -64,81 -134,143 -204,178 -45,23 -145,29 -192,12 z"
       id="path1567" />
    <path
       d="m 2500,3725 v -65 h 59 c 79,0 219,-25 316,-57 434,-142 747,-545 772,-995 l 6,-108 h 65 65 l -6,108 c -8,121 -33,242 -72,352 -137,379 -468,682 -855,784 -98,26 -232,46 -307,46 h -43 z"
       id="path1569" />
    <path
       d="m 2500,3388 v -65 l 80,-6 c 208,-16 372,-97 522,-256 121,-128 191,-289 205,-468 l 6,-83 h 63 64 v 44 c 0,142 -62,338 -149,472 -161,246 -409,395 -703,419 l -88,7 z"
       id="path1571" />
    <path
       d="m 2510,3037 v -63 l 52,-3 c 111,-5 240,-74 308,-166 61,-81 80,-128 95,-237 l 6,-48 h 60 59 v 48 c 0,119 -68,269 -166,366 -97,98 -249,166 -368,166 h -46 z"
       id="path1573" />
  </g>
</svg>
