<?xml version="1.0" encoding="UTF-8" standalone="no"?>
<svg
   version="1.0"
   width="500pt"
   height="500pt"
   viewBox="0 0 500 500"
   preserveAspectRatio="xMidYMid"
   id="svg3407"
   sodipodi:docname="chip.svg"
   inkscape:version="1.2.1 (2ed6d7ae0b, 2022-08-22, custom)"
   xmlns:inkscape="http://www.inkscape.org/namespaces/inkscape"
   xmlns:sodipodi="http://sodipodi.sourceforge.net/DTD/sodipodi-0.dtd"
   xmlns="http://www.w3.org/2000/svg"
   xmlns:svg="http://www.w3.org/2000/svg">
  <defs
     id="defs3411" />
  <sodipodi:namedview
     id="namedview3409"
     pagecolor="#505050"
     bordercolor="#ffffff"
     borderopacity="1"
     inkscape:showpageshadow="0"
     inkscape:pageopacity="0"
     inkscape:pagecheckerboard="1"
     inkscape:deskcolor="#505050"
     inkscape:document-units="pt"
     showgrid="false"
     inkscape:zoom="0.53253859"
     inkscape:cx="507.94441"
     inkscape:cy="290.11982"
     inkscape:window-width="1920"
     inkscape:window-height="1043"
     inkscape:window-x="1920"
     inkscape:window-y="0"
     inkscape:window-maximized="1"
     inkscape:current-layer="svg3407" />
  <g
     transform="matrix(0.12922994,0,0,-0.12922994,-79.600962,468.3986)"
     fill="#000000"
     stroke="none"
     id="g3405">
    <path
       d="m 990,3286 c -61,-16 -112,-49 -154,-98 -60,-70 -66,-103 -66,-370 v -238 h 445 445 v 360 360 l -312,-1 c -214,0 -327,-4 -358,-13 z"
       id="path3383" />
    <path
       d="m 1775,3288 c -3,-7 -4,-170 -3,-362 l 3,-348 57,-18 c 141,-44 259,-166 286,-297 l 8,-38 h 424 424 l 8,38 c 11,52 52,131 93,176 50,55 108,92 184,118 l 66,22 v 358 358 l -773,3 c -615,2 -774,0 -777,-10 z"
       id="path3385" />
    <path
       d="m 3440,2941 v -361 h 445 445 v 238 c 0,272 -6,302 -71,376 -22,25 -65,57 -97,73 l -57,28 -332,3 -333,3 z"
       id="path3387" />
    <path
       d="m 770,2111 v -361 h 626 626 l -4,248 c -3,245 -3,247 -30,297 -34,64 -90,118 -153,147 -50,23 -52,23 -557,26 l -508,3 z"
       id="path3389" />
    <path
       d="m 3329,2460 c -89,-15 -172,-78 -217,-164 -27,-51 -27,-52 -30,-298 l -4,-248 h 626 626 v 360 360 l -477,-1 c -263,-1 -499,-5 -524,-9 z"
       id="path3391" />
    <path
       d="m 2130,1690 v -420 h 420 420 v 420 420 h -420 -420 z"
       id="path3393" />
    <path
       d="M 770,1275 V 920 l 38,-1 c 20,0 249,-1 509,-1 447,1 474,2 516,20 61,27 123,86 155,146 27,51 27,52 30,299 l 4,247 H 1396 770 Z"
       id="path3395" />
    <path
       d="m 3082,1383 c 3,-247 3,-248 30,-299 32,-60 94,-119 155,-146 41,-18 72,-19 553,-21 l 510,-2 v 358 357 h -626 -626 z"
       id="path3397" />
    <path
       d="m 2127,1153 c -4,-3 -7,-12 -7,-19 0,-32 -45,-128 -80,-173 -51,-64 -119,-111 -200,-137 l -65,-21 V 444 85 h 775 775 v 359 359 l -65,21 c -138,45 -251,164 -278,293 l -8,38 -420,3 c -231,1 -424,-1 -427,-5 z"
       id="path3399" />
    <path
       d="m 770,562 c 0,-272 6,-302 71,-376 22,-25 65,-57 97,-73 l 57,-28 333,-3 332,-3 V 439 800 H 1215 770 Z"
       id="path3401" />
    <path
       d="M 3440,439 V 79 l 333,3 c 314,3 334,4 378,24 63,29 120,83 149,141 24,47 25,55 28,301 l 3,252 h -446 -445 z"
       id="path3403" />
  </g>
</svg>
