<?xml version="1.0" encoding="UTF-8" standalone="no"?>
<svg
   version="1.0"
   width="500pt"
   height="500pt"
   viewBox="0 0 500 500"
   preserveAspectRatio="xMidYMid"
   id="svg3412"
   sodipodi:docname="fast.svg"
   inkscape:version="1.2 (56b05e47e7, 2022-06-09, custom)"
   xmlns:inkscape="http://www.inkscape.org/namespaces/inkscape"
   xmlns:sodipodi="http://sodipodi.sourceforge.net/DTD/sodipodi-0.dtd"
   xmlns="http://www.w3.org/2000/svg"
   xmlns:svg="http://www.w3.org/2000/svg">
  <sodipodi:namedview
     id="namedview22"
     pagecolor="#505050"
     bordercolor="#ffffff"
     borderopacity="1"
     inkscape:showpageshadow="0"
     inkscape:pageopacity="0"
     inkscape:pagecheckerboard="1"
     inkscape:deskcolor="#505050"
     inkscape:document-units="pt"
     showgrid="false"
     inkscape:zoom="0.49287"
     inkscape:cx="-327.67261"
     inkscape:cy="298.25309"
     inkscape:window-width="1920"
     inkscape:window-height="962"
     inkscape:window-x="0"
     inkscape:window-y="27"
     inkscape:window-maximized="1"
     inkscape:current-layer="svg3412" />
  <defs
     id="defs3416" />
  <path
     id="path21806"
     style="display:inline;fill:#000000;fill-opacity:1;stroke:none;stroke-width:2.25;stroke-linecap:round;stroke-linejoin:bevel"
     d="M 249.98245,36.08521 A 238.03442,238.03442 0 0 0 12.058131,272.34546 h -0.174317 v 26.56933 H 81.95901 V 272.34546 H 48.012721 A 200.23001,200.23001 0 0 1 248.20999,72.65356 200.23001,200.23001 0 0 1 448.42923,272.34546 H 418.94925 A 169.04177,169.04177 0 0 0 251.9512,104.98266 v 25.91895 a 142.19471,142.19471 0 0 1 138.97266,142.11621 142.19471,142.19471 0 0 1 -0.0191,0.32666 h 27.13477 v 25.57031 h 70.07666 v -26.56933 h -0.17432 A 238.03442,238.03442 0 0 0 249.98245,36.08521 Z m 1.96875,123.27245 v 17.521 a 96.326645,96.326645 0 0 1 93.51416,96.24464 96.326645,96.326645 0 0 1 -0.0132,0.22119 h 19.04443 A 114.51358,114.51358 0 0 0 251.9512,159.35766 Z" />
  <path
     id="path22108"
     style="fill:#b60000;fill-opacity:1;stroke:none;stroke-width:1.95409;stroke-linecap:round;stroke-linejoin:bevel"
     d="M 251.68237,76.11206 229.8811,266.14917 a 27.723021,27.723021 0 0 0 -7.604,19.01514 27.723021,27.723021 0 0 0 27.72363,27.72363 27.723021,27.723021 0 0 0 27.72217,-27.72363 27.723021,27.723021 0 0 0 -7.10303,-18.52442 z" />
</svg>
