<?xml version="1.0" encoding="UTF-8" standalone="no"?>
<svg
   version="1.0"
   width="500pt"
   height="500pt"
   viewBox="0 0 500 500"
   preserveAspectRatio="xMidYMid"
   id="svg3412"
   sodipodi:docname="fast.svg"
   inkscape:version="1.2.1 (2ed6d7ae0b, 2022-08-22, custom)"
   xmlns:inkscape="http://www.inkscape.org/namespaces/inkscape"
   xmlns:sodipodi="http://sodipodi.sourceforge.net/DTD/sodipodi-0.dtd"
   xmlns="http://www.w3.org/2000/svg"
   xmlns:svg="http://www.w3.org/2000/svg">
  <sodipodi:namedview
     id="namedview22"
     pagecolor="#505050"
     bordercolor="#ffffff"
     borderopacity="1"
     inkscape:showpageshadow="0"
     inkscape:pageopacity="0"
     inkscape:pagecheckerboard="1"
     inkscape:deskcolor="#505050"
     inkscape:document-units="pt"
     showgrid="false"
     inkscape:zoom="0.532511"
     inkscape:cx="-99.52846"
     inkscape:cy="445.06123"
     inkscape:window-width="1920"
     inkscape:window-height="962"
     inkscape:window-x="0"
     inkscape:window-y="27"
     inkscape:window-maximized="1"
     inkscape:current-layer="g6817" />
  <defs
     id="defs3416">
    <rect
       x="24.86235"
       y="410.06543"
       width="609.14688"
       height="239.88722"
       id="rect5915" />
  </defs>
  <g
     id="g6817"
     transform="translate(0,-0.93372814)">
    <path
       id="path6801"
       style="font-size:200px;line-height:0px;letter-spacing:20px;white-space:pre;shape-inside:url(#rect5915);fill:#000000;stroke:none;stroke-width:80;stroke-linecap:round;stroke-linejoin:bevel;font-weight:bold;font-family:Ubuntu;-inkscape-font-specification:'Ubuntu Bold'"
       d="M 378.86262 329.76466 C 370.99596 329.76466 363.92929 330.7656 357.66262 332.7656 C 351.39596 334.63226 346.06305 337.36534 341.66306 340.96534 C 337.26306 344.56533 333.86215 348.96555 331.46215 354.16555 C 329.06215 359.23221 327.86298 364.96485 327.86298 371.36484 C 327.86298 377.76484 328.99553 383.23099 331.2622 387.76432 C 333.52886 392.16431 336.46343 395.96495 340.06342 399.16495 C 343.66342 402.23161 347.72891 404.83145 352.26224 406.96478 C 356.79557 408.96477 361.32903 410.76516 365.86236 412.36516 C 376.26235 415.83182 383.59551 419.09787 387.86218 422.16453 C 392.12884 425.09786 394.26233 428.83187 394.26233 433.3652 C 394.26233 435.49853 393.92922 437.43216 393.26256 439.16549 C 392.59589 440.89882 391.39672 442.4311 389.66339 443.76443 C 387.93006 444.96443 385.5967 445.96537 382.66337 446.76537 C 379.86338 447.43204 376.2626 447.76514 371.86261 447.76514 C 363.06262 447.76514 355.59621 446.89744 349.46289 445.16411 C 343.46289 443.29745 338.39646 441.2322 334.26313 438.96554 L 325.46191 463.76471 C 327.32857 464.83137 329.5953 465.96555 332.26197 467.16555 C 335.06197 468.36555 338.32963 469.4981 342.06296 470.56477 C 345.92963 471.63143 350.32985 472.4975 355.26318 473.16417 C 360.19651 473.96417 365.72928 474.36552 371.86261 474.36552 C 390.12926 474.36552 403.79627 470.83137 412.86292 463.76471 C 421.92958 456.56471 426.46305 446.49848 426.46305 433.56516 C 426.46305 426.8985 425.59535 421.23085 423.86202 416.56419 C 422.12869 411.89753 419.46223 407.83204 415.86223 404.36537 C 412.39557 400.89871 407.99535 397.89753 402.66202 395.36419 C 397.32869 392.69753 391.06309 390.03107 383.8631 387.36441 C 380.39643 386.16441 377.19539 385.03186 374.26206 383.96519 C 371.46206 382.76519 368.92884 381.49777 366.66218 380.16444 C 364.52885 378.69778 362.86333 377.09888 361.66333 375.36555 C 360.46333 373.63222 359.86212 371.49873 359.86212 368.96539 C 359.86212 364.69873 361.46264 361.5643 364.66264 359.56431 C 367.99597 357.43098 373.3955 356.36504 380.86216 356.36504 C 387.52882 356.36504 393.19646 357.16449 397.86313 358.76449 C 402.66312 360.23116 406.99672 361.96492 410.86338 363.96492 L 419.86294 339.36408 C 415.46294 336.96408 409.86192 334.7656 403.06193 332.7656 C 396.26194 330.7656 388.19595 329.76466 378.86262 329.76466 z M 40.864014 332.96555 L 40.864014 471.56454 L 72.063336 471.56454 L 72.063336 414.3647 L 126.86373 414.3647 L 126.86373 388.16423 L 72.063336 388.16423 L 72.063336 359.1644 L 133.66379 359.1644 L 133.66379 332.96555 L 40.864014 332.96555 z M 207.2631 332.96555 C 202.59644 342.56554 198.06298 352.43192 193.66298 362.56524 C 189.39632 372.56523 184.9961 383.16444 180.46277 394.36443 C 176.06277 405.56441 171.52931 417.49766 166.86265 430.16431 C 162.19599 442.83097 157.2628 456.63122 152.0628 471.56454 L 184.46347 471.56454 C 185.93014 466.76454 187.52904 461.83135 189.26237 456.76469 C 191.12903 451.69803 192.92942 446.6316 194.66275 441.56494 L 248.66333 441.56494 L 253.86376 456.76469 C 255.73042 461.83135 257.39594 466.76454 258.86261 471.56454 L 292.26305 471.56454 C 287.06305 456.63122 282.12986 442.83097 277.4632 430.16431 C 272.79654 417.49766 268.19646 405.56441 263.66313 394.36443 C 259.26313 383.16444 254.86291 372.56523 250.46291 362.56524 C 246.06292 352.43192 241.59608 342.56554 237.06275 332.96555 L 207.2631 332.96555 z M 454.4631 332.96555 L 454.4631 359.56431 L 496.26161 359.56431 L 496.26161 471.56454 L 527.46256 471.56454 L 527.46256 359.56431 L 569.26269 359.56431 L 569.26269 332.96555 L 454.4631 332.96555 z M 221.46309 364.36483 C 222.26309 366.36483 223.32902 369.0979 224.66235 372.56457 C 225.99568 376.03123 227.52959 380.03173 229.26292 384.56506 C 231.12958 389.09838 233.06321 394.09819 235.06321 399.56485 C 237.06321 405.03152 239.13008 410.76415 241.26341 416.76415 L 201.86272 416.76415 C 203.99605 410.76415 206.06292 405.03152 208.06292 399.56485 C 210.19625 394.09819 212.12988 389.09838 213.86321 384.56506 C 215.59654 380.03173 217.13045 376.03123 218.46378 372.56457 C 219.79711 369.0979 220.79642 366.36483 221.46309 364.36483 z "
       transform="matrix(0.9010863,0,0,0.9010863,-24.887922,33.838574)" />
    <path
       id="path21806"
       style="display:inline;fill:#b60000;fill-opacity:1;stroke:none;stroke-width:2.25;stroke-linecap:round;stroke-linejoin:bevel"
       d="M 249.98245,40.58521 A 238.03442,238.03442 0 0 0 12.058127,276.84546 H 11.88381 v 26.56933 H 81.959006 V 276.84546 H 48.012717 A 200.23001,200.23001 0 0 1 248.20999,77.15356 200.23001,200.23001 0 0 1 448.42923,276.84546 H 418.94925 A 169.04177,169.04177 0 0 0 251.9512,109.48266 v 25.91895 a 142.19471,142.19471 0 0 1 138.97266,142.11621 142.19471,142.19471 0 0 1 -0.0191,0.32666 h 27.13477 v 25.57031 h 70.07666 v -26.56933 h -0.17432 A 238.03442,238.03442 0 0 0 249.98245,40.58521 Z m 1.96875,123.27245 v 17.521 a 96.326645,96.326645 0 0 1 93.51416,96.24464 96.326645,96.326645 0 0 1 -0.0132,0.22119 h 19.04443 A 114.51358,114.51358 0 0 0 251.9512,163.85766 Z" />
    <path
       id="path22108"
       style="fill:#000000;fill-opacity:1;stroke:none;stroke-width:1.95409;stroke-linecap:round;stroke-linejoin:bevel"
       d="M 251.68237,80.61206 229.8811,270.64917 a 27.723021,27.723021 0 0 0 -7.604,19.01514 27.723021,27.723021 0 0 0 27.72363,27.72363 27.723021,27.723021 0 0 0 27.72217,-27.72363 27.723021,27.723021 0 0 0 -7.10303,-18.52442 z" />
  </g>
</svg>
