<?xml version="1.0" encoding="UTF-8" standalone="no"?>
<svg
   version="1.0"
   width="500pt"
   height="500pt"
   viewBox="0 0 500 500"
   preserveAspectRatio="xMidYMid"
   id="svg40"
   xmlns="http://www.w3.org/2000/svg"
   xmlns:svg="http://www.w3.org/2000/svg">
  <defs
     id="defs44" />
  <path
     id="path18"
     d="m 31.736068,8.7780266 c -2.605174,0 -4.958176,0.4570483 -7.060598,1.3711464 -4.844711,2.102424 -8.958156,6.581592 -10.969168,11.974766 -1.736783,4.661887 -1.829087,7.129729 -1.829087,49.086749 0,49.178382 -0.274401,46.892652 6.215683,46.069962 3.107928,-0.45704 101.374282,-50.549578 107.407312,-54.845826 2.92511,-2.102423 3.38197,-6.21471 0.73111,-8.865583 C 123.76325,51.101179 46.064537,11.885958 40.30573,10.149173 37.197802,9.2350749 34.341243,8.7780266 31.736068,8.7780266 Z M 142.6797,63.431043 c -1.63966,0.07284 -2.60025,0.787249 -3.65147,1.838461 -1.00551,1.005507 -1.91979,2.468327 -2.01119,3.016786 0,0.639868 -0.18175,24.588623 -0.27316,53.29125 -0.27423,56.49116 -0.27467,56.49085 4.57004,57.67918 3.93061,1.0055 8.86668,-1.09631 38.75764,-16.27031 66.54622,-33.82157 70.38504,-36.10712 70.38504,-41.40887 0,-5.02753 -5.21032,-8.22682 -53.84023,-33.27305 C 158.63565,68.765679 147.59869,63.212519 142.6797,63.431043 Z m 127.59023,63.368627 c -1.94245,-0.19424 -3.72414,-0.0569 -5.00389,0.4459 -0.63987,0.27422 -1.73785,1.64429 -2.46913,3.01544 -1.18832,2.28524 -1.37115,10.60447 -1.37115,55.30378 v 52.6512 l 2.28569,2.19465 c 3.6564,3.74779 6.7648,3.01668 22.85288,-4.84455 20.47577,-10.14647 70.84193,-36.1072 79.34302,-41.04333 6.76432,-3.93061 9.78147,-7.2211 9.78147,-10.69466 0,-3.83921 -6.30776,-7.58766 -50.27579,-30.34866 -24.86342,-12.88875 -46.98399,-24.22312 -49.17782,-25.13723 -1.9196,-0.82269 -4.02282,-1.34829 -5.96528,-1.54254 z m -251.262488,2.54814 c -3.656386,0 -4.570399,0.36475 -5.850134,2.28434 -1.279735,2.01102 -1.462824,7.9535 -1.645643,55.66934 -0.09141,52.19489 -0.09149,53.38247 1.736696,55.39349 1.553964,1.73679 2.560458,1.91987 6.948122,1.64563 4.479072,-0.36562 9.780877,-2.74203 46.618961,-21.66382 57.313836,-29.52532 58.410276,-30.16522 58.410276,-35.6498 0,-4.47907 -6.03352,-8.31857 -46.162354,-29.06857 C 19.190053,127.06197 23.943563,129.34781 19.007442,129.34781 Z m 372.505798,63.14635 c -1.78249,-0.0114 -2.59321,0.77208 -3.39306,1.93755 -1.27973,1.82819 -1.4622,8.68335 -1.4622,56.03354 0,59.96472 -0.18389,58.04474 5.75775,58.04474 3.10793,0 3.65644,-0.27399 56.21699,-27.14843 35.46693,-18.19052 40.40327,-21.93816 40.40327,-30.89631 0,-8.13546 -5.48381,-12.79755 -29.34172,-25.32067 -48.74419,-25.43473 -62.83356,-32.61614 -68.18103,-32.65042 z m -246.81699,0.83957 c -4.02201,0 -5.02734,0.36643 -6.21567,2.19463 -1.27974,1.8282 -1.46282,8.95847 -1.64564,55.12034 -0.18282,60.78741 -0.54854,57.86129 7.22127,57.86129 3.65639,0 8.86704,-2.37658 40.03773,-18.19045 63.34688,-32.1762 66.36266,-34.00344 66.36266,-39.67084 0,-5.30176 -0.18199,-5.39375 -65.35706,-38.94108 -32.90747,-17.00219 -36.01561,-18.37389 -40.40329,-18.37389 z M 19.796119,255.76639 c -1.976734,-0.25137 -3.713432,-0.13587 -4.993168,0.36689 -3.199337,1.27973 -3.290572,3.56415 -3.47339,57.13019 -0.18282,50.09248 -0.09213,52.83501 1.55325,55.48587 1.371145,2.28526 2.286049,2.83335 4.936929,2.83335 1.736782,0 4.935413,-0.73057 7.037835,-1.55325 4.113435,-1.55397 62.799217,-31.53636 83.457795,-42.50552 17.27642,-9.14096 20.29224,-13.34645 13.89356,-19.37948 -2.74229,-2.55948 -84.736824,-45.79565 -95.980208,-50.54896 -2.239538,-0.9598 -4.45587,-1.57771 -6.432603,-1.82909 z m 250.222071,2.65124 c -4.66188,-0.36563 -4.9355,-0.27387 -6.67228,2.65124 -1.8282,3.01651 -1.92015,4.29559 -1.92015,55.02794 0,51.92067 0.18275,54.66428 3.10785,56.58387 0.54846,0.36565 2.92582,0.7311 5.30247,0.7311 3.6564,0 7.7703,-1.82857 31.07975,-13.6204 46.61892,-23.76651 66.91149,-34.55341 70.38505,-37.56994 6.03305,-5.02752 5.39299,-9.50617 -2.01119,-14.16806 -1.9196,-1.18832 -24.04086,-12.7971 -48.9957,-25.77727 -38.94051,-20.11012 -46.16237,-23.49284 -50.2758,-23.85848 z m -125.68748,62.89061 c -3.7478,0 -4.66243,0.36573 -6.03358,2.37675 -1.37114,2.19382 -1.55423,7.03778 -1.64565,55.39349 -0.18281,50.91516 -0.0908,53.01755 1.55461,55.21139 1.46254,1.73678 2.55928,2.19463 6.21567,2.19463 4.84471,0 0.82311,1.91886 65.72395,-31.35425 22.85242,-11.79185 33.5472,-17.73287 36.3809,-20.38375 8.31828,-7.86123 6.03283,-9.87272 -32.17641,-29.70861 -65.72353,-34.00438 -65.08337,-33.72965 -70.01949,-33.72965 z M 15.750971,382.65497 c -1.428277,0.12568 -2.502075,0.76547 -3.324762,1.90809 -1.279735,1.8282 -1.462199,7.49599 -1.462199,43.78561 0,38.57487 0.09132,42.23112 1.736697,47.35007 3.564975,11.60902 10.054188,16.17943 21.480392,15.44814 6.307265,-0.45704 7.67935,-1.09684 47.076904,-20.93274 22.395357,-11.33478 41.865377,-21.7555 43.602177,-23.30947 3.9306,-3.65639 3.93024,-6.03286 0.091,-8.95797 -2.92511,-2.19384 -97.076246,-51.28105 -103.749149,-54.11475 -2.239536,-0.9141 -4.022833,-1.30267 -5.451108,-1.17698 z"
     style="stroke-width:0.0914098" />
</svg>
