<?xml version="1.0" encoding="UTF-8" standalone="no"?>
<svg
   id="svg"
   version="1.1"
   width="500"
   height="340"
   viewBox="0 0 500 340"
   sodipodi:docname="channels4_profile.svg"
   inkscape:version="1.2.1 (0f2f062aeb, 2022-09-21, custom)"
   xml:space="preserve"
   xmlns:inkscape="http://www.inkscape.org/namespaces/inkscape"
   xmlns:sodipodi="http://sodipodi.sourceforge.net/DTD/sodipodi-0.dtd"
   xmlns="http://www.w3.org/2000/svg"
   xmlns:svg="http://www.w3.org/2000/svg"><defs
     id="defs510" /><sodipodi:namedview
     id="namedview508"
     pagecolor="#505050"
     bordercolor="#ffffff"
     borderopacity="1"
     inkscape:showpageshadow="0"
     inkscape:pageopacity="0"
     inkscape:pagecheckerboard="1"
     inkscape:deskcolor="#505050"
     showgrid="false"
     inkscape:zoom="0.96106944"
     inkscape:cx="94.165933"
     inkscape:cy="222.14836"
     inkscape:window-width="1920"
     inkscape:window-height="1043"
     inkscape:window-x="1920"
     inkscape:window-y="0"
     inkscape:window-maximized="1"
     inkscape:current-layer="svgg"
     showguides="true" /><g
     id="svgg"><path
       id="path0"
       style="fill:#000000;fill-opacity:1;stroke-width:1.00205"
       d="M 286.81904,4.0016527 C 274.9248,4.5527772 258.18948,7.1431749 248.53981,9.9258362 237.41513,13.13438 231.21557,15.506483 221.60598,20.2281 c -6.09142,2.993106 -14.67726,7.939263 -18.39884,10.601688 -0.90485,0.646326 -2.52778,1.793629 -3.60697,2.548167 -13.84923,9.685746 -27.57359,24.705043 -38.85657,42.518341 -22.13712,34.951254 -32.23662,92.725124 -24.01185,137.364114 1.51609,8.22476 5.31016,21.99267 7.37637,26.76943 0.19037,0.4409 0.64794,1.61289 1.01769,2.60491 0.36876,0.99202 0.91007,2.34479 1.20167,3.00613 0.2916,0.66135 0.85856,2.01411 1.26038,3.00614 5.45012,13.43639 17.55181,31.82313 28.59935,43.45382 5.23396,5.51058 13.5489,12.43765 19.16211,16.40261 l -0.0333,0.086 c 0.53134,0.36342 1.0636,0.6936 1.59504,1.04902 0.44934,0.29862 0.90489,0.61704 1.29365,0.8533 3.23204,2.12194 6.46597,4.10233 9.69948,5.93594 -0.0956,0.56853 0.19648,0.72326 0.74173,0.41295 3.21341,1.80074 6.4251,3.4731 9.63684,5.00041 1.40432,0.90699 6.03078,2.94676 7.78348,3.43671 45.73745,18.7332 90.92306,11.10584 131.40464,-7.70517 0.53457,-0.18067 1.15638,-0.4414 1.91212,-0.82199 l 2.71256,-1.36607 0.24856,-2.80646 c 0.13527,-1.54316 0.42258,-8.39635 0.638,-15.23028 0.21544,-6.83393 0.57312,-17.65601 0.79655,-24.04904 0.85073,-24.34461 1.20536,-34.87931 1.59115,-47.29761 0.21944,-7.05438 0.50292,-14.04364 0.63019,-15.53168 0.28056,-3.26566 0.38288,-3.24887 -4.09625,-0.65759 -5.97017,3.45405 -10.6762,5.71097 -20.77478,9.96563 -1.61329,0.6794 -4.46477,1.70442 -8.48997,3.05115 -43.53573,14.56569 -79.49285,2.58534 -86.47908,-28.81266 -6.93214,-31.15449 6.45887,-60.86475 33.58214,-74.50153 18.91756,-9.51137 46.64036,-12.82295 68.21333,-8.14943 2.41792,0.52407 4.50317,0.82746 4.63444,0.67717 0.13128,-0.15131 0.55178,-4.06214 0.93355,-8.69156 1.26759,-15.333266 1.78826,-21.548956 2.60492,-31.063343 0.44592,-5.180575 1.08423,-12.754843 1.41891,-16.833157 0.33469,-4.078314 0.78465,-9.308593 1.00008,-11.623306 0.36675,-3.951058 0.57035,-6.325707 1.62049,-18.839213 0.23048,-2.7556 0.51684,-5.946284 0.63608,-7.09062 0.2525,-2.418928 0.42526,-2.275649 -5.65413,-4.675555 C 345.28862,9.3315622 334.50341,6.6929545 323.09216,5.385299 321.10812,5.1588324 317.79847,4.7821226 315.73927,4.5476506 312.11088,4.1348111 292.09975,3.7561104 286.81897,4.0016084 Z" /></g></svg>
