<?xml version="1.0" encoding="UTF-8" standalone="no"?>
<svg
   id="svg"
   version="1.1"
   width="500"
   height="340"
   viewBox="0 0 500 340"
   sodipodi:docname="channels4_profile.svg"
   inkscape:version="1.2.1 (0f2f062aeb, 2022-09-21, custom)"
   xml:space="preserve"
   xmlns:inkscape="http://www.inkscape.org/namespaces/inkscape"
   xmlns:sodipodi="http://sodipodi.sourceforge.net/DTD/sodipodi-0.dtd"
   xmlns="http://www.w3.org/2000/svg"
   xmlns:svg="http://www.w3.org/2000/svg"><defs
     id="defs510"><rect
       x="24.86235"
       y="410.06543"
       width="609.14688"
       height="239.88722"
       id="rect5915" /><style
       id="style18">.cls-1,.cls-2,.cls-4{fill:#e61e25;}.cls-1{clip-rule:evenodd;}.cls-3{fill:none;}.cls-4{fill-rule:evenodd;}.cls-5{clip-path:url(#clip-path);}.cls-6{clip-path:url(#clip-path-2);}.cls-7{clip-path:url(#clip-path-3);}</style><clipPath
       id="clip-path"
       transform="translate(-12.5 -100.8)"><polygon
         class="cls-1"
         points="423.52,416.39 427.8,419.24 432.08,422.09 434.94,424.95 437.8,430.67 442.08,434.94 444.93,439.22 449.21,444.94 450.64,452.07 452.07,459.21 453.49,467.76 454.92,476.32 454.92,484.89 453.49,494.89 450.64,504.87 449.21,514.86 443.5,524.85 437.8,536.27 434.94,546.26 426.38,553.39 420.67,564.81 410.68,573.38 402.12,581.94 392.13,589.07 383.56,596.21 372.15,603.35 363.58,607.62 346.45,610.48 335.04,616.2 320.77,617.62 309.35,619.04 297.93,619.04 286.52,619.04 259.4,616.2 225.15,600.49 220.87,596.21 213.73,593.35 209.45,589.07 206.59,581.94 199.46,577.66 195.18,570.52 192.32,563.39 188.04,553.39 185.19,546.26 182.33,536.27 179.48,524.85 179.48,514.86 178.05,503.44 178.05,496.31 178.05,493.45 179.48,487.75 179.48,482.04 180.91,477.76 183.76,472.04 189.47,456.35 189.47,450.64 192.32,449.21 192.32,447.78 192.32,449.21 192.32,450.64 193.75,452.07 193.75,450.64 195.18,450.64 195.18,449.21 195.18,447.78 196.6,444.94 196.6,443.5 196.6,442.08 198.03,439.22 199.46,436.37 216.59,419.24 226.57,410.68 228,409.26 229.43,407.82 229.43,406.4 230.86,404.97 230.86,403.54 230.86,402.12 232.28,400.69 228,399.26 226.57,399.26 226.57,396.41 225.15,396.41 223.72,396.41 222.29,396.41 220.87,394.99 218.01,394.99 230.86,379.28 235.14,376.43 235.14,375 235.14,372.14 238,373.57 242.27,373.57 242.27,375 243.7,375 245.13,376.43 246.55,376.43 249.41,377.86 249.41,379.28 250.84,379.28 255.12,380.71 250.84,372.14 249.41,367.86 249.41,366.44 249.41,365.01 249.41,363.59 249.41,362.16 249.41,360.73 249.41,359.3 249.41,357.87 250.84,356.45 252.27,353.59 257.97,349.31 269.39,337.89 275.1,332.19 279.38,329.33 283.66,325.05 289.37,320.77 293.65,317.91 299.36,315.06 306.5,310.78 310.77,309.35 320.77,305.07 330.76,302.21 342.18,299.36 353.59,296.51 365.01,296.51 377.85,296.51 387.85,296.51 400.69,296.51 406.4,296.51 409.25,299.36 416.39,300.79 420.67,302.21 423.52,302.21 427.8,303.64 432.08,303.64 434.94,306.5 437.8,306.5 437.8,307.92 440.65,307.92 457.78,316.49 477.75,325.05 487.75,327.91 497.73,330.76 506.3,333.61 510.58,333.61 514.86,335.04 531.98,335.04 543.4,336.46 550.54,336.46 556.25,335.04 569.09,335.04 579.08,333.61 594.78,335.04 599.06,335.04 603.34,335.04 606.2,335.04 607.63,336.46 610.48,336.46 613.33,336.46 616.19,337.89 620.47,337.89 617.61,335.04 616.19,332.19 614.76,330.76 611.91,329.33 609.06,327.91 607.63,327.91 603.34,325.05 594.78,322.19 591.93,319.34 587.65,319.34 586.22,317.91 601.92,316.49 606.2,315.06 609.06,315.06 610.48,315.06 611.91,315.06 611.91,313.63 613.33,313.63 614.76,310.78 616.19,309.35 616.19,307.92 617.61,307.92 620.47,306.5 620.47,305.07 621.9,303.64 623.33,303.64 624.75,303.64 626.18,302.21 627.61,302.21 630.46,302.21 631.88,302.21 639.02,303.64 641.88,303.64 643.31,303.64 644.74,303.64 649.01,302.21 650.44,300.79 653.29,299.36 654.72,296.51 660.43,295.08 664.71,292.23 670.42,289.37 674.7,286.51 677.56,285.09 680.41,282.24 683.26,282.24 687.55,280.81 698.96,279.38 706.1,277.96 707.53,276.53 711.81,275.1 714.66,273.67 717.51,272.24 720.37,267.96 723.23,266.54 727.51,263.69 730.36,260.83 734.64,256.55 737.5,252.26 731.79,252.26 727.51,253.69 714.66,259.4 698.96,265.11 688.97,267.96 678.99,270.82 667.56,273.67 654.72,275.1 640.45,275.1 624.75,275.1 609.06,273.67 591.93,267.96 570.52,265.11 549.11,257.97 541.98,253.69 536.27,253.69 529.13,250.83 526.28,249.41 523.43,249.41 524.85,246.56 524.85,243.7 526.28,242.28 526.28,239.42 526.28,237.99 526.28,235.14 524.85,232.28 524.85,229.43 523.43,228.01 522,225.15 520.57,225.15 520.57,223.72 517.71,222.29 516.29,220.87 514.86,219.44 512,218.01 507.73,215.16 503.44,213.73 497.73,210.88 493.45,210.88 489.17,209.45 486.32,208.02 483.46,206.6 477.75,203.74 467.76,200.88 460.63,199.46 457.78,199.46 453.49,196.6 444.93,196.6 436.37,196.6 434.94,195.18 429.23,195.18 430.66,193.75 434.94,192.33 439.22,192.33 443.5,190.9 452.07,189.47 457.78,189.47 463.48,189.47 466.34,189.47 474.9,188.04 492.03,189.47 492.03,188.04 489.17,186.61 487.75,185.19 486.32,182.33 484.89,182.33 483.46,182.33 482.03,182.33 480.61,182.33 479.18,182.33 477.75,182.33 473.48,182.33 463.48,182.33 437.8,182.33 424.95,186.61 420.67,188.04 414.96,189.47 409.25,190.9 403.54,190.9 394.98,192.33 386.42,192.33 386.42,190.9 386.42,189.47 387.85,188.04 389.27,186.61 389.27,185.19 389.27,182.33 387.85,182.33 386.42,182.33 383.56,182.33 372.15,182.33 360.73,182.33 349.31,182.33 337.9,185.19 316.49,189.47 297.93,196.6 280.81,203.74 266.54,209.45 255.12,213.73 249.41,216.58 246.55,216.58 249.41,215.16 250.84,210.88 263.68,206.6 292.22,188.04 322.2,170.92 343.6,160.93 429.23,110.98 430.66,109.55 432.08,109.55 434.94,108.12 434.94,106.7 436.37,106.7 436.37,105.27 436.37,103.84 437.8,100.98 406.4,110.98 379.28,119.54 346.45,129.53 315.06,138.09 300.79,139.52 289.37,143.8 280.81,143.8 277.95,145.23 273.67,143.8 272.25,143.8 267.96,145.23 249.41,152.36 235.14,156.65 228,158.07 226.57,159.5 225.15,159.5 223.72,160.93 222.29,162.35 220.87,163.78 220.87,165.21 218.01,165.21 216.59,166.63 215.16,166.63 213.73,168.06 212.3,168.06 210.87,168.06 209.45,168.06 209.45,166.63 209.45,165.21 208.02,165.21 206.59,165.21 206.59,166.63 203.74,166.63 200.89,168.06 199.46,168.06 198.03,168.06 198.03,170.92 196.6,170.92 196.6,172.34 195.18,172.34 193.75,173.77 192.32,173.77 189.47,175.2 192.32,170.92 193.75,168.06 196.6,166.63 199.46,163.78 210.87,153.79 226.57,142.38 229.43,139.52 230.86,139.52 230.86,138.09 232.28,136.66 235.14,135.24 235.14,133.81 235.14,132.38 232.28,132.38 229.43,132.38 228,132.38 225.15,132.38 223.72,133.81 222.29,135.24 220.87,135.24 218.01,136.66 215.16,138.09 212.3,139.52 206.59,145.23 178.05,163.78 175.19,166.63 170.92,168.06 165.21,173.77 163.78,175.2 159.5,176.63 156.64,178.06 152.37,180.91 149.51,182.33 143.8,185.19 140.94,186.61 136.67,188.04 123.82,196.6 123.82,195.18 125.24,193.75 125.24,192.33 126.67,189.47 128.1,186.61 130.96,182.33 135.24,176.63 138.09,172.34 140.94,168.06 138.09,168.06 136.67,170.92 135.24,170.92 135.24,172.34 132.38,173.77 130.96,175.2 129.53,176.63 129.53,178.06 128.1,179.48 125.24,182.33 123.82,182.33 116.69,188.04 113.83,190.9 110.97,192.33 110.97,193.75 109.55,193.75 109.55,195.18 106.69,202.31 103.84,205.17 103.84,206.6 100.99,209.45 99.56,210.88 98.13,210.88 96.7,213.73 92.42,216.58 88.14,220.87 83.86,225.15 78.15,229.43 71.02,236.56 69.59,239.42 68.16,242.28 65.31,243.7 63.88,246.56 58.17,249.41 52.47,253.69 49.61,256.55 43.9,259.4 42.47,260.83 41.04,262.26 39.62,265.11 38.19,266.54 35.34,273.67 35.34,275.1 35.34,277.96 32.48,279.38 31.06,280.81 29.63,282.24 22.49,289.37 21.06,290.8 18.21,292.23 16.79,293.65 15.36,295.08 13.93,296.51 13.93,300.79 12.5,303.64 12.5,306.5 16.79,306.5 21.06,306.5 29.63,307.92 38.19,307.92 43.9,309.35 49.61,309.35 66.74,307.92 82.43,306.5 95.28,305.07 108.12,300.79 130.96,293.65 150.94,285.09 170.92,277.96 182.33,273.67 195.18,270.82 208.02,267.96 222.29,267.96 239.42,267.96 257.97,267.96 277.95,270.82 287.95,272.24 292.22,272.24 297.93,272.24 297.93,277.96 289.37,277.96 282.23,279.38 273.67,280.81 265.11,282.24 246.55,290.8 228,299.36 208.02,307.92 192.32,316.49 178.05,325.05 166.64,332.19 153.79,343.6 140.94,353.59 129.53,366.44 120.97,379.28 109.55,393.55 100.99,407.82 92.42,423.53 86.72,439.22 82.43,456.35 79.58,470.62 78.15,486.31 78.15,499.17 81.01,513.44 83.86,524.85 88.14,537.7 92.42,550.54 99.56,561.95 106.69,571.95 115.26,581.94 125.24,591.93 135.24,600.49 146.65,607.62 158.07,616.2 169.49,621.89 183.76,629.03 193.75,633.31 203.74,636.17 212.3,639.02 222.29,643.3 230.86,644.74 235.14,646.16 239.42,646.16 240.84,646.16 242.27,646.16 249.41,647.58 263.68,649.02 306.5,649.02 349.31,649.02 360.73,649.02 365.01,649.02 366.44,647.58 367.86,647.58 370.72,647.58 370.72,646.16 372.15,646.16 370.72,647.58 369.29,647.58 367.86,646.16 366.44,646.16 365.01,644.74 363.58,644.74 363.58,643.3 363.58,644.74 363.58,646.16 363.58,644.74 363.58,643.3 379.28,639.02 382.13,639.02 386.42,639.02 387.85,639.02 389.27,637.6 392.13,637.6 392.13,636.17 393.55,634.75 394.98,631.89 403.54,631.89 410.68,630.47 420.67,630.47 426.38,629.03 434.94,624.75 440.65,624.75 449.21,621.89 450.64,620.47 453.49,619.04 457.78,616.2 463.48,614.76 463.48,613.34 464.91,613.34 469.19,610.48 477.75,610.48 482.03,610.48 487.75,607.62 507.73,600.49 531.98,591.93 544.83,587.65 554.82,581.94 559.11,579.08 563.38,576.23 566.24,574.8 567.66,573.38 569.09,571.95 563.38,573.38 553.39,576.23 534.84,581.94 522,586.22 510.58,589.07 497.73,590.5 492.03,591.93 486.32,591.93 487.75,590.5 489.17,590.5 489.17,589.07 494.88,586.22 499.16,584.79 500.59,581.94 502.02,581.94 503.44,580.52 503.44,579.08 506.3,579.08 507.73,576.23 510.58,574.8 512,573.38 514.86,573.38 517.71,571.95 516.29,566.25 516.29,564.81 516.29,563.39 514.86,553.39 520.57,550.54 522,549.12 523.43,549.12 523.43,547.68 524.85,546.26 526.28,539.12 526.28,536.27 527.71,530.57 529.13,527.71 529.13,524.85 530.56,523.43 530.56,521.99 534.84,517.72 536.27,513.44 540.55,509.16 549.11,496.31 591.93,449.21 591.93,447.78 593.36,446.36 594.78,443.5 599.06,439.22 606.2,436.37 637.6,417.81 654.72,406.4 663.28,400.69 668.99,394.99 677.56,387.85 680.41,382.14 681.84,379.28 684.69,375 684.69,372.14 686.12,367.86 684.69,370.72 683.26,370.72 681.84,372.14 681.84,373.57 677.56,377.86 677.56,380.71 671.85,382.14 668.99,387.85 663.28,392.13 653.29,399.26 646.16,403.54 641.88,406.4 637.6,407.82 634.74,409.26 630.46,409.26 626.18,410.68 621.9,410.68 613.33,410.68 591.93,410.68 584.79,410.68 579.08,410.68 567.66,413.54 557.68,413.54 551.97,414.96 546.25,414.96 549.11,410.68 550.54,409.26 551.97,409.26 553.39,409.26 553.39,407.82 554.82,407.82 554.82,406.4 556.25,404.97 557.68,400.69 540.55,404.97 536.27,404.97 531.98,406.4 526.28,406.4 520.57,406.4 512,406.4 506.3,404.97 499.16,403.54 493.45,402.12 489.17,400.69 483.46,396.41 473.48,392.13 463.48,386.41 457.78,382.14 452.07,382.14 444.93,379.28 437.8,377.86 429.23,376.43 420.67,375 380.71,373.57 360.73,373.57 340.75,373.57 320.77,376.43 309.35,377.86 299.36,380.71 289.37,382.14 279.38,387.85 269.39,393.55 259.4,399.26 245.13,409.26 235.14,420.67 225.15,430.67 218.01,442.08 213.73,452.07 210.87,457.77 210.87,463.49 209.45,467.76 209.45,473.48 209.45,479.18 210.87,482.04 210.87,487.75 213.73,492.03 215.16,496.31 216.59,500.59 220.87,504.87 222.29,509.16 225.15,510.58 229.43,514.86 232.28,519.14 236.57,520.57 240.84,523.43 246.55,524.85 250.84,524.85 255.12,527.71 266.54,529.13 272.25,529.13 277.95,529.13 280.81,527.71 282.23,527.71 285.09,527.71 286.52,524.85 289.37,524.85 292.22,524.85 293.65,523.43 295.08,521.99 297.93,520.57 299.36,519.14 300.79,517.72 302.22,516.29 306.5,510.58 309.35,507.72 310.77,504.87 312.2,502.02 312.2,499.17 313.63,496.31 313.63,494.89 313.63,492.03 313.63,489.17 313.63,484.89 312.2,479.18 309.35,474.9 307.92,470.62 306.5,467.76 302.22,463.49 299.36,460.63 295.08,456.35 293.65,453.49 292.22,453.49 287.95,444.94 286.52,439.22 285.09,437.8 283.66,433.51 283.66,430.67 283.66,427.81 283.66,424.95 285.09,422.09 286.52,419.24 287.95,416.39 292.22,413.54 292.22,410.68 295.08,409.26 302.22,404.97 309.35,402.12 317.91,399.26 327.9,396.41 337.9,396.41 349.31,396.41 359.3,396.41 370.72,396.41 382.13,399.26 387.85,400.69 392.13,400.69 394.98,402.12 397.83,402.12 400.69,402.12 403.54,403.54 406.4,404.97 409.25,407.82 416.39,410.68 "
         id="polygon20" /></clipPath><clipPath
       id="clip-path-2"
       transform="translate(-12.5 -100.8)"><rect
         class="cls-2"
         x="13.93"
         y="100.98"
         width="724.98999"
         height="549.46002"
         id="rect23" /></clipPath><clipPath
       id="clip-path-3"
       transform="translate(-12.5 -100.8)"><rect
         class="cls-3"
         x="13.93"
         y="100.99"
         width="725"
         height="549.46002"
         id="rect26" /></clipPath><inkscape:path-effect
       effect="bspline"
       id="path-effect863"
       is_visible="true"
       lpeversion="1"
       weight="33.333333"
       steps="2"
       helper_size="0"
       apply_no_weight="true"
       apply_with_weight="true"
       only_selected="false" /></defs><sodipodi:namedview
     id="namedview508"
     pagecolor="#505050"
     bordercolor="#ffffff"
     borderopacity="1"
     inkscape:showpageshadow="0"
     inkscape:pageopacity="0"
     inkscape:pagecheckerboard="1"
     inkscape:deskcolor="#505050"
     showgrid="false"
     inkscape:zoom="0.56815704"
     inkscape:cx="-284.2524"
     inkscape:cy="454.97984"
     inkscape:window-width="1920"
     inkscape:window-height="1043"
     inkscape:window-x="1920"
     inkscape:window-y="0"
     inkscape:window-maximized="1"
     inkscape:current-layer="svg"
     showguides="true" /><g
     style="overflow:hidden;fill:currentColor"
     id="g8132"
     transform="matrix(0.72496508,0,0,0.72496508,68.758731,-11.241268)"><g
       id="g1534"
       transform="matrix(0.48945664,0,0,0.48945664,-0.60180143,-0.60180143)"><path
         id="path1697"
         style="display:inline;fill:#000000;fill-opacity:1;stroke-width:0.999067;stroke-dasharray:none"
         d="M 128.001 42.668491 C 80.641086 42.668491 42.668494 80.641084 42.668494 128.00099 L 42.668494 725.334 C 42.668494 772.6939 80.641086 810.6665 128.001 810.6665 L 640.0015 810.6665 L 383.9985 42.668491 L 128.001 42.668491 z M 526.50372 213.33349 L 554.6635 298.66599 L 895.99901 298.66599 L 895.99901 895.999 L 528.21554 895.999 L 555.94599 981.3315 L 895.99901 981.3315 C 943.35891 981.3315 981.33151 943.35891 981.33151 895.999 L 981.33151 298.66599 C 981.33151 251.30609 943.35891 213.33349 895.99901 213.33349 L 526.50372 213.33349 z M 301.22548 252.16052 C 348.15871 252.16052 387.8428 269.22605 417.28274 298.66599 L 369.49478 342.61198 C 357.12147 330.23869 335.7854 316.15852 301.22548 316.15852 C 241.91892 316.15852 194.55847 364.80147 194.55847 424.10802 C 194.55847 483.41456 241.91892 533.3345 301.22548 533.3345 C 370.34534 533.3345 395.09404 483.41586 400.21404 458.66925 L 301.22548 458.66925 L 301.22548 400.21404 L 464.21754 400.21404 C 466.35088 410.02736 466.77152 416.85367 466.77152 429.22698 C 466.77152 528.21345 400.21194 597.3325 301.22548 597.3325 C 205.22566 597.3325 128.001 520.10782 128.001 424.10802 C 128.001 327.68153 205.22566 252.16052 301.22548 252.16052 z M 682.665 426.6675 L 682.665 469.3365 L 611.84172 469.3365 L 625.49228 512 L 767.9975 512 C 756.47752 538.02662 752.21283 561.92088 717.22623 602.88079 C 700.1596 582.8275 686.50499 565.33014 682.665 554.6635 L 640.0015 554.6635 C 645.1215 573.01012 666.45531 601.60347 692.05527 630.61674 C 686.50861 636.16341 678.82441 643.41294 671.99775 649.38626 L 683.94749 685.22448 C 694.61412 675.83783 705.27709 666.02486 715.94374 656.21154 C 759.46365 701.86479 805.54755 744.10352 805.54755 744.10352 L 829.44153 718.50872 C 829.44153 718.50872 783.78645 673.7075 742.82653 629.33425 C 769.70649 599.46765 793.59986 563.1999 810.66651 512 L 853.33551 512 L 853.33551 469.3365 L 725.334 469.3365 L 725.334 426.6675 L 682.665 426.6675 z " /></g></g></svg>
