<?xml version="1.0" encoding="UTF-8" standalone="no"?>
<svg
   version="1.0"
   width="500pt"
   height="340pt"
   viewBox="0 0 500 340"
   preserveAspectRatio="xMidYMid"
   id="svg367"
   sodipodi:docname="tigo.svg"
   inkscape:version="1.2.1 (0f2f062aeb, 2022-09-21, custom)"
   xmlns:inkscape="http://www.inkscape.org/namespaces/inkscape"
   xmlns:sodipodi="http://sodipodi.sourceforge.net/DTD/sodipodi-0.dtd"
   xmlns="http://www.w3.org/2000/svg"
   xmlns:svg="http://www.w3.org/2000/svg">
  <defs
     id="defs371" />
  <sodipodi:namedview
     id="namedview369"
     pagecolor="#505050"
     bordercolor="#ffffff"
     borderopacity="1"
     inkscape:showpageshadow="0"
     inkscape:pageopacity="0"
     inkscape:pagecheckerboard="1"
     inkscape:deskcolor="#505050"
     inkscape:document-units="pt"
     showgrid="false"
     inkscape:zoom="0.42414532"
     inkscape:cx="-132.03022"
     inkscape:cy="42.438285"
     inkscape:window-width="1920"
     inkscape:window-height="958"
     inkscape:window-x="0"
     inkscape:window-y="27"
     inkscape:window-maximized="1"
     inkscape:current-layer="svg367" />
  <g
     transform="matrix(0.1,0,0,-0.1,46.665906,314.72303)"
     fill="#000000"
     stroke="none"
     id="g365">
    <path
       d="m 3305,2870 c -95,-25 -138,-44 -217,-96 -71,-47 -119,-100 -142,-156 -18,-42 -30,-140 -22,-173 7,-26 7,-26 73,35 75,68 190,130 293,157 92,24 294,24 375,-1 102,-30 195,-86 279,-166 l 79,-75 -6,92 c -7,117 -27,162 -105,236 -148,140 -402,202 -607,147 z"
       id="path351" />
    <path
       d="m 1045,2666 c -115,-51 -140,-202 -49,-288 100,-93 264,-37 290,99 24,128 -121,242 -241,189 z"
       id="path353" />
    <path
       d="M 163,2481 C 120,2450 73,2395 44,2340 26,2307 25,2276 25,1810 v -495 l 23,-58 c 68,-166 203,-250 407,-251 113,-1 177,17 225,63 44,42 60,90 60,179 0,47 -3,62 -12,58 -68,-28 -127,-38 -213,-34 -108,4 -134,17 -175,89 -25,44 -25,47 -28,325 l -4,282 158,3 c 137,4 164,7 193,24 59,35 74,65 79,160 l 5,85 H 526 310 v 135 135 h -53 c -44,0 -62,-6 -94,-29 z"
       id="path355" />
    <path
       d="m 3306,2244 c -210,-51 -358,-208 -417,-444 -18,-72 -21,-104 -16,-220 5,-140 17,-190 67,-290 115,-230 370,-343 645,-285 223,47 392,227 440,467 73,369 -99,694 -410,773 -74,19 -229,18 -309,-1 z m 254,-270 c 22,-9 59,-38 83,-64 62,-69 79,-123 85,-267 4,-105 1,-131 -17,-193 -40,-129 -120,-191 -252,-191 -164,-1 -256,99 -279,304 -19,160 27,323 106,384 70,53 182,64 274,27 z"
       id="path357" />
    <path
       d="m 2145,2236 c -224,-52 -390,-174 -475,-351 -149,-309 -50,-670 230,-835 151,-89 340,-120 531,-86 161,29 253,100 284,221 4,17 7,95 6,174 -1,162 -9,185 -71,220 -31,17 -55,21 -135,21 h -98 l 7,-37 c 14,-79 18,-268 7,-296 -17,-44 -69,-61 -166,-54 -113,8 -187,38 -251,101 -77,77 -98,140 -99,291 0,111 2,124 28,176 34,70 109,142 185,177 53,25 66,27 192,27 149,-1 204,-13 299,-65 79,-44 81,-43 81,48 -1,125 -46,194 -165,249 -55,25 -72,28 -195,30 -88,2 -156,-2 -195,-11 z"
       id="path359" />
    <path
       d="m 970,1752 c 0,-432 1,-464 20,-525 26,-83 88,-155 162,-188 77,-33 239,-39 285,-10 44,27 61,66 69,150 l 7,71 h -69 c -78,0 -126,19 -158,63 -20,27 -21,44 -26,395 -4,242 -9,376 -17,392 -31,68 -91,102 -195,108 l -78,5 z"
       id="path361" />
    <path
       d="m 1930,657 c 0,-165 30,-245 138,-359 150,-159 325,-248 557,-284 382,-59 825,165 925,469 21,63 34,201 23,240 l -8,28 -52,-64 C 3263,375 2783,249 2396,394 2256,447 2119,546 2001,680 l -71,80 z"
       id="path363" />
  </g>
</svg>
