<?xml version="1.0" encoding="UTF-8" standalone="no"?>
<svg
   id="svg"
   version="1.1"
   width="500"
   height="340"
   viewBox="0 0 500 340"
   sodipodi:docname="unicomer.svg"
   inkscape:version="1.2.1 (0f2f062aeb, 2022-09-21, custom)"
   xml:space="preserve"
   xmlns:inkscape="http://www.inkscape.org/namespaces/inkscape"
   xmlns:sodipodi="http://sodipodi.sourceforge.net/DTD/sodipodi-0.dtd"
   xmlns="http://www.w3.org/2000/svg"
   xmlns:svg="http://www.w3.org/2000/svg"><defs
     id="defs510"><rect
       x="24.86235"
       y="410.06543"
       width="609.14688"
       height="239.88722"
       id="rect5915" /><style
       id="style18">.cls-1,.cls-2,.cls-4{fill:#e61e25;}.cls-1{clip-rule:evenodd;}.cls-3{fill:none;}.cls-4{fill-rule:evenodd;}.cls-5{clip-path:url(#clip-path);}.cls-6{clip-path:url(#clip-path-2);}.cls-7{clip-path:url(#clip-path-3);}</style><clipPath
       id="clip-path"
       transform="translate(-12.5 -100.8)"><polygon
         class="cls-1"
         points="423.52,416.39 427.8,419.24 432.08,422.09 434.94,424.95 437.8,430.67 442.08,434.94 444.93,439.22 449.21,444.94 450.64,452.07 452.07,459.21 453.49,467.76 454.92,476.32 454.92,484.89 453.49,494.89 450.64,504.87 449.21,514.86 443.5,524.85 437.8,536.27 434.94,546.26 426.38,553.39 420.67,564.81 410.68,573.38 402.12,581.94 392.13,589.07 383.56,596.21 372.15,603.35 363.58,607.62 346.45,610.48 335.04,616.2 320.77,617.62 309.35,619.04 297.93,619.04 286.52,619.04 259.4,616.2 225.15,600.49 220.87,596.21 213.73,593.35 209.45,589.07 206.59,581.94 199.46,577.66 195.18,570.52 192.32,563.39 188.04,553.39 185.19,546.26 182.33,536.27 179.48,524.85 179.48,514.86 178.05,503.44 178.05,496.31 178.05,493.45 179.48,487.75 179.48,482.04 180.91,477.76 183.76,472.04 189.47,456.35 189.47,450.64 192.32,449.21 192.32,447.78 192.32,449.21 192.32,450.64 193.75,452.07 193.75,450.64 195.18,450.64 195.18,449.21 195.18,447.78 196.6,444.94 196.6,443.5 196.6,442.08 198.03,439.22 199.46,436.37 216.59,419.24 226.57,410.68 228,409.26 229.43,407.82 229.43,406.4 230.86,404.97 230.86,403.54 230.86,402.12 232.28,400.69 228,399.26 226.57,399.26 226.57,396.41 225.15,396.41 223.72,396.41 222.29,396.41 220.87,394.99 218.01,394.99 230.86,379.28 235.14,376.43 235.14,375 235.14,372.14 238,373.57 242.27,373.57 242.27,375 243.7,375 245.13,376.43 246.55,376.43 249.41,377.86 249.41,379.28 250.84,379.28 255.12,380.71 250.84,372.14 249.41,367.86 249.41,366.44 249.41,365.01 249.41,363.59 249.41,362.16 249.41,360.73 249.41,359.3 249.41,357.87 250.84,356.45 252.27,353.59 257.97,349.31 269.39,337.89 275.1,332.19 279.38,329.33 283.66,325.05 289.37,320.77 293.65,317.91 299.36,315.06 306.5,310.78 310.77,309.35 320.77,305.07 330.76,302.21 342.18,299.36 353.59,296.51 365.01,296.51 377.85,296.51 387.85,296.51 400.69,296.51 406.4,296.51 409.25,299.36 416.39,300.79 420.67,302.21 423.52,302.21 427.8,303.64 432.08,303.64 434.94,306.5 437.8,306.5 437.8,307.92 440.65,307.92 457.78,316.49 477.75,325.05 487.75,327.91 497.73,330.76 506.3,333.61 510.58,333.61 514.86,335.04 531.98,335.04 543.4,336.46 550.54,336.46 556.25,335.04 569.09,335.04 579.08,333.61 594.78,335.04 599.06,335.04 603.34,335.04 606.2,335.04 607.63,336.46 610.48,336.46 613.33,336.46 616.19,337.89 620.47,337.89 617.61,335.04 616.19,332.19 614.76,330.76 611.91,329.33 609.06,327.91 607.63,327.91 603.34,325.05 594.78,322.19 591.93,319.34 587.65,319.34 586.22,317.91 601.92,316.49 606.2,315.06 609.06,315.06 610.48,315.06 611.91,315.06 611.91,313.63 613.33,313.63 614.76,310.78 616.19,309.35 616.19,307.92 617.61,307.92 620.47,306.5 620.47,305.07 621.9,303.64 623.33,303.64 624.75,303.64 626.18,302.21 627.61,302.21 630.46,302.21 631.88,302.21 639.02,303.64 641.88,303.64 643.31,303.64 644.74,303.64 649.01,302.21 650.44,300.79 653.29,299.36 654.72,296.51 660.43,295.08 664.71,292.23 670.42,289.37 674.7,286.51 677.56,285.09 680.41,282.24 683.26,282.24 687.55,280.81 698.96,279.38 706.1,277.96 707.53,276.53 711.81,275.1 714.66,273.67 717.51,272.24 720.37,267.96 723.23,266.54 727.51,263.69 730.36,260.83 734.64,256.55 737.5,252.26 731.79,252.26 727.51,253.69 714.66,259.4 698.96,265.11 688.97,267.96 678.99,270.82 667.56,273.67 654.72,275.1 640.45,275.1 624.75,275.1 609.06,273.67 591.93,267.96 570.52,265.11 549.11,257.97 541.98,253.69 536.27,253.69 529.13,250.83 526.28,249.41 523.43,249.41 524.85,246.56 524.85,243.7 526.28,242.28 526.28,239.42 526.28,237.99 526.28,235.14 524.85,232.28 524.85,229.43 523.43,228.01 522,225.15 520.57,225.15 520.57,223.72 517.71,222.29 516.29,220.87 514.86,219.44 512,218.01 507.73,215.16 503.44,213.73 497.73,210.88 493.45,210.88 489.17,209.45 486.32,208.02 483.46,206.6 477.75,203.74 467.76,200.88 460.63,199.46 457.78,199.46 453.49,196.6 444.93,196.6 436.37,196.6 434.94,195.18 429.23,195.18 430.66,193.75 434.94,192.33 439.22,192.33 443.5,190.9 452.07,189.47 457.78,189.47 463.48,189.47 466.34,189.47 474.9,188.04 492.03,189.47 492.03,188.04 489.17,186.61 487.75,185.19 486.32,182.33 484.89,182.33 483.46,182.33 482.03,182.33 480.61,182.33 479.18,182.33 477.75,182.33 473.48,182.33 463.48,182.33 437.8,182.33 424.95,186.61 420.67,188.04 414.96,189.47 409.25,190.9 403.54,190.9 394.98,192.33 386.42,192.33 386.42,190.9 386.42,189.47 387.85,188.04 389.27,186.61 389.27,185.19 389.27,182.33 387.85,182.33 386.42,182.33 383.56,182.33 372.15,182.33 360.73,182.33 349.31,182.33 337.9,185.19 316.49,189.47 297.93,196.6 280.81,203.74 266.54,209.45 255.12,213.73 249.41,216.58 246.55,216.58 249.41,215.16 250.84,210.88 263.68,206.6 292.22,188.04 322.2,170.92 343.6,160.93 429.23,110.98 430.66,109.55 432.08,109.55 434.94,108.12 434.94,106.7 436.37,106.7 436.37,105.27 436.37,103.84 437.8,100.98 406.4,110.98 379.28,119.54 346.45,129.53 315.06,138.09 300.79,139.52 289.37,143.8 280.81,143.8 277.95,145.23 273.67,143.8 272.25,143.8 267.96,145.23 249.41,152.36 235.14,156.65 228,158.07 226.57,159.5 225.15,159.5 223.72,160.93 222.29,162.35 220.87,163.78 220.87,165.21 218.01,165.21 216.59,166.63 215.16,166.63 213.73,168.06 212.3,168.06 210.87,168.06 209.45,168.06 209.45,166.63 209.45,165.21 208.02,165.21 206.59,165.21 206.59,166.63 203.74,166.63 200.89,168.06 199.46,168.06 198.03,168.06 198.03,170.92 196.6,170.92 196.6,172.34 195.18,172.34 193.75,173.77 192.32,173.77 189.47,175.2 192.32,170.92 193.75,168.06 196.6,166.63 199.46,163.78 210.87,153.79 226.57,142.38 229.43,139.52 230.86,139.52 230.86,138.09 232.28,136.66 235.14,135.24 235.14,133.81 235.14,132.38 232.28,132.38 229.43,132.38 228,132.38 225.15,132.38 223.72,133.81 222.29,135.24 220.87,135.24 218.01,136.66 215.16,138.09 212.3,139.52 206.59,145.23 178.05,163.78 175.19,166.63 170.92,168.06 165.21,173.77 163.78,175.2 159.5,176.63 156.64,178.06 152.37,180.91 149.51,182.33 143.8,185.19 140.94,186.61 136.67,188.04 123.82,196.6 123.82,195.18 125.24,193.75 125.24,192.33 126.67,189.47 128.1,186.61 130.96,182.33 135.24,176.63 138.09,172.34 140.94,168.06 138.09,168.06 136.67,170.92 135.24,170.92 135.24,172.34 132.38,173.77 130.96,175.2 129.53,176.63 129.53,178.06 128.1,179.48 125.24,182.33 123.82,182.33 116.69,188.04 113.83,190.9 110.97,192.33 110.97,193.75 109.55,193.75 109.55,195.18 106.69,202.31 103.84,205.17 103.84,206.6 100.99,209.45 99.56,210.88 98.13,210.88 96.7,213.73 92.42,216.58 88.14,220.87 83.86,225.15 78.15,229.43 71.02,236.56 69.59,239.42 68.16,242.28 65.31,243.7 63.88,246.56 58.17,249.41 52.47,253.69 49.61,256.55 43.9,259.4 42.47,260.83 41.04,262.26 39.62,265.11 38.19,266.54 35.34,273.67 35.34,275.1 35.34,277.96 32.48,279.38 31.06,280.81 29.63,282.24 22.49,289.37 21.06,290.8 18.21,292.23 16.79,293.65 15.36,295.08 13.93,296.51 13.93,300.79 12.5,303.64 12.5,306.5 16.79,306.5 21.06,306.5 29.63,307.92 38.19,307.92 43.9,309.35 49.61,309.35 66.74,307.92 82.43,306.5 95.28,305.07 108.12,300.79 130.96,293.65 150.94,285.09 170.92,277.96 182.33,273.67 195.18,270.82 208.02,267.96 222.29,267.96 239.42,267.96 257.97,267.96 277.95,270.82 287.95,272.24 292.22,272.24 297.93,272.24 297.93,277.96 289.37,277.96 282.23,279.38 273.67,280.81 265.11,282.24 246.55,290.8 228,299.36 208.02,307.92 192.32,316.49 178.05,325.05 166.64,332.19 153.79,343.6 140.94,353.59 129.53,366.44 120.97,379.28 109.55,393.55 100.99,407.82 92.42,423.53 86.72,439.22 82.43,456.35 79.58,470.62 78.15,486.31 78.15,499.17 81.01,513.44 83.86,524.85 88.14,537.7 92.42,550.54 99.56,561.95 106.69,571.95 115.26,581.94 125.24,591.93 135.24,600.49 146.65,607.62 158.07,616.2 169.49,621.89 183.76,629.03 193.75,633.31 203.74,636.17 212.3,639.02 222.29,643.3 230.86,644.74 235.14,646.16 239.42,646.16 240.84,646.16 242.27,646.16 249.41,647.58 263.68,649.02 306.5,649.02 349.31,649.02 360.73,649.02 365.01,649.02 366.44,647.58 367.86,647.58 370.72,647.58 370.72,646.16 372.15,646.16 370.72,647.58 369.29,647.58 367.86,646.16 366.44,646.16 365.01,644.74 363.58,644.74 363.58,643.3 363.58,644.74 363.58,646.16 363.58,644.74 363.58,643.3 379.28,639.02 382.13,639.02 386.42,639.02 387.85,639.02 389.27,637.6 392.13,637.6 392.13,636.17 393.55,634.75 394.98,631.89 403.54,631.89 410.68,630.47 420.67,630.47 426.38,629.03 434.94,624.75 440.65,624.75 449.21,621.89 450.64,620.47 453.49,619.04 457.78,616.2 463.48,614.76 463.48,613.34 464.91,613.34 469.19,610.48 477.75,610.48 482.03,610.48 487.75,607.62 507.73,600.49 531.98,591.93 544.83,587.65 554.82,581.94 559.11,579.08 563.38,576.23 566.24,574.8 567.66,573.38 569.09,571.95 563.38,573.38 553.39,576.23 534.84,581.94 522,586.22 510.58,589.07 497.73,590.5 492.03,591.93 486.32,591.93 487.75,590.5 489.17,590.5 489.17,589.07 494.88,586.22 499.16,584.79 500.59,581.94 502.02,581.94 503.44,580.52 503.44,579.08 506.3,579.08 507.73,576.23 510.58,574.8 512,573.38 514.86,573.38 517.71,571.95 516.29,566.25 516.29,564.81 516.29,563.39 514.86,553.39 520.57,550.54 522,549.12 523.43,549.12 523.43,547.68 524.85,546.26 526.28,539.12 526.28,536.27 527.71,530.57 529.13,527.71 529.13,524.85 530.56,523.43 530.56,521.99 534.84,517.72 536.27,513.44 540.55,509.16 549.11,496.31 591.93,449.21 591.93,447.78 593.36,446.36 594.78,443.5 599.06,439.22 606.2,436.37 637.6,417.81 654.72,406.4 663.28,400.69 668.99,394.99 677.56,387.85 680.41,382.14 681.84,379.28 684.69,375 684.69,372.14 686.12,367.86 684.69,370.72 683.26,370.72 681.84,372.14 681.84,373.57 677.56,377.86 677.56,380.71 671.85,382.14 668.99,387.85 663.28,392.13 653.29,399.26 646.16,403.54 641.88,406.4 637.6,407.82 634.74,409.26 630.46,409.26 626.18,410.68 621.9,410.68 613.33,410.68 591.93,410.68 584.79,410.68 579.08,410.68 567.66,413.54 557.68,413.54 551.97,414.96 546.25,414.96 549.11,410.68 550.54,409.26 551.97,409.26 553.39,409.26 553.39,407.82 554.82,407.82 554.82,406.4 556.25,404.97 557.68,400.69 540.55,404.97 536.27,404.97 531.98,406.4 526.28,406.4 520.57,406.4 512,406.4 506.3,404.97 499.16,403.54 493.45,402.12 489.17,400.69 483.46,396.41 473.48,392.13 463.48,386.41 457.78,382.14 452.07,382.14 444.93,379.28 437.8,377.86 429.23,376.43 420.67,375 380.71,373.57 360.73,373.57 340.75,373.57 320.77,376.43 309.35,377.86 299.36,380.71 289.37,382.14 279.38,387.85 269.39,393.55 259.4,399.26 245.13,409.26 235.14,420.67 225.15,430.67 218.01,442.08 213.73,452.07 210.87,457.77 210.87,463.49 209.45,467.76 209.45,473.48 209.45,479.18 210.87,482.04 210.87,487.75 213.73,492.03 215.16,496.31 216.59,500.59 220.87,504.87 222.29,509.16 225.15,510.58 229.43,514.86 232.28,519.14 236.57,520.57 240.84,523.43 246.55,524.85 250.84,524.85 255.12,527.71 266.54,529.13 272.25,529.13 277.95,529.13 280.81,527.71 282.23,527.71 285.09,527.71 286.52,524.85 289.37,524.85 292.22,524.85 293.65,523.43 295.08,521.99 297.93,520.57 299.36,519.14 300.79,517.72 302.22,516.29 306.5,510.58 309.35,507.72 310.77,504.87 312.2,502.02 312.2,499.17 313.63,496.31 313.63,494.89 313.63,492.03 313.63,489.17 313.63,484.89 312.2,479.18 309.35,474.9 307.92,470.62 306.5,467.76 302.22,463.49 299.36,460.63 295.08,456.35 293.65,453.49 292.22,453.49 287.95,444.94 286.52,439.22 285.09,437.8 283.66,433.51 283.66,430.67 283.66,427.81 283.66,424.95 285.09,422.09 286.52,419.24 287.95,416.39 292.22,413.54 292.22,410.68 295.08,409.26 302.22,404.97 309.35,402.12 317.91,399.26 327.9,396.41 337.9,396.41 349.31,396.41 359.3,396.41 370.72,396.41 382.13,399.26 387.85,400.69 392.13,400.69 394.98,402.12 397.83,402.12 400.69,402.12 403.54,403.54 406.4,404.97 409.25,407.82 416.39,410.68 "
         id="polygon20" /></clipPath><clipPath
       id="clip-path-2"
       transform="translate(-12.5 -100.8)"><rect
         class="cls-2"
         x="13.93"
         y="100.98"
         width="724.98999"
         height="549.46002"
         id="rect23" /></clipPath><clipPath
       id="clip-path-3"
       transform="translate(-12.5 -100.8)"><rect
         class="cls-3"
         x="13.93"
         y="100.99"
         width="725"
         height="549.46002"
         id="rect26" /></clipPath><inkscape:path-effect
       effect="bspline"
       id="path-effect863"
       is_visible="true"
       lpeversion="1"
       weight="33.333333"
       steps="2"
       helper_size="0"
       apply_no_weight="true"
       apply_with_weight="true"
       only_selected="false" /></defs><sodipodi:namedview
     id="namedview508"
     pagecolor="#505050"
     bordercolor="#ffffff"
     borderopacity="1"
     inkscape:showpageshadow="0"
     inkscape:pageopacity="0"
     inkscape:pagecheckerboard="1"
     inkscape:deskcolor="#505050"
     showgrid="false"
     inkscape:zoom="1.3582679"
     inkscape:cx="173.01447"
     inkscape:cy="228.96809"
     inkscape:window-width="1920"
     inkscape:window-height="958"
     inkscape:window-x="0"
     inkscape:window-y="27"
     inkscape:window-maximized="1"
     inkscape:current-layer="g12055"
     showguides="true" /><g
     id="g12055"
     transform="translate(1.2499996e-7,-79.999999)"><g
       id="g10552">
</g><g
       id="g10554">
</g><g
       id="g10556">
</g><g
       id="g10558">
</g><g
       id="g10560">
</g><g
       id="g10562">
</g><g
       id="g10564">
</g><g
       id="g10566">
</g><g
       id="g10568">
</g><g
       id="g10570">
</g><g
       id="g10572">
</g><g
       id="g10574">
</g><g
       id="g10576">
</g><g
       id="g10578">
</g><g
       id="g10580">
</g><path
       id="path0"
       d="m 210.93084,90.090969 c -7.58059,7.864291 -13.8823,20.774971 -19.00218,38.923121 -5.2757,18.70379 -0.18523,29.60207 12.68136,27.15018 3.4838,-0.66442 8.97851,-1.29209 21.60694,-2.471 3.07222,-0.28665 7.56737,-0.79819 9.98987,-1.13629 2.42249,-0.33808 5.65788,-0.44834 7.19251,-0.244 5.114,0.67764 8.10096,-3.05164 8.10096,-10.11187 0,-6.778 -16.9075,-38.63501 -24.78795,-46.70214 -9.34161,-9.565041 -11.17025,-10.191254 -15.78151,-5.408001 m 126.70919,8.481681 c -5.46384,1.94769 -24.21612,17.46756 -32.96828,27.28395 -15.43314,17.31321 -15.21118,16.98247 -15.41403,23.0887 -0.23078,6.93379 0.0794,7.37919 7.2234,10.39409 3.23391,1.36561 14.08222,6.10329 24.10738,10.53079 24.99519,11.03649 28.43785,11.35105 34.53525,3.15748 3.50878,-4.71711 5.20807,-24.55717 3.3912,-39.6037 -0.39101,-3.23391 -0.92314,-7.73199 -1.18332,-9.99574 -0.47185,-4.11295 -1.8301,-11.11142 -2.90759,-14.99359 -0.31456,-1.13187 -0.93636,-3.3574 -1.38028,-4.94644 -1.47143,-5.25804 -8.31705,-7.4424 -15.40373,-4.91554 m -118.12021,10.00603 c 3.97772,3.45441 4.13795,3.67051 6.6648,8.97559 5.02727,10.55138 6.87796,20.1855 4.35551,22.66826 -1.43321,1.41117 -21.09689,3.40737 -23.08428,2.3446 -5.27716,-2.82379 -3.91892,-16.04462 3.059,-29.78582 3.6058,-7.09993 4.94642,-7.72466 9.00497,-4.20263 m 122.76677,7.05876 c 4.52747,7.02788 4.77443,38.72465 0.33072,42.32312 -4.94493,4.00271 -29.11405,-2.37987 -32.4244,-8.564 -2.99871,-5.60202 -1.96092,-7.8687 8.25236,-18.01732 14.72607,-14.63345 21.62314,-19.18593 23.84132,-15.7418 m -235.91999,8.82859 c -2.17995,1.15391 -4.24083,5.98127 -5.96068,13.9558 -0.701175,3.2589 -0.51302,24.51308 0.29399,33.00063 0.75262,7.91428 5.05814,13.61921 12.33299,16.3401 6.74416,2.52392 5.11104,3.18394 30.95442,-12.49467 12.4991,-7.58354 15.02448,-12.68135 10.58962,-21.37324 -6.29292,-12.33592 -40.7591,-33.37546 -48.21034,-29.42862 m 13.39577,17.07066 c 7.96278,4.68034 19.99734,18.8302 19.09038,22.4463 -0.62914,2.50776 -12.73574,9.71791 -16.31657,9.71791 -6.52221,0 -11.87581,-15.6345 -10.13244,-29.59325 0.69823,-5.59027 1.65224,-5.92248 7.35863,-2.57096 m 98.8108,26.93411 c -2.10204,0.27635 -6.46783,0.76877 -9.70174,1.09656 -6.94264,0.70267 -11.93462,1.42587 -15.58159,2.25789 -1.45527,0.33073 -4.23349,0.92459 -6.17384,1.31708 -41.72486,8.4552 -82.79998,36.10814 -114.79075,77.28173 -2.013853,2.59155 -3.888054,4.98613 -4.165874,5.3198 -2.669451,3.20745 -21.27768,31.96429 -21.27768,32.8801 0,0.0837 -1.274464,2.37397 -2.831148,5.08901 -3.339751,5.8225 -13.90878,26.84736 -16.169579,32.16714 -2.938453,6.91177 -1.711035,17.2853 2.747357,23.22392 7.385089,9.83993 29.555043,7.1352 42.473059,-5.1816 1.436148,-1.37002 2.003556,-3.35151 2.003556,-7.0029 0,-3.96742 0.191096,-4.45252 5.577031,-14.16454 19.590178,-35.32907 51.217868,-61.81482 85.933948,-71.96491 10.20741,-2.98549 16.25776,-4.09529 26.37993,-4.84351 8.48167,-0.62767 23.38266,-0.2396 29.10523,0.75848 1.77864,0.30872 4.82147,0.79966 6.76182,1.09073 43.32563,6.48253 74.65933,33.2902 98.95191,84.66095 4.54806,9.61649 11.62004,17.15444 19.82096,21.12627 6.51046,3.1531 79.52343,4.55984 87.11579,1.67724 6.86766,-2.60624 13.08707,-11.29665 13.60595,-19.00807 0.2793,-4.15559 -0.26312,-6.07094 -7.18222,-25.32155 -8.47727,-23.58258 -23.69578,-49.96988 -40.31811,-69.9055 -28.61866,-34.32212 -71.40923,-59.38347 -115.84176,-67.84605 -1.77864,-0.33808 -5.18455,-1.02162 -7.56883,-1.51702 -2.38428,-0.49536 -5.22425,-0.90107 -6.31201,-0.90107 -1.08778,0 -3.10603,-0.25135 -4.48487,-0.55711 -8.63749,-1.91977 -38.45124,-2.99432 -48.07654,-1.73307 m 233.13586,2.23433 c -21.83627,1.52581 -63.3671,17.77035 -67.25661,26.3079 -1.24507,2.73265 -0.60121,7.31011 1.5758,11.20992 0.39982,0.71588 2.93698,3.16189 5.63731,5.43738 8.07007,6.79416 21.37764,22.22581 28.85385,33.45486 6.68539,10.04277 16.0564,10.87625 21.18804,1.88596 0.84228,-1.47585 3.25155,-4.66862 5.35654,-7.09404 7.58646,-8.74773 12.61226,-17.37054 18.74348,-32.16128 1.85068,-4.46427 3.59698,-8.64484 3.88068,-9.29161 3.9395,-8.97559 5.40505,-25.66997 2.50923,-28.57313 -1.46408,-1.467 -9.61501,-1.93445 -20.48832,-1.17596 m -190.213,9.75318 c 76.81136,9.2784 133.67242,56.25397 166.33641,137.41199 4.33345,10.7704 3.64697,16.39595 -2.40192,19.69896 -2.08145,1.13627 -25.66844,1.23917 -53.98138,0.23812 l -11.46569,-0.4057 -3.74252,-2.00209 c -5.63143,-3.01342 -8.19062,-5.87103 -12.0978,-13.50894 -28.5187,-55.75416 -80.93753,-95.07416 -129.09787,-96.83664 -61.78248,-2.26227 -118.881651,36.31392 -154.163661,104.15558 -6.858842,13.18554 -10.13832,14.9495 -18.018781,9.68704 -4.795014,-3.20305 -4.799428,-3.2633 -0.937843,-13.01797 35.079154,-88.62251 97.282045,-139.37439 179.588125,-146.53163 6.08857,-0.52919 32.47585,0.20432 39.98293,1.11128 m 194.08928,6.02685 c 1.98738,5.22866 -6.96026,27.64262 -16.28275,40.78261 -6.86474,9.67529 -8.00394,9.65177 -13.8,-0.2837 -2.81204,-4.81853 -9.23723,-11.54507 -14.07048,-14.73048 -4.88761,-3.21923 -5.505,-4.22321 -5.15956,-8.39348 0.42776,-5.14929 0.37337,-5.12134 24.26906,-12.43734 23.46794,-7.18519 24.13823,-7.31747 25.04373,-4.93761 M 34.240022,197.62012 c -7.049937,1.58021 -7.937794,2.49306 -7.937794,8.16563 0,3.82337 0.182282,4.82883 2.231409,12.30799 2.510687,9.16667 6.644217,14.3674 17.186787,21.62459 3.999763,2.75324 5.890126,4.46281 6.610413,5.97393 2.731186,5.7255 6.476648,4.05855 15.772679,-7.01906 1.084839,-1.29358 4.236423,-4.86557 7.001425,-7.93779 8.909439,-9.89725 8.819764,-9.76937 8.819764,-12.59023 0,-10.45877 -33.2711,-24.2029 -49.684683,-20.52506 m 18.900765,11.42748 c 8.394951,2.58861 14.908341,6.94556 14.908341,9.97222 0,2.61947 -10.965909,14.65551 -13.353128,14.65551 -5.106647,0 -14.45413,-17.89679 -12.821,-24.54836 0.439525,-1.78746 5.609376,-1.8242 11.265787,-0.0793"
       stroke="none"
       fill="#ee1b2d"
       fill-rule="evenodd"
       style="fill:#000000;fill-opacity:1;stroke-width:1.46995" /></g></svg>
